<svg xmlns="http://www.w3.org/2000/svg" width="420mm" height="297mm" viewBox="0 0 420 297">
<defs><marker id="a" viewBox="0 0 10 10" refX="5" refY="5" markerWidth="4" markerHeight="4" orient="auto-start-reverse">
<path d="M0,2 L10,5 L0,8 z" fill="#1b2330"/></marker>
<marker id="f" viewBox="0 0 10 10" refX="5" refY="5" markerWidth="5" markerHeight="5" orient="auto">
<path d="M0,1 L10,5 L0,9 z" fill="#1f4e8c"/></marker>
<pattern id="hatch" width="1.6" height="1.6" patternUnits="userSpaceOnUse" patternTransform="rotate(45)">
<rect width="1.6" height="1.6" fill="#eef1f5"/><line x1="0" y1="0" x2="0" y2="1.6" stroke="#1b2330" stroke-width=".18"/></pattern></defs>
<style>
text{font-family:'Helvetica Neue',Arial,sans-serif;fill:#1b2330}
.vt{font-size:3.2px;font-weight:700;letter-spacing:.3px}
.dt{font-size:2.3px}
.dim{stroke:#1b2330;stroke-width:.15;fill:none}
.ext{stroke:#1b2330;stroke-width:.1}
.tb{font-size:2.6px}.tbh{font-size:4.2px;font-weight:700}.tbs{font-size:2.1px;fill:#445}
.nt{font-size:2.3px}.nh{font-size:2.8px;font-weight:700;fill:#1f4e8c}
.co{font-size:2.1px}.col{stroke:#1f4e8c;stroke-width:.15}
</style>
<rect width="420" height="297" fill="#ffffff"/>
<rect x="10" y="10" width="400" height="277" fill="none" stroke="#1b2330" stroke-width=".5"/>
<text x="20.0" y="22.0" class="nh" text-anchor="start" >TERMINAL PLAN 8/10</text>
<rect x="18.0" y="26.0" width="384.0" height="5.5" fill="#f3f5f8" stroke="#1b2330" stroke-width="0.15"/>
<text x="20.0" y="30.0" class="tb" text-anchor="start" >-KF39  EL7047  1 ch stepper 48 V DC 5 A + incremental encoder input</text>
<text x="20.0" y="35.5" class="tbs" text-anchor="start" >terminal</text>
<text x="48.0" y="35.5" class="tbs" text-anchor="start" >ch</text>
<text x="70.0" y="35.5" class="tbs" text-anchor="start" >tag</text>
<text x="118.0" y="35.5" class="tbs" text-anchor="start" >part</text>
<text x="185.0" y="35.5" class="tbs" text-anchor="start" >description</text>
<text x="300.0" y="35.5" class="tbs" text-anchor="start" >cable</text>
<text x="330.0" y="35.5" class="tbs" text-anchor="start" >length</text>
<text x="360.0" y="35.5" class="tbs" text-anchor="start" >cores</text>
<text x="20.0" y="39.7" class="tbs" text-anchor="start" >-KF39</text>
<text x="48.0" y="39.7" class="tbs" text-anchor="start" >1</text>
<text x="70.0" y="39.7" class="tbs" text-anchor="start" >spare</text>
<text x="118.0" y="39.7" class="tbs" text-anchor="start" ></text>
<text x="185.0" y="39.7" class="tbs" text-anchor="start" ></text>
<text x="300.0" y="39.7" class="tbs" text-anchor="start" ></text>
<text x="330.0" y="39.7" class="tbs" text-anchor="start" ></text>
<text x="360.0" y="39.7" class="tbs" text-anchor="start" ></text>
<rect x="18.0" y="42.3" width="384.0" height="5.5" fill="#f3f5f8" stroke="#1b2330" stroke-width="0.15"/>
<text x="20.0" y="46.3" class="tb" text-anchor="start" >-KF40  EL7047  1 ch stepper 48 V DC 5 A + incremental encoder input</text>
<text x="20.0" y="51.8" class="tbs" text-anchor="start" >terminal</text>
<text x="48.0" y="51.8" class="tbs" text-anchor="start" >ch</text>
<text x="70.0" y="51.8" class="tbs" text-anchor="start" >tag</text>
<text x="118.0" y="51.8" class="tbs" text-anchor="start" >part</text>
<text x="185.0" y="51.8" class="tbs" text-anchor="start" >description</text>
<text x="300.0" y="51.8" class="tbs" text-anchor="start" >cable</text>
<text x="330.0" y="51.8" class="tbs" text-anchor="start" >length</text>
<text x="360.0" y="51.8" class="tbs" text-anchor="start" >cores</text>
<text x="20.0" y="56.0" class="tbs" text-anchor="start" >-KF40</text>
<text x="48.0" y="56.0" class="tbs" text-anchor="start" >1</text>
<text x="70.0" y="56.0" class="tbs" text-anchor="start" >spare</text>
<text x="118.0" y="56.0" class="tbs" text-anchor="start" ></text>
<text x="185.0" y="56.0" class="tbs" text-anchor="start" ></text>
<text x="300.0" y="56.0" class="tbs" text-anchor="start" ></text>
<text x="330.0" y="56.0" class="tbs" text-anchor="start" ></text>
<text x="360.0" y="56.0" class="tbs" text-anchor="start" ></text>
<rect x="18.0" y="58.6" width="384.0" height="5.5" fill="#f3f5f8" stroke="#1b2330" stroke-width="0.15"/>
<text x="20.0" y="62.6" class="tb" text-anchor="start" >-KF41  EL7047  1 ch stepper 48 V DC 5 A + incremental encoder input</text>
<text x="20.0" y="68.1" class="tbs" text-anchor="start" >terminal</text>
<text x="48.0" y="68.1" class="tbs" text-anchor="start" >ch</text>
<text x="70.0" y="68.1" class="tbs" text-anchor="start" >tag</text>
<text x="118.0" y="68.1" class="tbs" text-anchor="start" >part</text>
<text x="185.0" y="68.1" class="tbs" text-anchor="start" >description</text>
<text x="300.0" y="68.1" class="tbs" text-anchor="start" >cable</text>
<text x="330.0" y="68.1" class="tbs" text-anchor="start" >length</text>
<text x="360.0" y="68.1" class="tbs" text-anchor="start" >cores</text>
<text x="20.0" y="72.3" class="tbs" text-anchor="start" >-KF41</text>
<text x="48.0" y="72.3" class="tbs" text-anchor="start" >1</text>
<text x="70.0" y="72.3" class="tbs" text-anchor="start" >spare</text>
<text x="118.0" y="72.3" class="tbs" text-anchor="start" ></text>
<text x="185.0" y="72.3" class="tbs" text-anchor="start" ></text>
<text x="300.0" y="72.3" class="tbs" text-anchor="start" ></text>
<text x="330.0" y="72.3" class="tbs" text-anchor="start" ></text>
<text x="360.0" y="72.3" class="tbs" text-anchor="start" ></text>
<rect x="18.0" y="74.9" width="384.0" height="5.5" fill="#f3f5f8" stroke="#1b2330" stroke-width="0.15"/>
<text x="20.0" y="78.9" class="tb" text-anchor="start" >-KF46  EL1904  4 fail-safe DI 24 V (TwinSAFE, clocked test outputs)</text>
<text x="20.0" y="84.4" class="tbs" text-anchor="start" >terminal</text>
<text x="48.0" y="84.4" class="tbs" text-anchor="start" >ch</text>
<text x="70.0" y="84.4" class="tbs" text-anchor="start" >tag</text>
<text x="118.0" y="84.4" class="tbs" text-anchor="start" >part</text>
<text x="185.0" y="84.4" class="tbs" text-anchor="start" >description</text>
<text x="300.0" y="84.4" class="tbs" text-anchor="start" >cable</text>
<text x="330.0" y="84.4" class="tbs" text-anchor="start" >length</text>
<text x="360.0" y="84.4" class="tbs" text-anchor="start" >cores</text>
<text x="20.0" y="88.6" class="tbs" text-anchor="start" >-KF46</text>
<text x="48.0" y="88.6" class="tbs" text-anchor="start" >1</text>
<text x="70.0" y="88.6" class="tbs" text-anchor="start" >Q42.CLA</text>
<text x="118.0" y="88.6" class="tbs" text-anchor="start" >trapdoor_weiss</text>
<text x="185.0" y="88.6" class="tbs" text-anchor="start" >trapdoor closed, safety sensor OSSD A</text>
<text x="300.0" y="88.6" class="tbs" text-anchor="start" >W133</text>
<text x="330.0" y="88.6" class="tbs" text-anchor="start" >1.42 m</text>
<text x="360.0" y="88.6" class="tbs" text-anchor="start" >test pulse out / safe input </text>
<text x="20.0" y="92.2" class="tbs" text-anchor="start" >-KF46</text>
<text x="48.0" y="92.2" class="tbs" text-anchor="start" >2</text>
<text x="70.0" y="92.2" class="tbs" text-anchor="start" >Q42.CLB</text>
<text x="118.0" y="92.2" class="tbs" text-anchor="start" >trapdoor_weiss</text>
<text x="185.0" y="92.2" class="tbs" text-anchor="start" >trapdoor closed, safety sensor OSSD B</text>
<text x="300.0" y="92.2" class="tbs" text-anchor="start" >W134</text>
<text x="330.0" y="92.2" class="tbs" text-anchor="start" >1.42 m</text>
<text x="360.0" y="92.2" class="tbs" text-anchor="start" >test pulse out / safe input </text>
<text x="20.0" y="95.8" class="tbs" text-anchor="start" >-KF46</text>
<text x="48.0" y="95.8" class="tbs" text-anchor="start" >3</text>
<text x="70.0" y="95.8" class="tbs" text-anchor="start" >Q43.CLA</text>
<text x="118.0" y="95.8" class="tbs" text-anchor="start" >trapdoor_rot</text>
<text x="185.0" y="95.8" class="tbs" text-anchor="start" >trapdoor closed, safety sensor OSSD A</text>
<text x="300.0" y="95.8" class="tbs" text-anchor="start" >W136</text>
<text x="330.0" y="95.8" class="tbs" text-anchor="start" >1.42 m</text>
<text x="360.0" y="95.8" class="tbs" text-anchor="start" >test pulse out / safe input </text>
<text x="20.0" y="99.4" class="tbs" text-anchor="start" >-KF46</text>
<text x="48.0" y="99.4" class="tbs" text-anchor="start" >4</text>
<text x="70.0" y="99.4" class="tbs" text-anchor="start" >Q43.CLB</text>
<text x="118.0" y="99.4" class="tbs" text-anchor="start" >trapdoor_rot</text>
<text x="185.0" y="99.4" class="tbs" text-anchor="start" >trapdoor closed, safety sensor OSSD B</text>
<text x="300.0" y="99.4" class="tbs" text-anchor="start" >W137</text>
<text x="330.0" y="99.4" class="tbs" text-anchor="start" >1.42 m</text>
<text x="360.0" y="99.4" class="tbs" text-anchor="start" >test pulse out / safe input </text>
<rect x="18.0" y="102.0" width="384.0" height="5.5" fill="#f3f5f8" stroke="#1b2330" stroke-width="0.15"/>
<text x="20.0" y="106.0" class="tb" text-anchor="start" >-KF47  EL1904  4 fail-safe DI 24 V (TwinSAFE, clocked test outputs)</text>
<text x="20.0" y="111.5" class="tbs" text-anchor="start" >terminal</text>
<text x="48.0" y="111.5" class="tbs" text-anchor="start" >ch</text>
<text x="70.0" y="111.5" class="tbs" text-anchor="start" >tag</text>
<text x="118.0" y="111.5" class="tbs" text-anchor="start" >part</text>
<text x="185.0" y="111.5" class="tbs" text-anchor="start" >description</text>
<text x="300.0" y="111.5" class="tbs" text-anchor="start" >cable</text>
<text x="330.0" y="111.5" class="tbs" text-anchor="start" >length</text>
<text x="360.0" y="111.5" class="tbs" text-anchor="start" >cores</text>
<text x="20.0" y="115.7" class="tbs" text-anchor="start" >-KF47</text>
<text x="48.0" y="115.7" class="tbs" text-anchor="start" >1</text>
<text x="70.0" y="115.7" class="tbs" text-anchor="start" >Q44.CLA</text>
<text x="118.0" y="115.7" class="tbs" text-anchor="start" >trapdoor_blau</text>
<text x="185.0" y="115.7" class="tbs" text-anchor="start" >trapdoor closed, safety sensor OSSD A</text>
<text x="300.0" y="115.7" class="tbs" text-anchor="start" >W139</text>
<text x="330.0" y="115.7" class="tbs" text-anchor="start" >1.43 m</text>
<text x="360.0" y="115.7" class="tbs" text-anchor="start" >test pulse out / safe input </text>
<text x="20.0" y="119.3" class="tbs" text-anchor="start" >-KF47</text>
<text x="48.0" y="119.3" class="tbs" text-anchor="start" >2</text>
<text x="70.0" y="119.3" class="tbs" text-anchor="start" >Q44.CLB</text>
<text x="118.0" y="119.3" class="tbs" text-anchor="start" >trapdoor_blau</text>
<text x="185.0" y="119.3" class="tbs" text-anchor="start" >trapdoor closed, safety sensor OSSD B</text>
<text x="300.0" y="119.3" class="tbs" text-anchor="start" >W140</text>
<text x="330.0" y="119.3" class="tbs" text-anchor="start" >1.43 m</text>
<text x="360.0" y="119.3" class="tbs" text-anchor="start" >test pulse out / safe input </text>
<text x="20.0" y="122.9" class="tbs" text-anchor="start" >-KF47</text>
<text x="48.0" y="122.9" class="tbs" text-anchor="start" >3</text>
<text x="70.0" y="122.9" class="tbs" text-anchor="start" >S10.A</text>
<text x="118.0" y="122.9" class="tbs" text-anchor="start" >estop_S10_head</text>
<text x="185.0" y="122.9" class="tbs" text-anchor="start" >E-stop NC contact A (SF1, 2-channel)</text>
<text x="300.0" y="122.9" class="tbs" text-anchor="start" >W154</text>
<text x="330.0" y="122.9" class="tbs" text-anchor="start" >2.05 m</text>
<text x="360.0" y="122.9" class="tbs" text-anchor="start" >test pulse out / safe input </text>
<text x="20.0" y="126.5" class="tbs" text-anchor="start" >-KF47</text>
<text x="48.0" y="126.5" class="tbs" text-anchor="start" >4</text>
<text x="70.0" y="126.5" class="tbs" text-anchor="start" >S10.B</text>
<text x="118.0" y="126.5" class="tbs" text-anchor="start" >estop_S10_head</text>
<text x="185.0" y="126.5" class="tbs" text-anchor="start" >E-stop NC contact B (SF1, 2-channel)</text>
<text x="300.0" y="126.5" class="tbs" text-anchor="start" >W155</text>
<text x="330.0" y="126.5" class="tbs" text-anchor="start" >2.05 m</text>
<text x="360.0" y="126.5" class="tbs" text-anchor="start" >test pulse out / safe input </text>
<rect x="18.0" y="129.1" width="384.0" height="5.5" fill="#f3f5f8" stroke="#1b2330" stroke-width="0.15"/>
<text x="20.0" y="133.1" class="tb" text-anchor="start" >-KF48  EL1904  4 fail-safe DI 24 V (TwinSAFE, clocked test outputs)</text>
<text x="20.0" y="138.6" class="tbs" text-anchor="start" >terminal</text>
<text x="48.0" y="138.6" class="tbs" text-anchor="start" >ch</text>
<text x="70.0" y="138.6" class="tbs" text-anchor="start" >tag</text>
<text x="118.0" y="138.6" class="tbs" text-anchor="start" >part</text>
<text x="185.0" y="138.6" class="tbs" text-anchor="start" >description</text>
<text x="300.0" y="138.6" class="tbs" text-anchor="start" >cable</text>
<text x="330.0" y="138.6" class="tbs" text-anchor="start" >length</text>
<text x="360.0" y="138.6" class="tbs" text-anchor="start" >cores</text>
<text x="20.0" y="142.8" class="tbs" text-anchor="start" >-KF48</text>
<text x="48.0" y="142.8" class="tbs" text-anchor="start" >1</text>
<text x="70.0" y="142.8" class="tbs" text-anchor="start" >S11.A</text>
<text x="118.0" y="142.8" class="tbs" text-anchor="start" >estop_S11_head</text>
<text x="185.0" y="142.8" class="tbs" text-anchor="start" >E-stop NC contact A (SF1, 2-channel)</text>
<text x="300.0" y="142.8" class="tbs" text-anchor="start" >W156</text>
<text x="330.0" y="142.8" class="tbs" text-anchor="start" >1.71 m</text>
<text x="360.0" y="142.8" class="tbs" text-anchor="start" >test pulse out / safe input </text>
<text x="20.0" y="146.4" class="tbs" text-anchor="start" >-KF48</text>
<text x="48.0" y="146.4" class="tbs" text-anchor="start" >2</text>
<text x="70.0" y="146.4" class="tbs" text-anchor="start" >S11.B</text>
<text x="118.0" y="146.4" class="tbs" text-anchor="start" >estop_S11_head</text>
<text x="185.0" y="146.4" class="tbs" text-anchor="start" >E-stop NC contact B (SF1, 2-channel)</text>
<text x="300.0" y="146.4" class="tbs" text-anchor="start" >W157</text>
<text x="330.0" y="146.4" class="tbs" text-anchor="start" >1.71 m</text>
<text x="360.0" y="146.4" class="tbs" text-anchor="start" >test pulse out / safe input </text>
<text x="20.0" y="150.0" class="tbs" text-anchor="start" >-KF48</text>
<text x="48.0" y="150.0" class="tbs" text-anchor="start" >3</text>
<text x="70.0" y="150.0" class="tbs" text-anchor="start" >S12.A</text>
<text x="118.0" y="150.0" class="tbs" text-anchor="start" >estop_S12_head</text>
<text x="185.0" y="150.0" class="tbs" text-anchor="start" >E-stop NC contact A (SF1, 2-channel)</text>
<text x="300.0" y="150.0" class="tbs" text-anchor="start" >W158</text>
<text x="330.0" y="150.0" class="tbs" text-anchor="start" >2.47 m</text>
<text x="360.0" y="150.0" class="tbs" text-anchor="start" >test pulse out / safe input </text>
<text x="20.0" y="153.6" class="tbs" text-anchor="start" >-KF48</text>
<text x="48.0" y="153.6" class="tbs" text-anchor="start" >4</text>
<text x="70.0" y="153.6" class="tbs" text-anchor="start" >S12.B</text>
<text x="118.0" y="153.6" class="tbs" text-anchor="start" >estop_S12_head</text>
<text x="185.0" y="153.6" class="tbs" text-anchor="start" >E-stop NC contact B (SF1, 2-channel)</text>
<text x="300.0" y="153.6" class="tbs" text-anchor="start" >W159</text>
<text x="330.0" y="153.6" class="tbs" text-anchor="start" >2.47 m</text>
<text x="360.0" y="153.6" class="tbs" text-anchor="start" >test pulse out / safe input </text>
<rect x="18.0" y="156.2" width="384.0" height="5.5" fill="#f3f5f8" stroke="#1b2330" stroke-width="0.15"/>
<text x="20.0" y="160.2" class="tb" text-anchor="start" >-KF49  EL1904  4 fail-safe DI 24 V (TwinSAFE, clocked test outputs)</text>
<text x="20.0" y="165.7" class="tbs" text-anchor="start" >terminal</text>
<text x="48.0" y="165.7" class="tbs" text-anchor="start" >ch</text>
<text x="70.0" y="165.7" class="tbs" text-anchor="start" >tag</text>
<text x="118.0" y="165.7" class="tbs" text-anchor="start" >part</text>
<text x="185.0" y="165.7" class="tbs" text-anchor="start" >description</text>
<text x="300.0" y="165.7" class="tbs" text-anchor="start" >cable</text>
<text x="330.0" y="165.7" class="tbs" text-anchor="start" >length</text>
<text x="360.0" y="165.7" class="tbs" text-anchor="start" >cores</text>
<text x="20.0" y="169.9" class="tbs" text-anchor="start" >-KF49</text>
<text x="48.0" y="169.9" class="tbs" text-anchor="start" >1</text>
<text x="70.0" y="169.9" class="tbs" text-anchor="start" >S13</text>
<text x="118.0" y="169.9" class="tbs" text-anchor="start" >reset_S13_head</text>
<text x="185.0" y="169.9" class="tbs" text-anchor="start" >reset pushbutton (manual reset on the falling ed</text>
<text x="300.0" y="169.9" class="tbs" text-anchor="start" >W160</text>
<text x="330.0" y="169.9" class="tbs" text-anchor="start" >2.09 m</text>
<text x="360.0" y="169.9" class="tbs" text-anchor="start" >test pulse out / safe input </text>
<text x="20.0" y="173.5" class="tbs" text-anchor="start" >-KF49</text>
<text x="48.0" y="173.5" class="tbs" text-anchor="start" >2</text>
<text x="70.0" y="173.5" class="tbs" text-anchor="start" >S20.A</text>
<text x="118.0" y="173.5" class="tbs" text-anchor="start" >lock_S20</text>
<text x="185.0" y="173.5" class="tbs" text-anchor="start" >door closed AND locked, OSSD A (SF2)</text>
<text x="300.0" y="173.5" class="tbs" text-anchor="start" >W124</text>
<text x="330.0" y="173.5" class="tbs" text-anchor="start" >1.95 m</text>
<text x="360.0" y="173.5" class="tbs" text-anchor="start" >test pulse out / safe input </text>
<text x="20.0" y="177.1" class="tbs" text-anchor="start" >-KF49</text>
<text x="48.0" y="177.1" class="tbs" text-anchor="start" >3</text>
<text x="70.0" y="177.1" class="tbs" text-anchor="start" >S20.B</text>
<text x="118.0" y="177.1" class="tbs" text-anchor="start" >lock_S20</text>
<text x="185.0" y="177.1" class="tbs" text-anchor="start" >door closed AND locked, OSSD B (SF2)</text>
<text x="300.0" y="177.1" class="tbs" text-anchor="start" >W125</text>
<text x="330.0" y="177.1" class="tbs" text-anchor="start" >1.95 m</text>
<text x="360.0" y="177.1" class="tbs" text-anchor="start" >test pulse out / safe input </text>
<text x="20.0" y="180.7" class="tbs" text-anchor="start" >-KF49</text>
<text x="48.0" y="180.7" class="tbs" text-anchor="start" >4</text>
<text x="70.0" y="180.7" class="tbs" text-anchor="start" >S21.A</text>
<text x="118.0" y="180.7" class="tbs" text-anchor="start" >lock_S21</text>
<text x="185.0" y="180.7" class="tbs" text-anchor="start" >door closed AND locked, OSSD A (SF2)</text>
<text x="300.0" y="180.7" class="tbs" text-anchor="start" >W127</text>
<text x="330.0" y="180.7" class="tbs" text-anchor="start" >1.67 m</text>
<text x="360.0" y="180.7" class="tbs" text-anchor="start" >test pulse out / safe input </text>
<rect x="18.0" y="183.3" width="384.0" height="5.5" fill="#f3f5f8" stroke="#1b2330" stroke-width="0.15"/>
<text x="20.0" y="187.3" class="tb" text-anchor="start" >-KF50  EL1904  4 fail-safe DI 24 V (TwinSAFE, clocked test outputs)</text>
<text x="20.0" y="192.8" class="tbs" text-anchor="start" >terminal</text>
<text x="48.0" y="192.8" class="tbs" text-anchor="start" >ch</text>
<text x="70.0" y="192.8" class="tbs" text-anchor="start" >tag</text>
<text x="118.0" y="192.8" class="tbs" text-anchor="start" >part</text>
<text x="185.0" y="192.8" class="tbs" text-anchor="start" >description</text>
<text x="300.0" y="192.8" class="tbs" text-anchor="start" >cable</text>
<text x="330.0" y="192.8" class="tbs" text-anchor="start" >length</text>
<text x="360.0" y="192.8" class="tbs" text-anchor="start" >cores</text>
<text x="20.0" y="197.0" class="tbs" text-anchor="start" >-KF50</text>
<text x="48.0" y="197.0" class="tbs" text-anchor="start" >1</text>
<text x="70.0" y="197.0" class="tbs" text-anchor="start" >S21.B</text>
<text x="118.0" y="197.0" class="tbs" text-anchor="start" >lock_S21</text>
<text x="185.0" y="197.0" class="tbs" text-anchor="start" >door closed AND locked, OSSD B (SF2)</text>
<text x="300.0" y="197.0" class="tbs" text-anchor="start" >W128</text>
<text x="330.0" y="197.0" class="tbs" text-anchor="start" >1.67 m</text>
<text x="360.0" y="197.0" class="tbs" text-anchor="start" >test pulse out / safe input </text>
<text x="20.0" y="200.6" class="tbs" text-anchor="start" >-KF50</text>
<text x="48.0" y="200.6" class="tbs" text-anchor="start" >2</text>
<text x="70.0" y="200.6" class="tbs" text-anchor="start" >S22.A</text>
<text x="118.0" y="200.6" class="tbs" text-anchor="start" >lock_S22</text>
<text x="185.0" y="200.6" class="tbs" text-anchor="start" >door closed AND locked, OSSD A (SF2)</text>
<text x="300.0" y="200.6" class="tbs" text-anchor="start" >W130</text>
<text x="330.0" y="200.6" class="tbs" text-anchor="start" >2.24 m</text>
<text x="360.0" y="200.6" class="tbs" text-anchor="start" >test pulse out / safe input </text>
<text x="20.0" y="204.2" class="tbs" text-anchor="start" >-KF50</text>
<text x="48.0" y="204.2" class="tbs" text-anchor="start" >3</text>
<text x="70.0" y="204.2" class="tbs" text-anchor="start" >S22.B</text>
<text x="118.0" y="204.2" class="tbs" text-anchor="start" >lock_S22</text>
<text x="185.0" y="204.2" class="tbs" text-anchor="start" >door closed AND locked, OSSD B (SF2)</text>
<text x="300.0" y="204.2" class="tbs" text-anchor="start" >W131</text>
<text x="330.0" y="204.2" class="tbs" text-anchor="start" >2.24 m</text>
<text x="360.0" y="204.2" class="tbs" text-anchor="start" >test pulse out / safe input </text>
<text x="20.0" y="207.8" class="tbs" text-anchor="start" >-KF50</text>
<text x="48.0" y="207.8" class="tbs" text-anchor="start" >4</text>
<text x="70.0" y="207.8" class="tbs" text-anchor="start" >S30.A</text>
<text x="118.0" y="207.8" class="tbs" text-anchor="start" >aldoor_boxes</text>
<text x="185.0" y="207.8" class="tbs" text-anchor="start" >boxes airlock outer door closed AND locked, OSSD</text>
<text x="300.0" y="207.8" class="tbs" text-anchor="start" >W142</text>
<text x="330.0" y="207.8" class="tbs" text-anchor="start" >1.88 m</text>
<text x="360.0" y="207.8" class="tbs" text-anchor="start" >test pulse out / safe input </text>
<rect x="230" y="249" width="180" height="38" fill="#fff" stroke="#1b2330" stroke-width=".35"/>
<rect x="230" y="249" width="180" height="9" fill="#1f4e8c"/>
<text x="233" y="255.3" class="tbh" style="fill:#fff">STF-2 CONTINUOUS COOKIE LINE</text>
<text x="233" y="264" class="tbh" style="font-size:3.6px">Electrical E17 - terminal plan</text>
<text x="233" y="269" class="tbs">every channel -&gt; tag -&gt; cable</text>
<text x="233" y="275" class="tbs">SCALE</text><text x="233" y="278" class="tb">none</text>
<text x="293" y="275" class="tbs">SHEET</text><text x="293" y="278" class="tb">12 / 14</text>
<text x="353" y="275" class="tbs">DATE</text><text x="353" y="278" class="tb">2026-09-29</text>
<text x="233" y="281" class="tbs">UNITS</text><text x="233" y="284" class="tb">mm, deg</text>
<text x="293" y="281" class="tbs">PROJECTION</text><text x="293" y="284" class="tb">third angle</text>
<text x="353" y="281" class="tbs">SOURCE</text><text x="353" y="284" class="tb">line_model.py (generated - do not edit)</text>
</svg>