ISO-10303-21;
HEADER;
FILE_DESCRIPTION(('FreeCAD Model'),'2;1');
FILE_NAME('Open CASCADE Shape Model','2026-09-27T12:27:38',(''),(''),
  'Open CASCADE STEP processor 7.8','FreeCAD','Unknown');
FILE_SCHEMA(('AUTOMOTIVE_DESIGN { 1 0 10303 214 1 1 1 1 }'));
ENDSEC;
DATA;
#1 = APPLICATION_PROTOCOL_DEFINITION('international standard',
  'automotive_design',2000,#2);
#2 = APPLICATION_CONTEXT(
  'core data for automotive mechanical design processes');
#3 = SHAPE_DEFINITION_REPRESENTATION(#4,#10);
#4 = PRODUCT_DEFINITION_SHAPE('','',#5);
#5 = PRODUCT_DEFINITION('design','',#6,#9);
#6 = PRODUCT_DEFINITION_FORMATION('','',#7);
#7 = PRODUCT('ft_128599_colour_sensor','ft_128599_colour_sensor','',(#8)
  );
#8 = PRODUCT_CONTEXT('',#2,'mechanical');
#9 = PRODUCT_DEFINITION_CONTEXT('part definition',#2,'design');
#10 = SHAPE_REPRESENTATION('',(#11,#15,#19,#23,#27,#31,#35),#39);
#11 = AXIS2_PLACEMENT_3D('',#12,#13,#14);
#12 = CARTESIAN_POINT('',(0.,0.,0.));
#13 = DIRECTION('',(0.,0.,1.));
#14 = DIRECTION('',(1.,0.,-0.));
#15 = AXIS2_PLACEMENT_3D('',#16,#17,#18);
#16 = CARTESIAN_POINT('',(0.,0.,0.));
#17 = DIRECTION('',(0.,0.,1.));
#18 = DIRECTION('',(1.,0.,0.));
#19 = AXIS2_PLACEMENT_3D('',#20,#21,#22);
#20 = CARTESIAN_POINT('',(0.,0.,0.));
#21 = DIRECTION('',(0.,0.,1.));
#22 = DIRECTION('',(1.,0.,0.));
#23 = AXIS2_PLACEMENT_3D('',#24,#25,#26);
#24 = CARTESIAN_POINT('',(0.,0.,0.));
#25 = DIRECTION('',(0.,0.,1.));
#26 = DIRECTION('',(1.,0.,0.));
#27 = AXIS2_PLACEMENT_3D('',#28,#29,#30);
#28 = CARTESIAN_POINT('',(0.,0.,0.));
#29 = DIRECTION('',(0.,0.,1.));
#30 = DIRECTION('',(1.,0.,0.));
#31 = AXIS2_PLACEMENT_3D('',#32,#33,#34);
#32 = CARTESIAN_POINT('',(0.,0.,0.));
#33 = DIRECTION('',(0.,0.,1.));
#34 = DIRECTION('',(1.,0.,0.));
#35 = AXIS2_PLACEMENT_3D('',#36,#37,#38);
#36 = CARTESIAN_POINT('',(0.,0.,0.));
#37 = DIRECTION('',(0.,0.,1.));
#38 = DIRECTION('',(1.,0.,0.));
#39 = ( GEOMETRIC_REPRESENTATION_CONTEXT(3) 
GLOBAL_UNCERTAINTY_ASSIGNED_CONTEXT((#43)) GLOBAL_UNIT_ASSIGNED_CONTEXT(
(#40,#41,#42)) REPRESENTATION_CONTEXT('Context #1',
  '3D Context with UNIT and UNCERTAINTY') );
#40 = ( LENGTH_UNIT() NAMED_UNIT(*) SI_UNIT(.MILLI.,.METRE.) );
#41 = ( NAMED_UNIT(*) PLANE_ANGLE_UNIT() SI_UNIT($,.RADIAN.) );
#42 = ( NAMED_UNIT(*) SI_UNIT($,.STERADIAN.) SOLID_ANGLE_UNIT() );
#43 = UNCERTAINTY_MEASURE_WITH_UNIT(LENGTH_MEASURE(1.E-07),#40,
  'distance_accuracy_value','confusion accuracy');
#44 = PRODUCT_RELATED_PRODUCT_CATEGORY('part',$,(#7));
#45 = SHAPE_DEFINITION_REPRESENTATION(#46,#52);
#46 = PRODUCT_DEFINITION_SHAPE('','',#47);
#47 = PRODUCT_DEFINITION('design','',#48,#51);
#48 = PRODUCT_DEFINITION_FORMATION('','',#49);
#49 = PRODUCT('housing','housing','',(#50));
#50 = PRODUCT_CONTEXT('',#2,'mechanical');
#51 = PRODUCT_DEFINITION_CONTEXT('part definition',#2,'design');
#52 = ADVANCED_BREP_SHAPE_REPRESENTATION('',(#11,#53),#1331);
#53 = MANIFOLD_SOLID_BREP('',#54);
#54 = CLOSED_SHELL('',(#55,#127,#158,#189,#245,#301,#357,#381,#412,#443,
    #459,#475,#528,#552,#576,#694,#718,#759,#776,#800,#841,#858,#882,
    #899,#915,#931,#962,#993,#1010,#1027,#1049,#1074,#1099,#1110,#1127,
    #1144,#1156,#1173,#1190,#1202,#1224,#1246,#1262,#1274,#1291,#1302,
    #1311,#1320));
#55 = ADVANCED_FACE('',(#56),#122,.F.);
#56 = FACE_BOUND('',#57,.F.);
#57 = EDGE_LOOP('',(#58,#68,#76,#84,#92,#100,#108,#116));
#58 = ORIENTED_EDGE('',*,*,#59,.F.);
#59 = EDGE_CURVE('',#60,#62,#64,.T.);
#60 = VERTEX_POINT('',#61);
#61 = CARTESIAN_POINT('',(-2.775557561563E-17,0.4,0.4));
#62 = VERTEX_POINT('',#63);
#63 = CARTESIAN_POINT('',(-4.163336342344E-16,0.4,14.6));
#64 = LINE('',#65,#66);
#65 = CARTESIAN_POINT('',(0.,0.4,0.));
#66 = VECTOR('',#67,1.);
#67 = DIRECTION('',(0.,0.,1.));
#68 = ORIENTED_EDGE('',*,*,#69,.T.);
#69 = EDGE_CURVE('',#60,#70,#72,.T.);
#70 = VERTEX_POINT('',#71);
#71 = CARTESIAN_POINT('',(-4.163336342344E-16,14.6,0.4));
#72 = LINE('',#73,#74);
#73 = CARTESIAN_POINT('',(0.,0.,0.4));
#74 = VECTOR('',#75,1.);
#75 = DIRECTION('',(-0.,1.,0.));
#76 = ORIENTED_EDGE('',*,*,#77,.T.);
#77 = EDGE_CURVE('',#70,#78,#80,.T.);
#78 = VERTEX_POINT('',#79);
#79 = CARTESIAN_POINT('',(-7.632783294298E-16,14.6,14.6));
#80 = LINE('',#81,#82);
#81 = CARTESIAN_POINT('',(0.,14.6,0.));
#82 = VECTOR('',#83,1.);
#83 = DIRECTION('',(0.,0.,1.));
#84 = ORIENTED_EDGE('',*,*,#85,.F.);
#85 = EDGE_CURVE('',#86,#78,#88,.T.);
#86 = VERTEX_POINT('',#87);
#87 = CARTESIAN_POINT('',(0.,9.168144044321,14.6));
#88 = LINE('',#89,#90);
#89 = CARTESIAN_POINT('',(0.,0.,14.6));
#90 = VECTOR('',#91,1.);
#91 = DIRECTION('',(-0.,1.,0.));
#92 = ORIENTED_EDGE('',*,*,#93,.F.);
#93 = EDGE_CURVE('',#94,#86,#96,.T.);
#94 = VERTEX_POINT('',#95);
#95 = CARTESIAN_POINT('',(0.,9.7,11.4));
#96 = LINE('',#97,#98);
#97 = CARTESIAN_POINT('',(0.,10.191526347623,8.442649808469));
#98 = VECTOR('',#99,1.);
#99 = DIRECTION('',(0.,-0.163955846806,0.986467678284));
#100 = ORIENTED_EDGE('',*,*,#101,.F.);
#101 = EDGE_CURVE('',#102,#94,#104,.T.);
#102 = VERTEX_POINT('',#103);
#103 = CARTESIAN_POINT('',(0.,5.3,11.4));
#104 = LINE('',#105,#106);
#105 = CARTESIAN_POINT('',(0.,4.85,11.4));
#106 = VECTOR('',#107,1.);
#107 = DIRECTION('',(0.,1.,0.));
#108 = ORIENTED_EDGE('',*,*,#109,.F.);
#109 = EDGE_CURVE('',#110,#102,#112,.T.);
#110 = VERTEX_POINT('',#111);
#111 = CARTESIAN_POINT('',(0.,5.831855955679,14.6));
#112 = LINE('',#113,#114);
#113 = CARTESIAN_POINT('',(0.,4.306862254613,5.42462123192));
#114 = VECTOR('',#115,1.);
#115 = DIRECTION('',(0.,-0.163955846806,-0.986467678284));
#116 = ORIENTED_EDGE('',*,*,#117,.F.);
#117 = EDGE_CURVE('',#62,#110,#118,.T.);
#118 = LINE('',#119,#120);
#119 = CARTESIAN_POINT('',(0.,0.,14.6));
#120 = VECTOR('',#121,1.);
#121 = DIRECTION('',(-0.,1.,0.));
#122 = PLANE('',#123);
#123 = AXIS2_PLACEMENT_3D('',#124,#125,#126);
#124 = CARTESIAN_POINT('',(0.,0.,0.));
#125 = DIRECTION('',(1.,0.,-0.));
#126 = DIRECTION('',(0.,0.,1.));
#127 = ADVANCED_FACE('',(#128),#153,.T.);
#128 = FACE_BOUND('',#129,.F.);
#129 = EDGE_LOOP('',(#130,#131,#139,#147));
#130 = ORIENTED_EDGE('',*,*,#59,.T.);
#131 = ORIENTED_EDGE('',*,*,#132,.T.);
#132 = EDGE_CURVE('',#62,#133,#135,.T.);
#133 = VERTEX_POINT('',#134);
#134 = CARTESIAN_POINT('',(0.4,-4.163336342344E-16,14.6));
#135 = LINE('',#136,#137);
#136 = CARTESIAN_POINT('',(0.2,0.2,14.6));
#137 = VECTOR('',#138,1.);
#138 = DIRECTION('',(0.707106781187,-0.707106781187,2.712060661372E-17)
  );
#139 = ORIENTED_EDGE('',*,*,#140,.F.);
#140 = EDGE_CURVE('',#141,#133,#143,.T.);
#141 = VERTEX_POINT('',#142);
#142 = CARTESIAN_POINT('',(0.4,-2.775557561563E-17,0.4));
#143 = LINE('',#144,#145);
#144 = CARTESIAN_POINT('',(0.4,0.,0.));
#145 = VECTOR('',#146,1.);
#146 = DIRECTION('',(0.,0.,1.));
#147 = ORIENTED_EDGE('',*,*,#148,.F.);
#148 = EDGE_CURVE('',#60,#141,#149,.T.);
#149 = LINE('',#150,#151);
#150 = CARTESIAN_POINT('',(0.2,0.2,0.4));
#151 = VECTOR('',#152,1.);
#152 = DIRECTION('',(0.707106781187,-0.707106781187,5.872217097142E-18)
  );
#153 = PLANE('',#154);
#154 = AXIS2_PLACEMENT_3D('',#155,#156,#157);
#155 = CARTESIAN_POINT('',(0.2,0.2,0.));
#156 = DIRECTION('',(-0.707106781187,-0.707106781187,-1.679829943626E-18
    ));
#157 = DIRECTION('',(1.187819144378E-18,1.187819144378E-18,-1.));
#158 = ADVANCED_FACE('',(#159),#184,.F.);
#159 = FACE_BOUND('',#160,.F.);
#160 = EDGE_LOOP('',(#161,#171,#177,#178));
#161 = ORIENTED_EDGE('',*,*,#162,.F.);
#162 = EDGE_CURVE('',#163,#165,#167,.T.);
#163 = VERTEX_POINT('',#164);
#164 = CARTESIAN_POINT('',(0.4,0.4,15.));
#165 = VERTEX_POINT('',#166);
#166 = CARTESIAN_POINT('',(0.4,5.898337950139,15.));
#167 = LINE('',#168,#169);
#168 = CARTESIAN_POINT('',(0.4,0.,15.));
#169 = VECTOR('',#170,1.);
#170 = DIRECTION('',(-0.,1.,0.));
#171 = ORIENTED_EDGE('',*,*,#172,.T.);
#172 = EDGE_CURVE('',#163,#62,#173,.T.);
#173 = LINE('',#174,#175);
#174 = CARTESIAN_POINT('',(0.3,0.4,14.9));
#175 = VECTOR('',#176,1.);
#176 = DIRECTION('',(-0.707106781187,1.067160332643E-15,-0.707106781187)
  );
#177 = ORIENTED_EDGE('',*,*,#117,.T.);
#178 = ORIENTED_EDGE('',*,*,#179,.F.);
#179 = EDGE_CURVE('',#165,#110,#180,.T.);
#180 = LINE('',#181,#182);
#181 = CARTESIAN_POINT('',(-1.197875053928,5.632763148932,
    13.402124946072));
#182 = VECTOR('',#183,1.);
#183 = DIRECTION('',(-0.702273495483,-0.11672135659,-0.702273495483));
#184 = PLANE('',#185);
#185 = AXIS2_PLACEMENT_3D('',#186,#187,#188);
#186 = CARTESIAN_POINT('',(0.2,0.,14.8));
#187 = DIRECTION('',(0.707106781187,1.102531706024E-18,-0.707106781187)
  );
#188 = DIRECTION('',(-7.79607645803E-19,1.,7.79607645803E-19));
#189 = ADVANCED_FACE('',(#190),#240,.F.);
#190 = FACE_BOUND('',#191,.F.);
#191 = EDGE_LOOP('',(#192,#193,#194,#202,#210,#218,#226,#234));
#192 = ORIENTED_EDGE('',*,*,#179,.T.);
#193 = ORIENTED_EDGE('',*,*,#109,.T.);
#194 = ORIENTED_EDGE('',*,*,#195,.T.);
#195 = EDGE_CURVE('',#102,#196,#198,.T.);
#196 = VERTEX_POINT('',#197);
#197 = CARTESIAN_POINT('',(28.5,5.3,11.4));
#198 = LINE('',#199,#200);
#199 = CARTESIAN_POINT('',(-1.,5.3,11.4));
#200 = VECTOR('',#201,1.);
#201 = DIRECTION('',(1.,0.,0.));
#202 = ORIENTED_EDGE('',*,*,#203,.T.);
#203 = EDGE_CURVE('',#196,#204,#206,.T.);
#204 = VERTEX_POINT('',#205);
#205 = CARTESIAN_POINT('',(28.5,5.6,13.205));
#206 = LINE('',#207,#208);
#207 = CARTESIAN_POINT('',(28.5,4.446870169727,6.267002187857));
#208 = VECTOR('',#209,1.);
#209 = DIRECTION('',(0.,0.163955846806,0.986467678284));
#210 = ORIENTED_EDGE('',*,*,#211,.F.);
#211 = EDGE_CURVE('',#212,#204,#214,.T.);
#212 = VERTEX_POINT('',#213);
#213 = CARTESIAN_POINT('',(30.,5.6,13.205));
#214 = LINE('',#215,#216);
#215 = CARTESIAN_POINT('',(13.75,5.6,13.205));
#216 = VECTOR('',#217,1.);
#217 = DIRECTION('',(-1.,-0.,0.));
#218 = ORIENTED_EDGE('',*,*,#219,.F.);
#219 = EDGE_CURVE('',#220,#212,#222,.T.);
#220 = VERTEX_POINT('',#221);
#221 = CARTESIAN_POINT('',(30.,5.831855955679,14.6));
#222 = LINE('',#223,#224);
#223 = CARTESIAN_POINT('',(30.,4.306862254613,5.42462123192));
#224 = VECTOR('',#225,1.);
#225 = DIRECTION('',(0.,-0.163955846806,-0.986467678284));
#226 = ORIENTED_EDGE('',*,*,#227,.F.);
#227 = EDGE_CURVE('',#228,#220,#230,.T.);
#228 = VERTEX_POINT('',#229);
#229 = CARTESIAN_POINT('',(29.6,5.898337950139,15.));
#230 = LINE('',#231,#232);
#231 = CARTESIAN_POINT('',(23.306866054601,6.944288190371,
    21.293133945399));
#232 = VECTOR('',#233,1.);
#233 = DIRECTION('',(0.702273495483,-0.11672135659,-0.702273495483));
#234 = ORIENTED_EDGE('',*,*,#235,.F.);
#235 = EDGE_CURVE('',#165,#228,#236,.T.);
#236 = LINE('',#237,#238);
#237 = CARTESIAN_POINT('',(-0.5,5.898337950139,15.));
#238 = VECTOR('',#239,1.);
#239 = DIRECTION('',(1.,0.,-0.));
#240 = PLANE('',#241);
#241 = AXIS2_PLACEMENT_3D('',#242,#243,#244);
#242 = CARTESIAN_POINT('',(-1.,5.3,11.4));
#243 = DIRECTION('',(0.,-0.986467678284,0.163955846806));
#244 = DIRECTION('',(0.,0.163955846806,0.986467678284));
#245 = ADVANCED_FACE('',(#246),#296,.F.);
#246 = FACE_BOUND('',#247,.F.);
#247 = EDGE_LOOP('',(#248,#249,#250,#258,#266,#274,#282,#290));
#248 = ORIENTED_EDGE('',*,*,#195,.F.);
#249 = ORIENTED_EDGE('',*,*,#101,.T.);
#250 = ORIENTED_EDGE('',*,*,#251,.T.);
#251 = EDGE_CURVE('',#94,#252,#254,.T.);
#252 = VERTEX_POINT('',#253);
#253 = CARTESIAN_POINT('',(28.5,9.7,11.4));
#254 = LINE('',#255,#256);
#255 = CARTESIAN_POINT('',(-1.,9.7,11.4));
#256 = VECTOR('',#257,1.);
#257 = DIRECTION('',(1.,0.,0.));
#258 = ORIENTED_EDGE('',*,*,#259,.T.);
#259 = EDGE_CURVE('',#252,#260,#262,.T.);
#260 = VERTEX_POINT('',#261);
#261 = CARTESIAN_POINT('',(28.5,9.4,11.4));
#262 = LINE('',#263,#264);
#263 = CARTESIAN_POINT('',(28.5,9.55,11.4));
#264 = VECTOR('',#265,1.);
#265 = DIRECTION('',(0.,-1.,0.));
#266 = ORIENTED_EDGE('',*,*,#267,.T.);
#267 = EDGE_CURVE('',#260,#268,#270,.T.);
#268 = VERTEX_POINT('',#269);
#269 = CARTESIAN_POINT('',(30.,9.4,11.4));
#270 = LINE('',#271,#272);
#271 = CARTESIAN_POINT('',(13.75,9.4,11.4));
#272 = VECTOR('',#273,1.);
#273 = DIRECTION('',(1.,0.,0.));
#274 = ORIENTED_EDGE('',*,*,#275,.F.);
#275 = EDGE_CURVE('',#276,#268,#278,.T.);
#276 = VERTEX_POINT('',#277);
#277 = CARTESIAN_POINT('',(30.,5.6,11.4));
#278 = LINE('',#279,#280);
#279 = CARTESIAN_POINT('',(30.,4.85,11.4));
#280 = VECTOR('',#281,1.);
#281 = DIRECTION('',(0.,1.,0.));
#282 = ORIENTED_EDGE('',*,*,#283,.F.);
#283 = EDGE_CURVE('',#284,#276,#286,.T.);
#284 = VERTEX_POINT('',#285);
#285 = CARTESIAN_POINT('',(28.5,5.6,11.4));
#286 = LINE('',#287,#288);
#287 = CARTESIAN_POINT('',(13.75,5.6,11.4));
#288 = VECTOR('',#289,1.);
#289 = DIRECTION('',(1.,0.,0.));
#290 = ORIENTED_EDGE('',*,*,#291,.T.);
#291 = EDGE_CURVE('',#284,#196,#292,.T.);
#292 = LINE('',#293,#294);
#293 = CARTESIAN_POINT('',(28.5,7.05,11.4));
#294 = VECTOR('',#295,1.);
#295 = DIRECTION('',(0.,-1.,0.));
#296 = PLANE('',#297);
#297 = AXIS2_PLACEMENT_3D('',#298,#299,#300);
#298 = CARTESIAN_POINT('',(-1.,9.7,11.4));
#299 = DIRECTION('',(0.,0.,-1.));
#300 = DIRECTION('',(0.,-1.,0.));
#301 = ADVANCED_FACE('',(#302),#352,.F.);
#302 = FACE_BOUND('',#303,.F.);
#303 = EDGE_LOOP('',(#304,#305,#306,#314,#322,#330,#338,#346));
#304 = ORIENTED_EDGE('',*,*,#251,.F.);
#305 = ORIENTED_EDGE('',*,*,#93,.T.);
#306 = ORIENTED_EDGE('',*,*,#307,.T.);
#307 = EDGE_CURVE('',#86,#308,#310,.T.);
#308 = VERTEX_POINT('',#309);
#309 = CARTESIAN_POINT('',(0.4,9.101662049861,15.));
#310 = LINE('',#311,#312);
#311 = CARTESIAN_POINT('',(0.33169785651,9.113014206674,14.93169785651)
  );
#312 = VECTOR('',#313,1.);
#313 = DIRECTION('',(0.702273495483,-0.11672135659,0.702273495483));
#314 = ORIENTED_EDGE('',*,*,#315,.F.);
#315 = EDGE_CURVE('',#316,#308,#318,.T.);
#316 = VERTEX_POINT('',#317);
#317 = CARTESIAN_POINT('',(29.6,9.101662049861,15.));
#318 = LINE('',#319,#320);
#319 = CARTESIAN_POINT('',(-0.5,9.101662049861,15.));
#320 = VECTOR('',#321,1.);
#321 = DIRECTION('',(-1.,-0.,0.));
#322 = ORIENTED_EDGE('',*,*,#323,.F.);
#323 = EDGE_CURVE('',#324,#316,#326,.T.);
#324 = VERTEX_POINT('',#325);
#325 = CARTESIAN_POINT('',(30.,9.168144044321,14.6));
#326 = LINE('',#327,#328);
#327 = CARTESIAN_POINT('',(21.777293144163,7.801489165235,
    22.822706855837));
#328 = VECTOR('',#329,1.);
#329 = DIRECTION('',(-0.702273495483,-0.11672135659,0.702273495483));
#330 = ORIENTED_EDGE('',*,*,#331,.F.);
#331 = EDGE_CURVE('',#332,#324,#334,.T.);
#332 = VERTEX_POINT('',#333);
#333 = CARTESIAN_POINT('',(30.,9.4,13.205));
#334 = LINE('',#335,#336);
#335 = CARTESIAN_POINT('',(30.,10.191526347623,8.442649808469));
#336 = VECTOR('',#337,1.);
#337 = DIRECTION('',(0.,-0.163955846806,0.986467678284));
#338 = ORIENTED_EDGE('',*,*,#339,.T.);
#339 = EDGE_CURVE('',#332,#340,#342,.T.);
#340 = VERTEX_POINT('',#341);
#341 = CARTESIAN_POINT('',(28.5,9.4,13.205));
#342 = LINE('',#343,#344);
#343 = CARTESIAN_POINT('',(13.75,9.4,13.205));
#344 = VECTOR('',#345,1.);
#345 = DIRECTION('',(-1.,0.,0.));
#346 = ORIENTED_EDGE('',*,*,#347,.T.);
#347 = EDGE_CURVE('',#340,#252,#348,.T.);
#348 = LINE('',#349,#350);
#349 = CARTESIAN_POINT('',(28.5,10.237000918452,8.169044473981));
#350 = VECTOR('',#351,1.);
#351 = DIRECTION('',(-0.,0.163955846806,-0.986467678284));
#352 = PLANE('',#353);
#353 = AXIS2_PLACEMENT_3D('',#354,#355,#356);
#354 = CARTESIAN_POINT('',(-1.,9.1,15.01));
#355 = DIRECTION('',(-0.,0.986467678284,0.163955846806));
#356 = DIRECTION('',(0.,0.163955846806,-0.986467678284));
#357 = ADVANCED_FACE('',(#358),#376,.F.);
#358 = FACE_BOUND('',#359,.F.);
#359 = EDGE_LOOP('',(#360,#368,#369,#370));
#360 = ORIENTED_EDGE('',*,*,#361,.F.);
#361 = EDGE_CURVE('',#308,#362,#364,.T.);
#362 = VERTEX_POINT('',#363);
#363 = CARTESIAN_POINT('',(0.4,14.6,15.));
#364 = LINE('',#365,#366);
#365 = CARTESIAN_POINT('',(0.4,0.,15.));
#366 = VECTOR('',#367,1.);
#367 = DIRECTION('',(-0.,1.,0.));
#368 = ORIENTED_EDGE('',*,*,#307,.F.);
#369 = ORIENTED_EDGE('',*,*,#85,.T.);
#370 = ORIENTED_EDGE('',*,*,#371,.T.);
#371 = EDGE_CURVE('',#78,#362,#372,.T.);
#372 = LINE('',#373,#374);
#373 = CARTESIAN_POINT('',(0.2,14.6,14.8));
#374 = VECTOR('',#375,1.);
#375 = DIRECTION('',(0.707106781187,2.47638952372E-15,0.707106781187));
#376 = PLANE('',#377);
#377 = AXIS2_PLACEMENT_3D('',#378,#379,#380);
#378 = CARTESIAN_POINT('',(0.2,0.,14.8));
#379 = DIRECTION('',(0.707106781187,1.102531706024E-18,-0.707106781187)
  );
#380 = DIRECTION('',(-7.79607645803E-19,1.,7.79607645803E-19));
#381 = ADVANCED_FACE('',(#382),#407,.F.);
#382 = FACE_BOUND('',#383,.T.);
#383 = EDGE_LOOP('',(#384,#385,#393,#401));
#384 = ORIENTED_EDGE('',*,*,#77,.T.);
#385 = ORIENTED_EDGE('',*,*,#386,.F.);
#386 = EDGE_CURVE('',#387,#78,#389,.T.);
#387 = VERTEX_POINT('',#388);
#388 = CARTESIAN_POINT('',(0.4,15.,14.6));
#389 = LINE('',#390,#391);
#390 = CARTESIAN_POINT('',(0.3,14.9,14.6));
#391 = VECTOR('',#392,1.);
#392 = DIRECTION('',(-0.707106781187,-0.707106781187,6.426718461963E-16)
  );
#393 = ORIENTED_EDGE('',*,*,#394,.F.);
#394 = EDGE_CURVE('',#395,#387,#397,.T.);
#395 = VERTEX_POINT('',#396);
#396 = CARTESIAN_POINT('',(0.4,15.,0.4));
#397 = LINE('',#398,#399);
#398 = CARTESIAN_POINT('',(0.4,15.,0.));
#399 = VECTOR('',#400,1.);
#400 = DIRECTION('',(0.,0.,1.));
#401 = ORIENTED_EDGE('',*,*,#402,.F.);
#402 = EDGE_CURVE('',#70,#395,#403,.T.);
#403 = LINE('',#404,#405);
#404 = CARTESIAN_POINT('',(0.2,14.8,0.4));
#405 = VECTOR('',#406,1.);
#406 = DIRECTION('',(0.707106781187,0.707106781187,-1.091997272256E-15)
  );
#407 = PLANE('',#408);
#408 = AXIS2_PLACEMENT_3D('',#409,#410,#411);
#409 = CARTESIAN_POINT('',(0.2,14.8,0.));
#410 = DIRECTION('',(0.707106781187,-0.707106781187,-3.480000426336E-18)
  );
#411 = DIRECTION('',(-2.460731899994E-18,2.460731899994E-18,-1.));
#412 = ADVANCED_FACE('',(#413),#438,.T.);
#413 = FACE_BOUND('',#414,.T.);
#414 = EDGE_LOOP('',(#415,#423,#424,#432));
#415 = ORIENTED_EDGE('',*,*,#416,.T.);
#416 = EDGE_CURVE('',#417,#60,#419,.T.);
#417 = VERTEX_POINT('',#418);
#418 = CARTESIAN_POINT('',(0.4,0.4,-2.775557561563E-17));
#419 = LINE('',#420,#421);
#420 = CARTESIAN_POINT('',(0.3,0.4,1.E-01));
#421 = VECTOR('',#422,1.);
#422 = DIRECTION('',(-0.707106781187,5.872217097142E-18,0.707106781187)
  );
#423 = ORIENTED_EDGE('',*,*,#69,.T.);
#424 = ORIENTED_EDGE('',*,*,#425,.F.);
#425 = EDGE_CURVE('',#426,#70,#428,.T.);
#426 = VERTEX_POINT('',#427);
#427 = CARTESIAN_POINT('',(0.4,14.6,-4.163336342344E-16));
#428 = LINE('',#429,#430);
#429 = CARTESIAN_POINT('',(0.3,14.6,1.E-01));
#430 = VECTOR('',#431,1.);
#431 = DIRECTION('',(-0.707106781187,2.712060661372E-17,0.707106781187)
  );
#432 = ORIENTED_EDGE('',*,*,#433,.F.);
#433 = EDGE_CURVE('',#417,#426,#434,.T.);
#434 = LINE('',#435,#436);
#435 = CARTESIAN_POINT('',(0.4,0.,0.));
#436 = VECTOR('',#437,1.);
#437 = DIRECTION('',(-0.,1.,0.));
#438 = PLANE('',#439);
#439 = AXIS2_PLACEMENT_3D('',#440,#441,#442);
#440 = CARTESIAN_POINT('',(0.2,0.,0.2));
#441 = DIRECTION('',(-0.707106781187,-1.679829943626E-18,-0.707106781187
    ));
#442 = DIRECTION('',(-1.187819144378E-18,1.,-1.187819144378E-18));
#443 = ADVANCED_FACE('',(#444),#454,.T.);
#444 = FACE_BOUND('',#445,.T.);
#445 = EDGE_LOOP('',(#446,#447,#453));
#446 = ORIENTED_EDGE('',*,*,#416,.F.);
#447 = ORIENTED_EDGE('',*,*,#448,.T.);
#448 = EDGE_CURVE('',#417,#141,#449,.T.);
#449 = LINE('',#450,#451);
#450 = CARTESIAN_POINT('',(0.4,0.3,1.E-01));
#451 = VECTOR('',#452,1.);
#452 = DIRECTION('',(-5.872217097142E-18,-0.707106781187,0.707106781187)
  );
#453 = ORIENTED_EDGE('',*,*,#148,.F.);
#454 = PLANE('',#455);
#455 = AXIS2_PLACEMENT_3D('',#456,#457,#458);
#456 = CARTESIAN_POINT('',(0.4,0.4,-2.775557561563E-17));
#457 = DIRECTION('',(-0.57735026919,-0.57735026919,-0.57735026919));
#458 = DIRECTION('',(0.707106781187,-0.707106781187,-1.269604464815E-17)
  );
#459 = ADVANCED_FACE('',(#460),#470,.F.);
#460 = FACE_BOUND('',#461,.F.);
#461 = EDGE_LOOP('',(#462,#463,#469));
#462 = ORIENTED_EDGE('',*,*,#172,.F.);
#463 = ORIENTED_EDGE('',*,*,#464,.T.);
#464 = EDGE_CURVE('',#163,#133,#465,.T.);
#465 = LINE('',#466,#467);
#466 = CARTESIAN_POINT('',(0.4,0.3,14.9));
#467 = VECTOR('',#468,1.);
#468 = DIRECTION('',(1.091997272256E-15,-0.707106781187,-0.707106781187)
  );
#469 = ORIENTED_EDGE('',*,*,#132,.F.);
#470 = PLANE('',#471);
#471 = AXIS2_PLACEMENT_3D('',#472,#473,#474);
#472 = CARTESIAN_POINT('',(0.4,0.4,15.));
#473 = DIRECTION('',(0.57735026919,0.57735026919,-0.57735026919));
#474 = DIRECTION('',(0.707106781187,-0.707106781187,3.691197415572E-18)
  );
#475 = ADVANCED_FACE('',(#476,#501,#512),#523,.F.);
#476 = FACE_BOUND('',#477,.F.);
#477 = EDGE_LOOP('',(#478,#479,#487,#495));
#478 = ORIENTED_EDGE('',*,*,#140,.T.);
#479 = ORIENTED_EDGE('',*,*,#480,.T.);
#480 = EDGE_CURVE('',#133,#481,#483,.T.);
#481 = VERTEX_POINT('',#482);
#482 = CARTESIAN_POINT('',(29.6,-3.191891195797E-16,14.6));
#483 = LINE('',#484,#485);
#484 = CARTESIAN_POINT('',(0.,0.,14.6));
#485 = VECTOR('',#486,1.);
#486 = DIRECTION('',(1.,0.,-0.));
#487 = ORIENTED_EDGE('',*,*,#488,.F.);
#488 = EDGE_CURVE('',#489,#481,#491,.T.);
#489 = VERTEX_POINT('',#490);
#490 = CARTESIAN_POINT('',(29.6,0.,0.4));
#491 = LINE('',#492,#493);
#492 = CARTESIAN_POINT('',(29.6,0.,0.));
#493 = VECTOR('',#494,1.);
#494 = DIRECTION('',(0.,0.,1.));
#495 = ORIENTED_EDGE('',*,*,#496,.F.);
#496 = EDGE_CURVE('',#141,#489,#497,.T.);
#497 = LINE('',#498,#499);
#498 = CARTESIAN_POINT('',(0.,0.,0.4));
#499 = VECTOR('',#500,1.);
#500 = DIRECTION('',(1.,0.,-0.));
#501 = FACE_BOUND('',#502,.F.);
#502 = EDGE_LOOP('',(#503));
#503 = ORIENTED_EDGE('',*,*,#504,.F.);
#504 = EDGE_CURVE('',#505,#505,#507,.T.);
#505 = VERTEX_POINT('',#506);
#506 = CARTESIAN_POINT('',(12.,0.,9.2));
#507 = CIRCLE('',#508,1.7);
#508 = AXIS2_PLACEMENT_3D('',#509,#510,#511);
#509 = CARTESIAN_POINT('',(12.,0.,7.5));
#510 = DIRECTION('',(0.,1.,0.));
#511 = DIRECTION('',(0.,-0.,1.));
#512 = FACE_BOUND('',#513,.F.);
#513 = EDGE_LOOP('',(#514));
#514 = ORIENTED_EDGE('',*,*,#515,.F.);
#515 = EDGE_CURVE('',#516,#516,#518,.T.);
#516 = VERTEX_POINT('',#517);
#517 = CARTESIAN_POINT('',(16.5,0.,9.2));
#518 = CIRCLE('',#519,1.7);
#519 = AXIS2_PLACEMENT_3D('',#520,#521,#522);
#520 = CARTESIAN_POINT('',(16.5,0.,7.5));
#521 = DIRECTION('',(0.,1.,0.));
#522 = DIRECTION('',(0.,-0.,1.));
#523 = PLANE('',#524);
#524 = AXIS2_PLACEMENT_3D('',#525,#526,#527);
#525 = CARTESIAN_POINT('',(0.,0.,0.));
#526 = DIRECTION('',(-0.,1.,0.));
#527 = DIRECTION('',(0.,0.,1.));
#528 = ADVANCED_FACE('',(#529),#547,.T.);
#529 = FACE_BOUND('',#530,.T.);
#530 = EDGE_LOOP('',(#531,#532,#540,#546));
#531 = ORIENTED_EDGE('',*,*,#162,.F.);
#532 = ORIENTED_EDGE('',*,*,#533,.T.);
#533 = EDGE_CURVE('',#163,#534,#536,.T.);
#534 = VERTEX_POINT('',#535);
#535 = CARTESIAN_POINT('',(29.6,0.4,15.));
#536 = LINE('',#537,#538);
#537 = CARTESIAN_POINT('',(0.,0.4,15.));
#538 = VECTOR('',#539,1.);
#539 = DIRECTION('',(1.,0.,-0.));
#540 = ORIENTED_EDGE('',*,*,#541,.T.);
#541 = EDGE_CURVE('',#534,#228,#542,.T.);
#542 = LINE('',#543,#544);
#543 = CARTESIAN_POINT('',(29.6,0.,15.));
#544 = VECTOR('',#545,1.);
#545 = DIRECTION('',(-0.,1.,0.));
#546 = ORIENTED_EDGE('',*,*,#235,.F.);
#547 = PLANE('',#548);
#548 = AXIS2_PLACEMENT_3D('',#549,#550,#551);
#549 = CARTESIAN_POINT('',(0.,0.,15.));
#550 = DIRECTION('',(0.,0.,1.));
#551 = DIRECTION('',(1.,0.,-0.));
#552 = ADVANCED_FACE('',(#553),#571,.T.);
#553 = FACE_BOUND('',#554,.T.);
#554 = EDGE_LOOP('',(#555,#556,#564,#570));
#555 = ORIENTED_EDGE('',*,*,#541,.F.);
#556 = ORIENTED_EDGE('',*,*,#557,.T.);
#557 = EDGE_CURVE('',#534,#558,#560,.T.);
#558 = VERTEX_POINT('',#559);
#559 = CARTESIAN_POINT('',(30.,0.4,14.6));
#560 = LINE('',#561,#562);
#561 = CARTESIAN_POINT('',(29.7,0.4,14.9));
#562 = VECTOR('',#563,1.);
#563 = DIRECTION('',(0.707106781187,9.803658687167E-16,-0.707106781187)
  );
#564 = ORIENTED_EDGE('',*,*,#565,.T.);
#565 = EDGE_CURVE('',#558,#220,#566,.T.);
#566 = LINE('',#567,#568);
#567 = CARTESIAN_POINT('',(30.,0.,14.6));
#568 = VECTOR('',#569,1.);
#569 = DIRECTION('',(-0.,1.,0.));
#570 = ORIENTED_EDGE('',*,*,#227,.F.);
#571 = PLANE('',#572);
#572 = AXIS2_PLACEMENT_3D('',#573,#574,#575);
#573 = CARTESIAN_POINT('',(29.8,0.,14.8));
#574 = DIRECTION('',(0.707106781187,-1.28049161384E-18,0.707106781187));
#575 = DIRECTION('',(9.054443033987E-19,1.,9.054443033987E-19));
#576 = ADVANCED_FACE('',(#577),#689,.T.);
#577 = FACE_BOUND('',#578,.T.);
#578 = EDGE_LOOP('',(#579,#587,#595,#603,#609,#610,#618,#626,#634,#642,
    #648,#649,#657,#665,#673,#681,#687,#688));
#579 = ORIENTED_EDGE('',*,*,#580,.F.);
#580 = EDGE_CURVE('',#581,#558,#583,.T.);
#581 = VERTEX_POINT('',#582);
#582 = CARTESIAN_POINT('',(30.,0.4,0.4));
#583 = LINE('',#584,#585);
#584 = CARTESIAN_POINT('',(30.,0.4,0.));
#585 = VECTOR('',#586,1.);
#586 = DIRECTION('',(0.,0.,1.));
#587 = ORIENTED_EDGE('',*,*,#588,.T.);
#588 = EDGE_CURVE('',#581,#589,#591,.T.);
#589 = VERTEX_POINT('',#590);
#590 = CARTESIAN_POINT('',(30.,14.6,0.4));
#591 = LINE('',#592,#593);
#592 = CARTESIAN_POINT('',(30.,0.,0.4));
#593 = VECTOR('',#594,1.);
#594 = DIRECTION('',(-0.,1.,0.));
#595 = ORIENTED_EDGE('',*,*,#596,.T.);
#596 = EDGE_CURVE('',#589,#597,#599,.T.);
#597 = VERTEX_POINT('',#598);
#598 = CARTESIAN_POINT('',(30.,14.6,14.6));
#599 = LINE('',#600,#601);
#600 = CARTESIAN_POINT('',(30.,14.6,0.));
#601 = VECTOR('',#602,1.);
#602 = DIRECTION('',(0.,0.,1.));
#603 = ORIENTED_EDGE('',*,*,#604,.F.);
#604 = EDGE_CURVE('',#324,#597,#605,.T.);
#605 = LINE('',#606,#607);
#606 = CARTESIAN_POINT('',(30.,0.,14.6));
#607 = VECTOR('',#608,1.);
#608 = DIRECTION('',(-0.,1.,0.));
#609 = ORIENTED_EDGE('',*,*,#331,.F.);
#610 = ORIENTED_EDGE('',*,*,#611,.T.);
#611 = EDGE_CURVE('',#332,#612,#614,.T.);
#612 = VERTEX_POINT('',#613);
#613 = CARTESIAN_POINT('',(30.,9.4,14.));
#614 = LINE('',#615,#616);
#615 = CARTESIAN_POINT('',(30.,9.4,0.5));
#616 = VECTOR('',#617,1.);
#617 = DIRECTION('',(0.,0.,1.));
#618 = ORIENTED_EDGE('',*,*,#619,.F.);
#619 = EDGE_CURVE('',#620,#612,#622,.T.);
#620 = VERTEX_POINT('',#621);
#621 = CARTESIAN_POINT('',(30.,10.6,14.));
#622 = LINE('',#623,#624);
#623 = CARTESIAN_POINT('',(30.,4.7,14.));
#624 = VECTOR('',#625,1.);
#625 = DIRECTION('',(0.,-1.,0.));
#626 = ORIENTED_EDGE('',*,*,#627,.F.);
#627 = EDGE_CURVE('',#628,#620,#630,.T.);
#628 = VERTEX_POINT('',#629);
#629 = CARTESIAN_POINT('',(30.,10.6,1.));
#630 = LINE('',#631,#632);
#631 = CARTESIAN_POINT('',(30.,10.6,0.5));
#632 = VECTOR('',#633,1.);
#633 = DIRECTION('',(0.,0.,1.));
#634 = ORIENTED_EDGE('',*,*,#635,.T.);
#635 = EDGE_CURVE('',#628,#636,#638,.T.);
#636 = VERTEX_POINT('',#637);
#637 = CARTESIAN_POINT('',(30.,9.4,1.));
#638 = LINE('',#639,#640);
#639 = CARTESIAN_POINT('',(30.,4.7,1.));
#640 = VECTOR('',#641,1.);
#641 = DIRECTION('',(0.,-1.,0.));
#642 = ORIENTED_EDGE('',*,*,#643,.T.);
#643 = EDGE_CURVE('',#636,#268,#644,.T.);
#644 = LINE('',#645,#646);
#645 = CARTESIAN_POINT('',(30.,9.4,0.5));
#646 = VECTOR('',#647,1.);
#647 = DIRECTION('',(0.,0.,1.));
#648 = ORIENTED_EDGE('',*,*,#275,.F.);
#649 = ORIENTED_EDGE('',*,*,#650,.F.);
#650 = EDGE_CURVE('',#651,#276,#653,.T.);
#651 = VERTEX_POINT('',#652);
#652 = CARTESIAN_POINT('',(30.,5.6,1.));
#653 = LINE('',#654,#655);
#654 = CARTESIAN_POINT('',(30.,5.6,0.5));
#655 = VECTOR('',#656,1.);
#656 = DIRECTION('',(0.,0.,1.));
#657 = ORIENTED_EDGE('',*,*,#658,.T.);
#658 = EDGE_CURVE('',#651,#659,#661,.T.);
#659 = VERTEX_POINT('',#660);
#660 = CARTESIAN_POINT('',(30.,4.4,1.));
#661 = LINE('',#662,#663);
#662 = CARTESIAN_POINT('',(30.,2.2,1.));
#663 = VECTOR('',#664,1.);
#664 = DIRECTION('',(0.,-1.,0.));
#665 = ORIENTED_EDGE('',*,*,#666,.T.);
#666 = EDGE_CURVE('',#659,#667,#669,.T.);
#667 = VERTEX_POINT('',#668);
#668 = CARTESIAN_POINT('',(30.,4.4,14.));
#669 = LINE('',#670,#671);
#670 = CARTESIAN_POINT('',(30.,4.4,0.5));
#671 = VECTOR('',#672,1.);
#672 = DIRECTION('',(0.,0.,1.));
#673 = ORIENTED_EDGE('',*,*,#674,.F.);
#674 = EDGE_CURVE('',#675,#667,#677,.T.);
#675 = VERTEX_POINT('',#676);
#676 = CARTESIAN_POINT('',(30.,5.6,14.));
#677 = LINE('',#678,#679);
#678 = CARTESIAN_POINT('',(30.,2.2,14.));
#679 = VECTOR('',#680,1.);
#680 = DIRECTION('',(0.,-1.,0.));
#681 = ORIENTED_EDGE('',*,*,#682,.F.);
#682 = EDGE_CURVE('',#212,#675,#683,.T.);
#683 = LINE('',#684,#685);
#684 = CARTESIAN_POINT('',(30.,5.6,0.5));
#685 = VECTOR('',#686,1.);
#686 = DIRECTION('',(0.,0.,1.));
#687 = ORIENTED_EDGE('',*,*,#219,.F.);
#688 = ORIENTED_EDGE('',*,*,#565,.F.);
#689 = PLANE('',#690);
#690 = AXIS2_PLACEMENT_3D('',#691,#692,#693);
#691 = CARTESIAN_POINT('',(30.,0.,0.));
#692 = DIRECTION('',(1.,0.,-0.));
#693 = DIRECTION('',(0.,0.,1.));
#694 = ADVANCED_FACE('',(#695),#713,.F.);
#695 = FACE_BOUND('',#696,.F.);
#696 = EDGE_LOOP('',(#697,#698,#706,#712));
#697 = ORIENTED_EDGE('',*,*,#211,.T.);
#698 = ORIENTED_EDGE('',*,*,#699,.T.);
#699 = EDGE_CURVE('',#204,#700,#702,.T.);
#700 = VERTEX_POINT('',#701);
#701 = CARTESIAN_POINT('',(28.5,5.6,14.));
#702 = LINE('',#703,#704);
#703 = CARTESIAN_POINT('',(28.5,5.6,1.));
#704 = VECTOR('',#705,1.);
#705 = DIRECTION('',(0.,0.,1.));
#706 = ORIENTED_EDGE('',*,*,#707,.T.);
#707 = EDGE_CURVE('',#700,#675,#708,.T.);
#708 = LINE('',#709,#710);
#709 = CARTESIAN_POINT('',(28.5,5.6,14.));
#710 = VECTOR('',#711,1.);
#711 = DIRECTION('',(1.,0.,-0.));
#712 = ORIENTED_EDGE('',*,*,#682,.F.);
#713 = PLANE('',#714);
#714 = AXIS2_PLACEMENT_3D('',#715,#716,#717);
#715 = CARTESIAN_POINT('',(28.5,5.6,1.));
#716 = DIRECTION('',(-0.,1.,0.));
#717 = DIRECTION('',(0.,0.,1.));
#718 = ADVANCED_FACE('',(#719),#754,.T.);
#719 = FACE_BOUND('',#720,.T.);
#720 = EDGE_LOOP('',(#721,#729,#737,#745,#751,#752,#753));
#721 = ORIENTED_EDGE('',*,*,#722,.F.);
#722 = EDGE_CURVE('',#723,#700,#725,.T.);
#723 = VERTEX_POINT('',#724);
#724 = CARTESIAN_POINT('',(28.5,4.4,14.));
#725 = LINE('',#726,#727);
#726 = CARTESIAN_POINT('',(28.5,4.4,14.));
#727 = VECTOR('',#728,1.);
#728 = DIRECTION('',(-0.,1.,0.));
#729 = ORIENTED_EDGE('',*,*,#730,.F.);
#730 = EDGE_CURVE('',#731,#723,#733,.T.);
#731 = VERTEX_POINT('',#732);
#732 = CARTESIAN_POINT('',(28.5,4.4,1.));
#733 = LINE('',#734,#735);
#734 = CARTESIAN_POINT('',(28.5,4.4,1.));
#735 = VECTOR('',#736,1.);
#736 = DIRECTION('',(0.,0.,1.));
#737 = ORIENTED_EDGE('',*,*,#738,.T.);
#738 = EDGE_CURVE('',#731,#739,#741,.T.);
#739 = VERTEX_POINT('',#740);
#740 = CARTESIAN_POINT('',(28.5,5.6,1.));
#741 = LINE('',#742,#743);
#742 = CARTESIAN_POINT('',(28.5,4.4,1.));
#743 = VECTOR('',#744,1.);
#744 = DIRECTION('',(-0.,1.,0.));
#745 = ORIENTED_EDGE('',*,*,#746,.T.);
#746 = EDGE_CURVE('',#739,#284,#747,.T.);
#747 = LINE('',#748,#749);
#748 = CARTESIAN_POINT('',(28.5,5.6,1.));
#749 = VECTOR('',#750,1.);
#750 = DIRECTION('',(0.,0.,1.));
#751 = ORIENTED_EDGE('',*,*,#291,.T.);
#752 = ORIENTED_EDGE('',*,*,#203,.T.);
#753 = ORIENTED_EDGE('',*,*,#699,.T.);
#754 = PLANE('',#755);
#755 = AXIS2_PLACEMENT_3D('',#756,#757,#758);
#756 = CARTESIAN_POINT('',(28.5,4.4,1.));
#757 = DIRECTION('',(1.,0.,-0.));
#758 = DIRECTION('',(0.,0.,1.));
#759 = ADVANCED_FACE('',(#760),#771,.F.);
#760 = FACE_BOUND('',#761,.F.);
#761 = EDGE_LOOP('',(#762,#768,#769,#770));
#762 = ORIENTED_EDGE('',*,*,#763,.F.);
#763 = EDGE_CURVE('',#739,#651,#764,.T.);
#764 = LINE('',#765,#766);
#765 = CARTESIAN_POINT('',(28.5,5.6,1.));
#766 = VECTOR('',#767,1.);
#767 = DIRECTION('',(1.,0.,-0.));
#768 = ORIENTED_EDGE('',*,*,#746,.T.);
#769 = ORIENTED_EDGE('',*,*,#283,.T.);
#770 = ORIENTED_EDGE('',*,*,#650,.F.);
#771 = PLANE('',#772);
#772 = AXIS2_PLACEMENT_3D('',#773,#774,#775);
#773 = CARTESIAN_POINT('',(28.5,5.6,1.));
#774 = DIRECTION('',(-0.,1.,0.));
#775 = DIRECTION('',(0.,0.,1.));
#776 = ADVANCED_FACE('',(#777),#795,.T.);
#777 = FACE_BOUND('',#778,.T.);
#778 = EDGE_LOOP('',(#779,#787,#793,#794));
#779 = ORIENTED_EDGE('',*,*,#780,.F.);
#780 = EDGE_CURVE('',#781,#636,#783,.T.);
#781 = VERTEX_POINT('',#782);
#782 = CARTESIAN_POINT('',(28.5,9.4,1.));
#783 = LINE('',#784,#785);
#784 = CARTESIAN_POINT('',(28.5,9.4,1.));
#785 = VECTOR('',#786,1.);
#786 = DIRECTION('',(1.,0.,-0.));
#787 = ORIENTED_EDGE('',*,*,#788,.T.);
#788 = EDGE_CURVE('',#781,#260,#789,.T.);
#789 = LINE('',#790,#791);
#790 = CARTESIAN_POINT('',(28.5,9.4,1.));
#791 = VECTOR('',#792,1.);
#792 = DIRECTION('',(0.,0.,1.));
#793 = ORIENTED_EDGE('',*,*,#267,.T.);
#794 = ORIENTED_EDGE('',*,*,#643,.F.);
#795 = PLANE('',#796);
#796 = AXIS2_PLACEMENT_3D('',#797,#798,#799);
#797 = CARTESIAN_POINT('',(28.5,9.4,1.));
#798 = DIRECTION('',(-0.,1.,0.));
#799 = DIRECTION('',(0.,0.,1.));
#800 = ADVANCED_FACE('',(#801),#836,.T.);
#801 = FACE_BOUND('',#802,.T.);
#802 = EDGE_LOOP('',(#803,#804,#812,#820,#828,#834,#835));
#803 = ORIENTED_EDGE('',*,*,#788,.F.);
#804 = ORIENTED_EDGE('',*,*,#805,.T.);
#805 = EDGE_CURVE('',#781,#806,#808,.T.);
#806 = VERTEX_POINT('',#807);
#807 = CARTESIAN_POINT('',(28.5,10.6,1.));
#808 = LINE('',#809,#810);
#809 = CARTESIAN_POINT('',(28.5,9.4,1.));
#810 = VECTOR('',#811,1.);
#811 = DIRECTION('',(-0.,1.,0.));
#812 = ORIENTED_EDGE('',*,*,#813,.T.);
#813 = EDGE_CURVE('',#806,#814,#816,.T.);
#814 = VERTEX_POINT('',#815);
#815 = CARTESIAN_POINT('',(28.5,10.6,14.));
#816 = LINE('',#817,#818);
#817 = CARTESIAN_POINT('',(28.5,10.6,1.));
#818 = VECTOR('',#819,1.);
#819 = DIRECTION('',(0.,0.,1.));
#820 = ORIENTED_EDGE('',*,*,#821,.F.);
#821 = EDGE_CURVE('',#822,#814,#824,.T.);
#822 = VERTEX_POINT('',#823);
#823 = CARTESIAN_POINT('',(28.5,9.4,14.));
#824 = LINE('',#825,#826);
#825 = CARTESIAN_POINT('',(28.5,9.4,14.));
#826 = VECTOR('',#827,1.);
#827 = DIRECTION('',(-0.,1.,0.));
#828 = ORIENTED_EDGE('',*,*,#829,.F.);
#829 = EDGE_CURVE('',#340,#822,#830,.T.);
#830 = LINE('',#831,#832);
#831 = CARTESIAN_POINT('',(28.5,9.4,1.));
#832 = VECTOR('',#833,1.);
#833 = DIRECTION('',(0.,0.,1.));
#834 = ORIENTED_EDGE('',*,*,#347,.T.);
#835 = ORIENTED_EDGE('',*,*,#259,.T.);
#836 = PLANE('',#837);
#837 = AXIS2_PLACEMENT_3D('',#838,#839,#840);
#838 = CARTESIAN_POINT('',(28.5,9.4,1.));
#839 = DIRECTION('',(1.,0.,-0.));
#840 = DIRECTION('',(0.,0.,1.));
#841 = ADVANCED_FACE('',(#842),#853,.T.);
#842 = FACE_BOUND('',#843,.T.);
#843 = EDGE_LOOP('',(#844,#845,#846,#852));
#844 = ORIENTED_EDGE('',*,*,#339,.T.);
#845 = ORIENTED_EDGE('',*,*,#829,.T.);
#846 = ORIENTED_EDGE('',*,*,#847,.T.);
#847 = EDGE_CURVE('',#822,#612,#848,.T.);
#848 = LINE('',#849,#850);
#849 = CARTESIAN_POINT('',(28.5,9.4,14.));
#850 = VECTOR('',#851,1.);
#851 = DIRECTION('',(1.,0.,-0.));
#852 = ORIENTED_EDGE('',*,*,#611,.F.);
#853 = PLANE('',#854);
#854 = AXIS2_PLACEMENT_3D('',#855,#856,#857);
#855 = CARTESIAN_POINT('',(28.5,9.4,1.));
#856 = DIRECTION('',(-0.,1.,0.));
#857 = DIRECTION('',(0.,0.,1.));
#858 = ADVANCED_FACE('',(#859),#877,.T.);
#859 = FACE_BOUND('',#860,.T.);
#860 = EDGE_LOOP('',(#861,#869,#870,#871));
#861 = ORIENTED_EDGE('',*,*,#862,.F.);
#862 = EDGE_CURVE('',#316,#863,#865,.T.);
#863 = VERTEX_POINT('',#864);
#864 = CARTESIAN_POINT('',(29.6,14.6,15.));
#865 = LINE('',#866,#867);
#866 = CARTESIAN_POINT('',(29.6,0.,15.));
#867 = VECTOR('',#868,1.);
#868 = DIRECTION('',(-0.,1.,0.));
#869 = ORIENTED_EDGE('',*,*,#323,.F.);
#870 = ORIENTED_EDGE('',*,*,#604,.T.);
#871 = ORIENTED_EDGE('',*,*,#872,.T.);
#872 = EDGE_CURVE('',#597,#863,#873,.T.);
#873 = LINE('',#874,#875);
#874 = CARTESIAN_POINT('',(29.8,14.6,14.8));
#875 = VECTOR('',#876,1.);
#876 = DIRECTION('',(-0.707106781187,3.10245786126E-15,0.707106781187));
#877 = PLANE('',#878);
#878 = AXIS2_PLACEMENT_3D('',#879,#880,#881);
#879 = CARTESIAN_POINT('',(29.8,0.,14.8));
#880 = DIRECTION('',(0.707106781187,-1.28049161384E-18,0.707106781187));
#881 = DIRECTION('',(9.054443033987E-19,1.,9.054443033987E-19));
#882 = ADVANCED_FACE('',(#883),#894,.T.);
#883 = FACE_BOUND('',#884,.T.);
#884 = EDGE_LOOP('',(#885,#886,#887,#888));
#885 = ORIENTED_EDGE('',*,*,#361,.F.);
#886 = ORIENTED_EDGE('',*,*,#315,.F.);
#887 = ORIENTED_EDGE('',*,*,#862,.T.);
#888 = ORIENTED_EDGE('',*,*,#889,.F.);
#889 = EDGE_CURVE('',#362,#863,#890,.T.);
#890 = LINE('',#891,#892);
#891 = CARTESIAN_POINT('',(0.,14.6,15.));
#892 = VECTOR('',#893,1.);
#893 = DIRECTION('',(1.,0.,-0.));
#894 = PLANE('',#895);
#895 = AXIS2_PLACEMENT_3D('',#896,#897,#898);
#896 = CARTESIAN_POINT('',(0.,0.,15.));
#897 = DIRECTION('',(0.,0.,1.));
#898 = DIRECTION('',(1.,0.,-0.));
#899 = ADVANCED_FACE('',(#900),#910,.F.);
#900 = FACE_BOUND('',#901,.F.);
#901 = EDGE_LOOP('',(#902,#903,#909));
#902 = ORIENTED_EDGE('',*,*,#386,.F.);
#903 = ORIENTED_EDGE('',*,*,#904,.T.);
#904 = EDGE_CURVE('',#387,#362,#905,.T.);
#905 = LINE('',#906,#907);
#906 = CARTESIAN_POINT('',(0.4,14.9,14.7));
#907 = VECTOR('',#908,1.);
#908 = DIRECTION('',(-3.09136719368E-15,-0.707106781187,0.707106781187)
  );
#909 = ORIENTED_EDGE('',*,*,#371,.F.);
#910 = PLANE('',#911);
#911 = AXIS2_PLACEMENT_3D('',#912,#913,#914);
#912 = CARTESIAN_POINT('',(0.4,15.,14.6));
#913 = DIRECTION('',(0.57735026919,-0.57735026919,-0.57735026919));
#914 = DIRECTION('',(0.707106781187,3.120861515232E-15,0.707106781187));
#915 = ADVANCED_FACE('',(#916),#926,.F.);
#916 = FACE_BOUND('',#917,.F.);
#917 = EDGE_LOOP('',(#918,#919,#925));
#918 = ORIENTED_EDGE('',*,*,#425,.F.);
#919 = ORIENTED_EDGE('',*,*,#920,.T.);
#920 = EDGE_CURVE('',#426,#395,#921,.T.);
#921 = LINE('',#922,#923);
#922 = CARTESIAN_POINT('',(0.4,14.7,1.E-01));
#923 = VECTOR('',#924,1.);
#924 = DIRECTION('',(-1.067160332643E-15,0.707106781187,0.707106781187)
  );
#925 = ORIENTED_EDGE('',*,*,#402,.F.);
#926 = PLANE('',#927);
#927 = AXIS2_PLACEMENT_3D('',#928,#929,#930);
#928 = CARTESIAN_POINT('',(0.4,14.6,-4.163336342344E-16));
#929 = DIRECTION('',(0.57735026919,-0.57735026919,0.57735026919));
#930 = DIRECTION('',(0.707106781187,0.707106781187,-9.073603475564E-16)
  );
#931 = ADVANCED_FACE('',(#932),#957,.T.);
#932 = FACE_BOUND('',#933,.T.);
#933 = EDGE_LOOP('',(#934,#935,#943,#951));
#934 = ORIENTED_EDGE('',*,*,#394,.T.);
#935 = ORIENTED_EDGE('',*,*,#936,.T.);
#936 = EDGE_CURVE('',#387,#937,#939,.T.);
#937 = VERTEX_POINT('',#938);
#938 = CARTESIAN_POINT('',(29.6,15.,14.6));
#939 = LINE('',#940,#941);
#940 = CARTESIAN_POINT('',(0.,15.,14.6));
#941 = VECTOR('',#942,1.);
#942 = DIRECTION('',(1.,0.,-0.));
#943 = ORIENTED_EDGE('',*,*,#944,.F.);
#944 = EDGE_CURVE('',#945,#937,#947,.T.);
#945 = VERTEX_POINT('',#946);
#946 = CARTESIAN_POINT('',(29.6,15.,0.4));
#947 = LINE('',#948,#949);
#948 = CARTESIAN_POINT('',(29.6,15.,0.));
#949 = VECTOR('',#950,1.);
#950 = DIRECTION('',(0.,0.,1.));
#951 = ORIENTED_EDGE('',*,*,#952,.F.);
#952 = EDGE_CURVE('',#395,#945,#953,.T.);
#953 = LINE('',#954,#955);
#954 = CARTESIAN_POINT('',(0.,15.,0.4));
#955 = VECTOR('',#956,1.);
#956 = DIRECTION('',(1.,0.,-0.));
#957 = PLANE('',#958);
#958 = AXIS2_PLACEMENT_3D('',#959,#960,#961);
#959 = CARTESIAN_POINT('',(0.,15.,0.));
#960 = DIRECTION('',(-0.,1.,0.));
#961 = DIRECTION('',(0.,0.,1.));
#962 = ADVANCED_FACE('',(#963),#988,.F.);
#963 = FACE_BOUND('',#964,.F.);
#964 = EDGE_LOOP('',(#965,#966,#974,#982));
#965 = ORIENTED_EDGE('',*,*,#433,.F.);
#966 = ORIENTED_EDGE('',*,*,#967,.T.);
#967 = EDGE_CURVE('',#417,#968,#970,.T.);
#968 = VERTEX_POINT('',#969);
#969 = CARTESIAN_POINT('',(29.6,0.4,0.));
#970 = LINE('',#971,#972);
#971 = CARTESIAN_POINT('',(0.,0.4,0.));
#972 = VECTOR('',#973,1.);
#973 = DIRECTION('',(1.,0.,-0.));
#974 = ORIENTED_EDGE('',*,*,#975,.T.);
#975 = EDGE_CURVE('',#968,#976,#978,.T.);
#976 = VERTEX_POINT('',#977);
#977 = CARTESIAN_POINT('',(29.6,14.6,-4.099961635725E-16));
#978 = LINE('',#979,#980);
#979 = CARTESIAN_POINT('',(29.6,0.,0.));
#980 = VECTOR('',#981,1.);
#981 = DIRECTION('',(-0.,1.,0.));
#982 = ORIENTED_EDGE('',*,*,#983,.F.);
#983 = EDGE_CURVE('',#426,#976,#984,.T.);
#984 = LINE('',#985,#986);
#985 = CARTESIAN_POINT('',(0.,14.6,0.));
#986 = VECTOR('',#987,1.);
#987 = DIRECTION('',(1.,0.,-0.));
#988 = PLANE('',#989);
#989 = AXIS2_PLACEMENT_3D('',#990,#991,#992);
#990 = CARTESIAN_POINT('',(0.,0.,0.));
#991 = DIRECTION('',(0.,0.,1.));
#992 = DIRECTION('',(1.,0.,-0.));
#993 = ADVANCED_FACE('',(#994),#1005,.T.);
#994 = FACE_BOUND('',#995,.F.);
#995 = EDGE_LOOP('',(#996,#997,#998,#1004));
#996 = ORIENTED_EDGE('',*,*,#448,.T.);
#997 = ORIENTED_EDGE('',*,*,#496,.T.);
#998 = ORIENTED_EDGE('',*,*,#999,.F.);
#999 = EDGE_CURVE('',#968,#489,#1000,.T.);
#1000 = LINE('',#1001,#1002);
#1001 = CARTESIAN_POINT('',(29.6,0.3,0.1));
#1002 = VECTOR('',#1003,1.);
#1003 = DIRECTION('',(-4.078668165574E-17,-0.707106781187,0.707106781187
    ));
#1004 = ORIENTED_EDGE('',*,*,#967,.F.);
#1005 = PLANE('',#1006);
#1006 = AXIS2_PLACEMENT_3D('',#1007,#1008,#1009);
#1007 = CARTESIAN_POINT('',(0.,0.2,0.2));
#1008 = DIRECTION('',(-1.679829943626E-18,-0.707106781187,
    -0.707106781187));
#1009 = DIRECTION('',(-1.,1.187819144378E-18,1.187819144378E-18));
#1010 = ADVANCED_FACE('',(#1011),#1022,.F.);
#1011 = FACE_BOUND('',#1012,.T.);
#1012 = EDGE_LOOP('',(#1013,#1014,#1015,#1021));
#1013 = ORIENTED_EDGE('',*,*,#464,.T.);
#1014 = ORIENTED_EDGE('',*,*,#480,.T.);
#1015 = ORIENTED_EDGE('',*,*,#1016,.F.);
#1016 = EDGE_CURVE('',#534,#481,#1017,.T.);
#1017 = LINE('',#1018,#1019);
#1018 = CARTESIAN_POINT('',(29.6,0.3,14.9));
#1019 = VECTOR('',#1020,1.);
#1020 = DIRECTION('',(-2.499935127603E-16,-0.707106781187,
    -0.707106781187));
#1021 = ORIENTED_EDGE('',*,*,#533,.F.);
#1022 = PLANE('',#1023);
#1023 = AXIS2_PLACEMENT_3D('',#1024,#1025,#1026);
#1024 = CARTESIAN_POINT('',(0.,0.2,14.8));
#1025 = DIRECTION('',(-9.709052582848E-19,0.707106781187,-0.707106781187
    ));
#1026 = DIRECTION('',(-1.,-6.865336920228E-19,6.865336920228E-19));
#1027 = ADVANCED_FACE('',(#1028),#1044,.F.);
#1028 = FACE_BOUND('',#1029,.T.);
#1029 = EDGE_LOOP('',(#1030,#1031,#1037,#1038));
#1030 = ORIENTED_EDGE('',*,*,#580,.T.);
#1031 = ORIENTED_EDGE('',*,*,#1032,.T.);
#1032 = EDGE_CURVE('',#558,#481,#1033,.T.);
#1033 = LINE('',#1034,#1035);
#1034 = CARTESIAN_POINT('',(29.8,0.2,14.6));
#1035 = VECTOR('',#1036,1.);
#1036 = DIRECTION('',(-0.707106781187,-0.707106781187,6.065300454006E-16
    ));
#1037 = ORIENTED_EDGE('',*,*,#488,.F.);
#1038 = ORIENTED_EDGE('',*,*,#1039,.F.);
#1039 = EDGE_CURVE('',#581,#489,#1040,.T.);
#1040 = LINE('',#1041,#1042);
#1041 = CARTESIAN_POINT('',(29.8,0.2,0.4));
#1042 = VECTOR('',#1043,1.);
#1043 = DIRECTION('',(-0.707106781187,-0.707106781187,
    -6.946710071739E-17));
#1044 = PLANE('',#1045);
#1045 = AXIS2_PLACEMENT_3D('',#1046,#1047,#1048);
#1046 = CARTESIAN_POINT('',(29.8,0.2,0.));
#1047 = DIRECTION('',(-0.707106781187,0.707106781187,-5.47005954057E-18)
  );
#1048 = DIRECTION('',(3.867916194631E-18,-3.867916194631E-18,-1.));
#1049 = ADVANCED_FACE('',(#1050),#1069,.F.);
#1050 = FACE_BOUND('',#1051,.F.);
#1051 = EDGE_LOOP('',(#1052,#1060,#1067,#1068));
#1052 = ORIENTED_EDGE('',*,*,#1053,.T.);
#1053 = EDGE_CURVE('',#505,#1054,#1056,.T.);
#1054 = VERTEX_POINT('',#1055);
#1055 = CARTESIAN_POINT('',(12.,4.,9.2));
#1056 = LINE('',#1057,#1058);
#1057 = CARTESIAN_POINT('',(12.,-1.E-02,9.2));
#1058 = VECTOR('',#1059,1.);
#1059 = DIRECTION('',(0.,1.,0.));
#1060 = ORIENTED_EDGE('',*,*,#1061,.F.);
#1061 = EDGE_CURVE('',#1054,#1054,#1062,.T.);
#1062 = CIRCLE('',#1063,1.7);
#1063 = AXIS2_PLACEMENT_3D('',#1064,#1065,#1066);
#1064 = CARTESIAN_POINT('',(12.,4.,7.5));
#1065 = DIRECTION('',(0.,1.,0.));
#1066 = DIRECTION('',(0.,-0.,1.));
#1067 = ORIENTED_EDGE('',*,*,#1053,.F.);
#1068 = ORIENTED_EDGE('',*,*,#504,.T.);
#1069 = CYLINDRICAL_SURFACE('',#1070,1.7);
#1070 = AXIS2_PLACEMENT_3D('',#1071,#1072,#1073);
#1071 = CARTESIAN_POINT('',(12.,-1.E-02,7.5));
#1072 = DIRECTION('',(0.,1.,0.));
#1073 = DIRECTION('',(0.,-0.,1.));
#1074 = ADVANCED_FACE('',(#1075),#1094,.F.);
#1075 = FACE_BOUND('',#1076,.F.);
#1076 = EDGE_LOOP('',(#1077,#1085,#1092,#1093));
#1077 = ORIENTED_EDGE('',*,*,#1078,.T.);
#1078 = EDGE_CURVE('',#516,#1079,#1081,.T.);
#1079 = VERTEX_POINT('',#1080);
#1080 = CARTESIAN_POINT('',(16.5,4.,9.2));
#1081 = LINE('',#1082,#1083);
#1082 = CARTESIAN_POINT('',(16.5,-1.E-02,9.2));
#1083 = VECTOR('',#1084,1.);
#1084 = DIRECTION('',(0.,1.,0.));
#1085 = ORIENTED_EDGE('',*,*,#1086,.F.);
#1086 = EDGE_CURVE('',#1079,#1079,#1087,.T.);
#1087 = CIRCLE('',#1088,1.7);
#1088 = AXIS2_PLACEMENT_3D('',#1089,#1090,#1091);
#1089 = CARTESIAN_POINT('',(16.5,4.,7.5));
#1090 = DIRECTION('',(0.,1.,0.));
#1091 = DIRECTION('',(0.,-0.,1.));
#1092 = ORIENTED_EDGE('',*,*,#1078,.F.);
#1093 = ORIENTED_EDGE('',*,*,#515,.T.);
#1094 = CYLINDRICAL_SURFACE('',#1095,1.7);
#1095 = AXIS2_PLACEMENT_3D('',#1096,#1097,#1098);
#1096 = CARTESIAN_POINT('',(16.5,-1.E-02,7.5));
#1097 = DIRECTION('',(0.,1.,0.));
#1098 = DIRECTION('',(0.,-0.,1.));
#1099 = ADVANCED_FACE('',(#1100),#1105,.T.);
#1100 = FACE_BOUND('',#1101,.T.);
#1101 = EDGE_LOOP('',(#1102,#1103,#1104));
#1102 = ORIENTED_EDGE('',*,*,#557,.F.);
#1103 = ORIENTED_EDGE('',*,*,#1016,.T.);
#1104 = ORIENTED_EDGE('',*,*,#1032,.F.);
#1105 = PLANE('',#1106);
#1106 = AXIS2_PLACEMENT_3D('',#1107,#1108,#1109);
#1107 = CARTESIAN_POINT('',(29.6,0.4,15.));
#1108 = DIRECTION('',(0.57735026919,-0.57735026919,0.57735026919));
#1109 = DIRECTION('',(-0.707106781187,-0.707106781187,2.500452347492E-17
    ));
#1110 = ADVANCED_FACE('',(#1111),#1122,.F.);
#1111 = FACE_BOUND('',#1112,.F.);
#1112 = EDGE_LOOP('',(#1113,#1114,#1115,#1121));
#1113 = ORIENTED_EDGE('',*,*,#707,.F.);
#1114 = ORIENTED_EDGE('',*,*,#722,.F.);
#1115 = ORIENTED_EDGE('',*,*,#1116,.T.);
#1116 = EDGE_CURVE('',#723,#667,#1117,.T.);
#1117 = LINE('',#1118,#1119);
#1118 = CARTESIAN_POINT('',(28.5,4.4,14.));
#1119 = VECTOR('',#1120,1.);
#1120 = DIRECTION('',(1.,0.,-0.));
#1121 = ORIENTED_EDGE('',*,*,#674,.F.);
#1122 = PLANE('',#1123);
#1123 = AXIS2_PLACEMENT_3D('',#1124,#1125,#1126);
#1124 = CARTESIAN_POINT('',(28.5,4.4,14.));
#1125 = DIRECTION('',(0.,0.,1.));
#1126 = DIRECTION('',(1.,0.,-0.));
#1127 = ADVANCED_FACE('',(#1128),#1139,.T.);
#1128 = FACE_BOUND('',#1129,.T.);
#1129 = EDGE_LOOP('',(#1130,#1136,#1137,#1138));
#1130 = ORIENTED_EDGE('',*,*,#1131,.F.);
#1131 = EDGE_CURVE('',#731,#659,#1132,.T.);
#1132 = LINE('',#1133,#1134);
#1133 = CARTESIAN_POINT('',(28.5,4.4,1.));
#1134 = VECTOR('',#1135,1.);
#1135 = DIRECTION('',(1.,0.,-0.));
#1136 = ORIENTED_EDGE('',*,*,#730,.T.);
#1137 = ORIENTED_EDGE('',*,*,#1116,.T.);
#1138 = ORIENTED_EDGE('',*,*,#666,.F.);
#1139 = PLANE('',#1140);
#1140 = AXIS2_PLACEMENT_3D('',#1141,#1142,#1143);
#1141 = CARTESIAN_POINT('',(28.5,4.4,1.));
#1142 = DIRECTION('',(-0.,1.,0.));
#1143 = DIRECTION('',(0.,0.,1.));
#1144 = ADVANCED_FACE('',(#1145),#1151,.T.);
#1145 = FACE_BOUND('',#1146,.T.);
#1146 = EDGE_LOOP('',(#1147,#1148,#1149,#1150));
#1147 = ORIENTED_EDGE('',*,*,#763,.F.);
#1148 = ORIENTED_EDGE('',*,*,#738,.F.);
#1149 = ORIENTED_EDGE('',*,*,#1131,.T.);
#1150 = ORIENTED_EDGE('',*,*,#658,.F.);
#1151 = PLANE('',#1152);
#1152 = AXIS2_PLACEMENT_3D('',#1153,#1154,#1155);
#1153 = CARTESIAN_POINT('',(28.5,4.4,1.));
#1154 = DIRECTION('',(0.,0.,1.));
#1155 = DIRECTION('',(1.,0.,-0.));
#1156 = ADVANCED_FACE('',(#1157),#1168,.T.);
#1157 = FACE_BOUND('',#1158,.T.);
#1158 = EDGE_LOOP('',(#1159,#1165,#1166,#1167));
#1159 = ORIENTED_EDGE('',*,*,#1160,.F.);
#1160 = EDGE_CURVE('',#806,#628,#1161,.T.);
#1161 = LINE('',#1162,#1163);
#1162 = CARTESIAN_POINT('',(28.5,10.6,1.));
#1163 = VECTOR('',#1164,1.);
#1164 = DIRECTION('',(1.,0.,-0.));
#1165 = ORIENTED_EDGE('',*,*,#805,.F.);
#1166 = ORIENTED_EDGE('',*,*,#780,.T.);
#1167 = ORIENTED_EDGE('',*,*,#635,.F.);
#1168 = PLANE('',#1169);
#1169 = AXIS2_PLACEMENT_3D('',#1170,#1171,#1172);
#1170 = CARTESIAN_POINT('',(28.5,9.4,1.));
#1171 = DIRECTION('',(0.,0.,1.));
#1172 = DIRECTION('',(1.,0.,-0.));
#1173 = ADVANCED_FACE('',(#1174),#1185,.F.);
#1174 = FACE_BOUND('',#1175,.F.);
#1175 = EDGE_LOOP('',(#1176,#1177,#1178,#1184));
#1176 = ORIENTED_EDGE('',*,*,#1160,.F.);
#1177 = ORIENTED_EDGE('',*,*,#813,.T.);
#1178 = ORIENTED_EDGE('',*,*,#1179,.T.);
#1179 = EDGE_CURVE('',#814,#620,#1180,.T.);
#1180 = LINE('',#1181,#1182);
#1181 = CARTESIAN_POINT('',(28.5,10.6,14.));
#1182 = VECTOR('',#1183,1.);
#1183 = DIRECTION('',(1.,0.,-0.));
#1184 = ORIENTED_EDGE('',*,*,#627,.F.);
#1185 = PLANE('',#1186);
#1186 = AXIS2_PLACEMENT_3D('',#1187,#1188,#1189);
#1187 = CARTESIAN_POINT('',(28.5,10.6,1.));
#1188 = DIRECTION('',(-0.,1.,0.));
#1189 = DIRECTION('',(0.,0.,1.));
#1190 = ADVANCED_FACE('',(#1191),#1197,.F.);
#1191 = FACE_BOUND('',#1192,.F.);
#1192 = EDGE_LOOP('',(#1193,#1194,#1195,#1196));
#1193 = ORIENTED_EDGE('',*,*,#1179,.F.);
#1194 = ORIENTED_EDGE('',*,*,#821,.F.);
#1195 = ORIENTED_EDGE('',*,*,#847,.T.);
#1196 = ORIENTED_EDGE('',*,*,#619,.F.);
#1197 = PLANE('',#1198);
#1198 = AXIS2_PLACEMENT_3D('',#1199,#1200,#1201);
#1199 = CARTESIAN_POINT('',(28.5,9.4,14.));
#1200 = DIRECTION('',(0.,0.,1.));
#1201 = DIRECTION('',(1.,0.,-0.));
#1202 = ADVANCED_FACE('',(#1203),#1219,.T.);
#1203 = FACE_BOUND('',#1204,.F.);
#1204 = EDGE_LOOP('',(#1205,#1206,#1212,#1213));
#1205 = ORIENTED_EDGE('',*,*,#596,.T.);
#1206 = ORIENTED_EDGE('',*,*,#1207,.F.);
#1207 = EDGE_CURVE('',#937,#597,#1208,.T.);
#1208 = LINE('',#1209,#1210);
#1209 = CARTESIAN_POINT('',(29.7,14.9,14.6));
#1210 = VECTOR('',#1211,1.);
#1211 = DIRECTION('',(0.707106781187,-0.707106781187,6.940134322173E-18)
  );
#1212 = ORIENTED_EDGE('',*,*,#944,.F.);
#1213 = ORIENTED_EDGE('',*,*,#1214,.F.);
#1214 = EDGE_CURVE('',#589,#945,#1215,.T.);
#1215 = LINE('',#1216,#1217);
#1216 = CARTESIAN_POINT('',(29.8,14.8,0.4));
#1217 = VECTOR('',#1218,1.);
#1218 = DIRECTION('',(-0.707106781187,0.707106781187,-9.517108720562E-16
    ));
#1219 = PLANE('',#1220);
#1220 = AXIS2_PLACEMENT_3D('',#1221,#1222,#1223);
#1221 = CARTESIAN_POINT('',(29.8,14.8,0.));
#1222 = DIRECTION('',(0.707106781187,0.707106781187,2.049090107045E-19)
  );
#1223 = DIRECTION('',(1.448925509954E-19,1.448925509954E-19,-1.));
#1224 = ADVANCED_FACE('',(#1225),#1241,.F.);
#1225 = FACE_BOUND('',#1226,.F.);
#1226 = EDGE_LOOP('',(#1227,#1233,#1234,#1240));
#1227 = ORIENTED_EDGE('',*,*,#1228,.T.);
#1228 = EDGE_CURVE('',#968,#581,#1229,.T.);
#1229 = LINE('',#1230,#1231);
#1230 = CARTESIAN_POINT('',(29.7,0.4,1.E-01));
#1231 = VECTOR('',#1232,1.);
#1232 = DIRECTION('',(0.707106781187,5.667399243391E-17,0.707106781187)
  );
#1233 = ORIENTED_EDGE('',*,*,#588,.T.);
#1234 = ORIENTED_EDGE('',*,*,#1235,.F.);
#1235 = EDGE_CURVE('',#976,#589,#1236,.T.);
#1236 = LINE('',#1237,#1238);
#1237 = CARTESIAN_POINT('',(29.7,14.6,0.1));
#1238 = VECTOR('',#1239,1.);
#1239 = DIRECTION('',(0.707106781187,-5.442477015508E-16,0.707106781187)
  );
#1240 = ORIENTED_EDGE('',*,*,#975,.F.);
#1241 = PLANE('',#1242);
#1242 = AXIS2_PLACEMENT_3D('',#1243,#1244,#1245);
#1243 = CARTESIAN_POINT('',(29.8,0.,0.2));
#1244 = DIRECTION('',(-0.707106781187,5.332783484717E-18,0.707106781187)
  );
#1245 = DIRECTION('',(3.770847364643E-18,1.,-3.770847364643E-18));
#1246 = ADVANCED_FACE('',(#1247),#1257,.T.);
#1247 = FACE_BOUND('',#1248,.T.);
#1248 = EDGE_LOOP('',(#1249,#1250,#1256));
#1249 = ORIENTED_EDGE('',*,*,#1207,.F.);
#1250 = ORIENTED_EDGE('',*,*,#1251,.T.);
#1251 = EDGE_CURVE('',#937,#863,#1252,.T.);
#1252 = LINE('',#1253,#1254);
#1253 = CARTESIAN_POINT('',(29.6,14.9,14.7));
#1254 = VECTOR('',#1255,1.);
#1255 = DIRECTION('',(3.121529680577E-15,-0.707106781187,0.707106781187)
  );
#1256 = ORIENTED_EDGE('',*,*,#872,.F.);
#1257 = PLANE('',#1258);
#1258 = AXIS2_PLACEMENT_3D('',#1259,#1260,#1261);
#1259 = CARTESIAN_POINT('',(29.6,15.,14.6));
#1260 = DIRECTION('',(0.57735026919,0.57735026919,0.57735026919));
#1261 = DIRECTION('',(-0.707106781187,3.180140265601E-15,0.707106781187)
  );
#1262 = ADVANCED_FACE('',(#1263),#1269,.T.);
#1263 = FACE_BOUND('',#1264,.F.);
#1264 = EDGE_LOOP('',(#1265,#1266,#1267,#1268));
#1265 = ORIENTED_EDGE('',*,*,#904,.F.);
#1266 = ORIENTED_EDGE('',*,*,#936,.T.);
#1267 = ORIENTED_EDGE('',*,*,#1251,.T.);
#1268 = ORIENTED_EDGE('',*,*,#889,.F.);
#1269 = PLANE('',#1270);
#1270 = AXIS2_PLACEMENT_3D('',#1271,#1272,#1273);
#1271 = CARTESIAN_POINT('',(0.,14.8,14.8));
#1272 = DIRECTION('',(1.548203495886E-18,0.707106781187,0.707106781187)
  );
#1273 = DIRECTION('',(-1.,1.094745190598E-18,1.094745190598E-18));
#1274 = ADVANCED_FACE('',(#1275),#1286,.F.);
#1275 = FACE_BOUND('',#1276,.T.);
#1276 = EDGE_LOOP('',(#1277,#1278,#1279,#1285));
#1277 = ORIENTED_EDGE('',*,*,#920,.T.);
#1278 = ORIENTED_EDGE('',*,*,#952,.T.);
#1279 = ORIENTED_EDGE('',*,*,#1280,.F.);
#1280 = EDGE_CURVE('',#976,#945,#1281,.T.);
#1281 = LINE('',#1282,#1283);
#1282 = CARTESIAN_POINT('',(29.6,14.7,1.E-01));
#1283 = VECTOR('',#1284,1.);
#1284 = DIRECTION('',(3.241350442795E-16,0.707106781187,0.707106781187)
  );
#1285 = ORIENTED_EDGE('',*,*,#983,.F.);
#1286 = PLANE('',#1287);
#1287 = AXIS2_PLACEMENT_3D('',#1288,#1289,#1290);
#1288 = CARTESIAN_POINT('',(0.,14.8,0.2));
#1289 = DIRECTION('',(2.068430171249E-18,-0.707106781187,0.707106781187)
  );
#1290 = DIRECTION('',(-1.,-1.462601000501E-18,1.462601000501E-18));
#1291 = ADVANCED_FACE('',(#1292),#1297,.F.);
#1292 = FACE_BOUND('',#1293,.F.);
#1293 = EDGE_LOOP('',(#1294,#1295,#1296));
#1294 = ORIENTED_EDGE('',*,*,#1228,.F.);
#1295 = ORIENTED_EDGE('',*,*,#999,.T.);
#1296 = ORIENTED_EDGE('',*,*,#1039,.F.);
#1297 = PLANE('',#1298);
#1298 = AXIS2_PLACEMENT_3D('',#1299,#1300,#1301);
#1299 = CARTESIAN_POINT('',(29.6,0.4,0.));
#1300 = DIRECTION('',(-0.57735026919,0.57735026919,0.57735026919));
#1301 = DIRECTION('',(-0.707106781187,-0.707106781187,-3.99020542643E-17
    ));
#1302 = ADVANCED_FACE('',(#1303),#1306,.F.);
#1303 = FACE_BOUND('',#1304,.F.);
#1304 = EDGE_LOOP('',(#1305));
#1305 = ORIENTED_EDGE('',*,*,#1061,.T.);
#1306 = PLANE('',#1307);
#1307 = AXIS2_PLACEMENT_3D('',#1308,#1309,#1310);
#1308 = CARTESIAN_POINT('',(12.,4.,7.5));
#1309 = DIRECTION('',(0.,1.,0.));
#1310 = DIRECTION('',(0.,-0.,1.));
#1311 = ADVANCED_FACE('',(#1312),#1315,.F.);
#1312 = FACE_BOUND('',#1313,.F.);
#1313 = EDGE_LOOP('',(#1314));
#1314 = ORIENTED_EDGE('',*,*,#1086,.T.);
#1315 = PLANE('',#1316);
#1316 = AXIS2_PLACEMENT_3D('',#1317,#1318,#1319);
#1317 = CARTESIAN_POINT('',(16.5,4.,7.5));
#1318 = DIRECTION('',(0.,1.,0.));
#1319 = DIRECTION('',(0.,-0.,1.));
#1320 = ADVANCED_FACE('',(#1321),#1326,.T.);
#1321 = FACE_BOUND('',#1322,.T.);
#1322 = EDGE_LOOP('',(#1323,#1324,#1325));
#1323 = ORIENTED_EDGE('',*,*,#1235,.F.);
#1324 = ORIENTED_EDGE('',*,*,#1280,.T.);
#1325 = ORIENTED_EDGE('',*,*,#1214,.F.);
#1326 = PLANE('',#1327);
#1327 = AXIS2_PLACEMENT_3D('',#1328,#1329,#1330);
#1328 = CARTESIAN_POINT('',(29.6,14.6,-4.099961635725E-16));
#1329 = DIRECTION('',(0.57735026919,0.57735026919,-0.57735026919));
#1330 = DIRECTION('',(-0.707106781187,0.707106781187,-9.114984636527E-16
    ));
#1331 = ( GEOMETRIC_REPRESENTATION_CONTEXT(3) 
GLOBAL_UNCERTAINTY_ASSIGNED_CONTEXT((#1335)) 
GLOBAL_UNIT_ASSIGNED_CONTEXT((#1332,#1333,#1334)) REPRESENTATION_CONTEXT
('Context #1','3D Context with UNIT and UNCERTAINTY') );
#1332 = ( LENGTH_UNIT() NAMED_UNIT(*) SI_UNIT(.MILLI.,.METRE.) );
#1333 = ( NAMED_UNIT(*) PLANE_ANGLE_UNIT() SI_UNIT($,.RADIAN.) );
#1334 = ( NAMED_UNIT(*) SI_UNIT($,.STERADIAN.) SOLID_ANGLE_UNIT() );
#1335 = UNCERTAINTY_MEASURE_WITH_UNIT(LENGTH_MEASURE(1.E-07),#1332,
  'distance_accuracy_value','confusion accuracy');
#1336 = CONTEXT_DEPENDENT_SHAPE_REPRESENTATION(#1337,#1339);
#1337 = ( REPRESENTATION_RELATIONSHIP('','',#52,#10) 
REPRESENTATION_RELATIONSHIP_WITH_TRANSFORMATION(#1338) 
SHAPE_REPRESENTATION_RELATIONSHIP() );
#1338 = ITEM_DEFINED_TRANSFORMATION('','',#11,#15);
#1339 = PRODUCT_DEFINITION_SHAPE('Placement','Placement of an item',
  #1340);
#1340 = NEXT_ASSEMBLY_USAGE_OCCURRENCE('11','housing','',#5,#47,$);
#1341 = PRODUCT_RELATED_PRODUCT_CATEGORY('part',$,(#49));
#1342 = SHAPE_DEFINITION_REPRESENTATION(#1343,#1349);
#1343 = PRODUCT_DEFINITION_SHAPE('','',#1344);
#1344 = PRODUCT_DEFINITION('design','',#1345,#1348);
#1345 = PRODUCT_DEFINITION_FORMATION('','',#1346);
#1346 = PRODUCT('emitter_led','emitter_led','',(#1347));
#1347 = PRODUCT_CONTEXT('',#2,'mechanical');
#1348 = PRODUCT_DEFINITION_CONTEXT('part definition',#2,'design');
#1349 = ADVANCED_BREP_SHAPE_REPRESENTATION('',(#11,#1350),#1403);
#1350 = MANIFOLD_SOLID_BREP('',#1351);
#1351 = CLOSED_SHELL('',(#1352,#1385,#1394));
#1352 = ADVANCED_FACE('',(#1353),#1380,.T.);
#1353 = FACE_BOUND('',#1354,.T.);
#1354 = EDGE_LOOP('',(#1355,#1364,#1372,#1379));
#1355 = ORIENTED_EDGE('',*,*,#1356,.F.);
#1356 = EDGE_CURVE('',#1357,#1357,#1359,.T.);
#1357 = VERTEX_POINT('',#1358);
#1358 = CARTESIAN_POINT('',(12.,3.4,6.));
#1359 = CIRCLE('',#1360,1.5);
#1360 = AXIS2_PLACEMENT_3D('',#1361,#1362,#1363);
#1361 = CARTESIAN_POINT('',(12.,3.4,7.5));
#1362 = DIRECTION('',(0.,-1.,0.));
#1363 = DIRECTION('',(0.,-0.,-1.));
#1364 = ORIENTED_EDGE('',*,*,#1365,.F.);
#1365 = EDGE_CURVE('',#1366,#1357,#1368,.T.);
#1366 = VERTEX_POINT('',#1367);
#1367 = CARTESIAN_POINT('',(12.,4.,6.));
#1368 = LINE('',#1369,#1370);
#1369 = CARTESIAN_POINT('',(12.,4.,6.));
#1370 = VECTOR('',#1371,1.);
#1371 = DIRECTION('',(0.,-1.,0.));
#1372 = ORIENTED_EDGE('',*,*,#1373,.T.);
#1373 = EDGE_CURVE('',#1366,#1366,#1374,.T.);
#1374 = CIRCLE('',#1375,1.5);
#1375 = AXIS2_PLACEMENT_3D('',#1376,#1377,#1378);
#1376 = CARTESIAN_POINT('',(12.,4.,7.5));
#1377 = DIRECTION('',(0.,-1.,0.));
#1378 = DIRECTION('',(0.,-0.,-1.));
#1379 = ORIENTED_EDGE('',*,*,#1365,.T.);
#1380 = CYLINDRICAL_SURFACE('',#1381,1.5);
#1381 = AXIS2_PLACEMENT_3D('',#1382,#1383,#1384);
#1382 = CARTESIAN_POINT('',(12.,4.,7.5));
#1383 = DIRECTION('',(0.,-1.,0.));
#1384 = DIRECTION('',(0.,-0.,-1.));
#1385 = ADVANCED_FACE('',(#1386),#1389,.T.);
#1386 = FACE_BOUND('',#1387,.T.);
#1387 = EDGE_LOOP('',(#1388));
#1388 = ORIENTED_EDGE('',*,*,#1356,.T.);
#1389 = PLANE('',#1390);
#1390 = AXIS2_PLACEMENT_3D('',#1391,#1392,#1393);
#1391 = CARTESIAN_POINT('',(12.,3.4,7.5));
#1392 = DIRECTION('',(0.,-1.,0.));
#1393 = DIRECTION('',(0.,-0.,-1.));
#1394 = ADVANCED_FACE('',(#1395),#1398,.F.);
#1395 = FACE_BOUND('',#1396,.T.);
#1396 = EDGE_LOOP('',(#1397));
#1397 = ORIENTED_EDGE('',*,*,#1373,.F.);
#1398 = PLANE('',#1399);
#1399 = AXIS2_PLACEMENT_3D('',#1400,#1401,#1402);
#1400 = CARTESIAN_POINT('',(12.,4.,7.5));
#1401 = DIRECTION('',(0.,-1.,0.));
#1402 = DIRECTION('',(0.,-0.,-1.));
#1403 = ( GEOMETRIC_REPRESENTATION_CONTEXT(3) 
GLOBAL_UNCERTAINTY_ASSIGNED_CONTEXT((#1407)) 
GLOBAL_UNIT_ASSIGNED_CONTEXT((#1404,#1405,#1406)) REPRESENTATION_CONTEXT
('Context #1','3D Context with UNIT and UNCERTAINTY') );
#1404 = ( LENGTH_UNIT() NAMED_UNIT(*) SI_UNIT(.MILLI.,.METRE.) );
#1405 = ( NAMED_UNIT(*) PLANE_ANGLE_UNIT() SI_UNIT($,.RADIAN.) );
#1406 = ( NAMED_UNIT(*) SI_UNIT($,.STERADIAN.) SOLID_ANGLE_UNIT() );
#1407 = UNCERTAINTY_MEASURE_WITH_UNIT(LENGTH_MEASURE(1.E-07),#1404,
  'distance_accuracy_value','confusion accuracy');
#1408 = CONTEXT_DEPENDENT_SHAPE_REPRESENTATION(#1409,#1411);
#1409 = ( REPRESENTATION_RELATIONSHIP('','',#1349,#10) 
REPRESENTATION_RELATIONSHIP_WITH_TRANSFORMATION(#1410) 
SHAPE_REPRESENTATION_RELATIONSHIP() );
#1410 = ITEM_DEFINED_TRANSFORMATION('','',#11,#19);
#1411 = PRODUCT_DEFINITION_SHAPE('Placement','Placement of an item',
  #1412);
#1412 = NEXT_ASSEMBLY_USAGE_OCCURRENCE('12','emitter_led','',#5,#1344,$
  );
#1413 = PRODUCT_RELATED_PRODUCT_CATEGORY('part',$,(#1346));
#1414 = SHAPE_DEFINITION_REPRESENTATION(#1415,#1421);
#1415 = PRODUCT_DEFINITION_SHAPE('','',#1416);
#1416 = PRODUCT_DEFINITION('design','',#1417,#1420);
#1417 = PRODUCT_DEFINITION_FORMATION('','',#1418);
#1418 = PRODUCT('receiver','receiver','',(#1419));
#1419 = PRODUCT_CONTEXT('',#2,'mechanical');
#1420 = PRODUCT_DEFINITION_CONTEXT('part definition',#2,'design');
#1421 = ADVANCED_BREP_SHAPE_REPRESENTATION('',(#11,#1422),#1475);
#1422 = MANIFOLD_SOLID_BREP('',#1423);
#1423 = CLOSED_SHELL('',(#1424,#1457,#1466));
#1424 = ADVANCED_FACE('',(#1425),#1452,.T.);
#1425 = FACE_BOUND('',#1426,.T.);
#1426 = EDGE_LOOP('',(#1427,#1436,#1444,#1451));
#1427 = ORIENTED_EDGE('',*,*,#1428,.F.);
#1428 = EDGE_CURVE('',#1429,#1429,#1431,.T.);
#1429 = VERTEX_POINT('',#1430);
#1430 = CARTESIAN_POINT('',(16.5,3.4,6.));
#1431 = CIRCLE('',#1432,1.5);
#1432 = AXIS2_PLACEMENT_3D('',#1433,#1434,#1435);
#1433 = CARTESIAN_POINT('',(16.5,3.4,7.5));
#1434 = DIRECTION('',(0.,-1.,0.));
#1435 = DIRECTION('',(0.,-0.,-1.));
#1436 = ORIENTED_EDGE('',*,*,#1437,.F.);
#1437 = EDGE_CURVE('',#1438,#1429,#1440,.T.);
#1438 = VERTEX_POINT('',#1439);
#1439 = CARTESIAN_POINT('',(16.5,4.,6.));
#1440 = LINE('',#1441,#1442);
#1441 = CARTESIAN_POINT('',(16.5,4.,6.));
#1442 = VECTOR('',#1443,1.);
#1443 = DIRECTION('',(0.,-1.,0.));
#1444 = ORIENTED_EDGE('',*,*,#1445,.T.);
#1445 = EDGE_CURVE('',#1438,#1438,#1446,.T.);
#1446 = CIRCLE('',#1447,1.5);
#1447 = AXIS2_PLACEMENT_3D('',#1448,#1449,#1450);
#1448 = CARTESIAN_POINT('',(16.5,4.,7.5));
#1449 = DIRECTION('',(0.,-1.,0.));
#1450 = DIRECTION('',(0.,-0.,-1.));
#1451 = ORIENTED_EDGE('',*,*,#1437,.T.);
#1452 = CYLINDRICAL_SURFACE('',#1453,1.5);
#1453 = AXIS2_PLACEMENT_3D('',#1454,#1455,#1456);
#1454 = CARTESIAN_POINT('',(16.5,4.,7.5));
#1455 = DIRECTION('',(0.,-1.,0.));
#1456 = DIRECTION('',(0.,-0.,-1.));
#1457 = ADVANCED_FACE('',(#1458),#1461,.T.);
#1458 = FACE_BOUND('',#1459,.T.);
#1459 = EDGE_LOOP('',(#1460));
#1460 = ORIENTED_EDGE('',*,*,#1428,.T.);
#1461 = PLANE('',#1462);
#1462 = AXIS2_PLACEMENT_3D('',#1463,#1464,#1465);
#1463 = CARTESIAN_POINT('',(16.5,3.4,7.5));
#1464 = DIRECTION('',(0.,-1.,0.));
#1465 = DIRECTION('',(0.,-0.,-1.));
#1466 = ADVANCED_FACE('',(#1467),#1470,.F.);
#1467 = FACE_BOUND('',#1468,.T.);
#1468 = EDGE_LOOP('',(#1469));
#1469 = ORIENTED_EDGE('',*,*,#1445,.F.);
#1470 = PLANE('',#1471);
#1471 = AXIS2_PLACEMENT_3D('',#1472,#1473,#1474);
#1472 = CARTESIAN_POINT('',(16.5,4.,7.5));
#1473 = DIRECTION('',(0.,-1.,0.));
#1474 = DIRECTION('',(0.,-0.,-1.));
#1475 = ( GEOMETRIC_REPRESENTATION_CONTEXT(3) 
GLOBAL_UNCERTAINTY_ASSIGNED_CONTEXT((#1479)) 
GLOBAL_UNIT_ASSIGNED_CONTEXT((#1476,#1477,#1478)) REPRESENTATION_CONTEXT
('Context #1','3D Context with UNIT and UNCERTAINTY') );
#1476 = ( LENGTH_UNIT() NAMED_UNIT(*) SI_UNIT(.MILLI.,.METRE.) );
#1477 = ( NAMED_UNIT(*) PLANE_ANGLE_UNIT() SI_UNIT($,.RADIAN.) );
#1478 = ( NAMED_UNIT(*) SI_UNIT($,.STERADIAN.) SOLID_ANGLE_UNIT() );
#1479 = UNCERTAINTY_MEASURE_WITH_UNIT(LENGTH_MEASURE(1.E-07),#1476,
  'distance_accuracy_value','confusion accuracy');
#1480 = CONTEXT_DEPENDENT_SHAPE_REPRESENTATION(#1481,#1483);
#1481 = ( REPRESENTATION_RELATIONSHIP('','',#1421,#10) 
REPRESENTATION_RELATIONSHIP_WITH_TRANSFORMATION(#1482) 
SHAPE_REPRESENTATION_RELATIONSHIP() );
#1482 = ITEM_DEFINED_TRANSFORMATION('','',#11,#23);
#1483 = PRODUCT_DEFINITION_SHAPE('Placement','Placement of an item',
  #1484);
#1484 = NEXT_ASSEMBLY_USAGE_OCCURRENCE('13','receiver','',#5,#1416,$);
#1485 = PRODUCT_RELATED_PRODUCT_CATEGORY('part',$,(#1418));
#1486 = SHAPE_DEFINITION_REPRESENTATION(#1487,#1493);
#1487 = PRODUCT_DEFINITION_SHAPE('','',#1488);
#1488 = PRODUCT_DEFINITION('design','',#1489,#1492);
#1489 = PRODUCT_DEFINITION_FORMATION('','',#1490);
#1490 = PRODUCT('wire_red','wire_red','',(#1491));
#1491 = PRODUCT_CONTEXT('',#2,'mechanical');
#1492 = PRODUCT_DEFINITION_CONTEXT('part definition',#2,'design');
#1493 = ADVANCED_BREP_SHAPE_REPRESENTATION('',(#11,#1494),#1547);
#1494 = MANIFOLD_SOLID_BREP('',#1495);
#1495 = CLOSED_SHELL('',(#1496,#1529,#1538));
#1496 = ADVANCED_FACE('',(#1497),#1524,.T.);
#1497 = FACE_BOUND('',#1498,.T.);
#1498 = EDGE_LOOP('',(#1499,#1508,#1516,#1523));
#1499 = ORIENTED_EDGE('',*,*,#1500,.F.);
#1500 = EDGE_CURVE('',#1501,#1501,#1503,.T.);
#1501 = VERTEX_POINT('',#1502);
#1502 = CARTESIAN_POINT('',(4.4,7.5,-12.));
#1503 = CIRCLE('',#1504,0.6);
#1504 = AXIS2_PLACEMENT_3D('',#1505,#1506,#1507);
#1505 = CARTESIAN_POINT('',(5.,7.5,-12.));
#1506 = DIRECTION('',(0.,0.,-1.));
#1507 = DIRECTION('',(-1.,0.,-0.));
#1508 = ORIENTED_EDGE('',*,*,#1509,.F.);
#1509 = EDGE_CURVE('',#1510,#1501,#1512,.T.);
#1510 = VERTEX_POINT('',#1511);
#1511 = CARTESIAN_POINT('',(4.4,7.5,0.));
#1512 = LINE('',#1513,#1514);
#1513 = CARTESIAN_POINT('',(4.4,7.5,0.));
#1514 = VECTOR('',#1515,1.);
#1515 = DIRECTION('',(0.,0.,-1.));
#1516 = ORIENTED_EDGE('',*,*,#1517,.T.);
#1517 = EDGE_CURVE('',#1510,#1510,#1518,.T.);
#1518 = CIRCLE('',#1519,0.6);
#1519 = AXIS2_PLACEMENT_3D('',#1520,#1521,#1522);
#1520 = CARTESIAN_POINT('',(5.,7.5,0.));
#1521 = DIRECTION('',(0.,0.,-1.));
#1522 = DIRECTION('',(-1.,0.,-0.));
#1523 = ORIENTED_EDGE('',*,*,#1509,.T.);
#1524 = CYLINDRICAL_SURFACE('',#1525,0.6);
#1525 = AXIS2_PLACEMENT_3D('',#1526,#1527,#1528);
#1526 = CARTESIAN_POINT('',(5.,7.5,0.));
#1527 = DIRECTION('',(0.,0.,-1.));
#1528 = DIRECTION('',(-1.,0.,-0.));
#1529 = ADVANCED_FACE('',(#1530),#1533,.T.);
#1530 = FACE_BOUND('',#1531,.T.);
#1531 = EDGE_LOOP('',(#1532));
#1532 = ORIENTED_EDGE('',*,*,#1500,.T.);
#1533 = PLANE('',#1534);
#1534 = AXIS2_PLACEMENT_3D('',#1535,#1536,#1537);
#1535 = CARTESIAN_POINT('',(5.,7.5,-12.));
#1536 = DIRECTION('',(0.,0.,-1.));
#1537 = DIRECTION('',(-1.,0.,-0.));
#1538 = ADVANCED_FACE('',(#1539),#1542,.F.);
#1539 = FACE_BOUND('',#1540,.T.);
#1540 = EDGE_LOOP('',(#1541));
#1541 = ORIENTED_EDGE('',*,*,#1517,.F.);
#1542 = PLANE('',#1543);
#1543 = AXIS2_PLACEMENT_3D('',#1544,#1545,#1546);
#1544 = CARTESIAN_POINT('',(5.,7.5,0.));
#1545 = DIRECTION('',(0.,0.,-1.));
#1546 = DIRECTION('',(-1.,0.,-0.));
#1547 = ( GEOMETRIC_REPRESENTATION_CONTEXT(3) 
GLOBAL_UNCERTAINTY_ASSIGNED_CONTEXT((#1551)) 
GLOBAL_UNIT_ASSIGNED_CONTEXT((#1548,#1549,#1550)) REPRESENTATION_CONTEXT
('Context #1','3D Context with UNIT and UNCERTAINTY') );
#1548 = ( LENGTH_UNIT() NAMED_UNIT(*) SI_UNIT(.MILLI.,.METRE.) );
#1549 = ( NAMED_UNIT(*) PLANE_ANGLE_UNIT() SI_UNIT($,.RADIAN.) );
#1550 = ( NAMED_UNIT(*) SI_UNIT($,.STERADIAN.) SOLID_ANGLE_UNIT() );
#1551 = UNCERTAINTY_MEASURE_WITH_UNIT(LENGTH_MEASURE(1.E-07),#1548,
  'distance_accuracy_value','confusion accuracy');
#1552 = CONTEXT_DEPENDENT_SHAPE_REPRESENTATION(#1553,#1555);
#1553 = ( REPRESENTATION_RELATIONSHIP('','',#1493,#10) 
REPRESENTATION_RELATIONSHIP_WITH_TRANSFORMATION(#1554) 
SHAPE_REPRESENTATION_RELATIONSHIP() );
#1554 = ITEM_DEFINED_TRANSFORMATION('','',#11,#27);
#1555 = PRODUCT_DEFINITION_SHAPE('Placement','Placement of an item',
  #1556);
#1556 = NEXT_ASSEMBLY_USAGE_OCCURRENCE('14','wire_red','',#5,#1488,$);
#1557 = PRODUCT_RELATED_PRODUCT_CATEGORY('part',$,(#1490));
#1558 = SHAPE_DEFINITION_REPRESENTATION(#1559,#1565);
#1559 = PRODUCT_DEFINITION_SHAPE('','',#1560);
#1560 = PRODUCT_DEFINITION('design','',#1561,#1564);
#1561 = PRODUCT_DEFINITION_FORMATION('','',#1562);
#1562 = PRODUCT('wire_green','wire_green','',(#1563));
#1563 = PRODUCT_CONTEXT('',#2,'mechanical');
#1564 = PRODUCT_DEFINITION_CONTEXT('part definition',#2,'design');
#1565 = ADVANCED_BREP_SHAPE_REPRESENTATION('',(#11,#1566),#1619);
#1566 = MANIFOLD_SOLID_BREP('',#1567);
#1567 = CLOSED_SHELL('',(#1568,#1601,#1610));
#1568 = ADVANCED_FACE('',(#1569),#1596,.T.);
#1569 = FACE_BOUND('',#1570,.T.);
#1570 = EDGE_LOOP('',(#1571,#1580,#1588,#1595));
#1571 = ORIENTED_EDGE('',*,*,#1572,.F.);
#1572 = EDGE_CURVE('',#1573,#1573,#1575,.T.);
#1573 = VERTEX_POINT('',#1574);
#1574 = CARTESIAN_POINT('',(6.4,7.5,-12.));
#1575 = CIRCLE('',#1576,0.6);
#1576 = AXIS2_PLACEMENT_3D('',#1577,#1578,#1579);
#1577 = CARTESIAN_POINT('',(7.,7.5,-12.));
#1578 = DIRECTION('',(0.,0.,-1.));
#1579 = DIRECTION('',(-1.,0.,-0.));
#1580 = ORIENTED_EDGE('',*,*,#1581,.F.);
#1581 = EDGE_CURVE('',#1582,#1573,#1584,.T.);
#1582 = VERTEX_POINT('',#1583);
#1583 = CARTESIAN_POINT('',(6.4,7.5,0.));
#1584 = LINE('',#1585,#1586);
#1585 = CARTESIAN_POINT('',(6.4,7.5,0.));
#1586 = VECTOR('',#1587,1.);
#1587 = DIRECTION('',(0.,0.,-1.));
#1588 = ORIENTED_EDGE('',*,*,#1589,.T.);
#1589 = EDGE_CURVE('',#1582,#1582,#1590,.T.);
#1590 = CIRCLE('',#1591,0.6);
#1591 = AXIS2_PLACEMENT_3D('',#1592,#1593,#1594);
#1592 = CARTESIAN_POINT('',(7.,7.5,0.));
#1593 = DIRECTION('',(0.,0.,-1.));
#1594 = DIRECTION('',(-1.,0.,-0.));
#1595 = ORIENTED_EDGE('',*,*,#1581,.T.);
#1596 = CYLINDRICAL_SURFACE('',#1597,0.6);
#1597 = AXIS2_PLACEMENT_3D('',#1598,#1599,#1600);
#1598 = CARTESIAN_POINT('',(7.,7.5,0.));
#1599 = DIRECTION('',(0.,0.,-1.));
#1600 = DIRECTION('',(-1.,0.,-0.));
#1601 = ADVANCED_FACE('',(#1602),#1605,.T.);
#1602 = FACE_BOUND('',#1603,.T.);
#1603 = EDGE_LOOP('',(#1604));
#1604 = ORIENTED_EDGE('',*,*,#1572,.T.);
#1605 = PLANE('',#1606);
#1606 = AXIS2_PLACEMENT_3D('',#1607,#1608,#1609);
#1607 = CARTESIAN_POINT('',(7.,7.5,-12.));
#1608 = DIRECTION('',(0.,0.,-1.));
#1609 = DIRECTION('',(-1.,0.,-0.));
#1610 = ADVANCED_FACE('',(#1611),#1614,.F.);
#1611 = FACE_BOUND('',#1612,.T.);
#1612 = EDGE_LOOP('',(#1613));
#1613 = ORIENTED_EDGE('',*,*,#1589,.F.);
#1614 = PLANE('',#1615);
#1615 = AXIS2_PLACEMENT_3D('',#1616,#1617,#1618);
#1616 = CARTESIAN_POINT('',(7.,7.5,0.));
#1617 = DIRECTION('',(0.,0.,-1.));
#1618 = DIRECTION('',(-1.,0.,-0.));
#1619 = ( GEOMETRIC_REPRESENTATION_CONTEXT(3) 
GLOBAL_UNCERTAINTY_ASSIGNED_CONTEXT((#1623)) 
GLOBAL_UNIT_ASSIGNED_CONTEXT((#1620,#1621,#1622)) REPRESENTATION_CONTEXT
('Context #1','3D Context with UNIT and UNCERTAINTY') );
#1620 = ( LENGTH_UNIT() NAMED_UNIT(*) SI_UNIT(.MILLI.,.METRE.) );
#1621 = ( NAMED_UNIT(*) PLANE_ANGLE_UNIT() SI_UNIT($,.RADIAN.) );
#1622 = ( NAMED_UNIT(*) SI_UNIT($,.STERADIAN.) SOLID_ANGLE_UNIT() );
#1623 = UNCERTAINTY_MEASURE_WITH_UNIT(LENGTH_MEASURE(1.E-07),#1620,
  'distance_accuracy_value','confusion accuracy');
#1624 = CONTEXT_DEPENDENT_SHAPE_REPRESENTATION(#1625,#1627);
#1625 = ( REPRESENTATION_RELATIONSHIP('','',#1565,#10) 
REPRESENTATION_RELATIONSHIP_WITH_TRANSFORMATION(#1626) 
SHAPE_REPRESENTATION_RELATIONSHIP() );
#1626 = ITEM_DEFINED_TRANSFORMATION('','',#11,#31);
#1627 = PRODUCT_DEFINITION_SHAPE('Placement','Placement of an item',
  #1628);
#1628 = NEXT_ASSEMBLY_USAGE_OCCURRENCE('15','wire_green','',#5,#1560,$);
#1629 = PRODUCT_RELATED_PRODUCT_CATEGORY('part',$,(#1562));
#1630 = SHAPE_DEFINITION_REPRESENTATION(#1631,#1637);
#1631 = PRODUCT_DEFINITION_SHAPE('','',#1632);
#1632 = PRODUCT_DEFINITION('design','',#1633,#1636);
#1633 = PRODUCT_DEFINITION_FORMATION('','',#1634);
#1634 = PRODUCT('wire_black','wire_black','',(#1635));
#1635 = PRODUCT_CONTEXT('',#2,'mechanical');
#1636 = PRODUCT_DEFINITION_CONTEXT('part definition',#2,'design');
#1637 = ADVANCED_BREP_SHAPE_REPRESENTATION('',(#11,#1638),#1691);
#1638 = MANIFOLD_SOLID_BREP('',#1639);
#1639 = CLOSED_SHELL('',(#1640,#1673,#1682));
#1640 = ADVANCED_FACE('',(#1641),#1668,.T.);
#1641 = FACE_BOUND('',#1642,.T.);
#1642 = EDGE_LOOP('',(#1643,#1652,#1660,#1667));
#1643 = ORIENTED_EDGE('',*,*,#1644,.F.);
#1644 = EDGE_CURVE('',#1645,#1645,#1647,.T.);
#1645 = VERTEX_POINT('',#1646);
#1646 = CARTESIAN_POINT('',(8.4,7.5,-12.));
#1647 = CIRCLE('',#1648,0.6);
#1648 = AXIS2_PLACEMENT_3D('',#1649,#1650,#1651);
#1649 = CARTESIAN_POINT('',(9.,7.5,-12.));
#1650 = DIRECTION('',(0.,0.,-1.));
#1651 = DIRECTION('',(-1.,0.,-0.));
#1652 = ORIENTED_EDGE('',*,*,#1653,.F.);
#1653 = EDGE_CURVE('',#1654,#1645,#1656,.T.);
#1654 = VERTEX_POINT('',#1655);
#1655 = CARTESIAN_POINT('',(8.4,7.5,0.));
#1656 = LINE('',#1657,#1658);
#1657 = CARTESIAN_POINT('',(8.4,7.5,0.));
#1658 = VECTOR('',#1659,1.);
#1659 = DIRECTION('',(0.,0.,-1.));
#1660 = ORIENTED_EDGE('',*,*,#1661,.T.);
#1661 = EDGE_CURVE('',#1654,#1654,#1662,.T.);
#1662 = CIRCLE('',#1663,0.6);
#1663 = AXIS2_PLACEMENT_3D('',#1664,#1665,#1666);
#1664 = CARTESIAN_POINT('',(9.,7.5,0.));
#1665 = DIRECTION('',(0.,0.,-1.));
#1666 = DIRECTION('',(-1.,0.,-0.));
#1667 = ORIENTED_EDGE('',*,*,#1653,.T.);
#1668 = CYLINDRICAL_SURFACE('',#1669,0.6);
#1669 = AXIS2_PLACEMENT_3D('',#1670,#1671,#1672);
#1670 = CARTESIAN_POINT('',(9.,7.5,0.));
#1671 = DIRECTION('',(0.,0.,-1.));
#1672 = DIRECTION('',(-1.,0.,-0.));
#1673 = ADVANCED_FACE('',(#1674),#1677,.T.);
#1674 = FACE_BOUND('',#1675,.T.);
#1675 = EDGE_LOOP('',(#1676));
#1676 = ORIENTED_EDGE('',*,*,#1644,.T.);
#1677 = PLANE('',#1678);
#1678 = AXIS2_PLACEMENT_3D('',#1679,#1680,#1681);
#1679 = CARTESIAN_POINT('',(9.,7.5,-12.));
#1680 = DIRECTION('',(0.,0.,-1.));
#1681 = DIRECTION('',(-1.,0.,-0.));
#1682 = ADVANCED_FACE('',(#1683),#1686,.F.);
#1683 = FACE_BOUND('',#1684,.T.);
#1684 = EDGE_LOOP('',(#1685));
#1685 = ORIENTED_EDGE('',*,*,#1661,.F.);
#1686 = PLANE('',#1687);
#1687 = AXIS2_PLACEMENT_3D('',#1688,#1689,#1690);
#1688 = CARTESIAN_POINT('',(9.,7.5,0.));
#1689 = DIRECTION('',(0.,0.,-1.));
#1690 = DIRECTION('',(-1.,0.,-0.));
#1691 = ( GEOMETRIC_REPRESENTATION_CONTEXT(3) 
GLOBAL_UNCERTAINTY_ASSIGNED_CONTEXT((#1695)) 
GLOBAL_UNIT_ASSIGNED_CONTEXT((#1692,#1693,#1694)) REPRESENTATION_CONTEXT
('Context #1','3D Context with UNIT and UNCERTAINTY') );
#1692 = ( LENGTH_UNIT() NAMED_UNIT(*) SI_UNIT(.MILLI.,.METRE.) );
#1693 = ( NAMED_UNIT(*) PLANE_ANGLE_UNIT() SI_UNIT($,.RADIAN.) );
#1694 = ( NAMED_UNIT(*) SI_UNIT($,.STERADIAN.) SOLID_ANGLE_UNIT() );
#1695 = UNCERTAINTY_MEASURE_WITH_UNIT(LENGTH_MEASURE(1.E-07),#1692,
  'distance_accuracy_value','confusion accuracy');
#1696 = CONTEXT_DEPENDENT_SHAPE_REPRESENTATION(#1697,#1699);
#1697 = ( REPRESENTATION_RELATIONSHIP('','',#1637,#10) 
REPRESENTATION_RELATIONSHIP_WITH_TRANSFORMATION(#1698) 
SHAPE_REPRESENTATION_RELATIONSHIP() );
#1698 = ITEM_DEFINED_TRANSFORMATION('','',#11,#35);
#1699 = PRODUCT_DEFINITION_SHAPE('Placement','Placement of an item',
  #1700);
#1700 = NEXT_ASSEMBLY_USAGE_OCCURRENCE('16','wire_black','',#5,#1632,$);
#1701 = PRODUCT_RELATED_PRODUCT_CATEGORY('part',$,(#1634));
ENDSEC;
END-ISO-10303-21;
