ISO-10303-21;
HEADER;
FILE_DESCRIPTION(('FreeCAD Model'),'2;1');
FILE_NAME('Open CASCADE Shape Model','2026-09-27T12:27:38',(''),(''),
  'Open CASCADE STEP processor 7.8','FreeCAD','Unknown');
FILE_SCHEMA(('AUTOMOTIVE_DESIGN { 1 0 10303 214 1 1 1 1 }'));
ENDSEC;
DATA;
#1 = APPLICATION_PROTOCOL_DEFINITION('international standard',
  'automotive_design',2000,#2);
#2 = APPLICATION_CONTEXT(
  'core data for automotive mechanical design processes');
#3 = SHAPE_DEFINITION_REPRESENTATION(#4,#10);
#4 = PRODUCT_DEFINITION_SHAPE('','',#5);
#5 = PRODUCT_DEFINITION('design','',#6,#9);
#6 = PRODUCT_DEFINITION_FORMATION('','',#7);
#7 = PRODUCT('ft_128598_ir_track_sensor','ft_128598_ir_track_sensor','',
  (#8));
#8 = PRODUCT_CONTEXT('',#2,'mechanical');
#9 = PRODUCT_DEFINITION_CONTEXT('part definition',#2,'design');
#10 = SHAPE_REPRESENTATION('',(#11,#15,#19,#23,#27,#31,#35,#39,#43,#47),
  #51);
#11 = AXIS2_PLACEMENT_3D('',#12,#13,#14);
#12 = CARTESIAN_POINT('',(0.,0.,0.));
#13 = DIRECTION('',(0.,0.,1.));
#14 = DIRECTION('',(1.,0.,-0.));
#15 = AXIS2_PLACEMENT_3D('',#16,#17,#18);
#16 = CARTESIAN_POINT('',(0.,0.,0.));
#17 = DIRECTION('',(0.,0.,1.));
#18 = DIRECTION('',(1.,0.,0.));
#19 = AXIS2_PLACEMENT_3D('',#20,#21,#22);
#20 = CARTESIAN_POINT('',(0.,0.,0.));
#21 = DIRECTION('',(0.,0.,1.));
#22 = DIRECTION('',(1.,0.,0.));
#23 = AXIS2_PLACEMENT_3D('',#24,#25,#26);
#24 = CARTESIAN_POINT('',(0.,0.,0.));
#25 = DIRECTION('',(0.,0.,1.));
#26 = DIRECTION('',(1.,0.,0.));
#27 = AXIS2_PLACEMENT_3D('',#28,#29,#30);
#28 = CARTESIAN_POINT('',(0.,0.,0.));
#29 = DIRECTION('',(0.,0.,1.));
#30 = DIRECTION('',(1.,0.,0.));
#31 = AXIS2_PLACEMENT_3D('',#32,#33,#34);
#32 = CARTESIAN_POINT('',(0.,0.,0.));
#33 = DIRECTION('',(0.,0.,1.));
#34 = DIRECTION('',(1.,0.,0.));
#35 = AXIS2_PLACEMENT_3D('',#36,#37,#38);
#36 = CARTESIAN_POINT('',(0.,0.,0.));
#37 = DIRECTION('',(0.,0.,1.));
#38 = DIRECTION('',(1.,0.,0.));
#39 = AXIS2_PLACEMENT_3D('',#40,#41,#42);
#40 = CARTESIAN_POINT('',(0.,0.,0.));
#41 = DIRECTION('',(0.,0.,1.));
#42 = DIRECTION('',(1.,0.,0.));
#43 = AXIS2_PLACEMENT_3D('',#44,#45,#46);
#44 = CARTESIAN_POINT('',(0.,0.,0.));
#45 = DIRECTION('',(0.,0.,1.));
#46 = DIRECTION('',(1.,0.,0.));
#47 = AXIS2_PLACEMENT_3D('',#48,#49,#50);
#48 = CARTESIAN_POINT('',(0.,0.,0.));
#49 = DIRECTION('',(0.,0.,1.));
#50 = DIRECTION('',(1.,0.,0.));
#51 = ( GEOMETRIC_REPRESENTATION_CONTEXT(3) 
GLOBAL_UNCERTAINTY_ASSIGNED_CONTEXT((#55)) GLOBAL_UNIT_ASSIGNED_CONTEXT(
(#52,#53,#54)) REPRESENTATION_CONTEXT('Context #1',
  '3D Context with UNIT and UNCERTAINTY') );
#52 = ( LENGTH_UNIT() NAMED_UNIT(*) SI_UNIT(.MILLI.,.METRE.) );
#53 = ( NAMED_UNIT(*) PLANE_ANGLE_UNIT() SI_UNIT($,.RADIAN.) );
#54 = ( NAMED_UNIT(*) SI_UNIT($,.STERADIAN.) SOLID_ANGLE_UNIT() );
#55 = UNCERTAINTY_MEASURE_WITH_UNIT(LENGTH_MEASURE(1.E-07),#52,
  'distance_accuracy_value','confusion accuracy');
#56 = PRODUCT_RELATED_PRODUCT_CATEGORY('part',$,(#7));
#57 = SHAPE_DEFINITION_REPRESENTATION(#58,#64);
#58 = PRODUCT_DEFINITION_SHAPE('','',#59);
#59 = PRODUCT_DEFINITION('design','',#60,#63);
#60 = PRODUCT_DEFINITION_FORMATION('','',#61);
#61 = PRODUCT('housing','housing','',(#62));
#62 = PRODUCT_CONTEXT('',#2,'mechanical');
#63 = PRODUCT_DEFINITION_CONTEXT('part definition',#2,'design');
#64 = ADVANCED_BREP_SHAPE_REPRESENTATION('',(#11,#65),#1343);
#65 = MANIFOLD_SOLID_BREP('',#66);
#66 = CLOSED_SHELL('',(#67,#139,#170,#201,#257,#313,#369,#393,#424,#455,
    #471,#487,#540,#564,#588,#706,#730,#771,#788,#812,#853,#870,#894,
    #911,#927,#943,#974,#1005,#1022,#1039,#1061,#1086,#1111,#1122,#1139,
    #1156,#1168,#1185,#1202,#1214,#1236,#1258,#1274,#1286,#1303,#1314,
    #1323,#1332));
#67 = ADVANCED_FACE('',(#68),#134,.F.);
#68 = FACE_BOUND('',#69,.F.);
#69 = EDGE_LOOP('',(#70,#80,#88,#96,#104,#112,#120,#128));
#70 = ORIENTED_EDGE('',*,*,#71,.F.);
#71 = EDGE_CURVE('',#72,#74,#76,.T.);
#72 = VERTEX_POINT('',#73);
#73 = CARTESIAN_POINT('',(-2.775557561563E-17,0.4,0.4));
#74 = VERTEX_POINT('',#75);
#75 = CARTESIAN_POINT('',(-4.163336342344E-16,0.4,14.6));
#76 = LINE('',#77,#78);
#77 = CARTESIAN_POINT('',(0.,0.4,0.));
#78 = VECTOR('',#79,1.);
#79 = DIRECTION('',(0.,0.,1.));
#80 = ORIENTED_EDGE('',*,*,#81,.T.);
#81 = EDGE_CURVE('',#72,#82,#84,.T.);
#82 = VERTEX_POINT('',#83);
#83 = CARTESIAN_POINT('',(-4.163336342344E-16,14.6,0.4));
#84 = LINE('',#85,#86);
#85 = CARTESIAN_POINT('',(0.,0.,0.4));
#86 = VECTOR('',#87,1.);
#87 = DIRECTION('',(-0.,1.,0.));
#88 = ORIENTED_EDGE('',*,*,#89,.T.);
#89 = EDGE_CURVE('',#82,#90,#92,.T.);
#90 = VERTEX_POINT('',#91);
#91 = CARTESIAN_POINT('',(-7.632783294298E-16,14.6,14.6));
#92 = LINE('',#93,#94);
#93 = CARTESIAN_POINT('',(0.,14.6,0.));
#94 = VECTOR('',#95,1.);
#95 = DIRECTION('',(0.,0.,1.));
#96 = ORIENTED_EDGE('',*,*,#97,.F.);
#97 = EDGE_CURVE('',#98,#90,#100,.T.);
#98 = VERTEX_POINT('',#99);
#99 = CARTESIAN_POINT('',(0.,9.168144044321,14.6));
#100 = LINE('',#101,#102);
#101 = CARTESIAN_POINT('',(0.,0.,14.6));
#102 = VECTOR('',#103,1.);
#103 = DIRECTION('',(-0.,1.,0.));
#104 = ORIENTED_EDGE('',*,*,#105,.F.);
#105 = EDGE_CURVE('',#106,#98,#108,.T.);
#106 = VERTEX_POINT('',#107);
#107 = CARTESIAN_POINT('',(0.,9.7,11.4));
#108 = LINE('',#109,#110);
#109 = CARTESIAN_POINT('',(0.,10.191526347623,8.442649808469));
#110 = VECTOR('',#111,1.);
#111 = DIRECTION('',(0.,-0.163955846806,0.986467678284));
#112 = ORIENTED_EDGE('',*,*,#113,.F.);
#113 = EDGE_CURVE('',#114,#106,#116,.T.);
#114 = VERTEX_POINT('',#115);
#115 = CARTESIAN_POINT('',(0.,5.3,11.4));
#116 = LINE('',#117,#118);
#117 = CARTESIAN_POINT('',(0.,4.85,11.4));
#118 = VECTOR('',#119,1.);
#119 = DIRECTION('',(0.,1.,0.));
#120 = ORIENTED_EDGE('',*,*,#121,.F.);
#121 = EDGE_CURVE('',#122,#114,#124,.T.);
#122 = VERTEX_POINT('',#123);
#123 = CARTESIAN_POINT('',(0.,5.831855955679,14.6));
#124 = LINE('',#125,#126);
#125 = CARTESIAN_POINT('',(0.,4.306862254613,5.42462123192));
#126 = VECTOR('',#127,1.);
#127 = DIRECTION('',(0.,-0.163955846806,-0.986467678284));
#128 = ORIENTED_EDGE('',*,*,#129,.F.);
#129 = EDGE_CURVE('',#74,#122,#130,.T.);
#130 = LINE('',#131,#132);
#131 = CARTESIAN_POINT('',(0.,0.,14.6));
#132 = VECTOR('',#133,1.);
#133 = DIRECTION('',(-0.,1.,0.));
#134 = PLANE('',#135);
#135 = AXIS2_PLACEMENT_3D('',#136,#137,#138);
#136 = CARTESIAN_POINT('',(0.,0.,0.));
#137 = DIRECTION('',(1.,0.,-0.));
#138 = DIRECTION('',(0.,0.,1.));
#139 = ADVANCED_FACE('',(#140),#165,.T.);
#140 = FACE_BOUND('',#141,.F.);
#141 = EDGE_LOOP('',(#142,#143,#151,#159));
#142 = ORIENTED_EDGE('',*,*,#71,.T.);
#143 = ORIENTED_EDGE('',*,*,#144,.T.);
#144 = EDGE_CURVE('',#74,#145,#147,.T.);
#145 = VERTEX_POINT('',#146);
#146 = CARTESIAN_POINT('',(0.4,-4.163336342344E-16,14.6));
#147 = LINE('',#148,#149);
#148 = CARTESIAN_POINT('',(0.2,0.2,14.6));
#149 = VECTOR('',#150,1.);
#150 = DIRECTION('',(0.707106781187,-0.707106781187,2.712060661372E-17)
  );
#151 = ORIENTED_EDGE('',*,*,#152,.F.);
#152 = EDGE_CURVE('',#153,#145,#155,.T.);
#153 = VERTEX_POINT('',#154);
#154 = CARTESIAN_POINT('',(0.4,-2.775557561563E-17,0.4));
#155 = LINE('',#156,#157);
#156 = CARTESIAN_POINT('',(0.4,0.,0.));
#157 = VECTOR('',#158,1.);
#158 = DIRECTION('',(0.,0.,1.));
#159 = ORIENTED_EDGE('',*,*,#160,.F.);
#160 = EDGE_CURVE('',#72,#153,#161,.T.);
#161 = LINE('',#162,#163);
#162 = CARTESIAN_POINT('',(0.2,0.2,0.4));
#163 = VECTOR('',#164,1.);
#164 = DIRECTION('',(0.707106781187,-0.707106781187,5.872217097142E-18)
  );
#165 = PLANE('',#166);
#166 = AXIS2_PLACEMENT_3D('',#167,#168,#169);
#167 = CARTESIAN_POINT('',(0.2,0.2,0.));
#168 = DIRECTION('',(-0.707106781187,-0.707106781187,-1.679829943626E-18
    ));
#169 = DIRECTION('',(1.187819144378E-18,1.187819144378E-18,-1.));
#170 = ADVANCED_FACE('',(#171),#196,.F.);
#171 = FACE_BOUND('',#172,.F.);
#172 = EDGE_LOOP('',(#173,#183,#189,#190));
#173 = ORIENTED_EDGE('',*,*,#174,.F.);
#174 = EDGE_CURVE('',#175,#177,#179,.T.);
#175 = VERTEX_POINT('',#176);
#176 = CARTESIAN_POINT('',(0.4,0.4,15.));
#177 = VERTEX_POINT('',#178);
#178 = CARTESIAN_POINT('',(0.4,5.898337950139,15.));
#179 = LINE('',#180,#181);
#180 = CARTESIAN_POINT('',(0.4,0.,15.));
#181 = VECTOR('',#182,1.);
#182 = DIRECTION('',(-0.,1.,0.));
#183 = ORIENTED_EDGE('',*,*,#184,.T.);
#184 = EDGE_CURVE('',#175,#74,#185,.T.);
#185 = LINE('',#186,#187);
#186 = CARTESIAN_POINT('',(0.3,0.4,14.9));
#187 = VECTOR('',#188,1.);
#188 = DIRECTION('',(-0.707106781187,1.067160332643E-15,-0.707106781187)
  );
#189 = ORIENTED_EDGE('',*,*,#129,.T.);
#190 = ORIENTED_EDGE('',*,*,#191,.F.);
#191 = EDGE_CURVE('',#177,#122,#192,.T.);
#192 = LINE('',#193,#194);
#193 = CARTESIAN_POINT('',(-1.197875053928,5.632763148932,
    13.402124946072));
#194 = VECTOR('',#195,1.);
#195 = DIRECTION('',(-0.702273495483,-0.11672135659,-0.702273495483));
#196 = PLANE('',#197);
#197 = AXIS2_PLACEMENT_3D('',#198,#199,#200);
#198 = CARTESIAN_POINT('',(0.2,0.,14.8));
#199 = DIRECTION('',(0.707106781187,1.102531706024E-18,-0.707106781187)
  );
#200 = DIRECTION('',(-7.79607645803E-19,1.,7.79607645803E-19));
#201 = ADVANCED_FACE('',(#202),#252,.F.);
#202 = FACE_BOUND('',#203,.F.);
#203 = EDGE_LOOP('',(#204,#205,#206,#214,#222,#230,#238,#246));
#204 = ORIENTED_EDGE('',*,*,#191,.T.);
#205 = ORIENTED_EDGE('',*,*,#121,.T.);
#206 = ORIENTED_EDGE('',*,*,#207,.T.);
#207 = EDGE_CURVE('',#114,#208,#210,.T.);
#208 = VERTEX_POINT('',#209);
#209 = CARTESIAN_POINT('',(28.5,5.3,11.4));
#210 = LINE('',#211,#212);
#211 = CARTESIAN_POINT('',(-1.,5.3,11.4));
#212 = VECTOR('',#213,1.);
#213 = DIRECTION('',(1.,0.,0.));
#214 = ORIENTED_EDGE('',*,*,#215,.T.);
#215 = EDGE_CURVE('',#208,#216,#218,.T.);
#216 = VERTEX_POINT('',#217);
#217 = CARTESIAN_POINT('',(28.5,5.6,13.205));
#218 = LINE('',#219,#220);
#219 = CARTESIAN_POINT('',(28.5,4.446870169727,6.267002187857));
#220 = VECTOR('',#221,1.);
#221 = DIRECTION('',(0.,0.163955846806,0.986467678284));
#222 = ORIENTED_EDGE('',*,*,#223,.F.);
#223 = EDGE_CURVE('',#224,#216,#226,.T.);
#224 = VERTEX_POINT('',#225);
#225 = CARTESIAN_POINT('',(30.,5.6,13.205));
#226 = LINE('',#227,#228);
#227 = CARTESIAN_POINT('',(13.75,5.6,13.205));
#228 = VECTOR('',#229,1.);
#229 = DIRECTION('',(-1.,-0.,0.));
#230 = ORIENTED_EDGE('',*,*,#231,.F.);
#231 = EDGE_CURVE('',#232,#224,#234,.T.);
#232 = VERTEX_POINT('',#233);
#233 = CARTESIAN_POINT('',(30.,5.831855955679,14.6));
#234 = LINE('',#235,#236);
#235 = CARTESIAN_POINT('',(30.,4.306862254613,5.42462123192));
#236 = VECTOR('',#237,1.);
#237 = DIRECTION('',(0.,-0.163955846806,-0.986467678284));
#238 = ORIENTED_EDGE('',*,*,#239,.F.);
#239 = EDGE_CURVE('',#240,#232,#242,.T.);
#240 = VERTEX_POINT('',#241);
#241 = CARTESIAN_POINT('',(29.6,5.898337950139,15.));
#242 = LINE('',#243,#244);
#243 = CARTESIAN_POINT('',(23.306866054601,6.944288190371,
    21.293133945399));
#244 = VECTOR('',#245,1.);
#245 = DIRECTION('',(0.702273495483,-0.11672135659,-0.702273495483));
#246 = ORIENTED_EDGE('',*,*,#247,.F.);
#247 = EDGE_CURVE('',#177,#240,#248,.T.);
#248 = LINE('',#249,#250);
#249 = CARTESIAN_POINT('',(-0.5,5.898337950139,15.));
#250 = VECTOR('',#251,1.);
#251 = DIRECTION('',(1.,0.,-0.));
#252 = PLANE('',#253);
#253 = AXIS2_PLACEMENT_3D('',#254,#255,#256);
#254 = CARTESIAN_POINT('',(-1.,5.3,11.4));
#255 = DIRECTION('',(0.,-0.986467678284,0.163955846806));
#256 = DIRECTION('',(0.,0.163955846806,0.986467678284));
#257 = ADVANCED_FACE('',(#258),#308,.F.);
#258 = FACE_BOUND('',#259,.F.);
#259 = EDGE_LOOP('',(#260,#261,#262,#270,#278,#286,#294,#302));
#260 = ORIENTED_EDGE('',*,*,#207,.F.);
#261 = ORIENTED_EDGE('',*,*,#113,.T.);
#262 = ORIENTED_EDGE('',*,*,#263,.T.);
#263 = EDGE_CURVE('',#106,#264,#266,.T.);
#264 = VERTEX_POINT('',#265);
#265 = CARTESIAN_POINT('',(28.5,9.7,11.4));
#266 = LINE('',#267,#268);
#267 = CARTESIAN_POINT('',(-1.,9.7,11.4));
#268 = VECTOR('',#269,1.);
#269 = DIRECTION('',(1.,0.,0.));
#270 = ORIENTED_EDGE('',*,*,#271,.T.);
#271 = EDGE_CURVE('',#264,#272,#274,.T.);
#272 = VERTEX_POINT('',#273);
#273 = CARTESIAN_POINT('',(28.5,9.4,11.4));
#274 = LINE('',#275,#276);
#275 = CARTESIAN_POINT('',(28.5,9.55,11.4));
#276 = VECTOR('',#277,1.);
#277 = DIRECTION('',(0.,-1.,0.));
#278 = ORIENTED_EDGE('',*,*,#279,.T.);
#279 = EDGE_CURVE('',#272,#280,#282,.T.);
#280 = VERTEX_POINT('',#281);
#281 = CARTESIAN_POINT('',(30.,9.4,11.4));
#282 = LINE('',#283,#284);
#283 = CARTESIAN_POINT('',(13.75,9.4,11.4));
#284 = VECTOR('',#285,1.);
#285 = DIRECTION('',(1.,0.,0.));
#286 = ORIENTED_EDGE('',*,*,#287,.F.);
#287 = EDGE_CURVE('',#288,#280,#290,.T.);
#288 = VERTEX_POINT('',#289);
#289 = CARTESIAN_POINT('',(30.,5.6,11.4));
#290 = LINE('',#291,#292);
#291 = CARTESIAN_POINT('',(30.,4.85,11.4));
#292 = VECTOR('',#293,1.);
#293 = DIRECTION('',(0.,1.,0.));
#294 = ORIENTED_EDGE('',*,*,#295,.F.);
#295 = EDGE_CURVE('',#296,#288,#298,.T.);
#296 = VERTEX_POINT('',#297);
#297 = CARTESIAN_POINT('',(28.5,5.6,11.4));
#298 = LINE('',#299,#300);
#299 = CARTESIAN_POINT('',(13.75,5.6,11.4));
#300 = VECTOR('',#301,1.);
#301 = DIRECTION('',(1.,0.,0.));
#302 = ORIENTED_EDGE('',*,*,#303,.T.);
#303 = EDGE_CURVE('',#296,#208,#304,.T.);
#304 = LINE('',#305,#306);
#305 = CARTESIAN_POINT('',(28.5,7.05,11.4));
#306 = VECTOR('',#307,1.);
#307 = DIRECTION('',(0.,-1.,0.));
#308 = PLANE('',#309);
#309 = AXIS2_PLACEMENT_3D('',#310,#311,#312);
#310 = CARTESIAN_POINT('',(-1.,9.7,11.4));
#311 = DIRECTION('',(0.,0.,-1.));
#312 = DIRECTION('',(0.,-1.,0.));
#313 = ADVANCED_FACE('',(#314),#364,.F.);
#314 = FACE_BOUND('',#315,.F.);
#315 = EDGE_LOOP('',(#316,#317,#318,#326,#334,#342,#350,#358));
#316 = ORIENTED_EDGE('',*,*,#263,.F.);
#317 = ORIENTED_EDGE('',*,*,#105,.T.);
#318 = ORIENTED_EDGE('',*,*,#319,.T.);
#319 = EDGE_CURVE('',#98,#320,#322,.T.);
#320 = VERTEX_POINT('',#321);
#321 = CARTESIAN_POINT('',(0.4,9.101662049861,15.));
#322 = LINE('',#323,#324);
#323 = CARTESIAN_POINT('',(0.33169785651,9.113014206674,14.93169785651)
  );
#324 = VECTOR('',#325,1.);
#325 = DIRECTION('',(0.702273495483,-0.11672135659,0.702273495483));
#326 = ORIENTED_EDGE('',*,*,#327,.F.);
#327 = EDGE_CURVE('',#328,#320,#330,.T.);
#328 = VERTEX_POINT('',#329);
#329 = CARTESIAN_POINT('',(29.6,9.101662049861,15.));
#330 = LINE('',#331,#332);
#331 = CARTESIAN_POINT('',(-0.5,9.101662049861,15.));
#332 = VECTOR('',#333,1.);
#333 = DIRECTION('',(-1.,-0.,0.));
#334 = ORIENTED_EDGE('',*,*,#335,.F.);
#335 = EDGE_CURVE('',#336,#328,#338,.T.);
#336 = VERTEX_POINT('',#337);
#337 = CARTESIAN_POINT('',(30.,9.168144044321,14.6));
#338 = LINE('',#339,#340);
#339 = CARTESIAN_POINT('',(21.777293144163,7.801489165235,
    22.822706855837));
#340 = VECTOR('',#341,1.);
#341 = DIRECTION('',(-0.702273495483,-0.11672135659,0.702273495483));
#342 = ORIENTED_EDGE('',*,*,#343,.F.);
#343 = EDGE_CURVE('',#344,#336,#346,.T.);
#344 = VERTEX_POINT('',#345);
#345 = CARTESIAN_POINT('',(30.,9.4,13.205));
#346 = LINE('',#347,#348);
#347 = CARTESIAN_POINT('',(30.,10.191526347623,8.442649808469));
#348 = VECTOR('',#349,1.);
#349 = DIRECTION('',(0.,-0.163955846806,0.986467678284));
#350 = ORIENTED_EDGE('',*,*,#351,.T.);
#351 = EDGE_CURVE('',#344,#352,#354,.T.);
#352 = VERTEX_POINT('',#353);
#353 = CARTESIAN_POINT('',(28.5,9.4,13.205));
#354 = LINE('',#355,#356);
#355 = CARTESIAN_POINT('',(13.75,9.4,13.205));
#356 = VECTOR('',#357,1.);
#357 = DIRECTION('',(-1.,0.,0.));
#358 = ORIENTED_EDGE('',*,*,#359,.T.);
#359 = EDGE_CURVE('',#352,#264,#360,.T.);
#360 = LINE('',#361,#362);
#361 = CARTESIAN_POINT('',(28.5,10.237000918452,8.169044473981));
#362 = VECTOR('',#363,1.);
#363 = DIRECTION('',(-0.,0.163955846806,-0.986467678284));
#364 = PLANE('',#365);
#365 = AXIS2_PLACEMENT_3D('',#366,#367,#368);
#366 = CARTESIAN_POINT('',(-1.,9.1,15.01));
#367 = DIRECTION('',(-0.,0.986467678284,0.163955846806));
#368 = DIRECTION('',(0.,0.163955846806,-0.986467678284));
#369 = ADVANCED_FACE('',(#370),#388,.F.);
#370 = FACE_BOUND('',#371,.F.);
#371 = EDGE_LOOP('',(#372,#380,#381,#382));
#372 = ORIENTED_EDGE('',*,*,#373,.F.);
#373 = EDGE_CURVE('',#320,#374,#376,.T.);
#374 = VERTEX_POINT('',#375);
#375 = CARTESIAN_POINT('',(0.4,14.6,15.));
#376 = LINE('',#377,#378);
#377 = CARTESIAN_POINT('',(0.4,0.,15.));
#378 = VECTOR('',#379,1.);
#379 = DIRECTION('',(-0.,1.,0.));
#380 = ORIENTED_EDGE('',*,*,#319,.F.);
#381 = ORIENTED_EDGE('',*,*,#97,.T.);
#382 = ORIENTED_EDGE('',*,*,#383,.T.);
#383 = EDGE_CURVE('',#90,#374,#384,.T.);
#384 = LINE('',#385,#386);
#385 = CARTESIAN_POINT('',(0.2,14.6,14.8));
#386 = VECTOR('',#387,1.);
#387 = DIRECTION('',(0.707106781187,2.47638952372E-15,0.707106781187));
#388 = PLANE('',#389);
#389 = AXIS2_PLACEMENT_3D('',#390,#391,#392);
#390 = CARTESIAN_POINT('',(0.2,0.,14.8));
#391 = DIRECTION('',(0.707106781187,1.102531706024E-18,-0.707106781187)
  );
#392 = DIRECTION('',(-7.79607645803E-19,1.,7.79607645803E-19));
#393 = ADVANCED_FACE('',(#394),#419,.F.);
#394 = FACE_BOUND('',#395,.T.);
#395 = EDGE_LOOP('',(#396,#397,#405,#413));
#396 = ORIENTED_EDGE('',*,*,#89,.T.);
#397 = ORIENTED_EDGE('',*,*,#398,.F.);
#398 = EDGE_CURVE('',#399,#90,#401,.T.);
#399 = VERTEX_POINT('',#400);
#400 = CARTESIAN_POINT('',(0.4,15.,14.6));
#401 = LINE('',#402,#403);
#402 = CARTESIAN_POINT('',(0.3,14.9,14.6));
#403 = VECTOR('',#404,1.);
#404 = DIRECTION('',(-0.707106781187,-0.707106781187,6.426718461963E-16)
  );
#405 = ORIENTED_EDGE('',*,*,#406,.F.);
#406 = EDGE_CURVE('',#407,#399,#409,.T.);
#407 = VERTEX_POINT('',#408);
#408 = CARTESIAN_POINT('',(0.4,15.,0.4));
#409 = LINE('',#410,#411);
#410 = CARTESIAN_POINT('',(0.4,15.,0.));
#411 = VECTOR('',#412,1.);
#412 = DIRECTION('',(0.,0.,1.));
#413 = ORIENTED_EDGE('',*,*,#414,.F.);
#414 = EDGE_CURVE('',#82,#407,#415,.T.);
#415 = LINE('',#416,#417);
#416 = CARTESIAN_POINT('',(0.2,14.8,0.4));
#417 = VECTOR('',#418,1.);
#418 = DIRECTION('',(0.707106781187,0.707106781187,-1.091997272256E-15)
  );
#419 = PLANE('',#420);
#420 = AXIS2_PLACEMENT_3D('',#421,#422,#423);
#421 = CARTESIAN_POINT('',(0.2,14.8,0.));
#422 = DIRECTION('',(0.707106781187,-0.707106781187,-3.480000426336E-18)
  );
#423 = DIRECTION('',(-2.460731899994E-18,2.460731899994E-18,-1.));
#424 = ADVANCED_FACE('',(#425),#450,.T.);
#425 = FACE_BOUND('',#426,.T.);
#426 = EDGE_LOOP('',(#427,#435,#436,#444));
#427 = ORIENTED_EDGE('',*,*,#428,.T.);
#428 = EDGE_CURVE('',#429,#72,#431,.T.);
#429 = VERTEX_POINT('',#430);
#430 = CARTESIAN_POINT('',(0.4,0.4,-2.775557561563E-17));
#431 = LINE('',#432,#433);
#432 = CARTESIAN_POINT('',(0.3,0.4,1.E-01));
#433 = VECTOR('',#434,1.);
#434 = DIRECTION('',(-0.707106781187,5.872217097142E-18,0.707106781187)
  );
#435 = ORIENTED_EDGE('',*,*,#81,.T.);
#436 = ORIENTED_EDGE('',*,*,#437,.F.);
#437 = EDGE_CURVE('',#438,#82,#440,.T.);
#438 = VERTEX_POINT('',#439);
#439 = CARTESIAN_POINT('',(0.4,14.6,-4.163336342344E-16));
#440 = LINE('',#441,#442);
#441 = CARTESIAN_POINT('',(0.3,14.6,1.E-01));
#442 = VECTOR('',#443,1.);
#443 = DIRECTION('',(-0.707106781187,2.712060661372E-17,0.707106781187)
  );
#444 = ORIENTED_EDGE('',*,*,#445,.F.);
#445 = EDGE_CURVE('',#429,#438,#446,.T.);
#446 = LINE('',#447,#448);
#447 = CARTESIAN_POINT('',(0.4,0.,0.));
#448 = VECTOR('',#449,1.);
#449 = DIRECTION('',(-0.,1.,0.));
#450 = PLANE('',#451);
#451 = AXIS2_PLACEMENT_3D('',#452,#453,#454);
#452 = CARTESIAN_POINT('',(0.2,0.,0.2));
#453 = DIRECTION('',(-0.707106781187,-1.679829943626E-18,-0.707106781187
    ));
#454 = DIRECTION('',(-1.187819144378E-18,1.,-1.187819144378E-18));
#455 = ADVANCED_FACE('',(#456),#466,.T.);
#456 = FACE_BOUND('',#457,.T.);
#457 = EDGE_LOOP('',(#458,#459,#465));
#458 = ORIENTED_EDGE('',*,*,#428,.F.);
#459 = ORIENTED_EDGE('',*,*,#460,.T.);
#460 = EDGE_CURVE('',#429,#153,#461,.T.);
#461 = LINE('',#462,#463);
#462 = CARTESIAN_POINT('',(0.4,0.3,1.E-01));
#463 = VECTOR('',#464,1.);
#464 = DIRECTION('',(-5.872217097142E-18,-0.707106781187,0.707106781187)
  );
#465 = ORIENTED_EDGE('',*,*,#160,.F.);
#466 = PLANE('',#467);
#467 = AXIS2_PLACEMENT_3D('',#468,#469,#470);
#468 = CARTESIAN_POINT('',(0.4,0.4,-2.775557561563E-17));
#469 = DIRECTION('',(-0.57735026919,-0.57735026919,-0.57735026919));
#470 = DIRECTION('',(0.707106781187,-0.707106781187,-1.269604464815E-17)
  );
#471 = ADVANCED_FACE('',(#472),#482,.F.);
#472 = FACE_BOUND('',#473,.F.);
#473 = EDGE_LOOP('',(#474,#475,#481));
#474 = ORIENTED_EDGE('',*,*,#184,.F.);
#475 = ORIENTED_EDGE('',*,*,#476,.T.);
#476 = EDGE_CURVE('',#175,#145,#477,.T.);
#477 = LINE('',#478,#479);
#478 = CARTESIAN_POINT('',(0.4,0.3,14.9));
#479 = VECTOR('',#480,1.);
#480 = DIRECTION('',(1.091997272256E-15,-0.707106781187,-0.707106781187)
  );
#481 = ORIENTED_EDGE('',*,*,#144,.F.);
#482 = PLANE('',#483);
#483 = AXIS2_PLACEMENT_3D('',#484,#485,#486);
#484 = CARTESIAN_POINT('',(0.4,0.4,15.));
#485 = DIRECTION('',(0.57735026919,0.57735026919,-0.57735026919));
#486 = DIRECTION('',(0.707106781187,-0.707106781187,3.691197415572E-18)
  );
#487 = ADVANCED_FACE('',(#488,#513,#524),#535,.F.);
#488 = FACE_BOUND('',#489,.F.);
#489 = EDGE_LOOP('',(#490,#491,#499,#507));
#490 = ORIENTED_EDGE('',*,*,#152,.T.);
#491 = ORIENTED_EDGE('',*,*,#492,.T.);
#492 = EDGE_CURVE('',#145,#493,#495,.T.);
#493 = VERTEX_POINT('',#494);
#494 = CARTESIAN_POINT('',(29.6,-3.191891195797E-16,14.6));
#495 = LINE('',#496,#497);
#496 = CARTESIAN_POINT('',(0.,0.,14.6));
#497 = VECTOR('',#498,1.);
#498 = DIRECTION('',(1.,0.,-0.));
#499 = ORIENTED_EDGE('',*,*,#500,.F.);
#500 = EDGE_CURVE('',#501,#493,#503,.T.);
#501 = VERTEX_POINT('',#502);
#502 = CARTESIAN_POINT('',(29.6,0.,0.4));
#503 = LINE('',#504,#505);
#504 = CARTESIAN_POINT('',(29.6,0.,0.));
#505 = VECTOR('',#506,1.);
#506 = DIRECTION('',(0.,0.,1.));
#507 = ORIENTED_EDGE('',*,*,#508,.F.);
#508 = EDGE_CURVE('',#153,#501,#509,.T.);
#509 = LINE('',#510,#511);
#510 = CARTESIAN_POINT('',(0.,0.,0.4));
#511 = VECTOR('',#512,1.);
#512 = DIRECTION('',(1.,0.,-0.));
#513 = FACE_BOUND('',#514,.F.);
#514 = EDGE_LOOP('',(#515));
#515 = ORIENTED_EDGE('',*,*,#516,.F.);
#516 = EDGE_CURVE('',#517,#517,#519,.T.);
#517 = VERTEX_POINT('',#518);
#518 = CARTESIAN_POINT('',(9.,0.,9.5));
#519 = CIRCLE('',#520,2.);
#520 = AXIS2_PLACEMENT_3D('',#521,#522,#523);
#521 = CARTESIAN_POINT('',(9.,0.,7.5));
#522 = DIRECTION('',(0.,1.,0.));
#523 = DIRECTION('',(0.,-0.,1.));
#524 = FACE_BOUND('',#525,.F.);
#525 = EDGE_LOOP('',(#526));
#526 = ORIENTED_EDGE('',*,*,#527,.F.);
#527 = EDGE_CURVE('',#528,#528,#530,.T.);
#528 = VERTEX_POINT('',#529);
#529 = CARTESIAN_POINT('',(21.,0.,9.5));
#530 = CIRCLE('',#531,2.);
#531 = AXIS2_PLACEMENT_3D('',#532,#533,#534);
#532 = CARTESIAN_POINT('',(21.,0.,7.5));
#533 = DIRECTION('',(0.,1.,0.));
#534 = DIRECTION('',(0.,-0.,1.));
#535 = PLANE('',#536);
#536 = AXIS2_PLACEMENT_3D('',#537,#538,#539);
#537 = CARTESIAN_POINT('',(0.,0.,0.));
#538 = DIRECTION('',(-0.,1.,0.));
#539 = DIRECTION('',(0.,0.,1.));
#540 = ADVANCED_FACE('',(#541),#559,.T.);
#541 = FACE_BOUND('',#542,.T.);
#542 = EDGE_LOOP('',(#543,#544,#552,#558));
#543 = ORIENTED_EDGE('',*,*,#174,.F.);
#544 = ORIENTED_EDGE('',*,*,#545,.T.);
#545 = EDGE_CURVE('',#175,#546,#548,.T.);
#546 = VERTEX_POINT('',#547);
#547 = CARTESIAN_POINT('',(29.6,0.4,15.));
#548 = LINE('',#549,#550);
#549 = CARTESIAN_POINT('',(0.,0.4,15.));
#550 = VECTOR('',#551,1.);
#551 = DIRECTION('',(1.,0.,-0.));
#552 = ORIENTED_EDGE('',*,*,#553,.T.);
#553 = EDGE_CURVE('',#546,#240,#554,.T.);
#554 = LINE('',#555,#556);
#555 = CARTESIAN_POINT('',(29.6,0.,15.));
#556 = VECTOR('',#557,1.);
#557 = DIRECTION('',(-0.,1.,0.));
#558 = ORIENTED_EDGE('',*,*,#247,.F.);
#559 = PLANE('',#560);
#560 = AXIS2_PLACEMENT_3D('',#561,#562,#563);
#561 = CARTESIAN_POINT('',(0.,0.,15.));
#562 = DIRECTION('',(0.,0.,1.));
#563 = DIRECTION('',(1.,0.,-0.));
#564 = ADVANCED_FACE('',(#565),#583,.T.);
#565 = FACE_BOUND('',#566,.T.);
#566 = EDGE_LOOP('',(#567,#568,#576,#582));
#567 = ORIENTED_EDGE('',*,*,#553,.F.);
#568 = ORIENTED_EDGE('',*,*,#569,.T.);
#569 = EDGE_CURVE('',#546,#570,#572,.T.);
#570 = VERTEX_POINT('',#571);
#571 = CARTESIAN_POINT('',(30.,0.4,14.6));
#572 = LINE('',#573,#574);
#573 = CARTESIAN_POINT('',(29.7,0.4,14.9));
#574 = VECTOR('',#575,1.);
#575 = DIRECTION('',(0.707106781187,9.803658687167E-16,-0.707106781187)
  );
#576 = ORIENTED_EDGE('',*,*,#577,.T.);
#577 = EDGE_CURVE('',#570,#232,#578,.T.);
#578 = LINE('',#579,#580);
#579 = CARTESIAN_POINT('',(30.,0.,14.6));
#580 = VECTOR('',#581,1.);
#581 = DIRECTION('',(-0.,1.,0.));
#582 = ORIENTED_EDGE('',*,*,#239,.F.);
#583 = PLANE('',#584);
#584 = AXIS2_PLACEMENT_3D('',#585,#586,#587);
#585 = CARTESIAN_POINT('',(29.8,0.,14.8));
#586 = DIRECTION('',(0.707106781187,-1.28049161384E-18,0.707106781187));
#587 = DIRECTION('',(9.054443033987E-19,1.,9.054443033987E-19));
#588 = ADVANCED_FACE('',(#589),#701,.T.);
#589 = FACE_BOUND('',#590,.T.);
#590 = EDGE_LOOP('',(#591,#599,#607,#615,#621,#622,#630,#638,#646,#654,
    #660,#661,#669,#677,#685,#693,#699,#700));
#591 = ORIENTED_EDGE('',*,*,#592,.F.);
#592 = EDGE_CURVE('',#593,#570,#595,.T.);
#593 = VERTEX_POINT('',#594);
#594 = CARTESIAN_POINT('',(30.,0.4,0.4));
#595 = LINE('',#596,#597);
#596 = CARTESIAN_POINT('',(30.,0.4,0.));
#597 = VECTOR('',#598,1.);
#598 = DIRECTION('',(0.,0.,1.));
#599 = ORIENTED_EDGE('',*,*,#600,.T.);
#600 = EDGE_CURVE('',#593,#601,#603,.T.);
#601 = VERTEX_POINT('',#602);
#602 = CARTESIAN_POINT('',(30.,14.6,0.4));
#603 = LINE('',#604,#605);
#604 = CARTESIAN_POINT('',(30.,0.,0.4));
#605 = VECTOR('',#606,1.);
#606 = DIRECTION('',(-0.,1.,0.));
#607 = ORIENTED_EDGE('',*,*,#608,.T.);
#608 = EDGE_CURVE('',#601,#609,#611,.T.);
#609 = VERTEX_POINT('',#610);
#610 = CARTESIAN_POINT('',(30.,14.6,14.6));
#611 = LINE('',#612,#613);
#612 = CARTESIAN_POINT('',(30.,14.6,0.));
#613 = VECTOR('',#614,1.);
#614 = DIRECTION('',(0.,0.,1.));
#615 = ORIENTED_EDGE('',*,*,#616,.F.);
#616 = EDGE_CURVE('',#336,#609,#617,.T.);
#617 = LINE('',#618,#619);
#618 = CARTESIAN_POINT('',(30.,0.,14.6));
#619 = VECTOR('',#620,1.);
#620 = DIRECTION('',(-0.,1.,0.));
#621 = ORIENTED_EDGE('',*,*,#343,.F.);
#622 = ORIENTED_EDGE('',*,*,#623,.T.);
#623 = EDGE_CURVE('',#344,#624,#626,.T.);
#624 = VERTEX_POINT('',#625);
#625 = CARTESIAN_POINT('',(30.,9.4,14.));
#626 = LINE('',#627,#628);
#627 = CARTESIAN_POINT('',(30.,9.4,0.5));
#628 = VECTOR('',#629,1.);
#629 = DIRECTION('',(0.,0.,1.));
#630 = ORIENTED_EDGE('',*,*,#631,.F.);
#631 = EDGE_CURVE('',#632,#624,#634,.T.);
#632 = VERTEX_POINT('',#633);
#633 = CARTESIAN_POINT('',(30.,10.6,14.));
#634 = LINE('',#635,#636);
#635 = CARTESIAN_POINT('',(30.,4.7,14.));
#636 = VECTOR('',#637,1.);
#637 = DIRECTION('',(0.,-1.,0.));
#638 = ORIENTED_EDGE('',*,*,#639,.F.);
#639 = EDGE_CURVE('',#640,#632,#642,.T.);
#640 = VERTEX_POINT('',#641);
#641 = CARTESIAN_POINT('',(30.,10.6,1.));
#642 = LINE('',#643,#644);
#643 = CARTESIAN_POINT('',(30.,10.6,0.5));
#644 = VECTOR('',#645,1.);
#645 = DIRECTION('',(0.,0.,1.));
#646 = ORIENTED_EDGE('',*,*,#647,.T.);
#647 = EDGE_CURVE('',#640,#648,#650,.T.);
#648 = VERTEX_POINT('',#649);
#649 = CARTESIAN_POINT('',(30.,9.4,1.));
#650 = LINE('',#651,#652);
#651 = CARTESIAN_POINT('',(30.,4.7,1.));
#652 = VECTOR('',#653,1.);
#653 = DIRECTION('',(0.,-1.,0.));
#654 = ORIENTED_EDGE('',*,*,#655,.T.);
#655 = EDGE_CURVE('',#648,#280,#656,.T.);
#656 = LINE('',#657,#658);
#657 = CARTESIAN_POINT('',(30.,9.4,0.5));
#658 = VECTOR('',#659,1.);
#659 = DIRECTION('',(0.,0.,1.));
#660 = ORIENTED_EDGE('',*,*,#287,.F.);
#661 = ORIENTED_EDGE('',*,*,#662,.F.);
#662 = EDGE_CURVE('',#663,#288,#665,.T.);
#663 = VERTEX_POINT('',#664);
#664 = CARTESIAN_POINT('',(30.,5.6,1.));
#665 = LINE('',#666,#667);
#666 = CARTESIAN_POINT('',(30.,5.6,0.5));
#667 = VECTOR('',#668,1.);
#668 = DIRECTION('',(0.,0.,1.));
#669 = ORIENTED_EDGE('',*,*,#670,.T.);
#670 = EDGE_CURVE('',#663,#671,#673,.T.);
#671 = VERTEX_POINT('',#672);
#672 = CARTESIAN_POINT('',(30.,4.4,1.));
#673 = LINE('',#674,#675);
#674 = CARTESIAN_POINT('',(30.,2.2,1.));
#675 = VECTOR('',#676,1.);
#676 = DIRECTION('',(0.,-1.,0.));
#677 = ORIENTED_EDGE('',*,*,#678,.T.);
#678 = EDGE_CURVE('',#671,#679,#681,.T.);
#679 = VERTEX_POINT('',#680);
#680 = CARTESIAN_POINT('',(30.,4.4,14.));
#681 = LINE('',#682,#683);
#682 = CARTESIAN_POINT('',(30.,4.4,0.5));
#683 = VECTOR('',#684,1.);
#684 = DIRECTION('',(0.,0.,1.));
#685 = ORIENTED_EDGE('',*,*,#686,.F.);
#686 = EDGE_CURVE('',#687,#679,#689,.T.);
#687 = VERTEX_POINT('',#688);
#688 = CARTESIAN_POINT('',(30.,5.6,14.));
#689 = LINE('',#690,#691);
#690 = CARTESIAN_POINT('',(30.,2.2,14.));
#691 = VECTOR('',#692,1.);
#692 = DIRECTION('',(0.,-1.,0.));
#693 = ORIENTED_EDGE('',*,*,#694,.F.);
#694 = EDGE_CURVE('',#224,#687,#695,.T.);
#695 = LINE('',#696,#697);
#696 = CARTESIAN_POINT('',(30.,5.6,0.5));
#697 = VECTOR('',#698,1.);
#698 = DIRECTION('',(0.,0.,1.));
#699 = ORIENTED_EDGE('',*,*,#231,.F.);
#700 = ORIENTED_EDGE('',*,*,#577,.F.);
#701 = PLANE('',#702);
#702 = AXIS2_PLACEMENT_3D('',#703,#704,#705);
#703 = CARTESIAN_POINT('',(30.,0.,0.));
#704 = DIRECTION('',(1.,0.,-0.));
#705 = DIRECTION('',(0.,0.,1.));
#706 = ADVANCED_FACE('',(#707),#725,.F.);
#707 = FACE_BOUND('',#708,.F.);
#708 = EDGE_LOOP('',(#709,#710,#718,#724));
#709 = ORIENTED_EDGE('',*,*,#223,.T.);
#710 = ORIENTED_EDGE('',*,*,#711,.T.);
#711 = EDGE_CURVE('',#216,#712,#714,.T.);
#712 = VERTEX_POINT('',#713);
#713 = CARTESIAN_POINT('',(28.5,5.6,14.));
#714 = LINE('',#715,#716);
#715 = CARTESIAN_POINT('',(28.5,5.6,1.));
#716 = VECTOR('',#717,1.);
#717 = DIRECTION('',(0.,0.,1.));
#718 = ORIENTED_EDGE('',*,*,#719,.T.);
#719 = EDGE_CURVE('',#712,#687,#720,.T.);
#720 = LINE('',#721,#722);
#721 = CARTESIAN_POINT('',(28.5,5.6,14.));
#722 = VECTOR('',#723,1.);
#723 = DIRECTION('',(1.,0.,-0.));
#724 = ORIENTED_EDGE('',*,*,#694,.F.);
#725 = PLANE('',#726);
#726 = AXIS2_PLACEMENT_3D('',#727,#728,#729);
#727 = CARTESIAN_POINT('',(28.5,5.6,1.));
#728 = DIRECTION('',(-0.,1.,0.));
#729 = DIRECTION('',(0.,0.,1.));
#730 = ADVANCED_FACE('',(#731),#766,.T.);
#731 = FACE_BOUND('',#732,.T.);
#732 = EDGE_LOOP('',(#733,#741,#749,#757,#763,#764,#765));
#733 = ORIENTED_EDGE('',*,*,#734,.F.);
#734 = EDGE_CURVE('',#735,#712,#737,.T.);
#735 = VERTEX_POINT('',#736);
#736 = CARTESIAN_POINT('',(28.5,4.4,14.));
#737 = LINE('',#738,#739);
#738 = CARTESIAN_POINT('',(28.5,4.4,14.));
#739 = VECTOR('',#740,1.);
#740 = DIRECTION('',(-0.,1.,0.));
#741 = ORIENTED_EDGE('',*,*,#742,.F.);
#742 = EDGE_CURVE('',#743,#735,#745,.T.);
#743 = VERTEX_POINT('',#744);
#744 = CARTESIAN_POINT('',(28.5,4.4,1.));
#745 = LINE('',#746,#747);
#746 = CARTESIAN_POINT('',(28.5,4.4,1.));
#747 = VECTOR('',#748,1.);
#748 = DIRECTION('',(0.,0.,1.));
#749 = ORIENTED_EDGE('',*,*,#750,.T.);
#750 = EDGE_CURVE('',#743,#751,#753,.T.);
#751 = VERTEX_POINT('',#752);
#752 = CARTESIAN_POINT('',(28.5,5.6,1.));
#753 = LINE('',#754,#755);
#754 = CARTESIAN_POINT('',(28.5,4.4,1.));
#755 = VECTOR('',#756,1.);
#756 = DIRECTION('',(-0.,1.,0.));
#757 = ORIENTED_EDGE('',*,*,#758,.T.);
#758 = EDGE_CURVE('',#751,#296,#759,.T.);
#759 = LINE('',#760,#761);
#760 = CARTESIAN_POINT('',(28.5,5.6,1.));
#761 = VECTOR('',#762,1.);
#762 = DIRECTION('',(0.,0.,1.));
#763 = ORIENTED_EDGE('',*,*,#303,.T.);
#764 = ORIENTED_EDGE('',*,*,#215,.T.);
#765 = ORIENTED_EDGE('',*,*,#711,.T.);
#766 = PLANE('',#767);
#767 = AXIS2_PLACEMENT_3D('',#768,#769,#770);
#768 = CARTESIAN_POINT('',(28.5,4.4,1.));
#769 = DIRECTION('',(1.,0.,-0.));
#770 = DIRECTION('',(0.,0.,1.));
#771 = ADVANCED_FACE('',(#772),#783,.F.);
#772 = FACE_BOUND('',#773,.F.);
#773 = EDGE_LOOP('',(#774,#780,#781,#782));
#774 = ORIENTED_EDGE('',*,*,#775,.F.);
#775 = EDGE_CURVE('',#751,#663,#776,.T.);
#776 = LINE('',#777,#778);
#777 = CARTESIAN_POINT('',(28.5,5.6,1.));
#778 = VECTOR('',#779,1.);
#779 = DIRECTION('',(1.,0.,-0.));
#780 = ORIENTED_EDGE('',*,*,#758,.T.);
#781 = ORIENTED_EDGE('',*,*,#295,.T.);
#782 = ORIENTED_EDGE('',*,*,#662,.F.);
#783 = PLANE('',#784);
#784 = AXIS2_PLACEMENT_3D('',#785,#786,#787);
#785 = CARTESIAN_POINT('',(28.5,5.6,1.));
#786 = DIRECTION('',(-0.,1.,0.));
#787 = DIRECTION('',(0.,0.,1.));
#788 = ADVANCED_FACE('',(#789),#807,.T.);
#789 = FACE_BOUND('',#790,.T.);
#790 = EDGE_LOOP('',(#791,#799,#805,#806));
#791 = ORIENTED_EDGE('',*,*,#792,.F.);
#792 = EDGE_CURVE('',#793,#648,#795,.T.);
#793 = VERTEX_POINT('',#794);
#794 = CARTESIAN_POINT('',(28.5,9.4,1.));
#795 = LINE('',#796,#797);
#796 = CARTESIAN_POINT('',(28.5,9.4,1.));
#797 = VECTOR('',#798,1.);
#798 = DIRECTION('',(1.,0.,-0.));
#799 = ORIENTED_EDGE('',*,*,#800,.T.);
#800 = EDGE_CURVE('',#793,#272,#801,.T.);
#801 = LINE('',#802,#803);
#802 = CARTESIAN_POINT('',(28.5,9.4,1.));
#803 = VECTOR('',#804,1.);
#804 = DIRECTION('',(0.,0.,1.));
#805 = ORIENTED_EDGE('',*,*,#279,.T.);
#806 = ORIENTED_EDGE('',*,*,#655,.F.);
#807 = PLANE('',#808);
#808 = AXIS2_PLACEMENT_3D('',#809,#810,#811);
#809 = CARTESIAN_POINT('',(28.5,9.4,1.));
#810 = DIRECTION('',(-0.,1.,0.));
#811 = DIRECTION('',(0.,0.,1.));
#812 = ADVANCED_FACE('',(#813),#848,.T.);
#813 = FACE_BOUND('',#814,.T.);
#814 = EDGE_LOOP('',(#815,#816,#824,#832,#840,#846,#847));
#815 = ORIENTED_EDGE('',*,*,#800,.F.);
#816 = ORIENTED_EDGE('',*,*,#817,.T.);
#817 = EDGE_CURVE('',#793,#818,#820,.T.);
#818 = VERTEX_POINT('',#819);
#819 = CARTESIAN_POINT('',(28.5,10.6,1.));
#820 = LINE('',#821,#822);
#821 = CARTESIAN_POINT('',(28.5,9.4,1.));
#822 = VECTOR('',#823,1.);
#823 = DIRECTION('',(-0.,1.,0.));
#824 = ORIENTED_EDGE('',*,*,#825,.T.);
#825 = EDGE_CURVE('',#818,#826,#828,.T.);
#826 = VERTEX_POINT('',#827);
#827 = CARTESIAN_POINT('',(28.5,10.6,14.));
#828 = LINE('',#829,#830);
#829 = CARTESIAN_POINT('',(28.5,10.6,1.));
#830 = VECTOR('',#831,1.);
#831 = DIRECTION('',(0.,0.,1.));
#832 = ORIENTED_EDGE('',*,*,#833,.F.);
#833 = EDGE_CURVE('',#834,#826,#836,.T.);
#834 = VERTEX_POINT('',#835);
#835 = CARTESIAN_POINT('',(28.5,9.4,14.));
#836 = LINE('',#837,#838);
#837 = CARTESIAN_POINT('',(28.5,9.4,14.));
#838 = VECTOR('',#839,1.);
#839 = DIRECTION('',(-0.,1.,0.));
#840 = ORIENTED_EDGE('',*,*,#841,.F.);
#841 = EDGE_CURVE('',#352,#834,#842,.T.);
#842 = LINE('',#843,#844);
#843 = CARTESIAN_POINT('',(28.5,9.4,1.));
#844 = VECTOR('',#845,1.);
#845 = DIRECTION('',(0.,0.,1.));
#846 = ORIENTED_EDGE('',*,*,#359,.T.);
#847 = ORIENTED_EDGE('',*,*,#271,.T.);
#848 = PLANE('',#849);
#849 = AXIS2_PLACEMENT_3D('',#850,#851,#852);
#850 = CARTESIAN_POINT('',(28.5,9.4,1.));
#851 = DIRECTION('',(1.,0.,-0.));
#852 = DIRECTION('',(0.,0.,1.));
#853 = ADVANCED_FACE('',(#854),#865,.T.);
#854 = FACE_BOUND('',#855,.T.);
#855 = EDGE_LOOP('',(#856,#857,#858,#864));
#856 = ORIENTED_EDGE('',*,*,#351,.T.);
#857 = ORIENTED_EDGE('',*,*,#841,.T.);
#858 = ORIENTED_EDGE('',*,*,#859,.T.);
#859 = EDGE_CURVE('',#834,#624,#860,.T.);
#860 = LINE('',#861,#862);
#861 = CARTESIAN_POINT('',(28.5,9.4,14.));
#862 = VECTOR('',#863,1.);
#863 = DIRECTION('',(1.,0.,-0.));
#864 = ORIENTED_EDGE('',*,*,#623,.F.);
#865 = PLANE('',#866);
#866 = AXIS2_PLACEMENT_3D('',#867,#868,#869);
#867 = CARTESIAN_POINT('',(28.5,9.4,1.));
#868 = DIRECTION('',(-0.,1.,0.));
#869 = DIRECTION('',(0.,0.,1.));
#870 = ADVANCED_FACE('',(#871),#889,.T.);
#871 = FACE_BOUND('',#872,.T.);
#872 = EDGE_LOOP('',(#873,#881,#882,#883));
#873 = ORIENTED_EDGE('',*,*,#874,.F.);
#874 = EDGE_CURVE('',#328,#875,#877,.T.);
#875 = VERTEX_POINT('',#876);
#876 = CARTESIAN_POINT('',(29.6,14.6,15.));
#877 = LINE('',#878,#879);
#878 = CARTESIAN_POINT('',(29.6,0.,15.));
#879 = VECTOR('',#880,1.);
#880 = DIRECTION('',(-0.,1.,0.));
#881 = ORIENTED_EDGE('',*,*,#335,.F.);
#882 = ORIENTED_EDGE('',*,*,#616,.T.);
#883 = ORIENTED_EDGE('',*,*,#884,.T.);
#884 = EDGE_CURVE('',#609,#875,#885,.T.);
#885 = LINE('',#886,#887);
#886 = CARTESIAN_POINT('',(29.8,14.6,14.8));
#887 = VECTOR('',#888,1.);
#888 = DIRECTION('',(-0.707106781187,3.10245786126E-15,0.707106781187));
#889 = PLANE('',#890);
#890 = AXIS2_PLACEMENT_3D('',#891,#892,#893);
#891 = CARTESIAN_POINT('',(29.8,0.,14.8));
#892 = DIRECTION('',(0.707106781187,-1.28049161384E-18,0.707106781187));
#893 = DIRECTION('',(9.054443033987E-19,1.,9.054443033987E-19));
#894 = ADVANCED_FACE('',(#895),#906,.T.);
#895 = FACE_BOUND('',#896,.T.);
#896 = EDGE_LOOP('',(#897,#898,#899,#900));
#897 = ORIENTED_EDGE('',*,*,#373,.F.);
#898 = ORIENTED_EDGE('',*,*,#327,.F.);
#899 = ORIENTED_EDGE('',*,*,#874,.T.);
#900 = ORIENTED_EDGE('',*,*,#901,.F.);
#901 = EDGE_CURVE('',#374,#875,#902,.T.);
#902 = LINE('',#903,#904);
#903 = CARTESIAN_POINT('',(0.,14.6,15.));
#904 = VECTOR('',#905,1.);
#905 = DIRECTION('',(1.,0.,-0.));
#906 = PLANE('',#907);
#907 = AXIS2_PLACEMENT_3D('',#908,#909,#910);
#908 = CARTESIAN_POINT('',(0.,0.,15.));
#909 = DIRECTION('',(0.,0.,1.));
#910 = DIRECTION('',(1.,0.,-0.));
#911 = ADVANCED_FACE('',(#912),#922,.F.);
#912 = FACE_BOUND('',#913,.F.);
#913 = EDGE_LOOP('',(#914,#915,#921));
#914 = ORIENTED_EDGE('',*,*,#398,.F.);
#915 = ORIENTED_EDGE('',*,*,#916,.T.);
#916 = EDGE_CURVE('',#399,#374,#917,.T.);
#917 = LINE('',#918,#919);
#918 = CARTESIAN_POINT('',(0.4,14.9,14.7));
#919 = VECTOR('',#920,1.);
#920 = DIRECTION('',(-3.09136719368E-15,-0.707106781187,0.707106781187)
  );
#921 = ORIENTED_EDGE('',*,*,#383,.F.);
#922 = PLANE('',#923);
#923 = AXIS2_PLACEMENT_3D('',#924,#925,#926);
#924 = CARTESIAN_POINT('',(0.4,15.,14.6));
#925 = DIRECTION('',(0.57735026919,-0.57735026919,-0.57735026919));
#926 = DIRECTION('',(0.707106781187,3.120861515232E-15,0.707106781187));
#927 = ADVANCED_FACE('',(#928),#938,.F.);
#928 = FACE_BOUND('',#929,.F.);
#929 = EDGE_LOOP('',(#930,#931,#937));
#930 = ORIENTED_EDGE('',*,*,#437,.F.);
#931 = ORIENTED_EDGE('',*,*,#932,.T.);
#932 = EDGE_CURVE('',#438,#407,#933,.T.);
#933 = LINE('',#934,#935);
#934 = CARTESIAN_POINT('',(0.4,14.7,1.E-01));
#935 = VECTOR('',#936,1.);
#936 = DIRECTION('',(-1.067160332643E-15,0.707106781187,0.707106781187)
  );
#937 = ORIENTED_EDGE('',*,*,#414,.F.);
#938 = PLANE('',#939);
#939 = AXIS2_PLACEMENT_3D('',#940,#941,#942);
#940 = CARTESIAN_POINT('',(0.4,14.6,-4.163336342344E-16));
#941 = DIRECTION('',(0.57735026919,-0.57735026919,0.57735026919));
#942 = DIRECTION('',(0.707106781187,0.707106781187,-9.073603475564E-16)
  );
#943 = ADVANCED_FACE('',(#944),#969,.T.);
#944 = FACE_BOUND('',#945,.T.);
#945 = EDGE_LOOP('',(#946,#947,#955,#963));
#946 = ORIENTED_EDGE('',*,*,#406,.T.);
#947 = ORIENTED_EDGE('',*,*,#948,.T.);
#948 = EDGE_CURVE('',#399,#949,#951,.T.);
#949 = VERTEX_POINT('',#950);
#950 = CARTESIAN_POINT('',(29.6,15.,14.6));
#951 = LINE('',#952,#953);
#952 = CARTESIAN_POINT('',(0.,15.,14.6));
#953 = VECTOR('',#954,1.);
#954 = DIRECTION('',(1.,0.,-0.));
#955 = ORIENTED_EDGE('',*,*,#956,.F.);
#956 = EDGE_CURVE('',#957,#949,#959,.T.);
#957 = VERTEX_POINT('',#958);
#958 = CARTESIAN_POINT('',(29.6,15.,0.4));
#959 = LINE('',#960,#961);
#960 = CARTESIAN_POINT('',(29.6,15.,0.));
#961 = VECTOR('',#962,1.);
#962 = DIRECTION('',(0.,0.,1.));
#963 = ORIENTED_EDGE('',*,*,#964,.F.);
#964 = EDGE_CURVE('',#407,#957,#965,.T.);
#965 = LINE('',#966,#967);
#966 = CARTESIAN_POINT('',(0.,15.,0.4));
#967 = VECTOR('',#968,1.);
#968 = DIRECTION('',(1.,0.,-0.));
#969 = PLANE('',#970);
#970 = AXIS2_PLACEMENT_3D('',#971,#972,#973);
#971 = CARTESIAN_POINT('',(0.,15.,0.));
#972 = DIRECTION('',(-0.,1.,0.));
#973 = DIRECTION('',(0.,0.,1.));
#974 = ADVANCED_FACE('',(#975),#1000,.F.);
#975 = FACE_BOUND('',#976,.F.);
#976 = EDGE_LOOP('',(#977,#978,#986,#994));
#977 = ORIENTED_EDGE('',*,*,#445,.F.);
#978 = ORIENTED_EDGE('',*,*,#979,.T.);
#979 = EDGE_CURVE('',#429,#980,#982,.T.);
#980 = VERTEX_POINT('',#981);
#981 = CARTESIAN_POINT('',(29.6,0.4,0.));
#982 = LINE('',#983,#984);
#983 = CARTESIAN_POINT('',(0.,0.4,0.));
#984 = VECTOR('',#985,1.);
#985 = DIRECTION('',(1.,0.,-0.));
#986 = ORIENTED_EDGE('',*,*,#987,.T.);
#987 = EDGE_CURVE('',#980,#988,#990,.T.);
#988 = VERTEX_POINT('',#989);
#989 = CARTESIAN_POINT('',(29.6,14.6,-4.099961635725E-16));
#990 = LINE('',#991,#992);
#991 = CARTESIAN_POINT('',(29.6,0.,0.));
#992 = VECTOR('',#993,1.);
#993 = DIRECTION('',(-0.,1.,0.));
#994 = ORIENTED_EDGE('',*,*,#995,.F.);
#995 = EDGE_CURVE('',#438,#988,#996,.T.);
#996 = LINE('',#997,#998);
#997 = CARTESIAN_POINT('',(0.,14.6,0.));
#998 = VECTOR('',#999,1.);
#999 = DIRECTION('',(1.,0.,-0.));
#1000 = PLANE('',#1001);
#1001 = AXIS2_PLACEMENT_3D('',#1002,#1003,#1004);
#1002 = CARTESIAN_POINT('',(0.,0.,0.));
#1003 = DIRECTION('',(0.,0.,1.));
#1004 = DIRECTION('',(1.,0.,-0.));
#1005 = ADVANCED_FACE('',(#1006),#1017,.T.);
#1006 = FACE_BOUND('',#1007,.F.);
#1007 = EDGE_LOOP('',(#1008,#1009,#1010,#1016));
#1008 = ORIENTED_EDGE('',*,*,#460,.T.);
#1009 = ORIENTED_EDGE('',*,*,#508,.T.);
#1010 = ORIENTED_EDGE('',*,*,#1011,.F.);
#1011 = EDGE_CURVE('',#980,#501,#1012,.T.);
#1012 = LINE('',#1013,#1014);
#1013 = CARTESIAN_POINT('',(29.6,0.3,0.1));
#1014 = VECTOR('',#1015,1.);
#1015 = DIRECTION('',(-4.078668165574E-17,-0.707106781187,0.707106781187
    ));
#1016 = ORIENTED_EDGE('',*,*,#979,.F.);
#1017 = PLANE('',#1018);
#1018 = AXIS2_PLACEMENT_3D('',#1019,#1020,#1021);
#1019 = CARTESIAN_POINT('',(0.,0.2,0.2));
#1020 = DIRECTION('',(-1.679829943626E-18,-0.707106781187,
    -0.707106781187));
#1021 = DIRECTION('',(-1.,1.187819144378E-18,1.187819144378E-18));
#1022 = ADVANCED_FACE('',(#1023),#1034,.F.);
#1023 = FACE_BOUND('',#1024,.T.);
#1024 = EDGE_LOOP('',(#1025,#1026,#1027,#1033));
#1025 = ORIENTED_EDGE('',*,*,#476,.T.);
#1026 = ORIENTED_EDGE('',*,*,#492,.T.);
#1027 = ORIENTED_EDGE('',*,*,#1028,.F.);
#1028 = EDGE_CURVE('',#546,#493,#1029,.T.);
#1029 = LINE('',#1030,#1031);
#1030 = CARTESIAN_POINT('',(29.6,0.3,14.9));
#1031 = VECTOR('',#1032,1.);
#1032 = DIRECTION('',(-2.499935127603E-16,-0.707106781187,
    -0.707106781187));
#1033 = ORIENTED_EDGE('',*,*,#545,.F.);
#1034 = PLANE('',#1035);
#1035 = AXIS2_PLACEMENT_3D('',#1036,#1037,#1038);
#1036 = CARTESIAN_POINT('',(0.,0.2,14.8));
#1037 = DIRECTION('',(-9.709052582848E-19,0.707106781187,-0.707106781187
    ));
#1038 = DIRECTION('',(-1.,-6.865336920228E-19,6.865336920228E-19));
#1039 = ADVANCED_FACE('',(#1040),#1056,.F.);
#1040 = FACE_BOUND('',#1041,.T.);
#1041 = EDGE_LOOP('',(#1042,#1043,#1049,#1050));
#1042 = ORIENTED_EDGE('',*,*,#592,.T.);
#1043 = ORIENTED_EDGE('',*,*,#1044,.T.);
#1044 = EDGE_CURVE('',#570,#493,#1045,.T.);
#1045 = LINE('',#1046,#1047);
#1046 = CARTESIAN_POINT('',(29.8,0.2,14.6));
#1047 = VECTOR('',#1048,1.);
#1048 = DIRECTION('',(-0.707106781187,-0.707106781187,6.065300454006E-16
    ));
#1049 = ORIENTED_EDGE('',*,*,#500,.F.);
#1050 = ORIENTED_EDGE('',*,*,#1051,.F.);
#1051 = EDGE_CURVE('',#593,#501,#1052,.T.);
#1052 = LINE('',#1053,#1054);
#1053 = CARTESIAN_POINT('',(29.8,0.2,0.4));
#1054 = VECTOR('',#1055,1.);
#1055 = DIRECTION('',(-0.707106781187,-0.707106781187,
    -6.946710071739E-17));
#1056 = PLANE('',#1057);
#1057 = AXIS2_PLACEMENT_3D('',#1058,#1059,#1060);
#1058 = CARTESIAN_POINT('',(29.8,0.2,0.));
#1059 = DIRECTION('',(-0.707106781187,0.707106781187,-5.47005954057E-18)
  );
#1060 = DIRECTION('',(3.867916194631E-18,-3.867916194631E-18,-1.));
#1061 = ADVANCED_FACE('',(#1062),#1081,.F.);
#1062 = FACE_BOUND('',#1063,.F.);
#1063 = EDGE_LOOP('',(#1064,#1072,#1079,#1080));
#1064 = ORIENTED_EDGE('',*,*,#1065,.T.);
#1065 = EDGE_CURVE('',#517,#1066,#1068,.T.);
#1066 = VERTEX_POINT('',#1067);
#1067 = CARTESIAN_POINT('',(9.,4.,9.5));
#1068 = LINE('',#1069,#1070);
#1069 = CARTESIAN_POINT('',(9.,-1.E-02,9.5));
#1070 = VECTOR('',#1071,1.);
#1071 = DIRECTION('',(0.,1.,0.));
#1072 = ORIENTED_EDGE('',*,*,#1073,.F.);
#1073 = EDGE_CURVE('',#1066,#1066,#1074,.T.);
#1074 = CIRCLE('',#1075,2.);
#1075 = AXIS2_PLACEMENT_3D('',#1076,#1077,#1078);
#1076 = CARTESIAN_POINT('',(9.,4.,7.5));
#1077 = DIRECTION('',(0.,1.,0.));
#1078 = DIRECTION('',(0.,-0.,1.));
#1079 = ORIENTED_EDGE('',*,*,#1065,.F.);
#1080 = ORIENTED_EDGE('',*,*,#516,.T.);
#1081 = CYLINDRICAL_SURFACE('',#1082,2.);
#1082 = AXIS2_PLACEMENT_3D('',#1083,#1084,#1085);
#1083 = CARTESIAN_POINT('',(9.,-1.E-02,7.5));
#1084 = DIRECTION('',(0.,1.,0.));
#1085 = DIRECTION('',(0.,-0.,1.));
#1086 = ADVANCED_FACE('',(#1087),#1106,.F.);
#1087 = FACE_BOUND('',#1088,.F.);
#1088 = EDGE_LOOP('',(#1089,#1097,#1104,#1105));
#1089 = ORIENTED_EDGE('',*,*,#1090,.T.);
#1090 = EDGE_CURVE('',#528,#1091,#1093,.T.);
#1091 = VERTEX_POINT('',#1092);
#1092 = CARTESIAN_POINT('',(21.,4.,9.5));
#1093 = LINE('',#1094,#1095);
#1094 = CARTESIAN_POINT('',(21.,-1.E-02,9.5));
#1095 = VECTOR('',#1096,1.);
#1096 = DIRECTION('',(0.,1.,0.));
#1097 = ORIENTED_EDGE('',*,*,#1098,.F.);
#1098 = EDGE_CURVE('',#1091,#1091,#1099,.T.);
#1099 = CIRCLE('',#1100,2.);
#1100 = AXIS2_PLACEMENT_3D('',#1101,#1102,#1103);
#1101 = CARTESIAN_POINT('',(21.,4.,7.5));
#1102 = DIRECTION('',(0.,1.,0.));
#1103 = DIRECTION('',(0.,-0.,1.));
#1104 = ORIENTED_EDGE('',*,*,#1090,.F.);
#1105 = ORIENTED_EDGE('',*,*,#527,.T.);
#1106 = CYLINDRICAL_SURFACE('',#1107,2.);
#1107 = AXIS2_PLACEMENT_3D('',#1108,#1109,#1110);
#1108 = CARTESIAN_POINT('',(21.,-1.E-02,7.5));
#1109 = DIRECTION('',(0.,1.,0.));
#1110 = DIRECTION('',(0.,-0.,1.));
#1111 = ADVANCED_FACE('',(#1112),#1117,.T.);
#1112 = FACE_BOUND('',#1113,.T.);
#1113 = EDGE_LOOP('',(#1114,#1115,#1116));
#1114 = ORIENTED_EDGE('',*,*,#569,.F.);
#1115 = ORIENTED_EDGE('',*,*,#1028,.T.);
#1116 = ORIENTED_EDGE('',*,*,#1044,.F.);
#1117 = PLANE('',#1118);
#1118 = AXIS2_PLACEMENT_3D('',#1119,#1120,#1121);
#1119 = CARTESIAN_POINT('',(29.6,0.4,15.));
#1120 = DIRECTION('',(0.57735026919,-0.57735026919,0.57735026919));
#1121 = DIRECTION('',(-0.707106781187,-0.707106781187,2.500452347492E-17
    ));
#1122 = ADVANCED_FACE('',(#1123),#1134,.F.);
#1123 = FACE_BOUND('',#1124,.F.);
#1124 = EDGE_LOOP('',(#1125,#1126,#1127,#1133));
#1125 = ORIENTED_EDGE('',*,*,#719,.F.);
#1126 = ORIENTED_EDGE('',*,*,#734,.F.);
#1127 = ORIENTED_EDGE('',*,*,#1128,.T.);
#1128 = EDGE_CURVE('',#735,#679,#1129,.T.);
#1129 = LINE('',#1130,#1131);
#1130 = CARTESIAN_POINT('',(28.5,4.4,14.));
#1131 = VECTOR('',#1132,1.);
#1132 = DIRECTION('',(1.,0.,-0.));
#1133 = ORIENTED_EDGE('',*,*,#686,.F.);
#1134 = PLANE('',#1135);
#1135 = AXIS2_PLACEMENT_3D('',#1136,#1137,#1138);
#1136 = CARTESIAN_POINT('',(28.5,4.4,14.));
#1137 = DIRECTION('',(0.,0.,1.));
#1138 = DIRECTION('',(1.,0.,-0.));
#1139 = ADVANCED_FACE('',(#1140),#1151,.T.);
#1140 = FACE_BOUND('',#1141,.T.);
#1141 = EDGE_LOOP('',(#1142,#1148,#1149,#1150));
#1142 = ORIENTED_EDGE('',*,*,#1143,.F.);
#1143 = EDGE_CURVE('',#743,#671,#1144,.T.);
#1144 = LINE('',#1145,#1146);
#1145 = CARTESIAN_POINT('',(28.5,4.4,1.));
#1146 = VECTOR('',#1147,1.);
#1147 = DIRECTION('',(1.,0.,-0.));
#1148 = ORIENTED_EDGE('',*,*,#742,.T.);
#1149 = ORIENTED_EDGE('',*,*,#1128,.T.);
#1150 = ORIENTED_EDGE('',*,*,#678,.F.);
#1151 = PLANE('',#1152);
#1152 = AXIS2_PLACEMENT_3D('',#1153,#1154,#1155);
#1153 = CARTESIAN_POINT('',(28.5,4.4,1.));
#1154 = DIRECTION('',(-0.,1.,0.));
#1155 = DIRECTION('',(0.,0.,1.));
#1156 = ADVANCED_FACE('',(#1157),#1163,.T.);
#1157 = FACE_BOUND('',#1158,.T.);
#1158 = EDGE_LOOP('',(#1159,#1160,#1161,#1162));
#1159 = ORIENTED_EDGE('',*,*,#775,.F.);
#1160 = ORIENTED_EDGE('',*,*,#750,.F.);
#1161 = ORIENTED_EDGE('',*,*,#1143,.T.);
#1162 = ORIENTED_EDGE('',*,*,#670,.F.);
#1163 = PLANE('',#1164);
#1164 = AXIS2_PLACEMENT_3D('',#1165,#1166,#1167);
#1165 = CARTESIAN_POINT('',(28.5,4.4,1.));
#1166 = DIRECTION('',(0.,0.,1.));
#1167 = DIRECTION('',(1.,0.,-0.));
#1168 = ADVANCED_FACE('',(#1169),#1180,.T.);
#1169 = FACE_BOUND('',#1170,.T.);
#1170 = EDGE_LOOP('',(#1171,#1177,#1178,#1179));
#1171 = ORIENTED_EDGE('',*,*,#1172,.F.);
#1172 = EDGE_CURVE('',#818,#640,#1173,.T.);
#1173 = LINE('',#1174,#1175);
#1174 = CARTESIAN_POINT('',(28.5,10.6,1.));
#1175 = VECTOR('',#1176,1.);
#1176 = DIRECTION('',(1.,0.,-0.));
#1177 = ORIENTED_EDGE('',*,*,#817,.F.);
#1178 = ORIENTED_EDGE('',*,*,#792,.T.);
#1179 = ORIENTED_EDGE('',*,*,#647,.F.);
#1180 = PLANE('',#1181);
#1181 = AXIS2_PLACEMENT_3D('',#1182,#1183,#1184);
#1182 = CARTESIAN_POINT('',(28.5,9.4,1.));
#1183 = DIRECTION('',(0.,0.,1.));
#1184 = DIRECTION('',(1.,0.,-0.));
#1185 = ADVANCED_FACE('',(#1186),#1197,.F.);
#1186 = FACE_BOUND('',#1187,.F.);
#1187 = EDGE_LOOP('',(#1188,#1189,#1190,#1196));
#1188 = ORIENTED_EDGE('',*,*,#1172,.F.);
#1189 = ORIENTED_EDGE('',*,*,#825,.T.);
#1190 = ORIENTED_EDGE('',*,*,#1191,.T.);
#1191 = EDGE_CURVE('',#826,#632,#1192,.T.);
#1192 = LINE('',#1193,#1194);
#1193 = CARTESIAN_POINT('',(28.5,10.6,14.));
#1194 = VECTOR('',#1195,1.);
#1195 = DIRECTION('',(1.,0.,-0.));
#1196 = ORIENTED_EDGE('',*,*,#639,.F.);
#1197 = PLANE('',#1198);
#1198 = AXIS2_PLACEMENT_3D('',#1199,#1200,#1201);
#1199 = CARTESIAN_POINT('',(28.5,10.6,1.));
#1200 = DIRECTION('',(-0.,1.,0.));
#1201 = DIRECTION('',(0.,0.,1.));
#1202 = ADVANCED_FACE('',(#1203),#1209,.F.);
#1203 = FACE_BOUND('',#1204,.F.);
#1204 = EDGE_LOOP('',(#1205,#1206,#1207,#1208));
#1205 = ORIENTED_EDGE('',*,*,#1191,.F.);
#1206 = ORIENTED_EDGE('',*,*,#833,.F.);
#1207 = ORIENTED_EDGE('',*,*,#859,.T.);
#1208 = ORIENTED_EDGE('',*,*,#631,.F.);
#1209 = PLANE('',#1210);
#1210 = AXIS2_PLACEMENT_3D('',#1211,#1212,#1213);
#1211 = CARTESIAN_POINT('',(28.5,9.4,14.));
#1212 = DIRECTION('',(0.,0.,1.));
#1213 = DIRECTION('',(1.,0.,-0.));
#1214 = ADVANCED_FACE('',(#1215),#1231,.T.);
#1215 = FACE_BOUND('',#1216,.F.);
#1216 = EDGE_LOOP('',(#1217,#1218,#1224,#1225));
#1217 = ORIENTED_EDGE('',*,*,#608,.T.);
#1218 = ORIENTED_EDGE('',*,*,#1219,.F.);
#1219 = EDGE_CURVE('',#949,#609,#1220,.T.);
#1220 = LINE('',#1221,#1222);
#1221 = CARTESIAN_POINT('',(29.7,14.9,14.6));
#1222 = VECTOR('',#1223,1.);
#1223 = DIRECTION('',(0.707106781187,-0.707106781187,6.940134322173E-18)
  );
#1224 = ORIENTED_EDGE('',*,*,#956,.F.);
#1225 = ORIENTED_EDGE('',*,*,#1226,.F.);
#1226 = EDGE_CURVE('',#601,#957,#1227,.T.);
#1227 = LINE('',#1228,#1229);
#1228 = CARTESIAN_POINT('',(29.8,14.8,0.4));
#1229 = VECTOR('',#1230,1.);
#1230 = DIRECTION('',(-0.707106781187,0.707106781187,-9.517108720562E-16
    ));
#1231 = PLANE('',#1232);
#1232 = AXIS2_PLACEMENT_3D('',#1233,#1234,#1235);
#1233 = CARTESIAN_POINT('',(29.8,14.8,0.));
#1234 = DIRECTION('',(0.707106781187,0.707106781187,2.049090107045E-19)
  );
#1235 = DIRECTION('',(1.448925509954E-19,1.448925509954E-19,-1.));
#1236 = ADVANCED_FACE('',(#1237),#1253,.F.);
#1237 = FACE_BOUND('',#1238,.F.);
#1238 = EDGE_LOOP('',(#1239,#1245,#1246,#1252));
#1239 = ORIENTED_EDGE('',*,*,#1240,.T.);
#1240 = EDGE_CURVE('',#980,#593,#1241,.T.);
#1241 = LINE('',#1242,#1243);
#1242 = CARTESIAN_POINT('',(29.7,0.4,1.E-01));
#1243 = VECTOR('',#1244,1.);
#1244 = DIRECTION('',(0.707106781187,5.667399243391E-17,0.707106781187)
  );
#1245 = ORIENTED_EDGE('',*,*,#600,.T.);
#1246 = ORIENTED_EDGE('',*,*,#1247,.F.);
#1247 = EDGE_CURVE('',#988,#601,#1248,.T.);
#1248 = LINE('',#1249,#1250);
#1249 = CARTESIAN_POINT('',(29.7,14.6,0.1));
#1250 = VECTOR('',#1251,1.);
#1251 = DIRECTION('',(0.707106781187,-5.442477015508E-16,0.707106781187)
  );
#1252 = ORIENTED_EDGE('',*,*,#987,.F.);
#1253 = PLANE('',#1254);
#1254 = AXIS2_PLACEMENT_3D('',#1255,#1256,#1257);
#1255 = CARTESIAN_POINT('',(29.8,0.,0.2));
#1256 = DIRECTION('',(-0.707106781187,5.332783484717E-18,0.707106781187)
  );
#1257 = DIRECTION('',(3.770847364643E-18,1.,-3.770847364643E-18));
#1258 = ADVANCED_FACE('',(#1259),#1269,.T.);
#1259 = FACE_BOUND('',#1260,.T.);
#1260 = EDGE_LOOP('',(#1261,#1262,#1268));
#1261 = ORIENTED_EDGE('',*,*,#1219,.F.);
#1262 = ORIENTED_EDGE('',*,*,#1263,.T.);
#1263 = EDGE_CURVE('',#949,#875,#1264,.T.);
#1264 = LINE('',#1265,#1266);
#1265 = CARTESIAN_POINT('',(29.6,14.9,14.7));
#1266 = VECTOR('',#1267,1.);
#1267 = DIRECTION('',(3.121529680577E-15,-0.707106781187,0.707106781187)
  );
#1268 = ORIENTED_EDGE('',*,*,#884,.F.);
#1269 = PLANE('',#1270);
#1270 = AXIS2_PLACEMENT_3D('',#1271,#1272,#1273);
#1271 = CARTESIAN_POINT('',(29.6,15.,14.6));
#1272 = DIRECTION('',(0.57735026919,0.57735026919,0.57735026919));
#1273 = DIRECTION('',(-0.707106781187,3.180140265601E-15,0.707106781187)
  );
#1274 = ADVANCED_FACE('',(#1275),#1281,.T.);
#1275 = FACE_BOUND('',#1276,.F.);
#1276 = EDGE_LOOP('',(#1277,#1278,#1279,#1280));
#1277 = ORIENTED_EDGE('',*,*,#916,.F.);
#1278 = ORIENTED_EDGE('',*,*,#948,.T.);
#1279 = ORIENTED_EDGE('',*,*,#1263,.T.);
#1280 = ORIENTED_EDGE('',*,*,#901,.F.);
#1281 = PLANE('',#1282);
#1282 = AXIS2_PLACEMENT_3D('',#1283,#1284,#1285);
#1283 = CARTESIAN_POINT('',(0.,14.8,14.8));
#1284 = DIRECTION('',(1.548203495886E-18,0.707106781187,0.707106781187)
  );
#1285 = DIRECTION('',(-1.,1.094745190598E-18,1.094745190598E-18));
#1286 = ADVANCED_FACE('',(#1287),#1298,.F.);
#1287 = FACE_BOUND('',#1288,.T.);
#1288 = EDGE_LOOP('',(#1289,#1290,#1291,#1297));
#1289 = ORIENTED_EDGE('',*,*,#932,.T.);
#1290 = ORIENTED_EDGE('',*,*,#964,.T.);
#1291 = ORIENTED_EDGE('',*,*,#1292,.F.);
#1292 = EDGE_CURVE('',#988,#957,#1293,.T.);
#1293 = LINE('',#1294,#1295);
#1294 = CARTESIAN_POINT('',(29.6,14.7,1.E-01));
#1295 = VECTOR('',#1296,1.);
#1296 = DIRECTION('',(3.241350442795E-16,0.707106781187,0.707106781187)
  );
#1297 = ORIENTED_EDGE('',*,*,#995,.F.);
#1298 = PLANE('',#1299);
#1299 = AXIS2_PLACEMENT_3D('',#1300,#1301,#1302);
#1300 = CARTESIAN_POINT('',(0.,14.8,0.2));
#1301 = DIRECTION('',(2.068430171249E-18,-0.707106781187,0.707106781187)
  );
#1302 = DIRECTION('',(-1.,-1.462601000501E-18,1.462601000501E-18));
#1303 = ADVANCED_FACE('',(#1304),#1309,.F.);
#1304 = FACE_BOUND('',#1305,.F.);
#1305 = EDGE_LOOP('',(#1306,#1307,#1308));
#1306 = ORIENTED_EDGE('',*,*,#1240,.F.);
#1307 = ORIENTED_EDGE('',*,*,#1011,.T.);
#1308 = ORIENTED_EDGE('',*,*,#1051,.F.);
#1309 = PLANE('',#1310);
#1310 = AXIS2_PLACEMENT_3D('',#1311,#1312,#1313);
#1311 = CARTESIAN_POINT('',(29.6,0.4,0.));
#1312 = DIRECTION('',(-0.57735026919,0.57735026919,0.57735026919));
#1313 = DIRECTION('',(-0.707106781187,-0.707106781187,-3.99020542643E-17
    ));
#1314 = ADVANCED_FACE('',(#1315),#1318,.F.);
#1315 = FACE_BOUND('',#1316,.F.);
#1316 = EDGE_LOOP('',(#1317));
#1317 = ORIENTED_EDGE('',*,*,#1073,.T.);
#1318 = PLANE('',#1319);
#1319 = AXIS2_PLACEMENT_3D('',#1320,#1321,#1322);
#1320 = CARTESIAN_POINT('',(9.,4.,7.5));
#1321 = DIRECTION('',(0.,1.,0.));
#1322 = DIRECTION('',(0.,-0.,1.));
#1323 = ADVANCED_FACE('',(#1324),#1327,.F.);
#1324 = FACE_BOUND('',#1325,.F.);
#1325 = EDGE_LOOP('',(#1326));
#1326 = ORIENTED_EDGE('',*,*,#1098,.T.);
#1327 = PLANE('',#1328);
#1328 = AXIS2_PLACEMENT_3D('',#1329,#1330,#1331);
#1329 = CARTESIAN_POINT('',(21.,4.,7.5));
#1330 = DIRECTION('',(0.,1.,0.));
#1331 = DIRECTION('',(0.,-0.,1.));
#1332 = ADVANCED_FACE('',(#1333),#1338,.T.);
#1333 = FACE_BOUND('',#1334,.T.);
#1334 = EDGE_LOOP('',(#1335,#1336,#1337));
#1335 = ORIENTED_EDGE('',*,*,#1247,.F.);
#1336 = ORIENTED_EDGE('',*,*,#1292,.T.);
#1337 = ORIENTED_EDGE('',*,*,#1226,.F.);
#1338 = PLANE('',#1339);
#1339 = AXIS2_PLACEMENT_3D('',#1340,#1341,#1342);
#1340 = CARTESIAN_POINT('',(29.6,14.6,-4.099961635725E-16));
#1341 = DIRECTION('',(0.57735026919,0.57735026919,-0.57735026919));
#1342 = DIRECTION('',(-0.707106781187,0.707106781187,-9.114984636527E-16
    ));
#1343 = ( GEOMETRIC_REPRESENTATION_CONTEXT(3) 
GLOBAL_UNCERTAINTY_ASSIGNED_CONTEXT((#1347)) 
GLOBAL_UNIT_ASSIGNED_CONTEXT((#1344,#1345,#1346)) REPRESENTATION_CONTEXT
('Context #1','3D Context with UNIT and UNCERTAINTY') );
#1344 = ( LENGTH_UNIT() NAMED_UNIT(*) SI_UNIT(.MILLI.,.METRE.) );
#1345 = ( NAMED_UNIT(*) PLANE_ANGLE_UNIT() SI_UNIT($,.RADIAN.) );
#1346 = ( NAMED_UNIT(*) SI_UNIT($,.STERADIAN.) SOLID_ANGLE_UNIT() );
#1347 = UNCERTAINTY_MEASURE_WITH_UNIT(LENGTH_MEASURE(1.E-07),#1344,
  'distance_accuracy_value','confusion accuracy');
#1348 = CONTEXT_DEPENDENT_SHAPE_REPRESENTATION(#1349,#1351);
#1349 = ( REPRESENTATION_RELATIONSHIP('','',#64,#10) 
REPRESENTATION_RELATIONSHIP_WITH_TRANSFORMATION(#1350) 
SHAPE_REPRESENTATION_RELATIONSHIP() );
#1350 = ITEM_DEFINED_TRANSFORMATION('','',#11,#15);
#1351 = PRODUCT_DEFINITION_SHAPE('Placement','Placement of an item',
  #1352);
#1352 = NEXT_ASSEMBLY_USAGE_OCCURRENCE('42','housing','',#5,#59,$);
#1353 = PRODUCT_RELATED_PRODUCT_CATEGORY('part',$,(#61));
#1354 = SHAPE_DEFINITION_REPRESENTATION(#1355,#1361);
#1355 = PRODUCT_DEFINITION_SHAPE('','',#1356);
#1356 = PRODUCT_DEFINITION('design','',#1357,#1360);
#1357 = PRODUCT_DEFINITION_FORMATION('','',#1358);
#1358 = PRODUCT('emitter_1','emitter_1','',(#1359));
#1359 = PRODUCT_CONTEXT('',#2,'mechanical');
#1360 = PRODUCT_DEFINITION_CONTEXT('part definition',#2,'design');
#1361 = ADVANCED_BREP_SHAPE_REPRESENTATION('',(#11,#1362),#1415);
#1362 = MANIFOLD_SOLID_BREP('',#1363);
#1363 = CLOSED_SHELL('',(#1364,#1397,#1406));
#1364 = ADVANCED_FACE('',(#1365),#1392,.T.);
#1365 = FACE_BOUND('',#1366,.T.);
#1366 = EDGE_LOOP('',(#1367,#1376,#1384,#1391));
#1367 = ORIENTED_EDGE('',*,*,#1368,.F.);
#1368 = EDGE_CURVE('',#1369,#1369,#1371,.T.);
#1369 = VERTEX_POINT('',#1370);
#1370 = CARTESIAN_POINT('',(8.1,3.4,6.7));
#1371 = CIRCLE('',#1372,0.8);
#1372 = AXIS2_PLACEMENT_3D('',#1373,#1374,#1375);
#1373 = CARTESIAN_POINT('',(8.1,3.4,7.5));
#1374 = DIRECTION('',(0.,-1.,0.));
#1375 = DIRECTION('',(0.,-0.,-1.));
#1376 = ORIENTED_EDGE('',*,*,#1377,.F.);
#1377 = EDGE_CURVE('',#1378,#1369,#1380,.T.);
#1378 = VERTEX_POINT('',#1379);
#1379 = CARTESIAN_POINT('',(8.1,4.,6.7));
#1380 = LINE('',#1381,#1382);
#1381 = CARTESIAN_POINT('',(8.1,4.,6.7));
#1382 = VECTOR('',#1383,1.);
#1383 = DIRECTION('',(0.,-1.,0.));
#1384 = ORIENTED_EDGE('',*,*,#1385,.T.);
#1385 = EDGE_CURVE('',#1378,#1378,#1386,.T.);
#1386 = CIRCLE('',#1387,0.8);
#1387 = AXIS2_PLACEMENT_3D('',#1388,#1389,#1390);
#1388 = CARTESIAN_POINT('',(8.1,4.,7.5));
#1389 = DIRECTION('',(0.,-1.,0.));
#1390 = DIRECTION('',(0.,-0.,-1.));
#1391 = ORIENTED_EDGE('',*,*,#1377,.T.);
#1392 = CYLINDRICAL_SURFACE('',#1393,0.8);
#1393 = AXIS2_PLACEMENT_3D('',#1394,#1395,#1396);
#1394 = CARTESIAN_POINT('',(8.1,4.,7.5));
#1395 = DIRECTION('',(0.,-1.,0.));
#1396 = DIRECTION('',(0.,-0.,-1.));
#1397 = ADVANCED_FACE('',(#1398),#1401,.T.);
#1398 = FACE_BOUND('',#1399,.T.);
#1399 = EDGE_LOOP('',(#1400));
#1400 = ORIENTED_EDGE('',*,*,#1368,.T.);
#1401 = PLANE('',#1402);
#1402 = AXIS2_PLACEMENT_3D('',#1403,#1404,#1405);
#1403 = CARTESIAN_POINT('',(8.1,3.4,7.5));
#1404 = DIRECTION('',(0.,-1.,0.));
#1405 = DIRECTION('',(0.,-0.,-1.));
#1406 = ADVANCED_FACE('',(#1407),#1410,.F.);
#1407 = FACE_BOUND('',#1408,.T.);
#1408 = EDGE_LOOP('',(#1409));
#1409 = ORIENTED_EDGE('',*,*,#1385,.F.);
#1410 = PLANE('',#1411);
#1411 = AXIS2_PLACEMENT_3D('',#1412,#1413,#1414);
#1412 = CARTESIAN_POINT('',(8.1,4.,7.5));
#1413 = DIRECTION('',(0.,-1.,0.));
#1414 = DIRECTION('',(0.,-0.,-1.));
#1415 = ( GEOMETRIC_REPRESENTATION_CONTEXT(3) 
GLOBAL_UNCERTAINTY_ASSIGNED_CONTEXT((#1419)) 
GLOBAL_UNIT_ASSIGNED_CONTEXT((#1416,#1417,#1418)) REPRESENTATION_CONTEXT
('Context #1','3D Context with UNIT and UNCERTAINTY') );
#1416 = ( LENGTH_UNIT() NAMED_UNIT(*) SI_UNIT(.MILLI.,.METRE.) );
#1417 = ( NAMED_UNIT(*) PLANE_ANGLE_UNIT() SI_UNIT($,.RADIAN.) );
#1418 = ( NAMED_UNIT(*) SI_UNIT($,.STERADIAN.) SOLID_ANGLE_UNIT() );
#1419 = UNCERTAINTY_MEASURE_WITH_UNIT(LENGTH_MEASURE(1.E-07),#1416,
  'distance_accuracy_value','confusion accuracy');
#1420 = CONTEXT_DEPENDENT_SHAPE_REPRESENTATION(#1421,#1423);
#1421 = ( REPRESENTATION_RELATIONSHIP('','',#1361,#10) 
REPRESENTATION_RELATIONSHIP_WITH_TRANSFORMATION(#1422) 
SHAPE_REPRESENTATION_RELATIONSHIP() );
#1422 = ITEM_DEFINED_TRANSFORMATION('','',#11,#19);
#1423 = PRODUCT_DEFINITION_SHAPE('Placement','Placement of an item',
  #1424);
#1424 = NEXT_ASSEMBLY_USAGE_OCCURRENCE('43','emitter_1','',#5,#1356,$);
#1425 = PRODUCT_RELATED_PRODUCT_CATEGORY('part',$,(#1358));
#1426 = SHAPE_DEFINITION_REPRESENTATION(#1427,#1433);
#1427 = PRODUCT_DEFINITION_SHAPE('','',#1428);
#1428 = PRODUCT_DEFINITION('design','',#1429,#1432);
#1429 = PRODUCT_DEFINITION_FORMATION('','',#1430);
#1430 = PRODUCT('receiver_1','receiver_1','',(#1431));
#1431 = PRODUCT_CONTEXT('',#2,'mechanical');
#1432 = PRODUCT_DEFINITION_CONTEXT('part definition',#2,'design');
#1433 = ADVANCED_BREP_SHAPE_REPRESENTATION('',(#11,#1434),#1487);
#1434 = MANIFOLD_SOLID_BREP('',#1435);
#1435 = CLOSED_SHELL('',(#1436,#1469,#1478));
#1436 = ADVANCED_FACE('',(#1437),#1464,.T.);
#1437 = FACE_BOUND('',#1438,.T.);
#1438 = EDGE_LOOP('',(#1439,#1448,#1456,#1463));
#1439 = ORIENTED_EDGE('',*,*,#1440,.F.);
#1440 = EDGE_CURVE('',#1441,#1441,#1443,.T.);
#1441 = VERTEX_POINT('',#1442);
#1442 = CARTESIAN_POINT('',(9.9,3.4,6.7));
#1443 = CIRCLE('',#1444,0.8);
#1444 = AXIS2_PLACEMENT_3D('',#1445,#1446,#1447);
#1445 = CARTESIAN_POINT('',(9.9,3.4,7.5));
#1446 = DIRECTION('',(0.,-1.,0.));
#1447 = DIRECTION('',(0.,-0.,-1.));
#1448 = ORIENTED_EDGE('',*,*,#1449,.F.);
#1449 = EDGE_CURVE('',#1450,#1441,#1452,.T.);
#1450 = VERTEX_POINT('',#1451);
#1451 = CARTESIAN_POINT('',(9.9,4.,6.7));
#1452 = LINE('',#1453,#1454);
#1453 = CARTESIAN_POINT('',(9.9,4.,6.7));
#1454 = VECTOR('',#1455,1.);
#1455 = DIRECTION('',(0.,-1.,0.));
#1456 = ORIENTED_EDGE('',*,*,#1457,.T.);
#1457 = EDGE_CURVE('',#1450,#1450,#1458,.T.);
#1458 = CIRCLE('',#1459,0.8);
#1459 = AXIS2_PLACEMENT_3D('',#1460,#1461,#1462);
#1460 = CARTESIAN_POINT('',(9.9,4.,7.5));
#1461 = DIRECTION('',(0.,-1.,0.));
#1462 = DIRECTION('',(0.,-0.,-1.));
#1463 = ORIENTED_EDGE('',*,*,#1449,.T.);
#1464 = CYLINDRICAL_SURFACE('',#1465,0.8);
#1465 = AXIS2_PLACEMENT_3D('',#1466,#1467,#1468);
#1466 = CARTESIAN_POINT('',(9.9,4.,7.5));
#1467 = DIRECTION('',(0.,-1.,0.));
#1468 = DIRECTION('',(0.,-0.,-1.));
#1469 = ADVANCED_FACE('',(#1470),#1473,.T.);
#1470 = FACE_BOUND('',#1471,.T.);
#1471 = EDGE_LOOP('',(#1472));
#1472 = ORIENTED_EDGE('',*,*,#1440,.T.);
#1473 = PLANE('',#1474);
#1474 = AXIS2_PLACEMENT_3D('',#1475,#1476,#1477);
#1475 = CARTESIAN_POINT('',(9.9,3.4,7.5));
#1476 = DIRECTION('',(0.,-1.,0.));
#1477 = DIRECTION('',(0.,-0.,-1.));
#1478 = ADVANCED_FACE('',(#1479),#1482,.F.);
#1479 = FACE_BOUND('',#1480,.T.);
#1480 = EDGE_LOOP('',(#1481));
#1481 = ORIENTED_EDGE('',*,*,#1457,.F.);
#1482 = PLANE('',#1483);
#1483 = AXIS2_PLACEMENT_3D('',#1484,#1485,#1486);
#1484 = CARTESIAN_POINT('',(9.9,4.,7.5));
#1485 = DIRECTION('',(0.,-1.,0.));
#1486 = DIRECTION('',(0.,-0.,-1.));
#1487 = ( GEOMETRIC_REPRESENTATION_CONTEXT(3) 
GLOBAL_UNCERTAINTY_ASSIGNED_CONTEXT((#1491)) 
GLOBAL_UNIT_ASSIGNED_CONTEXT((#1488,#1489,#1490)) REPRESENTATION_CONTEXT
('Context #1','3D Context with UNIT and UNCERTAINTY') );
#1488 = ( LENGTH_UNIT() NAMED_UNIT(*) SI_UNIT(.MILLI.,.METRE.) );
#1489 = ( NAMED_UNIT(*) PLANE_ANGLE_UNIT() SI_UNIT($,.RADIAN.) );
#1490 = ( NAMED_UNIT(*) SI_UNIT($,.STERADIAN.) SOLID_ANGLE_UNIT() );
#1491 = UNCERTAINTY_MEASURE_WITH_UNIT(LENGTH_MEASURE(1.E-07),#1488,
  'distance_accuracy_value','confusion accuracy');
#1492 = CONTEXT_DEPENDENT_SHAPE_REPRESENTATION(#1493,#1495);
#1493 = ( REPRESENTATION_RELATIONSHIP('','',#1433,#10) 
REPRESENTATION_RELATIONSHIP_WITH_TRANSFORMATION(#1494) 
SHAPE_REPRESENTATION_RELATIONSHIP() );
#1494 = ITEM_DEFINED_TRANSFORMATION('','',#11,#23);
#1495 = PRODUCT_DEFINITION_SHAPE('Placement','Placement of an item',
  #1496);
#1496 = NEXT_ASSEMBLY_USAGE_OCCURRENCE('44','receiver_1','',#5,#1428,$);
#1497 = PRODUCT_RELATED_PRODUCT_CATEGORY('part',$,(#1430));
#1498 = SHAPE_DEFINITION_REPRESENTATION(#1499,#1505);
#1499 = PRODUCT_DEFINITION_SHAPE('','',#1500);
#1500 = PRODUCT_DEFINITION('design','',#1501,#1504);
#1501 = PRODUCT_DEFINITION_FORMATION('','',#1502);
#1502 = PRODUCT('emitter_2','emitter_2','',(#1503));
#1503 = PRODUCT_CONTEXT('',#2,'mechanical');
#1504 = PRODUCT_DEFINITION_CONTEXT('part definition',#2,'design');
#1505 = ADVANCED_BREP_SHAPE_REPRESENTATION('',(#11,#1506),#1559);
#1506 = MANIFOLD_SOLID_BREP('',#1507);
#1507 = CLOSED_SHELL('',(#1508,#1541,#1550));
#1508 = ADVANCED_FACE('',(#1509),#1536,.T.);
#1509 = FACE_BOUND('',#1510,.T.);
#1510 = EDGE_LOOP('',(#1511,#1520,#1528,#1535));
#1511 = ORIENTED_EDGE('',*,*,#1512,.F.);
#1512 = EDGE_CURVE('',#1513,#1513,#1515,.T.);
#1513 = VERTEX_POINT('',#1514);
#1514 = CARTESIAN_POINT('',(20.1,3.4,6.7));
#1515 = CIRCLE('',#1516,0.8);
#1516 = AXIS2_PLACEMENT_3D('',#1517,#1518,#1519);
#1517 = CARTESIAN_POINT('',(20.1,3.4,7.5));
#1518 = DIRECTION('',(0.,-1.,0.));
#1519 = DIRECTION('',(0.,-0.,-1.));
#1520 = ORIENTED_EDGE('',*,*,#1521,.F.);
#1521 = EDGE_CURVE('',#1522,#1513,#1524,.T.);
#1522 = VERTEX_POINT('',#1523);
#1523 = CARTESIAN_POINT('',(20.1,4.,6.7));
#1524 = LINE('',#1525,#1526);
#1525 = CARTESIAN_POINT('',(20.1,4.,6.7));
#1526 = VECTOR('',#1527,1.);
#1527 = DIRECTION('',(0.,-1.,0.));
#1528 = ORIENTED_EDGE('',*,*,#1529,.T.);
#1529 = EDGE_CURVE('',#1522,#1522,#1530,.T.);
#1530 = CIRCLE('',#1531,0.8);
#1531 = AXIS2_PLACEMENT_3D('',#1532,#1533,#1534);
#1532 = CARTESIAN_POINT('',(20.1,4.,7.5));
#1533 = DIRECTION('',(0.,-1.,0.));
#1534 = DIRECTION('',(0.,-0.,-1.));
#1535 = ORIENTED_EDGE('',*,*,#1521,.T.);
#1536 = CYLINDRICAL_SURFACE('',#1537,0.8);
#1537 = AXIS2_PLACEMENT_3D('',#1538,#1539,#1540);
#1538 = CARTESIAN_POINT('',(20.1,4.,7.5));
#1539 = DIRECTION('',(0.,-1.,0.));
#1540 = DIRECTION('',(0.,-0.,-1.));
#1541 = ADVANCED_FACE('',(#1542),#1545,.T.);
#1542 = FACE_BOUND('',#1543,.T.);
#1543 = EDGE_LOOP('',(#1544));
#1544 = ORIENTED_EDGE('',*,*,#1512,.T.);
#1545 = PLANE('',#1546);
#1546 = AXIS2_PLACEMENT_3D('',#1547,#1548,#1549);
#1547 = CARTESIAN_POINT('',(20.1,3.4,7.5));
#1548 = DIRECTION('',(0.,-1.,0.));
#1549 = DIRECTION('',(0.,-0.,-1.));
#1550 = ADVANCED_FACE('',(#1551),#1554,.F.);
#1551 = FACE_BOUND('',#1552,.T.);
#1552 = EDGE_LOOP('',(#1553));
#1553 = ORIENTED_EDGE('',*,*,#1529,.F.);
#1554 = PLANE('',#1555);
#1555 = AXIS2_PLACEMENT_3D('',#1556,#1557,#1558);
#1556 = CARTESIAN_POINT('',(20.1,4.,7.5));
#1557 = DIRECTION('',(0.,-1.,0.));
#1558 = DIRECTION('',(0.,-0.,-1.));
#1559 = ( GEOMETRIC_REPRESENTATION_CONTEXT(3) 
GLOBAL_UNCERTAINTY_ASSIGNED_CONTEXT((#1563)) 
GLOBAL_UNIT_ASSIGNED_CONTEXT((#1560,#1561,#1562)) REPRESENTATION_CONTEXT
('Context #1','3D Context with UNIT and UNCERTAINTY') );
#1560 = ( LENGTH_UNIT() NAMED_UNIT(*) SI_UNIT(.MILLI.,.METRE.) );
#1561 = ( NAMED_UNIT(*) PLANE_ANGLE_UNIT() SI_UNIT($,.RADIAN.) );
#1562 = ( NAMED_UNIT(*) SI_UNIT($,.STERADIAN.) SOLID_ANGLE_UNIT() );
#1563 = UNCERTAINTY_MEASURE_WITH_UNIT(LENGTH_MEASURE(1.E-07),#1560,
  'distance_accuracy_value','confusion accuracy');
#1564 = CONTEXT_DEPENDENT_SHAPE_REPRESENTATION(#1565,#1567);
#1565 = ( REPRESENTATION_RELATIONSHIP('','',#1505,#10) 
REPRESENTATION_RELATIONSHIP_WITH_TRANSFORMATION(#1566) 
SHAPE_REPRESENTATION_RELATIONSHIP() );
#1566 = ITEM_DEFINED_TRANSFORMATION('','',#11,#27);
#1567 = PRODUCT_DEFINITION_SHAPE('Placement','Placement of an item',
  #1568);
#1568 = NEXT_ASSEMBLY_USAGE_OCCURRENCE('45','emitter_2','',#5,#1500,$);
#1569 = PRODUCT_RELATED_PRODUCT_CATEGORY('part',$,(#1502));
#1570 = SHAPE_DEFINITION_REPRESENTATION(#1571,#1577);
#1571 = PRODUCT_DEFINITION_SHAPE('','',#1572);
#1572 = PRODUCT_DEFINITION('design','',#1573,#1576);
#1573 = PRODUCT_DEFINITION_FORMATION('','',#1574);
#1574 = PRODUCT('receiver_2','receiver_2','',(#1575));
#1575 = PRODUCT_CONTEXT('',#2,'mechanical');
#1576 = PRODUCT_DEFINITION_CONTEXT('part definition',#2,'design');
#1577 = ADVANCED_BREP_SHAPE_REPRESENTATION('',(#11,#1578),#1631);
#1578 = MANIFOLD_SOLID_BREP('',#1579);
#1579 = CLOSED_SHELL('',(#1580,#1613,#1622));
#1580 = ADVANCED_FACE('',(#1581),#1608,.T.);
#1581 = FACE_BOUND('',#1582,.T.);
#1582 = EDGE_LOOP('',(#1583,#1592,#1600,#1607));
#1583 = ORIENTED_EDGE('',*,*,#1584,.F.);
#1584 = EDGE_CURVE('',#1585,#1585,#1587,.T.);
#1585 = VERTEX_POINT('',#1586);
#1586 = CARTESIAN_POINT('',(21.9,3.4,6.7));
#1587 = CIRCLE('',#1588,0.8);
#1588 = AXIS2_PLACEMENT_3D('',#1589,#1590,#1591);
#1589 = CARTESIAN_POINT('',(21.9,3.4,7.5));
#1590 = DIRECTION('',(0.,-1.,0.));
#1591 = DIRECTION('',(0.,-0.,-1.));
#1592 = ORIENTED_EDGE('',*,*,#1593,.F.);
#1593 = EDGE_CURVE('',#1594,#1585,#1596,.T.);
#1594 = VERTEX_POINT('',#1595);
#1595 = CARTESIAN_POINT('',(21.9,4.,6.7));
#1596 = LINE('',#1597,#1598);
#1597 = CARTESIAN_POINT('',(21.9,4.,6.7));
#1598 = VECTOR('',#1599,1.);
#1599 = DIRECTION('',(0.,-1.,0.));
#1600 = ORIENTED_EDGE('',*,*,#1601,.T.);
#1601 = EDGE_CURVE('',#1594,#1594,#1602,.T.);
#1602 = CIRCLE('',#1603,0.8);
#1603 = AXIS2_PLACEMENT_3D('',#1604,#1605,#1606);
#1604 = CARTESIAN_POINT('',(21.9,4.,7.5));
#1605 = DIRECTION('',(0.,-1.,0.));
#1606 = DIRECTION('',(0.,-0.,-1.));
#1607 = ORIENTED_EDGE('',*,*,#1593,.T.);
#1608 = CYLINDRICAL_SURFACE('',#1609,0.8);
#1609 = AXIS2_PLACEMENT_3D('',#1610,#1611,#1612);
#1610 = CARTESIAN_POINT('',(21.9,4.,7.5));
#1611 = DIRECTION('',(0.,-1.,0.));
#1612 = DIRECTION('',(0.,-0.,-1.));
#1613 = ADVANCED_FACE('',(#1614),#1617,.T.);
#1614 = FACE_BOUND('',#1615,.T.);
#1615 = EDGE_LOOP('',(#1616));
#1616 = ORIENTED_EDGE('',*,*,#1584,.T.);
#1617 = PLANE('',#1618);
#1618 = AXIS2_PLACEMENT_3D('',#1619,#1620,#1621);
#1619 = CARTESIAN_POINT('',(21.9,3.4,7.5));
#1620 = DIRECTION('',(0.,-1.,0.));
#1621 = DIRECTION('',(0.,-0.,-1.));
#1622 = ADVANCED_FACE('',(#1623),#1626,.F.);
#1623 = FACE_BOUND('',#1624,.T.);
#1624 = EDGE_LOOP('',(#1625));
#1625 = ORIENTED_EDGE('',*,*,#1601,.F.);
#1626 = PLANE('',#1627);
#1627 = AXIS2_PLACEMENT_3D('',#1628,#1629,#1630);
#1628 = CARTESIAN_POINT('',(21.9,4.,7.5));
#1629 = DIRECTION('',(0.,-1.,0.));
#1630 = DIRECTION('',(0.,-0.,-1.));
#1631 = ( GEOMETRIC_REPRESENTATION_CONTEXT(3) 
GLOBAL_UNCERTAINTY_ASSIGNED_CONTEXT((#1635)) 
GLOBAL_UNIT_ASSIGNED_CONTEXT((#1632,#1633,#1634)) REPRESENTATION_CONTEXT
('Context #1','3D Context with UNIT and UNCERTAINTY') );
#1632 = ( LENGTH_UNIT() NAMED_UNIT(*) SI_UNIT(.MILLI.,.METRE.) );
#1633 = ( NAMED_UNIT(*) PLANE_ANGLE_UNIT() SI_UNIT($,.RADIAN.) );
#1634 = ( NAMED_UNIT(*) SI_UNIT($,.STERADIAN.) SOLID_ANGLE_UNIT() );
#1635 = UNCERTAINTY_MEASURE_WITH_UNIT(LENGTH_MEASURE(1.E-07),#1632,
  'distance_accuracy_value','confusion accuracy');
#1636 = CONTEXT_DEPENDENT_SHAPE_REPRESENTATION(#1637,#1639);
#1637 = ( REPRESENTATION_RELATIONSHIP('','',#1577,#10) 
REPRESENTATION_RELATIONSHIP_WITH_TRANSFORMATION(#1638) 
SHAPE_REPRESENTATION_RELATIONSHIP() );
#1638 = ITEM_DEFINED_TRANSFORMATION('','',#11,#31);
#1639 = PRODUCT_DEFINITION_SHAPE('Placement','Placement of an item',
  #1640);
#1640 = NEXT_ASSEMBLY_USAGE_OCCURRENCE('46','receiver_2','',#5,#1572,$);
#1641 = PRODUCT_RELATED_PRODUCT_CATEGORY('part',$,(#1574));
#1642 = SHAPE_DEFINITION_REPRESENTATION(#1643,#1649);
#1643 = PRODUCT_DEFINITION_SHAPE('','',#1644);
#1644 = PRODUCT_DEFINITION('design','',#1645,#1648);
#1645 = PRODUCT_DEFINITION_FORMATION('','',#1646);
#1646 = PRODUCT('wire_red','wire_red','',(#1647));
#1647 = PRODUCT_CONTEXT('',#2,'mechanical');
#1648 = PRODUCT_DEFINITION_CONTEXT('part definition',#2,'design');
#1649 = ADVANCED_BREP_SHAPE_REPRESENTATION('',(#11,#1650),#1703);
#1650 = MANIFOLD_SOLID_BREP('',#1651);
#1651 = CLOSED_SHELL('',(#1652,#1685,#1694));
#1652 = ADVANCED_FACE('',(#1653),#1680,.T.);
#1653 = FACE_BOUND('',#1654,.T.);
#1654 = EDGE_LOOP('',(#1655,#1664,#1672,#1679));
#1655 = ORIENTED_EDGE('',*,*,#1656,.F.);
#1656 = EDGE_CURVE('',#1657,#1657,#1659,.T.);
#1657 = VERTEX_POINT('',#1658);
#1658 = CARTESIAN_POINT('',(9.4,7.5,-12.));
#1659 = CIRCLE('',#1660,0.6);
#1660 = AXIS2_PLACEMENT_3D('',#1661,#1662,#1663);
#1661 = CARTESIAN_POINT('',(10.,7.5,-12.));
#1662 = DIRECTION('',(0.,0.,-1.));
#1663 = DIRECTION('',(-1.,0.,-0.));
#1664 = ORIENTED_EDGE('',*,*,#1665,.F.);
#1665 = EDGE_CURVE('',#1666,#1657,#1668,.T.);
#1666 = VERTEX_POINT('',#1667);
#1667 = CARTESIAN_POINT('',(9.4,7.5,0.));
#1668 = LINE('',#1669,#1670);
#1669 = CARTESIAN_POINT('',(9.4,7.5,0.));
#1670 = VECTOR('',#1671,1.);
#1671 = DIRECTION('',(0.,0.,-1.));
#1672 = ORIENTED_EDGE('',*,*,#1673,.T.);
#1673 = EDGE_CURVE('',#1666,#1666,#1674,.T.);
#1674 = CIRCLE('',#1675,0.6);
#1675 = AXIS2_PLACEMENT_3D('',#1676,#1677,#1678);
#1676 = CARTESIAN_POINT('',(10.,7.5,0.));
#1677 = DIRECTION('',(0.,0.,-1.));
#1678 = DIRECTION('',(-1.,0.,-0.));
#1679 = ORIENTED_EDGE('',*,*,#1665,.T.);
#1680 = CYLINDRICAL_SURFACE('',#1681,0.6);
#1681 = AXIS2_PLACEMENT_3D('',#1682,#1683,#1684);
#1682 = CARTESIAN_POINT('',(10.,7.5,0.));
#1683 = DIRECTION('',(0.,0.,-1.));
#1684 = DIRECTION('',(-1.,0.,-0.));
#1685 = ADVANCED_FACE('',(#1686),#1689,.T.);
#1686 = FACE_BOUND('',#1687,.T.);
#1687 = EDGE_LOOP('',(#1688));
#1688 = ORIENTED_EDGE('',*,*,#1656,.T.);
#1689 = PLANE('',#1690);
#1690 = AXIS2_PLACEMENT_3D('',#1691,#1692,#1693);
#1691 = CARTESIAN_POINT('',(10.,7.5,-12.));
#1692 = DIRECTION('',(0.,0.,-1.));
#1693 = DIRECTION('',(-1.,0.,-0.));
#1694 = ADVANCED_FACE('',(#1695),#1698,.F.);
#1695 = FACE_BOUND('',#1696,.T.);
#1696 = EDGE_LOOP('',(#1697));
#1697 = ORIENTED_EDGE('',*,*,#1673,.F.);
#1698 = PLANE('',#1699);
#1699 = AXIS2_PLACEMENT_3D('',#1700,#1701,#1702);
#1700 = CARTESIAN_POINT('',(10.,7.5,0.));
#1701 = DIRECTION('',(0.,0.,-1.));
#1702 = DIRECTION('',(-1.,0.,-0.));
#1703 = ( GEOMETRIC_REPRESENTATION_CONTEXT(3) 
GLOBAL_UNCERTAINTY_ASSIGNED_CONTEXT((#1707)) 
GLOBAL_UNIT_ASSIGNED_CONTEXT((#1704,#1705,#1706)) REPRESENTATION_CONTEXT
('Context #1','3D Context with UNIT and UNCERTAINTY') );
#1704 = ( LENGTH_UNIT() NAMED_UNIT(*) SI_UNIT(.MILLI.,.METRE.) );
#1705 = ( NAMED_UNIT(*) PLANE_ANGLE_UNIT() SI_UNIT($,.RADIAN.) );
#1706 = ( NAMED_UNIT(*) SI_UNIT($,.STERADIAN.) SOLID_ANGLE_UNIT() );
#1707 = UNCERTAINTY_MEASURE_WITH_UNIT(LENGTH_MEASURE(1.E-07),#1704,
  'distance_accuracy_value','confusion accuracy');
#1708 = CONTEXT_DEPENDENT_SHAPE_REPRESENTATION(#1709,#1711);
#1709 = ( REPRESENTATION_RELATIONSHIP('','',#1649,#10) 
REPRESENTATION_RELATIONSHIP_WITH_TRANSFORMATION(#1710) 
SHAPE_REPRESENTATION_RELATIONSHIP() );
#1710 = ITEM_DEFINED_TRANSFORMATION('','',#11,#35);
#1711 = PRODUCT_DEFINITION_SHAPE('Placement','Placement of an item',
  #1712);
#1712 = NEXT_ASSEMBLY_USAGE_OCCURRENCE('47','wire_red','',#5,#1644,$);
#1713 = PRODUCT_RELATED_PRODUCT_CATEGORY('part',$,(#1646));
#1714 = SHAPE_DEFINITION_REPRESENTATION(#1715,#1721);
#1715 = PRODUCT_DEFINITION_SHAPE('','',#1716);
#1716 = PRODUCT_DEFINITION('design','',#1717,#1720);
#1717 = PRODUCT_DEFINITION_FORMATION('','',#1718);
#1718 = PRODUCT('wire_green','wire_green','',(#1719));
#1719 = PRODUCT_CONTEXT('',#2,'mechanical');
#1720 = PRODUCT_DEFINITION_CONTEXT('part definition',#2,'design');
#1721 = ADVANCED_BREP_SHAPE_REPRESENTATION('',(#11,#1722),#1775);
#1722 = MANIFOLD_SOLID_BREP('',#1723);
#1723 = CLOSED_SHELL('',(#1724,#1757,#1766));
#1724 = ADVANCED_FACE('',(#1725),#1752,.T.);
#1725 = FACE_BOUND('',#1726,.T.);
#1726 = EDGE_LOOP('',(#1727,#1736,#1744,#1751));
#1727 = ORIENTED_EDGE('',*,*,#1728,.F.);
#1728 = EDGE_CURVE('',#1729,#1729,#1731,.T.);
#1729 = VERTEX_POINT('',#1730);
#1730 = CARTESIAN_POINT('',(11.9,7.5,-12.));
#1731 = CIRCLE('',#1732,0.6);
#1732 = AXIS2_PLACEMENT_3D('',#1733,#1734,#1735);
#1733 = CARTESIAN_POINT('',(12.5,7.5,-12.));
#1734 = DIRECTION('',(0.,0.,-1.));
#1735 = DIRECTION('',(-1.,0.,-0.));
#1736 = ORIENTED_EDGE('',*,*,#1737,.F.);
#1737 = EDGE_CURVE('',#1738,#1729,#1740,.T.);
#1738 = VERTEX_POINT('',#1739);
#1739 = CARTESIAN_POINT('',(11.9,7.5,0.));
#1740 = LINE('',#1741,#1742);
#1741 = CARTESIAN_POINT('',(11.9,7.5,0.));
#1742 = VECTOR('',#1743,1.);
#1743 = DIRECTION('',(0.,0.,-1.));
#1744 = ORIENTED_EDGE('',*,*,#1745,.T.);
#1745 = EDGE_CURVE('',#1738,#1738,#1746,.T.);
#1746 = CIRCLE('',#1747,0.6);
#1747 = AXIS2_PLACEMENT_3D('',#1748,#1749,#1750);
#1748 = CARTESIAN_POINT('',(12.5,7.5,0.));
#1749 = DIRECTION('',(0.,0.,-1.));
#1750 = DIRECTION('',(-1.,0.,-0.));
#1751 = ORIENTED_EDGE('',*,*,#1737,.T.);
#1752 = CYLINDRICAL_SURFACE('',#1753,0.6);
#1753 = AXIS2_PLACEMENT_3D('',#1754,#1755,#1756);
#1754 = CARTESIAN_POINT('',(12.5,7.5,0.));
#1755 = DIRECTION('',(0.,0.,-1.));
#1756 = DIRECTION('',(-1.,0.,-0.));
#1757 = ADVANCED_FACE('',(#1758),#1761,.T.);
#1758 = FACE_BOUND('',#1759,.T.);
#1759 = EDGE_LOOP('',(#1760));
#1760 = ORIENTED_EDGE('',*,*,#1728,.T.);
#1761 = PLANE('',#1762);
#1762 = AXIS2_PLACEMENT_3D('',#1763,#1764,#1765);
#1763 = CARTESIAN_POINT('',(12.5,7.5,-12.));
#1764 = DIRECTION('',(0.,0.,-1.));
#1765 = DIRECTION('',(-1.,0.,-0.));
#1766 = ADVANCED_FACE('',(#1767),#1770,.F.);
#1767 = FACE_BOUND('',#1768,.T.);
#1768 = EDGE_LOOP('',(#1769));
#1769 = ORIENTED_EDGE('',*,*,#1745,.F.);
#1770 = PLANE('',#1771);
#1771 = AXIS2_PLACEMENT_3D('',#1772,#1773,#1774);
#1772 = CARTESIAN_POINT('',(12.5,7.5,0.));
#1773 = DIRECTION('',(0.,0.,-1.));
#1774 = DIRECTION('',(-1.,0.,-0.));
#1775 = ( GEOMETRIC_REPRESENTATION_CONTEXT(3) 
GLOBAL_UNCERTAINTY_ASSIGNED_CONTEXT((#1779)) 
GLOBAL_UNIT_ASSIGNED_CONTEXT((#1776,#1777,#1778)) REPRESENTATION_CONTEXT
('Context #1','3D Context with UNIT and UNCERTAINTY') );
#1776 = ( LENGTH_UNIT() NAMED_UNIT(*) SI_UNIT(.MILLI.,.METRE.) );
#1777 = ( NAMED_UNIT(*) PLANE_ANGLE_UNIT() SI_UNIT($,.RADIAN.) );
#1778 = ( NAMED_UNIT(*) SI_UNIT($,.STERADIAN.) SOLID_ANGLE_UNIT() );
#1779 = UNCERTAINTY_MEASURE_WITH_UNIT(LENGTH_MEASURE(1.E-07),#1776,
  'distance_accuracy_value','confusion accuracy');
#1780 = CONTEXT_DEPENDENT_SHAPE_REPRESENTATION(#1781,#1783);
#1781 = ( REPRESENTATION_RELATIONSHIP('','',#1721,#10) 
REPRESENTATION_RELATIONSHIP_WITH_TRANSFORMATION(#1782) 
SHAPE_REPRESENTATION_RELATIONSHIP() );
#1782 = ITEM_DEFINED_TRANSFORMATION('','',#11,#39);
#1783 = PRODUCT_DEFINITION_SHAPE('Placement','Placement of an item',
  #1784);
#1784 = NEXT_ASSEMBLY_USAGE_OCCURRENCE('48','wire_green','',#5,#1716,$);
#1785 = PRODUCT_RELATED_PRODUCT_CATEGORY('part',$,(#1718));
#1786 = SHAPE_DEFINITION_REPRESENTATION(#1787,#1793);
#1787 = PRODUCT_DEFINITION_SHAPE('','',#1788);
#1788 = PRODUCT_DEFINITION('design','',#1789,#1792);
#1789 = PRODUCT_DEFINITION_FORMATION('','',#1790);
#1790 = PRODUCT('wire_black','wire_black','',(#1791));
#1791 = PRODUCT_CONTEXT('',#2,'mechanical');
#1792 = PRODUCT_DEFINITION_CONTEXT('part definition',#2,'design');
#1793 = ADVANCED_BREP_SHAPE_REPRESENTATION('',(#11,#1794),#1847);
#1794 = MANIFOLD_SOLID_BREP('',#1795);
#1795 = CLOSED_SHELL('',(#1796,#1829,#1838));
#1796 = ADVANCED_FACE('',(#1797),#1824,.T.);
#1797 = FACE_BOUND('',#1798,.T.);
#1798 = EDGE_LOOP('',(#1799,#1808,#1816,#1823));
#1799 = ORIENTED_EDGE('',*,*,#1800,.F.);
#1800 = EDGE_CURVE('',#1801,#1801,#1803,.T.);
#1801 = VERTEX_POINT('',#1802);
#1802 = CARTESIAN_POINT('',(14.4,7.5,-12.));
#1803 = CIRCLE('',#1804,0.6);
#1804 = AXIS2_PLACEMENT_3D('',#1805,#1806,#1807);
#1805 = CARTESIAN_POINT('',(15.,7.5,-12.));
#1806 = DIRECTION('',(0.,0.,-1.));
#1807 = DIRECTION('',(-1.,0.,-0.));
#1808 = ORIENTED_EDGE('',*,*,#1809,.F.);
#1809 = EDGE_CURVE('',#1810,#1801,#1812,.T.);
#1810 = VERTEX_POINT('',#1811);
#1811 = CARTESIAN_POINT('',(14.4,7.5,0.));
#1812 = LINE('',#1813,#1814);
#1813 = CARTESIAN_POINT('',(14.4,7.5,0.));
#1814 = VECTOR('',#1815,1.);
#1815 = DIRECTION('',(0.,0.,-1.));
#1816 = ORIENTED_EDGE('',*,*,#1817,.T.);
#1817 = EDGE_CURVE('',#1810,#1810,#1818,.T.);
#1818 = CIRCLE('',#1819,0.6);
#1819 = AXIS2_PLACEMENT_3D('',#1820,#1821,#1822);
#1820 = CARTESIAN_POINT('',(15.,7.5,0.));
#1821 = DIRECTION('',(0.,0.,-1.));
#1822 = DIRECTION('',(-1.,0.,-0.));
#1823 = ORIENTED_EDGE('',*,*,#1809,.T.);
#1824 = CYLINDRICAL_SURFACE('',#1825,0.6);
#1825 = AXIS2_PLACEMENT_3D('',#1826,#1827,#1828);
#1826 = CARTESIAN_POINT('',(15.,7.5,0.));
#1827 = DIRECTION('',(0.,0.,-1.));
#1828 = DIRECTION('',(-1.,0.,-0.));
#1829 = ADVANCED_FACE('',(#1830),#1833,.T.);
#1830 = FACE_BOUND('',#1831,.T.);
#1831 = EDGE_LOOP('',(#1832));
#1832 = ORIENTED_EDGE('',*,*,#1800,.T.);
#1833 = PLANE('',#1834);
#1834 = AXIS2_PLACEMENT_3D('',#1835,#1836,#1837);
#1835 = CARTESIAN_POINT('',(15.,7.5,-12.));
#1836 = DIRECTION('',(0.,0.,-1.));
#1837 = DIRECTION('',(-1.,0.,-0.));
#1838 = ADVANCED_FACE('',(#1839),#1842,.F.);
#1839 = FACE_BOUND('',#1840,.T.);
#1840 = EDGE_LOOP('',(#1841));
#1841 = ORIENTED_EDGE('',*,*,#1817,.F.);
#1842 = PLANE('',#1843);
#1843 = AXIS2_PLACEMENT_3D('',#1844,#1845,#1846);
#1844 = CARTESIAN_POINT('',(15.,7.5,0.));
#1845 = DIRECTION('',(0.,0.,-1.));
#1846 = DIRECTION('',(-1.,0.,-0.));
#1847 = ( GEOMETRIC_REPRESENTATION_CONTEXT(3) 
GLOBAL_UNCERTAINTY_ASSIGNED_CONTEXT((#1851)) 
GLOBAL_UNIT_ASSIGNED_CONTEXT((#1848,#1849,#1850)) REPRESENTATION_CONTEXT
('Context #1','3D Context with UNIT and UNCERTAINTY') );
#1848 = ( LENGTH_UNIT() NAMED_UNIT(*) SI_UNIT(.MILLI.,.METRE.) );
#1849 = ( NAMED_UNIT(*) PLANE_ANGLE_UNIT() SI_UNIT($,.RADIAN.) );
#1850 = ( NAMED_UNIT(*) SI_UNIT($,.STERADIAN.) SOLID_ANGLE_UNIT() );
#1851 = UNCERTAINTY_MEASURE_WITH_UNIT(LENGTH_MEASURE(1.E-07),#1848,
  'distance_accuracy_value','confusion accuracy');
#1852 = CONTEXT_DEPENDENT_SHAPE_REPRESENTATION(#1853,#1855);
#1853 = ( REPRESENTATION_RELATIONSHIP('','',#1793,#10) 
REPRESENTATION_RELATIONSHIP_WITH_TRANSFORMATION(#1854) 
SHAPE_REPRESENTATION_RELATIONSHIP() );
#1854 = ITEM_DEFINED_TRANSFORMATION('','',#11,#43);
#1855 = PRODUCT_DEFINITION_SHAPE('Placement','Placement of an item',
  #1856);
#1856 = NEXT_ASSEMBLY_USAGE_OCCURRENCE('49','wire_black','',#5,#1788,$);
#1857 = PRODUCT_RELATED_PRODUCT_CATEGORY('part',$,(#1790));
#1858 = SHAPE_DEFINITION_REPRESENTATION(#1859,#1865);
#1859 = PRODUCT_DEFINITION_SHAPE('','',#1860);
#1860 = PRODUCT_DEFINITION('design','',#1861,#1864);
#1861 = PRODUCT_DEFINITION_FORMATION('','',#1862);
#1862 = PRODUCT('wire_yellow','wire_yellow','',(#1863));
#1863 = PRODUCT_CONTEXT('',#2,'mechanical');
#1864 = PRODUCT_DEFINITION_CONTEXT('part definition',#2,'design');
#1865 = ADVANCED_BREP_SHAPE_REPRESENTATION('',(#11,#1866),#1919);
#1866 = MANIFOLD_SOLID_BREP('',#1867);
#1867 = CLOSED_SHELL('',(#1868,#1901,#1910));
#1868 = ADVANCED_FACE('',(#1869),#1896,.T.);
#1869 = FACE_BOUND('',#1870,.T.);
#1870 = EDGE_LOOP('',(#1871,#1880,#1888,#1895));
#1871 = ORIENTED_EDGE('',*,*,#1872,.F.);
#1872 = EDGE_CURVE('',#1873,#1873,#1875,.T.);
#1873 = VERTEX_POINT('',#1874);
#1874 = CARTESIAN_POINT('',(16.9,7.5,-12.));
#1875 = CIRCLE('',#1876,0.6);
#1876 = AXIS2_PLACEMENT_3D('',#1877,#1878,#1879);
#1877 = CARTESIAN_POINT('',(17.5,7.5,-12.));
#1878 = DIRECTION('',(0.,0.,-1.));
#1879 = DIRECTION('',(-1.,0.,-0.));
#1880 = ORIENTED_EDGE('',*,*,#1881,.F.);
#1881 = EDGE_CURVE('',#1882,#1873,#1884,.T.);
#1882 = VERTEX_POINT('',#1883);
#1883 = CARTESIAN_POINT('',(16.9,7.5,0.));
#1884 = LINE('',#1885,#1886);
#1885 = CARTESIAN_POINT('',(16.9,7.5,0.));
#1886 = VECTOR('',#1887,1.);
#1887 = DIRECTION('',(0.,0.,-1.));
#1888 = ORIENTED_EDGE('',*,*,#1889,.T.);
#1889 = EDGE_CURVE('',#1882,#1882,#1890,.T.);
#1890 = CIRCLE('',#1891,0.6);
#1891 = AXIS2_PLACEMENT_3D('',#1892,#1893,#1894);
#1892 = CARTESIAN_POINT('',(17.5,7.5,0.));
#1893 = DIRECTION('',(0.,0.,-1.));
#1894 = DIRECTION('',(-1.,0.,-0.));
#1895 = ORIENTED_EDGE('',*,*,#1881,.T.);
#1896 = CYLINDRICAL_SURFACE('',#1897,0.6);
#1897 = AXIS2_PLACEMENT_3D('',#1898,#1899,#1900);
#1898 = CARTESIAN_POINT('',(17.5,7.5,0.));
#1899 = DIRECTION('',(0.,0.,-1.));
#1900 = DIRECTION('',(-1.,0.,-0.));
#1901 = ADVANCED_FACE('',(#1902),#1905,.T.);
#1902 = FACE_BOUND('',#1903,.T.);
#1903 = EDGE_LOOP('',(#1904));
#1904 = ORIENTED_EDGE('',*,*,#1872,.T.);
#1905 = PLANE('',#1906);
#1906 = AXIS2_PLACEMENT_3D('',#1907,#1908,#1909);
#1907 = CARTESIAN_POINT('',(17.5,7.5,-12.));
#1908 = DIRECTION('',(0.,0.,-1.));
#1909 = DIRECTION('',(-1.,0.,-0.));
#1910 = ADVANCED_FACE('',(#1911),#1914,.F.);
#1911 = FACE_BOUND('',#1912,.T.);
#1912 = EDGE_LOOP('',(#1913));
#1913 = ORIENTED_EDGE('',*,*,#1889,.F.);
#1914 = PLANE('',#1915);
#1915 = AXIS2_PLACEMENT_3D('',#1916,#1917,#1918);
#1916 = CARTESIAN_POINT('',(17.5,7.5,0.));
#1917 = DIRECTION('',(0.,0.,-1.));
#1918 = DIRECTION('',(-1.,0.,-0.));
#1919 = ( GEOMETRIC_REPRESENTATION_CONTEXT(3) 
GLOBAL_UNCERTAINTY_ASSIGNED_CONTEXT((#1923)) 
GLOBAL_UNIT_ASSIGNED_CONTEXT((#1920,#1921,#1922)) REPRESENTATION_CONTEXT
('Context #1','3D Context with UNIT and UNCERTAINTY') );
#1920 = ( LENGTH_UNIT() NAMED_UNIT(*) SI_UNIT(.MILLI.,.METRE.) );
#1921 = ( NAMED_UNIT(*) PLANE_ANGLE_UNIT() SI_UNIT($,.RADIAN.) );
#1922 = ( NAMED_UNIT(*) SI_UNIT($,.STERADIAN.) SOLID_ANGLE_UNIT() );
#1923 = UNCERTAINTY_MEASURE_WITH_UNIT(LENGTH_MEASURE(1.E-07),#1920,
  'distance_accuracy_value','confusion accuracy');
#1924 = CONTEXT_DEPENDENT_SHAPE_REPRESENTATION(#1925,#1927);
#1925 = ( REPRESENTATION_RELATIONSHIP('','',#1865,#10) 
REPRESENTATION_RELATIONSHIP_WITH_TRANSFORMATION(#1926) 
SHAPE_REPRESENTATION_RELATIONSHIP() );
#1926 = ITEM_DEFINED_TRANSFORMATION('','',#11,#47);
#1927 = PRODUCT_DEFINITION_SHAPE('Placement','Placement of an item',
  #1928);
#1928 = NEXT_ASSEMBLY_USAGE_OCCURRENCE('50','wire_yellow','',#5,#1860,$
  );
#1929 = PRODUCT_RELATED_PRODUCT_CATEGORY('part',$,(#1862));
ENDSEC;
END-ISO-10303-21;
