ISO-10303-21;
HEADER;
FILE_DESCRIPTION(('FreeCAD Model'),'2;1');
FILE_NAME('Open CASCADE Shape Model','2026-09-27T12:27:37',(''),(''),
  'Open CASCADE STEP processor 7.8','FreeCAD','Unknown');
FILE_SCHEMA(('AUTOMOTIVE_DESIGN { 1 0 10303 214 1 1 1 1 }'));
ENDSEC;
DATA;
#1 = APPLICATION_PROTOCOL_DEFINITION('international standard',
  'automotive_design',2000,#2);
#2 = APPLICATION_CONTEXT(
  'core data for automotive mechanical design processes');
#3 = SHAPE_DEFINITION_REPRESENTATION(#4,#10);
#4 = PRODUCT_DEFINITION_SHAPE('','',#5);
#5 = PRODUCT_DEFINITION('design','',#6,#9);
#6 = PRODUCT_DEFINITION_FORMATION('','',#7);
#7 = PRODUCT('ft_37783_mini_switch','ft_37783_mini_switch','',(#8));
#8 = PRODUCT_CONTEXT('',#2,'mechanical');
#9 = PRODUCT_DEFINITION_CONTEXT('part definition',#2,'design');
#10 = SHAPE_REPRESENTATION('',(#11,#15,#19,#23),#27);
#11 = AXIS2_PLACEMENT_3D('',#12,#13,#14);
#12 = CARTESIAN_POINT('',(0.,0.,0.));
#13 = DIRECTION('',(0.,0.,1.));
#14 = DIRECTION('',(1.,0.,-0.));
#15 = AXIS2_PLACEMENT_3D('',#16,#17,#18);
#16 = CARTESIAN_POINT('',(0.,0.,0.));
#17 = DIRECTION('',(0.,0.,1.));
#18 = DIRECTION('',(1.,0.,0.));
#19 = AXIS2_PLACEMENT_3D('',#20,#21,#22);
#20 = CARTESIAN_POINT('',(0.,0.,0.));
#21 = DIRECTION('',(0.,0.,1.));
#22 = DIRECTION('',(1.,0.,0.));
#23 = AXIS2_PLACEMENT_3D('',#24,#25,#26);
#24 = CARTESIAN_POINT('',(0.,0.,0.));
#25 = DIRECTION('',(0.,0.,1.));
#26 = DIRECTION('',(1.,0.,0.));
#27 = ( GEOMETRIC_REPRESENTATION_CONTEXT(3) 
GLOBAL_UNCERTAINTY_ASSIGNED_CONTEXT((#31)) GLOBAL_UNIT_ASSIGNED_CONTEXT(
(#28,#29,#30)) REPRESENTATION_CONTEXT('Context #1',
  '3D Context with UNIT and UNCERTAINTY') );
#28 = ( LENGTH_UNIT() NAMED_UNIT(*) SI_UNIT(.MILLI.,.METRE.) );
#29 = ( NAMED_UNIT(*) PLANE_ANGLE_UNIT() SI_UNIT($,.RADIAN.) );
#30 = ( NAMED_UNIT(*) SI_UNIT($,.STERADIAN.) SOLID_ANGLE_UNIT() );
#31 = UNCERTAINTY_MEASURE_WITH_UNIT(LENGTH_MEASURE(1.E-07),#28,
  'distance_accuracy_value','confusion accuracy');
#32 = PRODUCT_RELATED_PRODUCT_CATEGORY('part',$,(#7));
#33 = SHAPE_DEFINITION_REPRESENTATION(#34,#40);
#34 = PRODUCT_DEFINITION_SHAPE('','',#35);
#35 = PRODUCT_DEFINITION('design','',#36,#39);
#36 = PRODUCT_DEFINITION_FORMATION('','',#37);
#37 = PRODUCT('housing','housing','',(#38));
#38 = PRODUCT_CONTEXT('',#2,'mechanical');
#39 = PRODUCT_DEFINITION_CONTEXT('part definition',#2,'design');
#40 = ADVANCED_BREP_SHAPE_REPRESENTATION('',(#11,#41),#770);
#41 = MANIFOLD_SOLID_BREP('',#42);
#42 = CLOSED_SHELL('',(#43,#83,#114,#145,#176,#207,#223,#239,#303,#334,
    #350,#381,#397,#428,#445,#462,#493,#518,#543,#568,#585,#614,#631,
    #660,#687,#698,#709,#721,#730,#739,#748,#759));
#43 = ADVANCED_FACE('',(#44),#78,.F.);
#44 = FACE_BOUND('',#45,.F.);
#45 = EDGE_LOOP('',(#46,#56,#64,#72));
#46 = ORIENTED_EDGE('',*,*,#47,.F.);
#47 = EDGE_CURVE('',#48,#50,#52,.T.);
#48 = VERTEX_POINT('',#49);
#49 = CARTESIAN_POINT('',(-2.775557561563E-17,0.4,0.4));
#50 = VERTEX_POINT('',#51);
#51 = CARTESIAN_POINT('',(-4.163336342344E-16,0.4,14.6));
#52 = LINE('',#53,#54);
#53 = CARTESIAN_POINT('',(0.,0.4,0.));
#54 = VECTOR('',#55,1.);
#55 = DIRECTION('',(0.,0.,1.));
#56 = ORIENTED_EDGE('',*,*,#57,.T.);
#57 = EDGE_CURVE('',#48,#58,#60,.T.);
#58 = VERTEX_POINT('',#59);
#59 = CARTESIAN_POINT('',(2.321977811503E-16,7.1,0.4));
#60 = LINE('',#61,#62);
#61 = CARTESIAN_POINT('',(0.,0.,0.4));
#62 = VECTOR('',#63,1.);
#63 = DIRECTION('',(-0.,1.,0.));
#64 = ORIENTED_EDGE('',*,*,#65,.T.);
#65 = EDGE_CURVE('',#58,#66,#68,.T.);
#66 = VERTEX_POINT('',#67);
#67 = CARTESIAN_POINT('',(-1.249000902703E-16,7.1,14.6));
#68 = LINE('',#69,#70);
#69 = CARTESIAN_POINT('',(0.,7.1,0.));
#70 = VECTOR('',#71,1.);
#71 = DIRECTION('',(0.,0.,1.));
#72 = ORIENTED_EDGE('',*,*,#73,.F.);
#73 = EDGE_CURVE('',#50,#66,#74,.T.);
#74 = LINE('',#75,#76);
#75 = CARTESIAN_POINT('',(0.,0.,14.6));
#76 = VECTOR('',#77,1.);
#77 = DIRECTION('',(-0.,1.,0.));
#78 = PLANE('',#79);
#79 = AXIS2_PLACEMENT_3D('',#80,#81,#82);
#80 = CARTESIAN_POINT('',(0.,0.,0.));
#81 = DIRECTION('',(1.,0.,-0.));
#82 = DIRECTION('',(0.,0.,1.));
#83 = ADVANCED_FACE('',(#84),#109,.T.);
#84 = FACE_BOUND('',#85,.F.);
#85 = EDGE_LOOP('',(#86,#87,#95,#103));
#86 = ORIENTED_EDGE('',*,*,#47,.T.);
#87 = ORIENTED_EDGE('',*,*,#88,.T.);
#88 = EDGE_CURVE('',#50,#89,#91,.T.);
#89 = VERTEX_POINT('',#90);
#90 = CARTESIAN_POINT('',(0.4,-4.163336342344E-16,14.6));
#91 = LINE('',#92,#93);
#92 = CARTESIAN_POINT('',(0.2,0.2,14.6));
#93 = VECTOR('',#94,1.);
#94 = DIRECTION('',(0.707106781187,-0.707106781187,2.712060661372E-17));
#95 = ORIENTED_EDGE('',*,*,#96,.F.);
#96 = EDGE_CURVE('',#97,#89,#99,.T.);
#97 = VERTEX_POINT('',#98);
#98 = CARTESIAN_POINT('',(0.4,-2.775557561563E-17,0.4));
#99 = LINE('',#100,#101);
#100 = CARTESIAN_POINT('',(0.4,0.,0.));
#101 = VECTOR('',#102,1.);
#102 = DIRECTION('',(0.,0.,1.));
#103 = ORIENTED_EDGE('',*,*,#104,.F.);
#104 = EDGE_CURVE('',#48,#97,#105,.T.);
#105 = LINE('',#106,#107);
#106 = CARTESIAN_POINT('',(0.2,0.2,0.4));
#107 = VECTOR('',#108,1.);
#108 = DIRECTION('',(0.707106781187,-0.707106781187,5.872217097142E-18)
  );
#109 = PLANE('',#110);
#110 = AXIS2_PLACEMENT_3D('',#111,#112,#113);
#111 = CARTESIAN_POINT('',(0.2,0.2,0.));
#112 = DIRECTION('',(-0.707106781187,-0.707106781187,-1.679829943626E-18
    ));
#113 = DIRECTION('',(1.187819144378E-18,1.187819144378E-18,-1.));
#114 = ADVANCED_FACE('',(#115),#140,.T.);
#115 = FACE_BOUND('',#116,.T.);
#116 = EDGE_LOOP('',(#117,#125,#126,#134));
#117 = ORIENTED_EDGE('',*,*,#118,.T.);
#118 = EDGE_CURVE('',#119,#48,#121,.T.);
#119 = VERTEX_POINT('',#120);
#120 = CARTESIAN_POINT('',(0.4,0.4,-2.775557561563E-17));
#121 = LINE('',#122,#123);
#122 = CARTESIAN_POINT('',(0.3,0.4,1.E-01));
#123 = VECTOR('',#124,1.);
#124 = DIRECTION('',(-0.707106781187,5.872217097142E-18,0.707106781187)
  );
#125 = ORIENTED_EDGE('',*,*,#57,.T.);
#126 = ORIENTED_EDGE('',*,*,#127,.F.);
#127 = EDGE_CURVE('',#128,#58,#130,.T.);
#128 = VERTEX_POINT('',#129);
#129 = CARTESIAN_POINT('',(0.4,7.1,2.314131145702E-16));
#130 = LINE('',#131,#132);
#131 = CARTESIAN_POINT('',(0.3,7.1,0.1));
#132 = VECTOR('',#133,1.);
#133 = DIRECTION('',(-0.707106781187,-3.8865040808E-17,0.707106781187));
#134 = ORIENTED_EDGE('',*,*,#135,.F.);
#135 = EDGE_CURVE('',#119,#128,#136,.T.);
#136 = LINE('',#137,#138);
#137 = CARTESIAN_POINT('',(0.4,0.,0.));
#138 = VECTOR('',#139,1.);
#139 = DIRECTION('',(-0.,1.,0.));
#140 = PLANE('',#141);
#141 = AXIS2_PLACEMENT_3D('',#142,#143,#144);
#142 = CARTESIAN_POINT('',(0.2,0.,0.2));
#143 = DIRECTION('',(-0.707106781187,-1.679829943626E-18,-0.707106781187
    ));
#144 = DIRECTION('',(-1.187819144378E-18,1.,-1.187819144378E-18));
#145 = ADVANCED_FACE('',(#146),#171,.F.);
#146 = FACE_BOUND('',#147,.F.);
#147 = EDGE_LOOP('',(#148,#156,#157,#165));
#148 = ORIENTED_EDGE('',*,*,#149,.T.);
#149 = EDGE_CURVE('',#150,#50,#152,.T.);
#150 = VERTEX_POINT('',#151);
#151 = CARTESIAN_POINT('',(0.4,0.4,15.));
#152 = LINE('',#153,#154);
#153 = CARTESIAN_POINT('',(0.3,0.4,14.9));
#154 = VECTOR('',#155,1.);
#155 = DIRECTION('',(-0.707106781187,1.067160332643E-15,-0.707106781187)
  );
#156 = ORIENTED_EDGE('',*,*,#73,.T.);
#157 = ORIENTED_EDGE('',*,*,#158,.T.);
#158 = EDGE_CURVE('',#66,#159,#161,.T.);
#159 = VERTEX_POINT('',#160);
#160 = CARTESIAN_POINT('',(0.4,7.1,15.));
#161 = LINE('',#162,#163);
#162 = CARTESIAN_POINT('',(0.2,7.1,14.8));
#163 = VECTOR('',#164,1.);
#164 = DIRECTION('',(0.707106781187,2.227770981994E-15,0.707106781187));
#165 = ORIENTED_EDGE('',*,*,#166,.F.);
#166 = EDGE_CURVE('',#150,#159,#167,.T.);
#167 = LINE('',#168,#169);
#168 = CARTESIAN_POINT('',(0.4,0.,15.));
#169 = VECTOR('',#170,1.);
#170 = DIRECTION('',(-0.,1.,0.));
#171 = PLANE('',#172);
#172 = AXIS2_PLACEMENT_3D('',#173,#174,#175);
#173 = CARTESIAN_POINT('',(0.2,0.,14.8));
#174 = DIRECTION('',(0.707106781187,1.102531706024E-18,-0.707106781187)
  );
#175 = DIRECTION('',(-7.79607645803E-19,1.,7.79607645803E-19));
#176 = ADVANCED_FACE('',(#177),#202,.F.);
#177 = FACE_BOUND('',#178,.T.);
#178 = EDGE_LOOP('',(#179,#180,#188,#196));
#179 = ORIENTED_EDGE('',*,*,#65,.T.);
#180 = ORIENTED_EDGE('',*,*,#181,.F.);
#181 = EDGE_CURVE('',#182,#66,#184,.T.);
#182 = VERTEX_POINT('',#183);
#183 = CARTESIAN_POINT('',(0.4,7.5,14.6));
#184 = LINE('',#185,#186);
#185 = CARTESIAN_POINT('',(0.3,7.4,14.6));
#186 = VECTOR('',#187,1.);
#187 = DIRECTION('',(-0.707106781187,-0.707106781187,1.38601725224E-16)
  );
#188 = ORIENTED_EDGE('',*,*,#189,.F.);
#189 = EDGE_CURVE('',#190,#182,#192,.T.);
#190 = VERTEX_POINT('',#191);
#191 = CARTESIAN_POINT('',(0.4,7.5,0.4));
#192 = LINE('',#193,#194);
#193 = CARTESIAN_POINT('',(0.4,7.5,0.));
#194 = VECTOR('',#195,1.);
#195 = DIRECTION('',(0.,0.,1.));
#196 = ORIENTED_EDGE('',*,*,#197,.F.);
#197 = EDGE_CURVE('',#58,#190,#198,.T.);
#198 = LINE('',#199,#200);
#199 = CARTESIAN_POINT('',(0.2,7.3,0.4));
#200 = VECTOR('',#201,1.);
#201 = DIRECTION('',(0.707106781187,0.707106781187,2.413164125173E-15));
#202 = PLANE('',#203);
#203 = AXIS2_PLACEMENT_3D('',#204,#205,#206);
#204 = CARTESIAN_POINT('',(0.2,7.3,0.));
#205 = DIRECTION('',(0.707106781187,-0.707106781187,-3.480000426336E-18)
  );
#206 = DIRECTION('',(-2.460731899994E-18,2.460731899994E-18,-1.));
#207 = ADVANCED_FACE('',(#208),#218,.T.);
#208 = FACE_BOUND('',#209,.T.);
#209 = EDGE_LOOP('',(#210,#211,#217));
#210 = ORIENTED_EDGE('',*,*,#118,.F.);
#211 = ORIENTED_EDGE('',*,*,#212,.T.);
#212 = EDGE_CURVE('',#119,#97,#213,.T.);
#213 = LINE('',#214,#215);
#214 = CARTESIAN_POINT('',(0.4,0.3,1.E-01));
#215 = VECTOR('',#216,1.);
#216 = DIRECTION('',(-5.872217097142E-18,-0.707106781187,0.707106781187)
  );
#217 = ORIENTED_EDGE('',*,*,#104,.F.);
#218 = PLANE('',#219);
#219 = AXIS2_PLACEMENT_3D('',#220,#221,#222);
#220 = CARTESIAN_POINT('',(0.4,0.4,-2.775557561563E-17));
#221 = DIRECTION('',(-0.57735026919,-0.57735026919,-0.57735026919));
#222 = DIRECTION('',(0.707106781187,-0.707106781187,-1.269604464815E-17)
  );
#223 = ADVANCED_FACE('',(#224),#234,.F.);
#224 = FACE_BOUND('',#225,.F.);
#225 = EDGE_LOOP('',(#226,#227,#233));
#226 = ORIENTED_EDGE('',*,*,#149,.F.);
#227 = ORIENTED_EDGE('',*,*,#228,.T.);
#228 = EDGE_CURVE('',#150,#89,#229,.T.);
#229 = LINE('',#230,#231);
#230 = CARTESIAN_POINT('',(0.4,0.3,14.9));
#231 = VECTOR('',#232,1.);
#232 = DIRECTION('',(1.091997272256E-15,-0.707106781187,-0.707106781187)
  );
#233 = ORIENTED_EDGE('',*,*,#88,.F.);
#234 = PLANE('',#235);
#235 = AXIS2_PLACEMENT_3D('',#236,#237,#238);
#236 = CARTESIAN_POINT('',(0.4,0.4,15.));
#237 = DIRECTION('',(0.57735026919,0.57735026919,-0.57735026919));
#238 = DIRECTION('',(0.707106781187,-0.707106781187,3.691197415572E-18)
  );
#239 = ADVANCED_FACE('',(#240,#265,#276,#287),#298,.F.);
#240 = FACE_BOUND('',#241,.F.);
#241 = EDGE_LOOP('',(#242,#243,#251,#259));
#242 = ORIENTED_EDGE('',*,*,#96,.T.);
#243 = ORIENTED_EDGE('',*,*,#244,.T.);
#244 = EDGE_CURVE('',#89,#245,#247,.T.);
#245 = VERTEX_POINT('',#246);
#246 = CARTESIAN_POINT('',(29.6,-3.191891195797E-16,14.6));
#247 = LINE('',#248,#249);
#248 = CARTESIAN_POINT('',(0.,0.,14.6));
#249 = VECTOR('',#250,1.);
#250 = DIRECTION('',(1.,0.,-0.));
#251 = ORIENTED_EDGE('',*,*,#252,.F.);
#252 = EDGE_CURVE('',#253,#245,#255,.T.);
#253 = VERTEX_POINT('',#254);
#254 = CARTESIAN_POINT('',(29.6,0.,0.4));
#255 = LINE('',#256,#257);
#256 = CARTESIAN_POINT('',(29.6,0.,0.));
#257 = VECTOR('',#258,1.);
#258 = DIRECTION('',(0.,0.,1.));
#259 = ORIENTED_EDGE('',*,*,#260,.F.);
#260 = EDGE_CURVE('',#97,#253,#261,.T.);
#261 = LINE('',#262,#263);
#262 = CARTESIAN_POINT('',(0.,0.,0.4));
#263 = VECTOR('',#264,1.);
#264 = DIRECTION('',(1.,0.,-0.));
#265 = FACE_BOUND('',#266,.F.);
#266 = EDGE_LOOP('',(#267));
#267 = ORIENTED_EDGE('',*,*,#268,.F.);
#268 = EDGE_CURVE('',#269,#269,#271,.T.);
#269 = VERTEX_POINT('',#270);
#270 = CARTESIAN_POINT('',(24.,0.,4.75));
#271 = CIRCLE('',#272,1.25);
#272 = AXIS2_PLACEMENT_3D('',#273,#274,#275);
#273 = CARTESIAN_POINT('',(24.,0.,3.5));
#274 = DIRECTION('',(0.,1.,0.));
#275 = DIRECTION('',(0.,-0.,1.));
#276 = FACE_BOUND('',#277,.F.);
#277 = EDGE_LOOP('',(#278));
#278 = ORIENTED_EDGE('',*,*,#279,.F.);
#279 = EDGE_CURVE('',#280,#280,#282,.T.);
#280 = VERTEX_POINT('',#281);
#281 = CARTESIAN_POINT('',(24.,0.,8.75));
#282 = CIRCLE('',#283,1.25);
#283 = AXIS2_PLACEMENT_3D('',#284,#285,#286);
#284 = CARTESIAN_POINT('',(24.,0.,7.5));
#285 = DIRECTION('',(0.,1.,0.));
#286 = DIRECTION('',(0.,-0.,1.));
#287 = FACE_BOUND('',#288,.F.);
#288 = EDGE_LOOP('',(#289));
#289 = ORIENTED_EDGE('',*,*,#290,.F.);
#290 = EDGE_CURVE('',#291,#291,#293,.T.);
#291 = VERTEX_POINT('',#292);
#292 = CARTESIAN_POINT('',(24.,0.,12.75));
#293 = CIRCLE('',#294,1.25);
#294 = AXIS2_PLACEMENT_3D('',#295,#296,#297);
#295 = CARTESIAN_POINT('',(24.,0.,11.5));
#296 = DIRECTION('',(0.,1.,0.));
#297 = DIRECTION('',(0.,-0.,1.));
#298 = PLANE('',#299);
#299 = AXIS2_PLACEMENT_3D('',#300,#301,#302);
#300 = CARTESIAN_POINT('',(0.,0.,0.));
#301 = DIRECTION('',(-0.,1.,0.));
#302 = DIRECTION('',(0.,0.,1.));
#303 = ADVANCED_FACE('',(#304),#329,.F.);
#304 = FACE_BOUND('',#305,.F.);
#305 = EDGE_LOOP('',(#306,#307,#315,#323));
#306 = ORIENTED_EDGE('',*,*,#135,.F.);
#307 = ORIENTED_EDGE('',*,*,#308,.T.);
#308 = EDGE_CURVE('',#119,#309,#311,.T.);
#309 = VERTEX_POINT('',#310);
#310 = CARTESIAN_POINT('',(29.6,0.4,0.));
#311 = LINE('',#312,#313);
#312 = CARTESIAN_POINT('',(0.,0.4,0.));
#313 = VECTOR('',#314,1.);
#314 = DIRECTION('',(1.,0.,-0.));
#315 = ORIENTED_EDGE('',*,*,#316,.T.);
#316 = EDGE_CURVE('',#309,#317,#319,.T.);
#317 = VERTEX_POINT('',#318);
#318 = CARTESIAN_POINT('',(29.6,7.1,2.425227532044E-16));
#319 = LINE('',#320,#321);
#320 = CARTESIAN_POINT('',(29.6,0.,0.));
#321 = VECTOR('',#322,1.);
#322 = DIRECTION('',(-0.,1.,0.));
#323 = ORIENTED_EDGE('',*,*,#324,.F.);
#324 = EDGE_CURVE('',#128,#317,#325,.T.);
#325 = LINE('',#326,#327);
#326 = CARTESIAN_POINT('',(0.,7.1,0.));
#327 = VECTOR('',#328,1.);
#328 = DIRECTION('',(1.,0.,-0.));
#329 = PLANE('',#330);
#330 = AXIS2_PLACEMENT_3D('',#331,#332,#333);
#331 = CARTESIAN_POINT('',(0.,0.,0.));
#332 = DIRECTION('',(0.,0.,1.));
#333 = DIRECTION('',(1.,0.,-0.));
#334 = ADVANCED_FACE('',(#335),#345,.F.);
#335 = FACE_BOUND('',#336,.F.);
#336 = EDGE_LOOP('',(#337,#338,#344));
#337 = ORIENTED_EDGE('',*,*,#127,.F.);
#338 = ORIENTED_EDGE('',*,*,#339,.T.);
#339 = EDGE_CURVE('',#128,#190,#340,.T.);
#340 = LINE('',#341,#342);
#341 = CARTESIAN_POINT('',(0.4,7.2,1.E-01));
#342 = VECTOR('',#343,1.);
#343 = DIRECTION('',(2.424334989745E-15,0.707106781187,0.707106781187));
#344 = ORIENTED_EDGE('',*,*,#197,.F.);
#345 = PLANE('',#346);
#346 = AXIS2_PLACEMENT_3D('',#347,#348,#349);
#347 = CARTESIAN_POINT('',(0.4,7.1,2.314131145702E-16));
#348 = DIRECTION('',(0.57735026919,-0.57735026919,0.57735026919));
#349 = DIRECTION('',(0.707106781187,0.707106781187,1.351820283055E-15));
#350 = ADVANCED_FACE('',(#351),#376,.T.);
#351 = FACE_BOUND('',#352,.T.);
#352 = EDGE_LOOP('',(#353,#354,#362,#370));
#353 = ORIENTED_EDGE('',*,*,#166,.F.);
#354 = ORIENTED_EDGE('',*,*,#355,.T.);
#355 = EDGE_CURVE('',#150,#356,#358,.T.);
#356 = VERTEX_POINT('',#357);
#357 = CARTESIAN_POINT('',(29.6,0.4,15.));
#358 = LINE('',#359,#360);
#359 = CARTESIAN_POINT('',(0.,0.4,15.));
#360 = VECTOR('',#361,1.);
#361 = DIRECTION('',(1.,0.,-0.));
#362 = ORIENTED_EDGE('',*,*,#363,.T.);
#363 = EDGE_CURVE('',#356,#364,#366,.T.);
#364 = VERTEX_POINT('',#365);
#365 = CARTESIAN_POINT('',(29.6,7.1,15.));
#366 = LINE('',#367,#368);
#367 = CARTESIAN_POINT('',(29.6,0.,15.));
#368 = VECTOR('',#369,1.);
#369 = DIRECTION('',(-0.,1.,0.));
#370 = ORIENTED_EDGE('',*,*,#371,.F.);
#371 = EDGE_CURVE('',#159,#364,#372,.T.);
#372 = LINE('',#373,#374);
#373 = CARTESIAN_POINT('',(0.,7.1,15.));
#374 = VECTOR('',#375,1.);
#375 = DIRECTION('',(1.,0.,-0.));
#376 = PLANE('',#377);
#377 = AXIS2_PLACEMENT_3D('',#378,#379,#380);
#378 = CARTESIAN_POINT('',(0.,0.,15.));
#379 = DIRECTION('',(0.,0.,1.));
#380 = DIRECTION('',(1.,0.,-0.));
#381 = ADVANCED_FACE('',(#382),#392,.F.);
#382 = FACE_BOUND('',#383,.F.);
#383 = EDGE_LOOP('',(#384,#385,#391));
#384 = ORIENTED_EDGE('',*,*,#181,.F.);
#385 = ORIENTED_EDGE('',*,*,#386,.T.);
#386 = EDGE_CURVE('',#182,#159,#387,.T.);
#387 = LINE('',#388,#389);
#388 = CARTESIAN_POINT('',(0.4,7.4,14.7));
#389 = VECTOR('',#390,1.);
#390 = DIRECTION('',(-2.29885266975E-15,-0.707106781187,0.707106781187)
  );
#391 = ORIENTED_EDGE('',*,*,#158,.F.);
#392 = PLANE('',#393);
#393 = AXIS2_PLACEMENT_3D('',#394,#395,#396);
#394 = CARTESIAN_POINT('',(0.4,7.5,14.6));
#395 = DIRECTION('',(0.57735026919,-0.57735026919,-0.57735026919));
#396 = DIRECTION('',(0.707106781187,1.594499415931E-15,0.707106781187));
#397 = ADVANCED_FACE('',(#398),#423,.T.);
#398 = FACE_BOUND('',#399,.T.);
#399 = EDGE_LOOP('',(#400,#401,#409,#417));
#400 = ORIENTED_EDGE('',*,*,#189,.T.);
#401 = ORIENTED_EDGE('',*,*,#402,.T.);
#402 = EDGE_CURVE('',#182,#403,#405,.T.);
#403 = VERTEX_POINT('',#404);
#404 = CARTESIAN_POINT('',(29.6,7.5,14.6));
#405 = LINE('',#406,#407);
#406 = CARTESIAN_POINT('',(0.,7.5,14.6));
#407 = VECTOR('',#408,1.);
#408 = DIRECTION('',(1.,0.,-0.));
#409 = ORIENTED_EDGE('',*,*,#410,.F.);
#410 = EDGE_CURVE('',#411,#403,#413,.T.);
#411 = VERTEX_POINT('',#412);
#412 = CARTESIAN_POINT('',(29.6,7.5,0.4));
#413 = LINE('',#414,#415);
#414 = CARTESIAN_POINT('',(29.6,7.5,0.));
#415 = VECTOR('',#416,1.);
#416 = DIRECTION('',(0.,0.,1.));
#417 = ORIENTED_EDGE('',*,*,#418,.F.);
#418 = EDGE_CURVE('',#190,#411,#419,.T.);
#419 = LINE('',#420,#421);
#420 = CARTESIAN_POINT('',(0.,7.5,0.4));
#421 = VECTOR('',#422,1.);
#422 = DIRECTION('',(1.,0.,-0.));
#423 = PLANE('',#424);
#424 = AXIS2_PLACEMENT_3D('',#425,#426,#427);
#425 = CARTESIAN_POINT('',(0.,7.5,0.));
#426 = DIRECTION('',(-0.,1.,0.));
#427 = DIRECTION('',(0.,0.,1.));
#428 = ADVANCED_FACE('',(#429),#440,.T.);
#429 = FACE_BOUND('',#430,.F.);
#430 = EDGE_LOOP('',(#431,#432,#433,#439));
#431 = ORIENTED_EDGE('',*,*,#212,.T.);
#432 = ORIENTED_EDGE('',*,*,#260,.T.);
#433 = ORIENTED_EDGE('',*,*,#434,.F.);
#434 = EDGE_CURVE('',#309,#253,#435,.T.);
#435 = LINE('',#436,#437);
#436 = CARTESIAN_POINT('',(29.6,0.3,0.1));
#437 = VECTOR('',#438,1.);
#438 = DIRECTION('',(-4.078668165574E-17,-0.707106781187,0.707106781187)
  );
#439 = ORIENTED_EDGE('',*,*,#308,.F.);
#440 = PLANE('',#441);
#441 = AXIS2_PLACEMENT_3D('',#442,#443,#444);
#442 = CARTESIAN_POINT('',(0.,0.2,0.2));
#443 = DIRECTION('',(-1.679829943626E-18,-0.707106781187,-0.707106781187
    ));
#444 = DIRECTION('',(-1.,1.187819144378E-18,1.187819144378E-18));
#445 = ADVANCED_FACE('',(#446),#457,.F.);
#446 = FACE_BOUND('',#447,.T.);
#447 = EDGE_LOOP('',(#448,#449,#450,#456));
#448 = ORIENTED_EDGE('',*,*,#228,.T.);
#449 = ORIENTED_EDGE('',*,*,#244,.T.);
#450 = ORIENTED_EDGE('',*,*,#451,.F.);
#451 = EDGE_CURVE('',#356,#245,#452,.T.);
#452 = LINE('',#453,#454);
#453 = CARTESIAN_POINT('',(29.6,0.3,14.9));
#454 = VECTOR('',#455,1.);
#455 = DIRECTION('',(-2.499935127603E-16,-0.707106781187,-0.707106781187
    ));
#456 = ORIENTED_EDGE('',*,*,#355,.F.);
#457 = PLANE('',#458);
#458 = AXIS2_PLACEMENT_3D('',#459,#460,#461);
#459 = CARTESIAN_POINT('',(0.,0.2,14.8));
#460 = DIRECTION('',(-9.709052582848E-19,0.707106781187,-0.707106781187)
  );
#461 = DIRECTION('',(-1.,-6.865336920228E-19,6.865336920228E-19));
#462 = ADVANCED_FACE('',(#463),#488,.F.);
#463 = FACE_BOUND('',#464,.T.);
#464 = EDGE_LOOP('',(#465,#475,#481,#482));
#465 = ORIENTED_EDGE('',*,*,#466,.T.);
#466 = EDGE_CURVE('',#467,#469,#471,.T.);
#467 = VERTEX_POINT('',#468);
#468 = CARTESIAN_POINT('',(30.,0.4,0.4));
#469 = VERTEX_POINT('',#470);
#470 = CARTESIAN_POINT('',(30.,0.4,14.6));
#471 = LINE('',#472,#473);
#472 = CARTESIAN_POINT('',(30.,0.4,0.));
#473 = VECTOR('',#474,1.);
#474 = DIRECTION('',(0.,0.,1.));
#475 = ORIENTED_EDGE('',*,*,#476,.T.);
#476 = EDGE_CURVE('',#469,#245,#477,.T.);
#477 = LINE('',#478,#479);
#478 = CARTESIAN_POINT('',(29.8,0.2,14.6));
#479 = VECTOR('',#480,1.);
#480 = DIRECTION('',(-0.707106781187,-0.707106781187,6.065300454006E-16)
  );
#481 = ORIENTED_EDGE('',*,*,#252,.F.);
#482 = ORIENTED_EDGE('',*,*,#483,.F.);
#483 = EDGE_CURVE('',#467,#253,#484,.T.);
#484 = LINE('',#485,#486);
#485 = CARTESIAN_POINT('',(29.8,0.2,0.4));
#486 = VECTOR('',#487,1.);
#487 = DIRECTION('',(-0.707106781187,-0.707106781187,-6.946710071739E-17
    ));
#488 = PLANE('',#489);
#489 = AXIS2_PLACEMENT_3D('',#490,#491,#492);
#490 = CARTESIAN_POINT('',(29.8,0.2,0.));
#491 = DIRECTION('',(-0.707106781187,0.707106781187,-5.47005954057E-18)
  );
#492 = DIRECTION('',(3.867916194631E-18,-3.867916194631E-18,-1.));
#493 = ADVANCED_FACE('',(#494),#513,.F.);
#494 = FACE_BOUND('',#495,.F.);
#495 = EDGE_LOOP('',(#496,#504,#511,#512));
#496 = ORIENTED_EDGE('',*,*,#497,.T.);
#497 = EDGE_CURVE('',#269,#498,#500,.T.);
#498 = VERTEX_POINT('',#499);
#499 = CARTESIAN_POINT('',(24.,5.,4.75));
#500 = LINE('',#501,#502);
#501 = CARTESIAN_POINT('',(24.,-1.E-02,4.75));
#502 = VECTOR('',#503,1.);
#503 = DIRECTION('',(0.,1.,0.));
#504 = ORIENTED_EDGE('',*,*,#505,.F.);
#505 = EDGE_CURVE('',#498,#498,#506,.T.);
#506 = CIRCLE('',#507,1.25);
#507 = AXIS2_PLACEMENT_3D('',#508,#509,#510);
#508 = CARTESIAN_POINT('',(24.,5.,3.5));
#509 = DIRECTION('',(0.,1.,0.));
#510 = DIRECTION('',(0.,-0.,1.));
#511 = ORIENTED_EDGE('',*,*,#497,.F.);
#512 = ORIENTED_EDGE('',*,*,#268,.T.);
#513 = CYLINDRICAL_SURFACE('',#514,1.25);
#514 = AXIS2_PLACEMENT_3D('',#515,#516,#517);
#515 = CARTESIAN_POINT('',(24.,-1.E-02,3.5));
#516 = DIRECTION('',(0.,1.,0.));
#517 = DIRECTION('',(0.,-0.,1.));
#518 = ADVANCED_FACE('',(#519),#538,.F.);
#519 = FACE_BOUND('',#520,.F.);
#520 = EDGE_LOOP('',(#521,#529,#536,#537));
#521 = ORIENTED_EDGE('',*,*,#522,.T.);
#522 = EDGE_CURVE('',#280,#523,#525,.T.);
#523 = VERTEX_POINT('',#524);
#524 = CARTESIAN_POINT('',(24.,5.,8.75));
#525 = LINE('',#526,#527);
#526 = CARTESIAN_POINT('',(24.,-1.E-02,8.75));
#527 = VECTOR('',#528,1.);
#528 = DIRECTION('',(0.,1.,0.));
#529 = ORIENTED_EDGE('',*,*,#530,.F.);
#530 = EDGE_CURVE('',#523,#523,#531,.T.);
#531 = CIRCLE('',#532,1.25);
#532 = AXIS2_PLACEMENT_3D('',#533,#534,#535);
#533 = CARTESIAN_POINT('',(24.,5.,7.5));
#534 = DIRECTION('',(0.,1.,0.));
#535 = DIRECTION('',(0.,-0.,1.));
#536 = ORIENTED_EDGE('',*,*,#522,.F.);
#537 = ORIENTED_EDGE('',*,*,#279,.T.);
#538 = CYLINDRICAL_SURFACE('',#539,1.25);
#539 = AXIS2_PLACEMENT_3D('',#540,#541,#542);
#540 = CARTESIAN_POINT('',(24.,-1.E-02,7.5));
#541 = DIRECTION('',(0.,1.,0.));
#542 = DIRECTION('',(0.,-0.,1.));
#543 = ADVANCED_FACE('',(#544),#563,.F.);
#544 = FACE_BOUND('',#545,.F.);
#545 = EDGE_LOOP('',(#546,#554,#561,#562));
#546 = ORIENTED_EDGE('',*,*,#547,.T.);
#547 = EDGE_CURVE('',#291,#548,#550,.T.);
#548 = VERTEX_POINT('',#549);
#549 = CARTESIAN_POINT('',(24.,5.,12.75));
#550 = LINE('',#551,#552);
#551 = CARTESIAN_POINT('',(24.,-1.E-02,12.75));
#552 = VECTOR('',#553,1.);
#553 = DIRECTION('',(0.,1.,0.));
#554 = ORIENTED_EDGE('',*,*,#555,.F.);
#555 = EDGE_CURVE('',#548,#548,#556,.T.);
#556 = CIRCLE('',#557,1.25);
#557 = AXIS2_PLACEMENT_3D('',#558,#559,#560);
#558 = CARTESIAN_POINT('',(24.,5.,11.5));
#559 = DIRECTION('',(0.,1.,0.));
#560 = DIRECTION('',(0.,-0.,1.));
#561 = ORIENTED_EDGE('',*,*,#547,.F.);
#562 = ORIENTED_EDGE('',*,*,#290,.T.);
#563 = CYLINDRICAL_SURFACE('',#564,1.25);
#564 = AXIS2_PLACEMENT_3D('',#565,#566,#567);
#565 = CARTESIAN_POINT('',(24.,-1.E-02,11.5));
#566 = DIRECTION('',(0.,1.,0.));
#567 = DIRECTION('',(0.,-0.,1.));
#568 = ADVANCED_FACE('',(#569),#580,.F.);
#569 = FACE_BOUND('',#570,.T.);
#570 = EDGE_LOOP('',(#571,#572,#573,#579));
#571 = ORIENTED_EDGE('',*,*,#339,.T.);
#572 = ORIENTED_EDGE('',*,*,#418,.T.);
#573 = ORIENTED_EDGE('',*,*,#574,.F.);
#574 = EDGE_CURVE('',#317,#411,#575,.T.);
#575 = LINE('',#576,#577);
#576 = CARTESIAN_POINT('',(29.6,7.2,0.1));
#577 = VECTOR('',#578,1.);
#578 = DIRECTION('',(-2.398175203555E-15,0.707106781187,0.707106781187)
  );
#579 = ORIENTED_EDGE('',*,*,#324,.F.);
#580 = PLANE('',#581);
#581 = AXIS2_PLACEMENT_3D('',#582,#583,#584);
#582 = CARTESIAN_POINT('',(0.,7.3,0.2));
#583 = DIRECTION('',(2.068430171249E-18,-0.707106781187,0.707106781187)
  );
#584 = DIRECTION('',(-1.,-1.462601000501E-18,1.462601000501E-18));
#585 = ADVANCED_FACE('',(#586),#609,.F.);
#586 = FACE_BOUND('',#587,.F.);
#587 = EDGE_LOOP('',(#588,#594,#602,#608));
#588 = ORIENTED_EDGE('',*,*,#589,.T.);
#589 = EDGE_CURVE('',#309,#467,#590,.T.);
#590 = LINE('',#591,#592);
#591 = CARTESIAN_POINT('',(29.7,0.4,1.E-01));
#592 = VECTOR('',#593,1.);
#593 = DIRECTION('',(0.707106781187,5.667399243391E-17,0.707106781187));
#594 = ORIENTED_EDGE('',*,*,#595,.T.);
#595 = EDGE_CURVE('',#467,#596,#598,.T.);
#596 = VERTEX_POINT('',#597);
#597 = CARTESIAN_POINT('',(30.,7.1,0.4));
#598 = LINE('',#599,#600);
#599 = CARTESIAN_POINT('',(30.,0.,0.4));
#600 = VECTOR('',#601,1.);
#601 = DIRECTION('',(-0.,1.,0.));
#602 = ORIENTED_EDGE('',*,*,#603,.F.);
#603 = EDGE_CURVE('',#317,#596,#604,.T.);
#604 = LINE('',#605,#606);
#605 = CARTESIAN_POINT('',(29.7,7.1,0.1));
#606 = VECTOR('',#607,1.);
#607 = DIRECTION('',(0.707106781187,-1.154129331177E-15,0.707106781187)
  );
#608 = ORIENTED_EDGE('',*,*,#316,.F.);
#609 = PLANE('',#610);
#610 = AXIS2_PLACEMENT_3D('',#611,#612,#613);
#611 = CARTESIAN_POINT('',(29.8,0.,0.2));
#612 = DIRECTION('',(-0.707106781187,5.332783484717E-18,0.707106781187)
  );
#613 = DIRECTION('',(3.770847364643E-18,1.,-3.770847364643E-18));
#614 = ADVANCED_FACE('',(#615),#626,.T.);
#615 = FACE_BOUND('',#616,.F.);
#616 = EDGE_LOOP('',(#617,#618,#619,#625));
#617 = ORIENTED_EDGE('',*,*,#386,.F.);
#618 = ORIENTED_EDGE('',*,*,#402,.T.);
#619 = ORIENTED_EDGE('',*,*,#620,.T.);
#620 = EDGE_CURVE('',#403,#364,#621,.T.);
#621 = LINE('',#622,#623);
#622 = CARTESIAN_POINT('',(29.6,7.4,14.7));
#623 = VECTOR('',#624,1.);
#624 = DIRECTION('',(1.592822905805E-15,-0.707106781187,0.707106781187)
  );
#625 = ORIENTED_EDGE('',*,*,#371,.F.);
#626 = PLANE('',#627);
#627 = AXIS2_PLACEMENT_3D('',#628,#629,#630);
#628 = CARTESIAN_POINT('',(0.,7.3,14.8));
#629 = DIRECTION('',(1.548203495886E-18,0.707106781187,0.707106781187));
#630 = DIRECTION('',(-1.,1.094745190598E-18,1.094745190598E-18));
#631 = ADVANCED_FACE('',(#632),#655,.T.);
#632 = FACE_BOUND('',#633,.T.);
#633 = EDGE_LOOP('',(#634,#640,#648,#654));
#634 = ORIENTED_EDGE('',*,*,#635,.T.);
#635 = EDGE_CURVE('',#356,#469,#636,.T.);
#636 = LINE('',#637,#638);
#637 = CARTESIAN_POINT('',(29.7,0.4,14.9));
#638 = VECTOR('',#639,1.);
#639 = DIRECTION('',(0.707106781187,9.803658687167E-16,-0.707106781187)
  );
#640 = ORIENTED_EDGE('',*,*,#641,.T.);
#641 = EDGE_CURVE('',#469,#642,#644,.T.);
#642 = VERTEX_POINT('',#643);
#643 = CARTESIAN_POINT('',(30.,7.1,14.6));
#644 = LINE('',#645,#646);
#645 = CARTESIAN_POINT('',(30.,0.,14.6));
#646 = VECTOR('',#647,1.);
#647 = DIRECTION('',(-0.,1.,0.));
#648 = ORIENTED_EDGE('',*,*,#649,.T.);
#649 = EDGE_CURVE('',#642,#364,#650,.T.);
#650 = LINE('',#651,#652);
#651 = CARTESIAN_POINT('',(29.8,7.1,14.8));
#652 = VECTOR('',#653,1.);
#653 = DIRECTION('',(-0.707106781187,1.693228670183E-15,0.707106781187)
  );
#654 = ORIENTED_EDGE('',*,*,#363,.F.);
#655 = PLANE('',#656);
#656 = AXIS2_PLACEMENT_3D('',#657,#658,#659);
#657 = CARTESIAN_POINT('',(29.8,0.,14.8));
#658 = DIRECTION('',(0.707106781187,-1.28049161384E-18,0.707106781187));
#659 = DIRECTION('',(9.054443033987E-19,1.,9.054443033987E-19));
#660 = ADVANCED_FACE('',(#661),#682,.T.);
#661 = FACE_BOUND('',#662,.F.);
#662 = EDGE_LOOP('',(#663,#669,#675,#676));
#663 = ORIENTED_EDGE('',*,*,#664,.T.);
#664 = EDGE_CURVE('',#596,#642,#665,.T.);
#665 = LINE('',#666,#667);
#666 = CARTESIAN_POINT('',(30.,7.1,0.));
#667 = VECTOR('',#668,1.);
#668 = DIRECTION('',(0.,0.,1.));
#669 = ORIENTED_EDGE('',*,*,#670,.F.);
#670 = EDGE_CURVE('',#403,#642,#671,.T.);
#671 = LINE('',#672,#673);
#672 = CARTESIAN_POINT('',(29.7,7.4,14.6));
#673 = VECTOR('',#674,1.);
#674 = DIRECTION('',(0.707106781187,-0.707106781187,-5.621517628614E-17)
  );
#675 = ORIENTED_EDGE('',*,*,#410,.F.);
#676 = ORIENTED_EDGE('',*,*,#677,.F.);
#677 = EDGE_CURVE('',#596,#411,#678,.T.);
#678 = LINE('',#679,#680);
#679 = CARTESIAN_POINT('',(29.8,7.3,0.4));
#680 = VECTOR('',#681,1.);
#681 = DIRECTION('',(-0.707106781187,0.707106781187,1.160717746152E-15)
  );
#682 = PLANE('',#683);
#683 = AXIS2_PLACEMENT_3D('',#684,#685,#686);
#684 = CARTESIAN_POINT('',(29.8,7.3,0.));
#685 = DIRECTION('',(0.707106781187,0.707106781187,2.049090107045E-19));
#686 = DIRECTION('',(1.448925509954E-19,1.448925509954E-19,-1.));
#687 = ADVANCED_FACE('',(#688),#693,.F.);
#688 = FACE_BOUND('',#689,.F.);
#689 = EDGE_LOOP('',(#690,#691,#692));
#690 = ORIENTED_EDGE('',*,*,#589,.F.);
#691 = ORIENTED_EDGE('',*,*,#434,.T.);
#692 = ORIENTED_EDGE('',*,*,#483,.F.);
#693 = PLANE('',#694);
#694 = AXIS2_PLACEMENT_3D('',#695,#696,#697);
#695 = CARTESIAN_POINT('',(29.6,0.4,0.));
#696 = DIRECTION('',(-0.57735026919,0.57735026919,0.57735026919));
#697 = DIRECTION('',(-0.707106781187,-0.707106781187,-3.99020542643E-17)
  );
#698 = ADVANCED_FACE('',(#699),#704,.T.);
#699 = FACE_BOUND('',#700,.T.);
#700 = EDGE_LOOP('',(#701,#702,#703));
#701 = ORIENTED_EDGE('',*,*,#635,.F.);
#702 = ORIENTED_EDGE('',*,*,#451,.T.);
#703 = ORIENTED_EDGE('',*,*,#476,.F.);
#704 = PLANE('',#705);
#705 = AXIS2_PLACEMENT_3D('',#706,#707,#708);
#706 = CARTESIAN_POINT('',(29.6,0.4,15.));
#707 = DIRECTION('',(0.57735026919,-0.57735026919,0.57735026919));
#708 = DIRECTION('',(-0.707106781187,-0.707106781187,2.500452347492E-17)
  );
#709 = ADVANCED_FACE('',(#710),#716,.T.);
#710 = FACE_BOUND('',#711,.T.);
#711 = EDGE_LOOP('',(#712,#713,#714,#715));
#712 = ORIENTED_EDGE('',*,*,#466,.F.);
#713 = ORIENTED_EDGE('',*,*,#595,.T.);
#714 = ORIENTED_EDGE('',*,*,#664,.T.);
#715 = ORIENTED_EDGE('',*,*,#641,.F.);
#716 = PLANE('',#717);
#717 = AXIS2_PLACEMENT_3D('',#718,#719,#720);
#718 = CARTESIAN_POINT('',(30.,0.,0.));
#719 = DIRECTION('',(1.,0.,-0.));
#720 = DIRECTION('',(0.,0.,1.));
#721 = ADVANCED_FACE('',(#722),#725,.F.);
#722 = FACE_BOUND('',#723,.F.);
#723 = EDGE_LOOP('',(#724));
#724 = ORIENTED_EDGE('',*,*,#505,.T.);
#725 = PLANE('',#726);
#726 = AXIS2_PLACEMENT_3D('',#727,#728,#729);
#727 = CARTESIAN_POINT('',(24.,5.,3.5));
#728 = DIRECTION('',(0.,1.,0.));
#729 = DIRECTION('',(0.,-0.,1.));
#730 = ADVANCED_FACE('',(#731),#734,.F.);
#731 = FACE_BOUND('',#732,.F.);
#732 = EDGE_LOOP('',(#733));
#733 = ORIENTED_EDGE('',*,*,#530,.T.);
#734 = PLANE('',#735);
#735 = AXIS2_PLACEMENT_3D('',#736,#737,#738);
#736 = CARTESIAN_POINT('',(24.,5.,7.5));
#737 = DIRECTION('',(0.,1.,0.));
#738 = DIRECTION('',(0.,-0.,1.));
#739 = ADVANCED_FACE('',(#740),#743,.F.);
#740 = FACE_BOUND('',#741,.F.);
#741 = EDGE_LOOP('',(#742));
#742 = ORIENTED_EDGE('',*,*,#555,.T.);
#743 = PLANE('',#744);
#744 = AXIS2_PLACEMENT_3D('',#745,#746,#747);
#745 = CARTESIAN_POINT('',(24.,5.,11.5));
#746 = DIRECTION('',(0.,1.,0.));
#747 = DIRECTION('',(0.,-0.,1.));
#748 = ADVANCED_FACE('',(#749),#754,.T.);
#749 = FACE_BOUND('',#750,.T.);
#750 = EDGE_LOOP('',(#751,#752,#753));
#751 = ORIENTED_EDGE('',*,*,#603,.F.);
#752 = ORIENTED_EDGE('',*,*,#574,.T.);
#753 = ORIENTED_EDGE('',*,*,#677,.F.);
#754 = PLANE('',#755);
#755 = AXIS2_PLACEMENT_3D('',#756,#757,#758);
#756 = CARTESIAN_POINT('',(29.6,7.1,2.425227532044E-16));
#757 = DIRECTION('',(0.57735026919,0.57735026919,-0.57735026919));
#758 = DIRECTION('',(-0.707106781187,0.707106781187,1.215608094293E-15)
  );
#759 = ADVANCED_FACE('',(#760),#765,.T.);
#760 = FACE_BOUND('',#761,.T.);
#761 = EDGE_LOOP('',(#762,#763,#764));
#762 = ORIENTED_EDGE('',*,*,#670,.F.);
#763 = ORIENTED_EDGE('',*,*,#620,.T.);
#764 = ORIENTED_EDGE('',*,*,#649,.F.);
#765 = PLANE('',#766);
#766 = AXIS2_PLACEMENT_3D('',#767,#768,#769);
#767 = CARTESIAN_POINT('',(29.6,7.5,14.6));
#768 = DIRECTION('',(0.57735026919,0.57735026919,0.57735026919));
#769 = DIRECTION('',(-0.707106781187,1.590096652338E-15,0.707106781187)
  );
#770 = ( GEOMETRIC_REPRESENTATION_CONTEXT(3) 
GLOBAL_UNCERTAINTY_ASSIGNED_CONTEXT((#774)) GLOBAL_UNIT_ASSIGNED_CONTEXT
((#771,#772,#773)) REPRESENTATION_CONTEXT('Context #1',
  '3D Context with UNIT and UNCERTAINTY') );
#771 = ( LENGTH_UNIT() NAMED_UNIT(*) SI_UNIT(.MILLI.,.METRE.) );
#772 = ( NAMED_UNIT(*) PLANE_ANGLE_UNIT() SI_UNIT($,.RADIAN.) );
#773 = ( NAMED_UNIT(*) SI_UNIT($,.STERADIAN.) SOLID_ANGLE_UNIT() );
#774 = UNCERTAINTY_MEASURE_WITH_UNIT(LENGTH_MEASURE(1.E-07),#771,
  'distance_accuracy_value','confusion accuracy');
#775 = CONTEXT_DEPENDENT_SHAPE_REPRESENTATION(#776,#778);
#776 = ( REPRESENTATION_RELATIONSHIP('','',#40,#10) 
REPRESENTATION_RELATIONSHIP_WITH_TRANSFORMATION(#777) 
SHAPE_REPRESENTATION_RELATIONSHIP() );
#777 = ITEM_DEFINED_TRANSFORMATION('','',#11,#15);
#778 = PRODUCT_DEFINITION_SHAPE('Placement','Placement of an item',#779
  );
#779 = NEXT_ASSEMBLY_USAGE_OCCURRENCE('5','housing','',#5,#35,$);
#780 = PRODUCT_RELATED_PRODUCT_CATEGORY('part',$,(#37));
#781 = SHAPE_DEFINITION_REPRESENTATION(#782,#788);
#782 = PRODUCT_DEFINITION_SHAPE('','',#783);
#783 = PRODUCT_DEFINITION('design','',#784,#787);
#784 = PRODUCT_DEFINITION_FORMATION('','',#785);
#785 = PRODUCT('actuator','actuator','',(#786));
#786 = PRODUCT_CONTEXT('',#2,'mechanical');
#787 = PRODUCT_DEFINITION_CONTEXT('part definition',#2,'design');
#788 = ADVANCED_BREP_SHAPE_REPRESENTATION('',(#11,#789),#1227);
#789 = MANIFOLD_SOLID_BREP('',#790);
#790 = CLOSED_SHELL('',(#791,#831,#894,#918,#942,#973,#997,#1021,#1045,
    #1069,#1086,#1102,#1118,#1149,#1166,#1183,#1199,#1215));
#791 = ADVANCED_FACE('',(#792),#826,.F.);
#792 = FACE_BOUND('',#793,.F.);
#793 = EDGE_LOOP('',(#794,#804,#812,#820));
#794 = ORIENTED_EDGE('',*,*,#795,.T.);
#795 = EDGE_CURVE('',#796,#798,#800,.T.);
#796 = VERTEX_POINT('',#797);
#797 = CARTESIAN_POINT('',(5.,1.4,14.));
#798 = VERTEX_POINT('',#799);
#799 = CARTESIAN_POINT('',(5.,6.1,14.));
#800 = LINE('',#801,#802);
#801 = CARTESIAN_POINT('',(5.,1.,14.));
#802 = VECTOR('',#803,1.);
#803 = DIRECTION('',(-0.,1.,0.));
#804 = ORIENTED_EDGE('',*,*,#805,.T.);
#805 = EDGE_CURVE('',#798,#806,#808,.T.);
#806 = VERTEX_POINT('',#807);
#807 = CARTESIAN_POINT('',(5.,6.1,17.1));
#808 = LINE('',#809,#810);
#809 = CARTESIAN_POINT('',(5.,6.1,14.));
#810 = VECTOR('',#811,1.);
#811 = DIRECTION('',(0.,0.,1.));
#812 = ORIENTED_EDGE('',*,*,#813,.F.);
#813 = EDGE_CURVE('',#814,#806,#816,.T.);
#814 = VERTEX_POINT('',#815);
#815 = CARTESIAN_POINT('',(5.,1.4,17.1));
#816 = LINE('',#817,#818);
#817 = CARTESIAN_POINT('',(5.,1.,17.1));
#818 = VECTOR('',#819,1.);
#819 = DIRECTION('',(-0.,1.,0.));
#820 = ORIENTED_EDGE('',*,*,#821,.F.);
#821 = EDGE_CURVE('',#796,#814,#822,.T.);
#822 = LINE('',#823,#824);
#823 = CARTESIAN_POINT('',(5.,1.4,14.));
#824 = VECTOR('',#825,1.);
#825 = DIRECTION('',(0.,0.,1.));
#826 = PLANE('',#827);
#827 = AXIS2_PLACEMENT_3D('',#828,#829,#830);
#828 = CARTESIAN_POINT('',(5.,1.,14.));
#829 = DIRECTION('',(1.,0.,-0.));
#830 = DIRECTION('',(0.,0.,1.));
#831 = ADVANCED_FACE('',(#832),#889,.F.);
#832 = FACE_BOUND('',#833,.F.);
#833 = EDGE_LOOP('',(#834,#835,#843,#851,#859,#867,#875,#883));
#834 = ORIENTED_EDGE('',*,*,#795,.F.);
#835 = ORIENTED_EDGE('',*,*,#836,.T.);
#836 = EDGE_CURVE('',#796,#837,#839,.T.);
#837 = VERTEX_POINT('',#838);
#838 = CARTESIAN_POINT('',(5.4,1.,14.));
#839 = LINE('',#840,#841);
#840 = CARTESIAN_POINT('',(5.2,1.2,14.));
#841 = VECTOR('',#842,1.);
#842 = DIRECTION('',(0.707106781187,-0.707106781187,0.));
#843 = ORIENTED_EDGE('',*,*,#844,.T.);
#844 = EDGE_CURVE('',#837,#845,#847,.T.);
#845 = VERTEX_POINT('',#846);
#846 = CARTESIAN_POINT('',(14.6,1.,14.));
#847 = LINE('',#848,#849);
#848 = CARTESIAN_POINT('',(5.,1.,14.));
#849 = VECTOR('',#850,1.);
#850 = DIRECTION('',(1.,0.,-0.));
#851 = ORIENTED_EDGE('',*,*,#852,.F.);
#852 = EDGE_CURVE('',#853,#845,#855,.T.);
#853 = VERTEX_POINT('',#854);
#854 = CARTESIAN_POINT('',(15.,1.4,14.));
#855 = LINE('',#856,#857);
#856 = CARTESIAN_POINT('',(12.3,-1.3,14.));
#857 = VECTOR('',#858,1.);
#858 = DIRECTION('',(-0.707106781187,-0.707106781187,0.));
#859 = ORIENTED_EDGE('',*,*,#860,.T.);
#860 = EDGE_CURVE('',#853,#861,#863,.T.);
#861 = VERTEX_POINT('',#862);
#862 = CARTESIAN_POINT('',(15.,6.1,14.));
#863 = LINE('',#864,#865);
#864 = CARTESIAN_POINT('',(15.,1.,14.));
#865 = VECTOR('',#866,1.);
#866 = DIRECTION('',(-0.,1.,0.));
#867 = ORIENTED_EDGE('',*,*,#868,.T.);
#868 = EDGE_CURVE('',#861,#869,#871,.T.);
#869 = VERTEX_POINT('',#870);
#870 = CARTESIAN_POINT('',(14.6,6.5,14.));
#871 = LINE('',#872,#873);
#872 = CARTESIAN_POINT('',(13.675,7.425,14.));
#873 = VECTOR('',#874,1.);
#874 = DIRECTION('',(-0.707106781187,0.707106781187,0.));
#875 = ORIENTED_EDGE('',*,*,#876,.F.);
#876 = EDGE_CURVE('',#877,#869,#879,.T.);
#877 = VERTEX_POINT('',#878);
#878 = CARTESIAN_POINT('',(5.4,6.5,14.));
#879 = LINE('',#880,#881);
#880 = CARTESIAN_POINT('',(5.,6.5,14.));
#881 = VECTOR('',#882,1.);
#882 = DIRECTION('',(1.,0.,-0.));
#883 = ORIENTED_EDGE('',*,*,#884,.F.);
#884 = EDGE_CURVE('',#798,#877,#885,.T.);
#885 = LINE('',#886,#887);
#886 = CARTESIAN_POINT('',(3.825,4.925,14.));
#887 = VECTOR('',#888,1.);
#888 = DIRECTION('',(0.707106781187,0.707106781187,-0.));
#889 = PLANE('',#890);
#890 = AXIS2_PLACEMENT_3D('',#891,#892,#893);
#891 = CARTESIAN_POINT('',(5.,1.,14.));
#892 = DIRECTION('',(0.,0.,1.));
#893 = DIRECTION('',(1.,0.,-0.));
#894 = ADVANCED_FACE('',(#895),#913,.T.);
#895 = FACE_BOUND('',#896,.F.);
#896 = EDGE_LOOP('',(#897,#898,#899,#907));
#897 = ORIENTED_EDGE('',*,*,#836,.F.);
#898 = ORIENTED_EDGE('',*,*,#821,.T.);
#899 = ORIENTED_EDGE('',*,*,#900,.T.);
#900 = EDGE_CURVE('',#814,#901,#903,.T.);
#901 = VERTEX_POINT('',#902);
#902 = CARTESIAN_POINT('',(5.4,1.,17.1));
#903 = LINE('',#904,#905);
#904 = CARTESIAN_POINT('',(5.2,1.2,17.1));
#905 = VECTOR('',#906,1.);
#906 = DIRECTION('',(0.707106781187,-0.707106781187,-1.71664636873E-16)
  );
#907 = ORIENTED_EDGE('',*,*,#908,.F.);
#908 = EDGE_CURVE('',#837,#901,#909,.T.);
#909 = LINE('',#910,#911);
#910 = CARTESIAN_POINT('',(5.4,1.,14.));
#911 = VECTOR('',#912,1.);
#912 = DIRECTION('',(0.,0.,1.));
#913 = PLANE('',#914);
#914 = AXIS2_PLACEMENT_3D('',#915,#916,#917);
#915 = CARTESIAN_POINT('',(5.2,1.2,14.));
#916 = DIRECTION('',(-0.707106781187,-0.707106781187,-6.290406791861E-19
    ));
#917 = DIRECTION('',(4.447989298947E-19,4.447989298947E-19,-1.));
#918 = ADVANCED_FACE('',(#919),#937,.F.);
#919 = FACE_BOUND('',#920,.T.);
#920 = EDGE_LOOP('',(#921,#922,#923,#931));
#921 = ORIENTED_EDGE('',*,*,#884,.F.);
#922 = ORIENTED_EDGE('',*,*,#805,.T.);
#923 = ORIENTED_EDGE('',*,*,#924,.F.);
#924 = EDGE_CURVE('',#925,#806,#927,.T.);
#925 = VERTEX_POINT('',#926);
#926 = CARTESIAN_POINT('',(5.4,6.5,17.1));
#927 = LINE('',#928,#929);
#928 = CARTESIAN_POINT('',(5.3,6.4,17.1));
#929 = VECTOR('',#930,1.);
#930 = DIRECTION('',(-0.707106781187,-0.707106781187,3.107564208399E-15)
  );
#931 = ORIENTED_EDGE('',*,*,#932,.F.);
#932 = EDGE_CURVE('',#877,#925,#933,.T.);
#933 = LINE('',#934,#935);
#934 = CARTESIAN_POINT('',(5.4,6.5,14.));
#935 = VECTOR('',#936,1.);
#936 = DIRECTION('',(0.,0.,1.));
#937 = PLANE('',#938);
#938 = AXIS2_PLACEMENT_3D('',#939,#940,#941);
#939 = CARTESIAN_POINT('',(5.2,6.3,14.));
#940 = DIRECTION('',(0.707106781187,-0.707106781187,4.874006453264E-19)
  );
#941 = DIRECTION('',(3.44644301465E-19,-3.44644301465E-19,-1.));
#942 = ADVANCED_FACE('',(#943),#968,.F.);
#943 = FACE_BOUND('',#944,.F.);
#944 = EDGE_LOOP('',(#945,#953,#954,#962));
#945 = ORIENTED_EDGE('',*,*,#946,.T.);
#946 = EDGE_CURVE('',#947,#814,#949,.T.);
#947 = VERTEX_POINT('',#948);
#948 = CARTESIAN_POINT('',(5.4,1.4,17.5));
#949 = LINE('',#950,#951);
#950 = CARTESIAN_POINT('',(5.3,1.4,17.4));
#951 = VECTOR('',#952,1.);
#952 = DIRECTION('',(-0.707106781187,-3.349962049093E-16,-0.707106781187
    ));
#953 = ORIENTED_EDGE('',*,*,#813,.T.);
#954 = ORIENTED_EDGE('',*,*,#955,.T.);
#955 = EDGE_CURVE('',#806,#956,#958,.T.);
#956 = VERTEX_POINT('',#957);
#957 = CARTESIAN_POINT('',(5.4,6.1,17.5));
#958 = LINE('',#959,#960);
#959 = CARTESIAN_POINT('',(5.2,6.1,17.3));
#960 = VECTOR('',#961,1.);
#961 = DIRECTION('',(0.707106781187,-3.176784036439E-15,0.707106781187)
  );
#962 = ORIENTED_EDGE('',*,*,#963,.F.);
#963 = EDGE_CURVE('',#947,#956,#964,.T.);
#964 = LINE('',#965,#966);
#965 = CARTESIAN_POINT('',(5.4,1.,17.5));
#966 = VECTOR('',#967,1.);
#967 = DIRECTION('',(-0.,1.,0.));
#968 = PLANE('',#969);
#969 = AXIS2_PLACEMENT_3D('',#970,#971,#972);
#970 = CARTESIAN_POINT('',(5.2,1.,17.3));
#971 = DIRECTION('',(0.707106781187,-2.049090107045E-19,-0.707106781187)
  );
#972 = DIRECTION('',(1.448925509954E-19,1.,-1.448925509954E-19));
#973 = ADVANCED_FACE('',(#974),#992,.F.);
#974 = FACE_BOUND('',#975,.F.);
#975 = EDGE_LOOP('',(#976,#977,#978,#986));
#976 = ORIENTED_EDGE('',*,*,#844,.F.);
#977 = ORIENTED_EDGE('',*,*,#908,.T.);
#978 = ORIENTED_EDGE('',*,*,#979,.T.);
#979 = EDGE_CURVE('',#901,#980,#982,.T.);
#980 = VERTEX_POINT('',#981);
#981 = CARTESIAN_POINT('',(14.6,1.,17.1));
#982 = LINE('',#983,#984);
#983 = CARTESIAN_POINT('',(5.,1.,17.1));
#984 = VECTOR('',#985,1.);
#985 = DIRECTION('',(1.,0.,-0.));
#986 = ORIENTED_EDGE('',*,*,#987,.F.);
#987 = EDGE_CURVE('',#845,#980,#988,.T.);
#988 = LINE('',#989,#990);
#989 = CARTESIAN_POINT('',(14.6,1.,14.));
#990 = VECTOR('',#991,1.);
#991 = DIRECTION('',(0.,0.,1.));
#992 = PLANE('',#993);
#993 = AXIS2_PLACEMENT_3D('',#994,#995,#996);
#994 = CARTESIAN_POINT('',(5.,1.,14.));
#995 = DIRECTION('',(-0.,1.,0.));
#996 = DIRECTION('',(0.,0.,1.));
#997 = ADVANCED_FACE('',(#998),#1016,.T.);
#998 = FACE_BOUND('',#999,.T.);
#999 = EDGE_LOOP('',(#1000,#1001,#1002,#1010));
#1000 = ORIENTED_EDGE('',*,*,#876,.F.);
#1001 = ORIENTED_EDGE('',*,*,#932,.T.);
#1002 = ORIENTED_EDGE('',*,*,#1003,.T.);
#1003 = EDGE_CURVE('',#925,#1004,#1006,.T.);
#1004 = VERTEX_POINT('',#1005);
#1005 = CARTESIAN_POINT('',(14.6,6.5,17.1));
#1006 = LINE('',#1007,#1008);
#1007 = CARTESIAN_POINT('',(5.,6.5,17.1));
#1008 = VECTOR('',#1009,1.);
#1009 = DIRECTION('',(1.,0.,-0.));
#1010 = ORIENTED_EDGE('',*,*,#1011,.F.);
#1011 = EDGE_CURVE('',#869,#1004,#1012,.T.);
#1012 = LINE('',#1013,#1014);
#1013 = CARTESIAN_POINT('',(14.6,6.5,14.));
#1014 = VECTOR('',#1015,1.);
#1015 = DIRECTION('',(0.,0.,1.));
#1016 = PLANE('',#1017);
#1017 = AXIS2_PLACEMENT_3D('',#1018,#1019,#1020);
#1018 = CARTESIAN_POINT('',(5.,6.5,14.));
#1019 = DIRECTION('',(-0.,1.,0.));
#1020 = DIRECTION('',(0.,0.,1.));
#1021 = ADVANCED_FACE('',(#1022),#1040,.F.);
#1022 = FACE_BOUND('',#1023,.T.);
#1023 = EDGE_LOOP('',(#1024,#1025,#1033,#1039));
#1024 = ORIENTED_EDGE('',*,*,#852,.F.);
#1025 = ORIENTED_EDGE('',*,*,#1026,.T.);
#1026 = EDGE_CURVE('',#853,#1027,#1029,.T.);
#1027 = VERTEX_POINT('',#1028);
#1028 = CARTESIAN_POINT('',(15.,1.4,17.1));
#1029 = LINE('',#1030,#1031);
#1030 = CARTESIAN_POINT('',(15.,1.4,14.));
#1031 = VECTOR('',#1032,1.);
#1032 = DIRECTION('',(0.,0.,1.));
#1033 = ORIENTED_EDGE('',*,*,#1034,.T.);
#1034 = EDGE_CURVE('',#1027,#980,#1035,.T.);
#1035 = LINE('',#1036,#1037);
#1036 = CARTESIAN_POINT('',(14.8,1.2,17.1));
#1037 = VECTOR('',#1038,1.);
#1038 = DIRECTION('',(-0.707106781187,-0.707106781187,4.135219909914E-18
    ));
#1039 = ORIENTED_EDGE('',*,*,#987,.F.);
#1040 = PLANE('',#1041);
#1041 = AXIS2_PLACEMENT_3D('',#1042,#1043,#1044);
#1042 = CARTESIAN_POINT('',(14.8,1.2,14.));
#1043 = DIRECTION('',(-0.707106781187,0.707106781187,6.290406791861E-19)
  );
#1044 = DIRECTION('',(-4.447989298947E-19,4.447989298947E-19,-1.));
#1045 = ADVANCED_FACE('',(#1046),#1064,.T.);
#1046 = FACE_BOUND('',#1047,.F.);
#1047 = EDGE_LOOP('',(#1048,#1049,#1057,#1063));
#1048 = ORIENTED_EDGE('',*,*,#868,.F.);
#1049 = ORIENTED_EDGE('',*,*,#1050,.T.);
#1050 = EDGE_CURVE('',#861,#1051,#1053,.T.);
#1051 = VERTEX_POINT('',#1052);
#1052 = CARTESIAN_POINT('',(15.,6.1,17.1));
#1053 = LINE('',#1054,#1055);
#1054 = CARTESIAN_POINT('',(15.,6.1,14.));
#1055 = VECTOR('',#1056,1.);
#1056 = DIRECTION('',(0.,0.,1.));
#1057 = ORIENTED_EDGE('',*,*,#1058,.F.);
#1058 = EDGE_CURVE('',#1004,#1051,#1059,.T.);
#1059 = LINE('',#1060,#1061);
#1060 = CARTESIAN_POINT('',(14.7,6.4,17.1));
#1061 = VECTOR('',#1062,1.);
#1062 = DIRECTION('',(0.707106781187,-0.707106781187,-2.950106360923E-17
    ));
#1063 = ORIENTED_EDGE('',*,*,#1011,.F.);
#1064 = PLANE('',#1065);
#1065 = AXIS2_PLACEMENT_3D('',#1066,#1067,#1068);
#1066 = CARTESIAN_POINT('',(14.8,6.3,14.));
#1067 = DIRECTION('',(0.707106781187,0.707106781187,-4.874006453264E-19)
  );
#1068 = DIRECTION('',(-3.44644301465E-19,-3.44644301465E-19,-1.));
#1069 = ADVANCED_FACE('',(#1070),#1081,.T.);
#1070 = FACE_BOUND('',#1071,.T.);
#1071 = EDGE_LOOP('',(#1072,#1073,#1074,#1080));
#1072 = ORIENTED_EDGE('',*,*,#860,.T.);
#1073 = ORIENTED_EDGE('',*,*,#1050,.T.);
#1074 = ORIENTED_EDGE('',*,*,#1075,.F.);
#1075 = EDGE_CURVE('',#1027,#1051,#1076,.T.);
#1076 = LINE('',#1077,#1078);
#1077 = CARTESIAN_POINT('',(15.,1.,17.1));
#1078 = VECTOR('',#1079,1.);
#1079 = DIRECTION('',(-0.,1.,0.));
#1080 = ORIENTED_EDGE('',*,*,#1026,.F.);
#1081 = PLANE('',#1082);
#1082 = AXIS2_PLACEMENT_3D('',#1083,#1084,#1085);
#1083 = CARTESIAN_POINT('',(15.,1.,14.));
#1084 = DIRECTION('',(1.,0.,-0.));
#1085 = DIRECTION('',(0.,0.,1.));
#1086 = ADVANCED_FACE('',(#1087),#1097,.F.);
#1087 = FACE_BOUND('',#1088,.F.);
#1088 = EDGE_LOOP('',(#1089,#1090,#1096));
#1089 = ORIENTED_EDGE('',*,*,#946,.F.);
#1090 = ORIENTED_EDGE('',*,*,#1091,.T.);
#1091 = EDGE_CURVE('',#947,#901,#1092,.T.);
#1092 = LINE('',#1093,#1094);
#1093 = CARTESIAN_POINT('',(5.4,1.3,17.4));
#1094 = VECTOR('',#1095,1.);
#1095 = DIRECTION('',(-1.113740218091E-16,-0.707106781187,
    -0.707106781187));
#1096 = ORIENTED_EDGE('',*,*,#900,.F.);
#1097 = PLANE('',#1098);
#1098 = AXIS2_PLACEMENT_3D('',#1099,#1100,#1101);
#1099 = CARTESIAN_POINT('',(5.4,1.4,17.5));
#1100 = DIRECTION('',(0.57735026919,0.57735026919,-0.57735026919));
#1101 = DIRECTION('',(0.707106781187,-0.707106781187,1.004784851552E-17)
  );
#1102 = ADVANCED_FACE('',(#1103),#1113,.F.);
#1103 = FACE_BOUND('',#1104,.F.);
#1104 = EDGE_LOOP('',(#1105,#1106,#1112));
#1105 = ORIENTED_EDGE('',*,*,#924,.F.);
#1106 = ORIENTED_EDGE('',*,*,#1107,.T.);
#1107 = EDGE_CURVE('',#925,#956,#1108,.T.);
#1108 = LINE('',#1109,#1110);
#1109 = CARTESIAN_POINT('',(5.4,6.4,17.2));
#1110 = VECTOR('',#1111,1.);
#1111 = DIRECTION('',(6.554342427779E-17,-0.707106781187,0.707106781187)
  );
#1112 = ORIENTED_EDGE('',*,*,#955,.F.);
#1113 = PLANE('',#1114);
#1114 = AXIS2_PLACEMENT_3D('',#1115,#1116,#1117);
#1115 = CARTESIAN_POINT('',(5.4,6.5,17.1));
#1116 = DIRECTION('',(0.57735026919,-0.57735026919,-0.57735026919));
#1117 = DIRECTION('',(0.707106781187,-3.152716125091E-15,0.707106781187)
  );
#1118 = ADVANCED_FACE('',(#1119),#1144,.T.);
#1119 = FACE_BOUND('',#1120,.T.);
#1120 = EDGE_LOOP('',(#1121,#1122,#1130,#1138));
#1121 = ORIENTED_EDGE('',*,*,#963,.F.);
#1122 = ORIENTED_EDGE('',*,*,#1123,.T.);
#1123 = EDGE_CURVE('',#947,#1124,#1126,.T.);
#1124 = VERTEX_POINT('',#1125);
#1125 = CARTESIAN_POINT('',(14.6,1.4,17.5));
#1126 = LINE('',#1127,#1128);
#1127 = CARTESIAN_POINT('',(5.,1.4,17.5));
#1128 = VECTOR('',#1129,1.);
#1129 = DIRECTION('',(1.,0.,-0.));
#1130 = ORIENTED_EDGE('',*,*,#1131,.T.);
#1131 = EDGE_CURVE('',#1124,#1132,#1134,.T.);
#1132 = VERTEX_POINT('',#1133);
#1133 = CARTESIAN_POINT('',(14.6,6.1,17.5));
#1134 = LINE('',#1135,#1136);
#1135 = CARTESIAN_POINT('',(14.6,1.,17.5));
#1136 = VECTOR('',#1137,1.);
#1137 = DIRECTION('',(-0.,1.,0.));
#1138 = ORIENTED_EDGE('',*,*,#1139,.F.);
#1139 = EDGE_CURVE('',#956,#1132,#1140,.T.);
#1140 = LINE('',#1141,#1142);
#1141 = CARTESIAN_POINT('',(5.,6.1,17.5));
#1142 = VECTOR('',#1143,1.);
#1143 = DIRECTION('',(1.,0.,-0.));
#1144 = PLANE('',#1145);
#1145 = AXIS2_PLACEMENT_3D('',#1146,#1147,#1148);
#1146 = CARTESIAN_POINT('',(5.,1.,17.5));
#1147 = DIRECTION('',(0.,0.,1.));
#1148 = DIRECTION('',(1.,0.,-0.));
#1149 = ADVANCED_FACE('',(#1150),#1161,.F.);
#1150 = FACE_BOUND('',#1151,.T.);
#1151 = EDGE_LOOP('',(#1152,#1153,#1154,#1160));
#1152 = ORIENTED_EDGE('',*,*,#1091,.T.);
#1153 = ORIENTED_EDGE('',*,*,#979,.T.);
#1154 = ORIENTED_EDGE('',*,*,#1155,.F.);
#1155 = EDGE_CURVE('',#1124,#980,#1156,.T.);
#1156 = LINE('',#1157,#1158);
#1157 = CARTESIAN_POINT('',(14.6,1.3,17.4));
#1158 = VECTOR('',#1159,1.);
#1159 = DIRECTION('',(8.077404114198E-16,-0.707106781187,-0.707106781187
    ));
#1160 = ORIENTED_EDGE('',*,*,#1123,.F.);
#1161 = PLANE('',#1162);
#1162 = AXIS2_PLACEMENT_3D('',#1163,#1164,#1165);
#1163 = CARTESIAN_POINT('',(5.,1.2,17.3));
#1164 = DIRECTION('',(-1.617203781834E-18,0.707106781187,-0.707106781187
    ));
#1165 = DIRECTION('',(-1.,-1.143535760696E-18,1.143535760696E-18));
#1166 = ADVANCED_FACE('',(#1167),#1178,.T.);
#1167 = FACE_BOUND('',#1168,.F.);
#1168 = EDGE_LOOP('',(#1169,#1170,#1171,#1177));
#1169 = ORIENTED_EDGE('',*,*,#1107,.F.);
#1170 = ORIENTED_EDGE('',*,*,#1003,.T.);
#1171 = ORIENTED_EDGE('',*,*,#1172,.T.);
#1172 = EDGE_CURVE('',#1004,#1132,#1173,.T.);
#1173 = LINE('',#1174,#1175);
#1174 = CARTESIAN_POINT('',(14.6,6.4,17.2));
#1175 = VECTOR('',#1176,1.);
#1176 = DIRECTION('',(-3.132620348157E-15,-0.707106781187,0.707106781187
    ));
#1177 = ORIENTED_EDGE('',*,*,#1139,.F.);
#1178 = PLANE('',#1179);
#1179 = AXIS2_PLACEMENT_3D('',#1180,#1181,#1182);
#1180 = CARTESIAN_POINT('',(5.,6.3,17.3));
#1181 = DIRECTION('',(-1.28049161384E-18,0.707106781187,0.707106781187)
  );
#1182 = DIRECTION('',(-1.,-9.054443033987E-19,-9.054443033987E-19));
#1183 = ADVANCED_FACE('',(#1184),#1194,.T.);
#1184 = FACE_BOUND('',#1185,.T.);
#1185 = EDGE_LOOP('',(#1186,#1192,#1193));
#1186 = ORIENTED_EDGE('',*,*,#1187,.F.);
#1187 = EDGE_CURVE('',#1124,#1027,#1188,.T.);
#1188 = LINE('',#1189,#1190);
#1189 = CARTESIAN_POINT('',(14.7,1.4,17.4));
#1190 = VECTOR('',#1191,1.);
#1191 = DIRECTION('',(0.707106781187,-8.55562737737E-16,-0.707106781187)
  );
#1192 = ORIENTED_EDGE('',*,*,#1155,.T.);
#1193 = ORIENTED_EDGE('',*,*,#1034,.F.);
#1194 = PLANE('',#1195);
#1195 = AXIS2_PLACEMENT_3D('',#1196,#1197,#1198);
#1196 = CARTESIAN_POINT('',(14.6,1.4,17.5));
#1197 = DIRECTION('',(0.57735026919,-0.57735026919,0.57735026919));
#1198 = DIRECTION('',(-0.707106781187,-0.707106781187,9.653968910522E-18
    ));
#1199 = ADVANCED_FACE('',(#1200),#1210,.T.);
#1200 = FACE_BOUND('',#1201,.T.);
#1201 = EDGE_LOOP('',(#1202,#1203,#1204));
#1202 = ORIENTED_EDGE('',*,*,#1058,.F.);
#1203 = ORIENTED_EDGE('',*,*,#1172,.T.);
#1204 = ORIENTED_EDGE('',*,*,#1205,.F.);
#1205 = EDGE_CURVE('',#1051,#1132,#1206,.T.);
#1206 = LINE('',#1207,#1208);
#1207 = CARTESIAN_POINT('',(14.8,6.1,17.3));
#1208 = VECTOR('',#1209,1.);
#1209 = DIRECTION('',(-0.707106781187,-3.186447410774E-15,0.707106781187
    ));
#1210 = PLANE('',#1211);
#1211 = AXIS2_PLACEMENT_3D('',#1212,#1213,#1214);
#1212 = CARTESIAN_POINT('',(14.6,6.5,17.1));
#1213 = DIRECTION('',(0.57735026919,0.57735026919,0.57735026919));
#1214 = DIRECTION('',(-0.707106781187,-3.18123609727E-15,0.707106781187)
  );
#1215 = ADVANCED_FACE('',(#1216),#1222,.T.);
#1216 = FACE_BOUND('',#1217,.T.);
#1217 = EDGE_LOOP('',(#1218,#1219,#1220,#1221));
#1218 = ORIENTED_EDGE('',*,*,#1187,.T.);
#1219 = ORIENTED_EDGE('',*,*,#1075,.T.);
#1220 = ORIENTED_EDGE('',*,*,#1205,.T.);
#1221 = ORIENTED_EDGE('',*,*,#1131,.F.);
#1222 = PLANE('',#1223);
#1223 = AXIS2_PLACEMENT_3D('',#1224,#1225,#1226);
#1224 = CARTESIAN_POINT('',(14.8,1.,17.3));
#1225 = DIRECTION('',(0.707106781187,2.049090107045E-19,0.707106781187)
  );
#1226 = DIRECTION('',(-1.448925509954E-19,1.,-1.448925509954E-19));
#1227 = ( GEOMETRIC_REPRESENTATION_CONTEXT(3) 
GLOBAL_UNCERTAINTY_ASSIGNED_CONTEXT((#1231)) 
GLOBAL_UNIT_ASSIGNED_CONTEXT((#1228,#1229,#1230)) REPRESENTATION_CONTEXT
('Context #1','3D Context with UNIT and UNCERTAINTY') );
#1228 = ( LENGTH_UNIT() NAMED_UNIT(*) SI_UNIT(.MILLI.,.METRE.) );
#1229 = ( NAMED_UNIT(*) PLANE_ANGLE_UNIT() SI_UNIT($,.RADIAN.) );
#1230 = ( NAMED_UNIT(*) SI_UNIT($,.STERADIAN.) SOLID_ANGLE_UNIT() );
#1231 = UNCERTAINTY_MEASURE_WITH_UNIT(LENGTH_MEASURE(1.E-07),#1228,
  'distance_accuracy_value','confusion accuracy');
#1232 = CONTEXT_DEPENDENT_SHAPE_REPRESENTATION(#1233,#1235);
#1233 = ( REPRESENTATION_RELATIONSHIP('','',#788,#10) 
REPRESENTATION_RELATIONSHIP_WITH_TRANSFORMATION(#1234) 
SHAPE_REPRESENTATION_RELATIONSHIP() );
#1234 = ITEM_DEFINED_TRANSFORMATION('','',#11,#19);
#1235 = PRODUCT_DEFINITION_SHAPE('Placement','Placement of an item',
  #1236);
#1236 = NEXT_ASSEMBLY_USAGE_OCCURRENCE('6','actuator','',#5,#783,$);
#1237 = PRODUCT_RELATED_PRODUCT_CATEGORY('part',$,(#785));
#1238 = SHAPE_DEFINITION_REPRESENTATION(#1239,#1245);
#1239 = PRODUCT_DEFINITION_SHAPE('','',#1240);
#1240 = PRODUCT_DEFINITION('design','',#1241,#1244);
#1241 = PRODUCT_DEFINITION_FORMATION('','',#1242);
#1242 = PRODUCT('mounting_tabs','mounting_tabs','',(#1243));
#1243 = PRODUCT_CONTEXT('',#2,'mechanical');
#1244 = PRODUCT_DEFINITION_CONTEXT('part definition',#2,'design');
#1245 = SHAPE_REPRESENTATION('',(#11,#1246,#1396),#1546);
#1246 = MANIFOLD_SOLID_BREP('',#1247);
#1247 = CLOSED_SHELL('',(#1248,#1288,#1328,#1350,#1372,#1384));
#1248 = ADVANCED_FACE('',(#1249),#1283,.F.);
#1249 = FACE_BOUND('',#1250,.F.);
#1250 = EDGE_LOOP('',(#1251,#1261,#1269,#1277));
#1251 = ORIENTED_EDGE('',*,*,#1252,.F.);
#1252 = EDGE_CURVE('',#1253,#1255,#1257,.T.);
#1253 = VERTEX_POINT('',#1254);
#1254 = CARTESIAN_POINT('',(-3.,1.75,2.));
#1255 = VERTEX_POINT('',#1256);
#1256 = CARTESIAN_POINT('',(-3.,1.75,5.));
#1257 = LINE('',#1258,#1259);
#1258 = CARTESIAN_POINT('',(-3.,1.75,2.));
#1259 = VECTOR('',#1260,1.);
#1260 = DIRECTION('',(0.,0.,1.));
#1261 = ORIENTED_EDGE('',*,*,#1262,.T.);
#1262 = EDGE_CURVE('',#1253,#1263,#1265,.T.);
#1263 = VERTEX_POINT('',#1264);
#1264 = CARTESIAN_POINT('',(-3.,5.75,2.));
#1265 = LINE('',#1266,#1267);
#1266 = CARTESIAN_POINT('',(-3.,1.75,2.));
#1267 = VECTOR('',#1268,1.);
#1268 = DIRECTION('',(-0.,1.,0.));
#1269 = ORIENTED_EDGE('',*,*,#1270,.T.);
#1270 = EDGE_CURVE('',#1263,#1271,#1273,.T.);
#1271 = VERTEX_POINT('',#1272);
#1272 = CARTESIAN_POINT('',(-3.,5.75,5.));
#1273 = LINE('',#1274,#1275);
#1274 = CARTESIAN_POINT('',(-3.,5.75,2.));
#1275 = VECTOR('',#1276,1.);
#1276 = DIRECTION('',(0.,0.,1.));
#1277 = ORIENTED_EDGE('',*,*,#1278,.F.);
#1278 = EDGE_CURVE('',#1255,#1271,#1279,.T.);
#1279 = LINE('',#1280,#1281);
#1280 = CARTESIAN_POINT('',(-3.,1.75,5.));
#1281 = VECTOR('',#1282,1.);
#1282 = DIRECTION('',(-0.,1.,0.));
#1283 = PLANE('',#1284);
#1284 = AXIS2_PLACEMENT_3D('',#1285,#1286,#1287);
#1285 = CARTESIAN_POINT('',(-3.,1.75,2.));
#1286 = DIRECTION('',(1.,0.,-0.));
#1287 = DIRECTION('',(0.,0.,1.));
#1288 = ADVANCED_FACE('',(#1289),#1323,.T.);
#1289 = FACE_BOUND('',#1290,.T.);
#1290 = EDGE_LOOP('',(#1291,#1301,#1309,#1317));
#1291 = ORIENTED_EDGE('',*,*,#1292,.F.);
#1292 = EDGE_CURVE('',#1293,#1295,#1297,.T.);
#1293 = VERTEX_POINT('',#1294);
#1294 = CARTESIAN_POINT('',(0.,1.75,2.));
#1295 = VERTEX_POINT('',#1296);
#1296 = CARTESIAN_POINT('',(0.,1.75,5.));
#1297 = LINE('',#1298,#1299);
#1298 = CARTESIAN_POINT('',(0.,1.75,2.));
#1299 = VECTOR('',#1300,1.);
#1300 = DIRECTION('',(0.,0.,1.));
#1301 = ORIENTED_EDGE('',*,*,#1302,.T.);
#1302 = EDGE_CURVE('',#1293,#1303,#1305,.T.);
#1303 = VERTEX_POINT('',#1304);
#1304 = CARTESIAN_POINT('',(0.,5.75,2.));
#1305 = LINE('',#1306,#1307);
#1306 = CARTESIAN_POINT('',(0.,1.75,2.));
#1307 = VECTOR('',#1308,1.);
#1308 = DIRECTION('',(-0.,1.,0.));
#1309 = ORIENTED_EDGE('',*,*,#1310,.T.);
#1310 = EDGE_CURVE('',#1303,#1311,#1313,.T.);
#1311 = VERTEX_POINT('',#1312);
#1312 = CARTESIAN_POINT('',(0.,5.75,5.));
#1313 = LINE('',#1314,#1315);
#1314 = CARTESIAN_POINT('',(0.,5.75,2.));
#1315 = VECTOR('',#1316,1.);
#1316 = DIRECTION('',(0.,0.,1.));
#1317 = ORIENTED_EDGE('',*,*,#1318,.F.);
#1318 = EDGE_CURVE('',#1295,#1311,#1319,.T.);
#1319 = LINE('',#1320,#1321);
#1320 = CARTESIAN_POINT('',(0.,1.75,5.));
#1321 = VECTOR('',#1322,1.);
#1322 = DIRECTION('',(-0.,1.,0.));
#1323 = PLANE('',#1324);
#1324 = AXIS2_PLACEMENT_3D('',#1325,#1326,#1327);
#1325 = CARTESIAN_POINT('',(0.,1.75,2.));
#1326 = DIRECTION('',(1.,0.,-0.));
#1327 = DIRECTION('',(0.,0.,1.));
#1328 = ADVANCED_FACE('',(#1329),#1345,.F.);
#1329 = FACE_BOUND('',#1330,.F.);
#1330 = EDGE_LOOP('',(#1331,#1337,#1338,#1344));
#1331 = ORIENTED_EDGE('',*,*,#1332,.F.);
#1332 = EDGE_CURVE('',#1253,#1293,#1333,.T.);
#1333 = LINE('',#1334,#1335);
#1334 = CARTESIAN_POINT('',(-3.,1.75,2.));
#1335 = VECTOR('',#1336,1.);
#1336 = DIRECTION('',(1.,0.,-0.));
#1337 = ORIENTED_EDGE('',*,*,#1252,.T.);
#1338 = ORIENTED_EDGE('',*,*,#1339,.T.);
#1339 = EDGE_CURVE('',#1255,#1295,#1340,.T.);
#1340 = LINE('',#1341,#1342);
#1341 = CARTESIAN_POINT('',(-3.,1.75,5.));
#1342 = VECTOR('',#1343,1.);
#1343 = DIRECTION('',(1.,0.,-0.));
#1344 = ORIENTED_EDGE('',*,*,#1292,.F.);
#1345 = PLANE('',#1346);
#1346 = AXIS2_PLACEMENT_3D('',#1347,#1348,#1349);
#1347 = CARTESIAN_POINT('',(-3.,1.75,2.));
#1348 = DIRECTION('',(-0.,1.,0.));
#1349 = DIRECTION('',(0.,0.,1.));
#1350 = ADVANCED_FACE('',(#1351),#1367,.T.);
#1351 = FACE_BOUND('',#1352,.T.);
#1352 = EDGE_LOOP('',(#1353,#1359,#1360,#1366));
#1353 = ORIENTED_EDGE('',*,*,#1354,.F.);
#1354 = EDGE_CURVE('',#1263,#1303,#1355,.T.);
#1355 = LINE('',#1356,#1357);
#1356 = CARTESIAN_POINT('',(-3.,5.75,2.));
#1357 = VECTOR('',#1358,1.);
#1358 = DIRECTION('',(1.,0.,-0.));
#1359 = ORIENTED_EDGE('',*,*,#1270,.T.);
#1360 = ORIENTED_EDGE('',*,*,#1361,.T.);
#1361 = EDGE_CURVE('',#1271,#1311,#1362,.T.);
#1362 = LINE('',#1363,#1364);
#1363 = CARTESIAN_POINT('',(-3.,5.75,5.));
#1364 = VECTOR('',#1365,1.);
#1365 = DIRECTION('',(1.,0.,-0.));
#1366 = ORIENTED_EDGE('',*,*,#1310,.F.);
#1367 = PLANE('',#1368);
#1368 = AXIS2_PLACEMENT_3D('',#1369,#1370,#1371);
#1369 = CARTESIAN_POINT('',(-3.,5.75,2.));
#1370 = DIRECTION('',(-0.,1.,0.));
#1371 = DIRECTION('',(0.,0.,1.));
#1372 = ADVANCED_FACE('',(#1373),#1379,.F.);
#1373 = FACE_BOUND('',#1374,.F.);
#1374 = EDGE_LOOP('',(#1375,#1376,#1377,#1378));
#1375 = ORIENTED_EDGE('',*,*,#1262,.F.);
#1376 = ORIENTED_EDGE('',*,*,#1332,.T.);
#1377 = ORIENTED_EDGE('',*,*,#1302,.T.);
#1378 = ORIENTED_EDGE('',*,*,#1354,.F.);
#1379 = PLANE('',#1380);
#1380 = AXIS2_PLACEMENT_3D('',#1381,#1382,#1383);
#1381 = CARTESIAN_POINT('',(-3.,1.75,2.));
#1382 = DIRECTION('',(0.,0.,1.));
#1383 = DIRECTION('',(1.,0.,-0.));
#1384 = ADVANCED_FACE('',(#1385),#1391,.T.);
#1385 = FACE_BOUND('',#1386,.T.);
#1386 = EDGE_LOOP('',(#1387,#1388,#1389,#1390));
#1387 = ORIENTED_EDGE('',*,*,#1278,.F.);
#1388 = ORIENTED_EDGE('',*,*,#1339,.T.);
#1389 = ORIENTED_EDGE('',*,*,#1318,.T.);
#1390 = ORIENTED_EDGE('',*,*,#1361,.F.);
#1391 = PLANE('',#1392);
#1392 = AXIS2_PLACEMENT_3D('',#1393,#1394,#1395);
#1393 = CARTESIAN_POINT('',(-3.,1.75,5.));
#1394 = DIRECTION('',(0.,0.,1.));
#1395 = DIRECTION('',(1.,0.,-0.));
#1396 = MANIFOLD_SOLID_BREP('',#1397);
#1397 = CLOSED_SHELL('',(#1398,#1438,#1478,#1500,#1522,#1534));
#1398 = ADVANCED_FACE('',(#1399),#1433,.F.);
#1399 = FACE_BOUND('',#1400,.F.);
#1400 = EDGE_LOOP('',(#1401,#1411,#1419,#1427));
#1401 = ORIENTED_EDGE('',*,*,#1402,.F.);
#1402 = EDGE_CURVE('',#1403,#1405,#1407,.T.);
#1403 = VERTEX_POINT('',#1404);
#1404 = CARTESIAN_POINT('',(30.,1.75,10.));
#1405 = VERTEX_POINT('',#1406);
#1406 = CARTESIAN_POINT('',(30.,1.75,13.));
#1407 = LINE('',#1408,#1409);
#1408 = CARTESIAN_POINT('',(30.,1.75,10.));
#1409 = VECTOR('',#1410,1.);
#1410 = DIRECTION('',(0.,0.,1.));
#1411 = ORIENTED_EDGE('',*,*,#1412,.T.);
#1412 = EDGE_CURVE('',#1403,#1413,#1415,.T.);
#1413 = VERTEX_POINT('',#1414);
#1414 = CARTESIAN_POINT('',(30.,5.75,10.));
#1415 = LINE('',#1416,#1417);
#1416 = CARTESIAN_POINT('',(30.,1.75,10.));
#1417 = VECTOR('',#1418,1.);
#1418 = DIRECTION('',(-0.,1.,0.));
#1419 = ORIENTED_EDGE('',*,*,#1420,.T.);
#1420 = EDGE_CURVE('',#1413,#1421,#1423,.T.);
#1421 = VERTEX_POINT('',#1422);
#1422 = CARTESIAN_POINT('',(30.,5.75,13.));
#1423 = LINE('',#1424,#1425);
#1424 = CARTESIAN_POINT('',(30.,5.75,10.));
#1425 = VECTOR('',#1426,1.);
#1426 = DIRECTION('',(0.,0.,1.));
#1427 = ORIENTED_EDGE('',*,*,#1428,.F.);
#1428 = EDGE_CURVE('',#1405,#1421,#1429,.T.);
#1429 = LINE('',#1430,#1431);
#1430 = CARTESIAN_POINT('',(30.,1.75,13.));
#1431 = VECTOR('',#1432,1.);
#1432 = DIRECTION('',(-0.,1.,0.));
#1433 = PLANE('',#1434);
#1434 = AXIS2_PLACEMENT_3D('',#1435,#1436,#1437);
#1435 = CARTESIAN_POINT('',(30.,1.75,10.));
#1436 = DIRECTION('',(1.,0.,-0.));
#1437 = DIRECTION('',(0.,0.,1.));
#1438 = ADVANCED_FACE('',(#1439),#1473,.T.);
#1439 = FACE_BOUND('',#1440,.T.);
#1440 = EDGE_LOOP('',(#1441,#1451,#1459,#1467));
#1441 = ORIENTED_EDGE('',*,*,#1442,.F.);
#1442 = EDGE_CURVE('',#1443,#1445,#1447,.T.);
#1443 = VERTEX_POINT('',#1444);
#1444 = CARTESIAN_POINT('',(33.,1.75,10.));
#1445 = VERTEX_POINT('',#1446);
#1446 = CARTESIAN_POINT('',(33.,1.75,13.));
#1447 = LINE('',#1448,#1449);
#1448 = CARTESIAN_POINT('',(33.,1.75,10.));
#1449 = VECTOR('',#1450,1.);
#1450 = DIRECTION('',(0.,0.,1.));
#1451 = ORIENTED_EDGE('',*,*,#1452,.T.);
#1452 = EDGE_CURVE('',#1443,#1453,#1455,.T.);
#1453 = VERTEX_POINT('',#1454);
#1454 = CARTESIAN_POINT('',(33.,5.75,10.));
#1455 = LINE('',#1456,#1457);
#1456 = CARTESIAN_POINT('',(33.,1.75,10.));
#1457 = VECTOR('',#1458,1.);
#1458 = DIRECTION('',(-0.,1.,0.));
#1459 = ORIENTED_EDGE('',*,*,#1460,.T.);
#1460 = EDGE_CURVE('',#1453,#1461,#1463,.T.);
#1461 = VERTEX_POINT('',#1462);
#1462 = CARTESIAN_POINT('',(33.,5.75,13.));
#1463 = LINE('',#1464,#1465);
#1464 = CARTESIAN_POINT('',(33.,5.75,10.));
#1465 = VECTOR('',#1466,1.);
#1466 = DIRECTION('',(0.,0.,1.));
#1467 = ORIENTED_EDGE('',*,*,#1468,.F.);
#1468 = EDGE_CURVE('',#1445,#1461,#1469,.T.);
#1469 = LINE('',#1470,#1471);
#1470 = CARTESIAN_POINT('',(33.,1.75,13.));
#1471 = VECTOR('',#1472,1.);
#1472 = DIRECTION('',(-0.,1.,0.));
#1473 = PLANE('',#1474);
#1474 = AXIS2_PLACEMENT_3D('',#1475,#1476,#1477);
#1475 = CARTESIAN_POINT('',(33.,1.75,10.));
#1476 = DIRECTION('',(1.,0.,-0.));
#1477 = DIRECTION('',(0.,0.,1.));
#1478 = ADVANCED_FACE('',(#1479),#1495,.F.);
#1479 = FACE_BOUND('',#1480,.F.);
#1480 = EDGE_LOOP('',(#1481,#1487,#1488,#1494));
#1481 = ORIENTED_EDGE('',*,*,#1482,.F.);
#1482 = EDGE_CURVE('',#1403,#1443,#1483,.T.);
#1483 = LINE('',#1484,#1485);
#1484 = CARTESIAN_POINT('',(30.,1.75,10.));
#1485 = VECTOR('',#1486,1.);
#1486 = DIRECTION('',(1.,0.,-0.));
#1487 = ORIENTED_EDGE('',*,*,#1402,.T.);
#1488 = ORIENTED_EDGE('',*,*,#1489,.T.);
#1489 = EDGE_CURVE('',#1405,#1445,#1490,.T.);
#1490 = LINE('',#1491,#1492);
#1491 = CARTESIAN_POINT('',(30.,1.75,13.));
#1492 = VECTOR('',#1493,1.);
#1493 = DIRECTION('',(1.,0.,-0.));
#1494 = ORIENTED_EDGE('',*,*,#1442,.F.);
#1495 = PLANE('',#1496);
#1496 = AXIS2_PLACEMENT_3D('',#1497,#1498,#1499);
#1497 = CARTESIAN_POINT('',(30.,1.75,10.));
#1498 = DIRECTION('',(-0.,1.,0.));
#1499 = DIRECTION('',(0.,0.,1.));
#1500 = ADVANCED_FACE('',(#1501),#1517,.T.);
#1501 = FACE_BOUND('',#1502,.T.);
#1502 = EDGE_LOOP('',(#1503,#1509,#1510,#1516));
#1503 = ORIENTED_EDGE('',*,*,#1504,.F.);
#1504 = EDGE_CURVE('',#1413,#1453,#1505,.T.);
#1505 = LINE('',#1506,#1507);
#1506 = CARTESIAN_POINT('',(30.,5.75,10.));
#1507 = VECTOR('',#1508,1.);
#1508 = DIRECTION('',(1.,0.,-0.));
#1509 = ORIENTED_EDGE('',*,*,#1420,.T.);
#1510 = ORIENTED_EDGE('',*,*,#1511,.T.);
#1511 = EDGE_CURVE('',#1421,#1461,#1512,.T.);
#1512 = LINE('',#1513,#1514);
#1513 = CARTESIAN_POINT('',(30.,5.75,13.));
#1514 = VECTOR('',#1515,1.);
#1515 = DIRECTION('',(1.,0.,-0.));
#1516 = ORIENTED_EDGE('',*,*,#1460,.F.);
#1517 = PLANE('',#1518);
#1518 = AXIS2_PLACEMENT_3D('',#1519,#1520,#1521);
#1519 = CARTESIAN_POINT('',(30.,5.75,10.));
#1520 = DIRECTION('',(-0.,1.,0.));
#1521 = DIRECTION('',(0.,0.,1.));
#1522 = ADVANCED_FACE('',(#1523),#1529,.F.);
#1523 = FACE_BOUND('',#1524,.F.);
#1524 = EDGE_LOOP('',(#1525,#1526,#1527,#1528));
#1525 = ORIENTED_EDGE('',*,*,#1412,.F.);
#1526 = ORIENTED_EDGE('',*,*,#1482,.T.);
#1527 = ORIENTED_EDGE('',*,*,#1452,.T.);
#1528 = ORIENTED_EDGE('',*,*,#1504,.F.);
#1529 = PLANE('',#1530);
#1530 = AXIS2_PLACEMENT_3D('',#1531,#1532,#1533);
#1531 = CARTESIAN_POINT('',(30.,1.75,10.));
#1532 = DIRECTION('',(0.,0.,1.));
#1533 = DIRECTION('',(1.,0.,-0.));
#1534 = ADVANCED_FACE('',(#1535),#1541,.T.);
#1535 = FACE_BOUND('',#1536,.T.);
#1536 = EDGE_LOOP('',(#1537,#1538,#1539,#1540));
#1537 = ORIENTED_EDGE('',*,*,#1428,.F.);
#1538 = ORIENTED_EDGE('',*,*,#1489,.T.);
#1539 = ORIENTED_EDGE('',*,*,#1468,.T.);
#1540 = ORIENTED_EDGE('',*,*,#1511,.F.);
#1541 = PLANE('',#1542);
#1542 = AXIS2_PLACEMENT_3D('',#1543,#1544,#1545);
#1543 = CARTESIAN_POINT('',(30.,1.75,13.));
#1544 = DIRECTION('',(0.,0.,1.));
#1545 = DIRECTION('',(1.,0.,-0.));
#1546 = ( GEOMETRIC_REPRESENTATION_CONTEXT(3) 
GLOBAL_UNCERTAINTY_ASSIGNED_CONTEXT((#1550)) 
GLOBAL_UNIT_ASSIGNED_CONTEXT((#1547,#1548,#1549)) REPRESENTATION_CONTEXT
('Context #1','3D Context with UNIT and UNCERTAINTY') );
#1547 = ( LENGTH_UNIT() NAMED_UNIT(*) SI_UNIT(.MILLI.,.METRE.) );
#1548 = ( NAMED_UNIT(*) PLANE_ANGLE_UNIT() SI_UNIT($,.RADIAN.) );
#1549 = ( NAMED_UNIT(*) SI_UNIT($,.STERADIAN.) SOLID_ANGLE_UNIT() );
#1550 = UNCERTAINTY_MEASURE_WITH_UNIT(LENGTH_MEASURE(1.E-07),#1547,
  'distance_accuracy_value','confusion accuracy');
#1551 = CONTEXT_DEPENDENT_SHAPE_REPRESENTATION(#1552,#1554);
#1552 = ( REPRESENTATION_RELATIONSHIP('','',#1245,#10) 
REPRESENTATION_RELATIONSHIP_WITH_TRANSFORMATION(#1553) 
SHAPE_REPRESENTATION_RELATIONSHIP() );
#1553 = ITEM_DEFINED_TRANSFORMATION('','',#11,#23);
#1554 = PRODUCT_DEFINITION_SHAPE('Placement','Placement of an item',
  #1555);
#1555 = NEXT_ASSEMBLY_USAGE_OCCURRENCE('7','mounting_tabs','',#5,#1240,$
  );
#1556 = PRODUCT_RELATED_PRODUCT_CATEGORY('part',$,(#1242));
ENDSEC;
END-ISO-10303-21;
