ISO-10303-21;
HEADER;
FILE_DESCRIPTION(('FreeCAD Model'),'2;1');
FILE_NAME('Open CASCADE Shape Model','2026-09-27T12:27:37',(''),(''),
  'Open CASCADE STEP processor 7.8','FreeCAD','Unknown');
FILE_SCHEMA(('AUTOMOTIVE_DESIGN { 1 0 10303 214 1 1 1 1 }'));
ENDSEC;
DATA;
#1 = APPLICATION_PROTOCOL_DEFINITION('international standard',
  'automotive_design',2000,#2);
#2 = APPLICATION_CONTEXT(
  'core data for automotive mechanical design processes');
#3 = SHAPE_DEFINITION_REPRESENTATION(#4,#10);
#4 = PRODUCT_DEFINITION_SHAPE('','',#5);
#5 = PRODUCT_DEFINITION('design','',#6,#9);
#6 = PRODUCT_DEFINITION_FORMATION('','',#7);
#7 = PRODUCT('ft_36134_phototransistor','ft_36134_phototransistor','',(
    #8));
#8 = PRODUCT_CONTEXT('',#2,'mechanical');
#9 = PRODUCT_DEFINITION_CONTEXT('part definition',#2,'design');
#10 = SHAPE_REPRESENTATION('',(#11,#15,#19,#23),#27);
#11 = AXIS2_PLACEMENT_3D('',#12,#13,#14);
#12 = CARTESIAN_POINT('',(0.,0.,0.));
#13 = DIRECTION('',(0.,0.,1.));
#14 = DIRECTION('',(1.,0.,-0.));
#15 = AXIS2_PLACEMENT_3D('',#16,#17,#18);
#16 = CARTESIAN_POINT('',(0.,0.,0.));
#17 = DIRECTION('',(0.,0.,1.));
#18 = DIRECTION('',(1.,0.,0.));
#19 = AXIS2_PLACEMENT_3D('',#20,#21,#22);
#20 = CARTESIAN_POINT('',(0.,0.,0.));
#21 = DIRECTION('',(0.,0.,1.));
#22 = DIRECTION('',(1.,0.,0.));
#23 = AXIS2_PLACEMENT_3D('',#24,#25,#26);
#24 = CARTESIAN_POINT('',(0.,0.,0.));
#25 = DIRECTION('',(0.,0.,1.));
#26 = DIRECTION('',(1.,0.,0.));
#27 = ( GEOMETRIC_REPRESENTATION_CONTEXT(3) 
GLOBAL_UNCERTAINTY_ASSIGNED_CONTEXT((#31)) GLOBAL_UNIT_ASSIGNED_CONTEXT(
(#28,#29,#30)) REPRESENTATION_CONTEXT('Context #1',
  '3D Context with UNIT and UNCERTAINTY') );
#28 = ( LENGTH_UNIT() NAMED_UNIT(*) SI_UNIT(.MILLI.,.METRE.) );
#29 = ( NAMED_UNIT(*) PLANE_ANGLE_UNIT() SI_UNIT($,.RADIAN.) );
#30 = ( NAMED_UNIT(*) SI_UNIT($,.STERADIAN.) SOLID_ANGLE_UNIT() );
#31 = UNCERTAINTY_MEASURE_WITH_UNIT(LENGTH_MEASURE(1.E-07),#28,
  'distance_accuracy_value','confusion accuracy');
#32 = PRODUCT_RELATED_PRODUCT_CATEGORY('part',$,(#7));
#33 = SHAPE_DEFINITION_REPRESENTATION(#34,#40);
#34 = PRODUCT_DEFINITION_SHAPE('','',#35);
#35 = PRODUCT_DEFINITION('design','',#36,#39);
#36 = PRODUCT_DEFINITION_FORMATION('','',#37);
#37 = PRODUCT('housing','housing','',(#38));
#38 = PRODUCT_CONTEXT('',#2,'mechanical');
#39 = PRODUCT_DEFINITION_CONTEXT('part definition',#2,'design');
#40 = ADVANCED_BREP_SHAPE_REPRESENTATION('',(#11,#41),#1009);
#41 = MANIFOLD_SOLID_BREP('',#42);
#42 = CLOSED_SHELL('',(#43,#83,#114,#145,#176,#207,#223,#239,#292,#323,
    #339,#438,#454,#485,#502,#519,#550,#575,#600,#617,#646,#663,#692,
    #723,#747,#771,#788,#819,#843,#867,#884,#911,#922,#933,#945,#954,
    #963,#974,#985,#997));
#43 = ADVANCED_FACE('',(#44),#78,.F.);
#44 = FACE_BOUND('',#45,.F.);
#45 = EDGE_LOOP('',(#46,#56,#64,#72));
#46 = ORIENTED_EDGE('',*,*,#47,.F.);
#47 = EDGE_CURVE('',#48,#50,#52,.T.);
#48 = VERTEX_POINT('',#49);
#49 = CARTESIAN_POINT('',(-2.775557561563E-17,0.4,0.4));
#50 = VERTEX_POINT('',#51);
#51 = CARTESIAN_POINT('',(-8.763940633859E-17,0.4,7.1));
#52 = LINE('',#53,#54);
#53 = CARTESIAN_POINT('',(0.,0.4,0.));
#54 = VECTOR('',#55,1.);
#55 = DIRECTION('',(0.,0.,1.));
#56 = ORIENTED_EDGE('',*,*,#57,.T.);
#57 = EDGE_CURVE('',#48,#58,#60,.T.);
#58 = VERTEX_POINT('',#59);
#59 = CARTESIAN_POINT('',(-4.163336342344E-16,14.6,0.4));
#60 = LINE('',#61,#62);
#61 = CARTESIAN_POINT('',(0.,0.,0.4));
#62 = VECTOR('',#63,1.);
#63 = DIRECTION('',(-0.,1.,0.));
#64 = ORIENTED_EDGE('',*,*,#65,.T.);
#65 = EDGE_CURVE('',#58,#66,#68,.T.);
#66 = VERTEX_POINT('',#67);
#67 = CARTESIAN_POINT('',(-4.549225352273E-16,14.6,7.1));
#68 = LINE('',#69,#70);
#69 = CARTESIAN_POINT('',(0.,14.6,0.));
#70 = VECTOR('',#71,1.);
#71 = DIRECTION('',(0.,0.,1.));
#72 = ORIENTED_EDGE('',*,*,#73,.F.);
#73 = EDGE_CURVE('',#50,#66,#74,.T.);
#74 = LINE('',#75,#76);
#75 = CARTESIAN_POINT('',(0.,0.,7.1));
#76 = VECTOR('',#77,1.);
#77 = DIRECTION('',(-0.,1.,0.));
#78 = PLANE('',#79);
#79 = AXIS2_PLACEMENT_3D('',#80,#81,#82);
#80 = CARTESIAN_POINT('',(0.,0.,0.));
#81 = DIRECTION('',(1.,0.,-0.));
#82 = DIRECTION('',(0.,0.,1.));
#83 = ADVANCED_FACE('',(#84),#109,.T.);
#84 = FACE_BOUND('',#85,.F.);
#85 = EDGE_LOOP('',(#86,#87,#95,#103));
#86 = ORIENTED_EDGE('',*,*,#47,.T.);
#87 = ORIENTED_EDGE('',*,*,#88,.T.);
#88 = EDGE_CURVE('',#50,#89,#91,.T.);
#89 = VERTEX_POINT('',#90);
#90 = CARTESIAN_POINT('',(0.4,-8.734617807102E-17,7.1));
#91 = LINE('',#92,#93);
#92 = CARTESIAN_POINT('',(0.2,0.2,7.1));
#93 = VECTOR('',#94,1.);
#94 = DIRECTION('',(0.707106781187,-0.707106781187,-5.872217097142E-18)
  );
#95 = ORIENTED_EDGE('',*,*,#96,.F.);
#96 = EDGE_CURVE('',#97,#89,#99,.T.);
#97 = VERTEX_POINT('',#98);
#98 = CARTESIAN_POINT('',(0.4,-2.775557561563E-17,0.4));
#99 = LINE('',#100,#101);
#100 = CARTESIAN_POINT('',(0.4,0.,0.));
#101 = VECTOR('',#102,1.);
#102 = DIRECTION('',(0.,0.,1.));
#103 = ORIENTED_EDGE('',*,*,#104,.F.);
#104 = EDGE_CURVE('',#48,#97,#105,.T.);
#105 = LINE('',#106,#107);
#106 = CARTESIAN_POINT('',(0.2,0.2,0.4));
#107 = VECTOR('',#108,1.);
#108 = DIRECTION('',(0.707106781187,-0.707106781187,5.872217097142E-18)
  );
#109 = PLANE('',#110);
#110 = AXIS2_PLACEMENT_3D('',#111,#112,#113);
#111 = CARTESIAN_POINT('',(0.2,0.2,0.));
#112 = DIRECTION('',(-0.707106781187,-0.707106781187,-1.679829943626E-18
    ));
#113 = DIRECTION('',(1.187819144378E-18,1.187819144378E-18,-1.));
#114 = ADVANCED_FACE('',(#115),#140,.T.);
#115 = FACE_BOUND('',#116,.T.);
#116 = EDGE_LOOP('',(#117,#125,#126,#134));
#117 = ORIENTED_EDGE('',*,*,#118,.T.);
#118 = EDGE_CURVE('',#119,#48,#121,.T.);
#119 = VERTEX_POINT('',#120);
#120 = CARTESIAN_POINT('',(0.4,0.4,-2.775557561563E-17));
#121 = LINE('',#122,#123);
#122 = CARTESIAN_POINT('',(0.3,0.4,1.E-01));
#123 = VECTOR('',#124,1.);
#124 = DIRECTION('',(-0.707106781187,5.872217097142E-18,0.707106781187)
  );
#125 = ORIENTED_EDGE('',*,*,#57,.T.);
#126 = ORIENTED_EDGE('',*,*,#127,.F.);
#127 = EDGE_CURVE('',#128,#58,#130,.T.);
#128 = VERTEX_POINT('',#129);
#129 = CARTESIAN_POINT('',(0.4,14.6,-4.163336342344E-16));
#130 = LINE('',#131,#132);
#131 = CARTESIAN_POINT('',(0.3,14.6,1.E-01));
#132 = VECTOR('',#133,1.);
#133 = DIRECTION('',(-0.707106781187,2.712060661372E-17,0.707106781187)
  );
#134 = ORIENTED_EDGE('',*,*,#135,.F.);
#135 = EDGE_CURVE('',#119,#128,#136,.T.);
#136 = LINE('',#137,#138);
#137 = CARTESIAN_POINT('',(0.4,0.,0.));
#138 = VECTOR('',#139,1.);
#139 = DIRECTION('',(-0.,1.,0.));
#140 = PLANE('',#141);
#141 = AXIS2_PLACEMENT_3D('',#142,#143,#144);
#142 = CARTESIAN_POINT('',(0.2,0.,0.2));
#143 = DIRECTION('',(-0.707106781187,-1.679829943626E-18,-0.707106781187
    ));
#144 = DIRECTION('',(-1.187819144378E-18,1.,-1.187819144378E-18));
#145 = ADVANCED_FACE('',(#146),#171,.F.);
#146 = FACE_BOUND('',#147,.F.);
#147 = EDGE_LOOP('',(#148,#156,#157,#165));
#148 = ORIENTED_EDGE('',*,*,#149,.T.);
#149 = EDGE_CURVE('',#150,#50,#152,.T.);
#150 = VERTEX_POINT('',#151);
#151 = CARTESIAN_POINT('',(0.4,0.4,7.5));
#152 = LINE('',#153,#154);
#153 = CARTESIAN_POINT('',(0.3,0.4,7.4));
#154 = VECTOR('',#155,1.);
#155 = DIRECTION('',(-0.707106781187,-6.305132613913E-16,-0.707106781187
    ));
#156 = ORIENTED_EDGE('',*,*,#73,.T.);
#157 = ORIENTED_EDGE('',*,*,#158,.T.);
#158 = EDGE_CURVE('',#66,#159,#161,.T.);
#159 = VERTEX_POINT('',#160);
#160 = CARTESIAN_POINT('',(0.4,14.6,7.5));
#161 = LINE('',#162,#163);
#162 = CARTESIAN_POINT('',(0.2,14.6,7.3));
#163 = VECTOR('',#164,1.);
#164 = DIRECTION('',(0.707106781187,1.899500717805E-15,0.707106781187));
#165 = ORIENTED_EDGE('',*,*,#166,.F.);
#166 = EDGE_CURVE('',#150,#159,#167,.T.);
#167 = LINE('',#168,#169);
#168 = CARTESIAN_POINT('',(0.4,0.,7.5));
#169 = VECTOR('',#170,1.);
#170 = DIRECTION('',(-0.,1.,0.));
#171 = PLANE('',#172);
#172 = AXIS2_PLACEMENT_3D('',#173,#174,#175);
#173 = CARTESIAN_POINT('',(0.2,0.,7.3));
#174 = DIRECTION('',(0.707106781187,1.102531706024E-18,-0.707106781187)
  );
#175 = DIRECTION('',(-7.79607645803E-19,1.,7.79607645803E-19));
#176 = ADVANCED_FACE('',(#177),#202,.F.);
#177 = FACE_BOUND('',#178,.T.);
#178 = EDGE_LOOP('',(#179,#180,#188,#196));
#179 = ORIENTED_EDGE('',*,*,#65,.T.);
#180 = ORIENTED_EDGE('',*,*,#181,.F.);
#181 = EDGE_CURVE('',#182,#66,#184,.T.);
#182 = VERTEX_POINT('',#183);
#183 = CARTESIAN_POINT('',(0.4,15.,7.1));
#184 = LINE('',#185,#186);
#185 = CARTESIAN_POINT('',(0.3,14.9,7.1));
#186 = VECTOR('',#187,1.);
#187 = DIRECTION('',(-0.707106781187,-0.707106781187,9.877586399213E-17)
  );
#188 = ORIENTED_EDGE('',*,*,#189,.F.);
#189 = EDGE_CURVE('',#190,#182,#192,.T.);
#190 = VERTEX_POINT('',#191);
#191 = CARTESIAN_POINT('',(0.4,15.,0.4));
#192 = LINE('',#193,#194);
#193 = CARTESIAN_POINT('',(0.4,15.,0.));
#194 = VECTOR('',#195,1.);
#195 = DIRECTION('',(0.,0.,1.));
#196 = ORIENTED_EDGE('',*,*,#197,.F.);
#197 = EDGE_CURVE('',#58,#190,#198,.T.);
#198 = LINE('',#199,#200);
#199 = CARTESIAN_POINT('',(0.2,14.8,0.4));
#200 = VECTOR('',#201,1.);
#201 = DIRECTION('',(0.707106781187,0.707106781187,-1.091997272256E-15)
  );
#202 = PLANE('',#203);
#203 = AXIS2_PLACEMENT_3D('',#204,#205,#206);
#204 = CARTESIAN_POINT('',(0.2,14.8,0.));
#205 = DIRECTION('',(0.707106781187,-0.707106781187,-3.480000426336E-18)
  );
#206 = DIRECTION('',(-2.460731899994E-18,2.460731899994E-18,-1.));
#207 = ADVANCED_FACE('',(#208),#218,.T.);
#208 = FACE_BOUND('',#209,.T.);
#209 = EDGE_LOOP('',(#210,#211,#217));
#210 = ORIENTED_EDGE('',*,*,#118,.F.);
#211 = ORIENTED_EDGE('',*,*,#212,.T.);
#212 = EDGE_CURVE('',#119,#97,#213,.T.);
#213 = LINE('',#214,#215);
#214 = CARTESIAN_POINT('',(0.4,0.3,1.E-01));
#215 = VECTOR('',#216,1.);
#216 = DIRECTION('',(-5.872217097142E-18,-0.707106781187,0.707106781187)
  );
#217 = ORIENTED_EDGE('',*,*,#104,.F.);
#218 = PLANE('',#219);
#219 = AXIS2_PLACEMENT_3D('',#220,#221,#222);
#220 = CARTESIAN_POINT('',(0.4,0.4,-2.775557561563E-17));
#221 = DIRECTION('',(-0.57735026919,-0.57735026919,-0.57735026919));
#222 = DIRECTION('',(0.707106781187,-0.707106781187,-1.269604464815E-17)
  );
#223 = ADVANCED_FACE('',(#224),#234,.F.);
#224 = FACE_BOUND('',#225,.F.);
#225 = EDGE_LOOP('',(#226,#227,#233));
#226 = ORIENTED_EDGE('',*,*,#149,.F.);
#227 = ORIENTED_EDGE('',*,*,#228,.T.);
#228 = EDGE_CURVE('',#150,#89,#229,.T.);
#229 = LINE('',#230,#231);
#230 = CARTESIAN_POINT('',(0.4,0.3,7.4));
#231 = VECTOR('',#232,1.);
#232 = DIRECTION('',(-7.086574936181E-16,-0.707106781187,-0.707106781187
    ));
#233 = ORIENTED_EDGE('',*,*,#88,.F.);
#234 = PLANE('',#235);
#235 = AXIS2_PLACEMENT_3D('',#236,#237,#238);
#236 = CARTESIAN_POINT('',(0.4,0.4,7.5));
#237 = DIRECTION('',(0.57735026919,0.57735026919,-0.57735026919));
#238 = DIRECTION('',(0.707106781187,-0.707106781187,1.269604464815E-17)
  );
#239 = ADVANCED_FACE('',(#240,#265,#276),#287,.F.);
#240 = FACE_BOUND('',#241,.F.);
#241 = EDGE_LOOP('',(#242,#243,#251,#259));
#242 = ORIENTED_EDGE('',*,*,#96,.T.);
#243 = ORIENTED_EDGE('',*,*,#244,.T.);
#244 = EDGE_CURVE('',#89,#245,#247,.T.);
#245 = VERTEX_POINT('',#246);
#246 = CARTESIAN_POINT('',(14.6,-4.608327415455E-16,7.1));
#247 = LINE('',#248,#249);
#248 = CARTESIAN_POINT('',(0.,0.,7.1));
#249 = VECTOR('',#250,1.);
#250 = DIRECTION('',(1.,0.,-0.));
#251 = ORIENTED_EDGE('',*,*,#252,.F.);
#252 = EDGE_CURVE('',#253,#245,#255,.T.);
#253 = VERTEX_POINT('',#254);
#254 = CARTESIAN_POINT('',(14.6,-4.163336342344E-16,0.4));
#255 = LINE('',#256,#257);
#256 = CARTESIAN_POINT('',(14.6,0.,0.));
#257 = VECTOR('',#258,1.);
#258 = DIRECTION('',(0.,0.,1.));
#259 = ORIENTED_EDGE('',*,*,#260,.F.);
#260 = EDGE_CURVE('',#97,#253,#261,.T.);
#261 = LINE('',#262,#263);
#262 = CARTESIAN_POINT('',(0.,0.,0.4));
#263 = VECTOR('',#264,1.);
#264 = DIRECTION('',(1.,0.,-0.));
#265 = FACE_BOUND('',#266,.F.);
#266 = EDGE_LOOP('',(#267));
#267 = ORIENTED_EDGE('',*,*,#268,.F.);
#268 = EDGE_CURVE('',#269,#269,#271,.T.);
#269 = VERTEX_POINT('',#270);
#270 = CARTESIAN_POINT('',(4.,0.,5.));
#271 = CIRCLE('',#272,1.25);
#272 = AXIS2_PLACEMENT_3D('',#273,#274,#275);
#273 = CARTESIAN_POINT('',(4.,0.,3.75));
#274 = DIRECTION('',(0.,1.,0.));
#275 = DIRECTION('',(0.,-0.,1.));
#276 = FACE_BOUND('',#277,.F.);
#277 = EDGE_LOOP('',(#278));
#278 = ORIENTED_EDGE('',*,*,#279,.F.);
#279 = EDGE_CURVE('',#280,#280,#282,.T.);
#280 = VERTEX_POINT('',#281);
#281 = CARTESIAN_POINT('',(11.,0.,5.));
#282 = CIRCLE('',#283,1.25);
#283 = AXIS2_PLACEMENT_3D('',#284,#285,#286);
#284 = CARTESIAN_POINT('',(11.,0.,3.75));
#285 = DIRECTION('',(0.,1.,0.));
#286 = DIRECTION('',(0.,-0.,1.));
#287 = PLANE('',#288);
#288 = AXIS2_PLACEMENT_3D('',#289,#290,#291);
#289 = CARTESIAN_POINT('',(0.,0.,0.));
#290 = DIRECTION('',(-0.,1.,0.));
#291 = DIRECTION('',(0.,0.,1.));
#292 = ADVANCED_FACE('',(#293),#318,.F.);
#293 = FACE_BOUND('',#294,.F.);
#294 = EDGE_LOOP('',(#295,#296,#304,#312));
#295 = ORIENTED_EDGE('',*,*,#135,.F.);
#296 = ORIENTED_EDGE('',*,*,#297,.T.);
#297 = EDGE_CURVE('',#119,#298,#300,.T.);
#298 = VERTEX_POINT('',#299);
#299 = CARTESIAN_POINT('',(14.6,0.4,-4.163336342344E-16));
#300 = LINE('',#301,#302);
#301 = CARTESIAN_POINT('',(0.,0.4,0.));
#302 = VECTOR('',#303,1.);
#303 = DIRECTION('',(1.,0.,-0.));
#304 = ORIENTED_EDGE('',*,*,#305,.T.);
#305 = EDGE_CURVE('',#298,#306,#308,.T.);
#306 = VERTEX_POINT('',#307);
#307 = CARTESIAN_POINT('',(14.6,14.6,-7.771561172376E-16));
#308 = LINE('',#309,#310);
#309 = CARTESIAN_POINT('',(14.6,0.,0.));
#310 = VECTOR('',#311,1.);
#311 = DIRECTION('',(-0.,1.,0.));
#312 = ORIENTED_EDGE('',*,*,#313,.F.);
#313 = EDGE_CURVE('',#128,#306,#314,.T.);
#314 = LINE('',#315,#316);
#315 = CARTESIAN_POINT('',(0.,14.6,0.));
#316 = VECTOR('',#317,1.);
#317 = DIRECTION('',(1.,0.,-0.));
#318 = PLANE('',#319);
#319 = AXIS2_PLACEMENT_3D('',#320,#321,#322);
#320 = CARTESIAN_POINT('',(0.,0.,0.));
#321 = DIRECTION('',(0.,0.,1.));
#322 = DIRECTION('',(1.,0.,-0.));
#323 = ADVANCED_FACE('',(#324),#334,.F.);
#324 = FACE_BOUND('',#325,.F.);
#325 = EDGE_LOOP('',(#326,#327,#333));
#326 = ORIENTED_EDGE('',*,*,#127,.F.);
#327 = ORIENTED_EDGE('',*,*,#328,.T.);
#328 = EDGE_CURVE('',#128,#190,#329,.T.);
#329 = LINE('',#330,#331);
#330 = CARTESIAN_POINT('',(0.4,14.7,1.E-01));
#331 = VECTOR('',#332,1.);
#332 = DIRECTION('',(-1.067160332643E-15,0.707106781187,0.707106781187)
  );
#333 = ORIENTED_EDGE('',*,*,#197,.F.);
#334 = PLANE('',#335);
#335 = AXIS2_PLACEMENT_3D('',#336,#337,#338);
#336 = CARTESIAN_POINT('',(0.4,14.6,-4.163336342344E-16));
#337 = DIRECTION('',(0.57735026919,-0.57735026919,0.57735026919));
#338 = DIRECTION('',(0.707106781187,0.707106781187,-9.073603475564E-16)
  );
#339 = ADVANCED_FACE('',(#340,#365,#399),#433,.T.);
#340 = FACE_BOUND('',#341,.T.);
#341 = EDGE_LOOP('',(#342,#343,#351,#359));
#342 = ORIENTED_EDGE('',*,*,#166,.F.);
#343 = ORIENTED_EDGE('',*,*,#344,.T.);
#344 = EDGE_CURVE('',#150,#345,#347,.T.);
#345 = VERTEX_POINT('',#346);
#346 = CARTESIAN_POINT('',(14.6,0.4,7.5));
#347 = LINE('',#348,#349);
#348 = CARTESIAN_POINT('',(0.,0.4,7.5));
#349 = VECTOR('',#350,1.);
#350 = DIRECTION('',(1.,0.,-0.));
#351 = ORIENTED_EDGE('',*,*,#352,.T.);
#352 = EDGE_CURVE('',#345,#353,#355,.T.);
#353 = VERTEX_POINT('',#354);
#354 = CARTESIAN_POINT('',(14.6,14.6,7.5));
#355 = LINE('',#356,#357);
#356 = CARTESIAN_POINT('',(14.6,0.,7.5));
#357 = VECTOR('',#358,1.);
#358 = DIRECTION('',(-0.,1.,0.));
#359 = ORIENTED_EDGE('',*,*,#360,.F.);
#360 = EDGE_CURVE('',#159,#353,#361,.T.);
#361 = LINE('',#362,#363);
#362 = CARTESIAN_POINT('',(0.,14.6,7.5));
#363 = VECTOR('',#364,1.);
#364 = DIRECTION('',(1.,0.,-0.));
#365 = FACE_BOUND('',#366,.T.);
#366 = EDGE_LOOP('',(#367,#377,#385,#393));
#367 = ORIENTED_EDGE('',*,*,#368,.T.);
#368 = EDGE_CURVE('',#369,#371,#373,.T.);
#369 = VERTEX_POINT('',#370);
#370 = CARTESIAN_POINT('',(12.,5.5,7.5));
#371 = VERTEX_POINT('',#372);
#372 = CARTESIAN_POINT('',(3.,5.5,7.5));
#373 = LINE('',#374,#375);
#374 = CARTESIAN_POINT('',(1.5,5.5,7.5));
#375 = VECTOR('',#376,1.);
#376 = DIRECTION('',(-1.,-0.,0.));
#377 = ORIENTED_EDGE('',*,*,#378,.T.);
#378 = EDGE_CURVE('',#371,#379,#381,.T.);
#379 = VERTEX_POINT('',#380);
#380 = CARTESIAN_POINT('',(3.,9.5,7.5));
#381 = LINE('',#382,#383);
#382 = CARTESIAN_POINT('',(3.,2.75,7.5));
#383 = VECTOR('',#384,1.);
#384 = DIRECTION('',(-0.,1.,0.));
#385 = ORIENTED_EDGE('',*,*,#386,.F.);
#386 = EDGE_CURVE('',#387,#379,#389,.T.);
#387 = VERTEX_POINT('',#388);
#388 = CARTESIAN_POINT('',(12.,9.5,7.5));
#389 = LINE('',#390,#391);
#390 = CARTESIAN_POINT('',(1.5,9.5,7.5));
#391 = VECTOR('',#392,1.);
#392 = DIRECTION('',(-1.,-0.,0.));
#393 = ORIENTED_EDGE('',*,*,#394,.F.);
#394 = EDGE_CURVE('',#369,#387,#395,.T.);
#395 = LINE('',#396,#397);
#396 = CARTESIAN_POINT('',(12.,2.75,7.5));
#397 = VECTOR('',#398,1.);
#398 = DIRECTION('',(-0.,1.,0.));
#399 = FACE_BOUND('',#400,.T.);
#400 = EDGE_LOOP('',(#401,#411,#419,#427));
#401 = ORIENTED_EDGE('',*,*,#402,.T.);
#402 = EDGE_CURVE('',#403,#405,#407,.T.);
#403 = VERTEX_POINT('',#404);
#404 = CARTESIAN_POINT('',(13.8,10.8,7.5));
#405 = VERTEX_POINT('',#406);
#406 = CARTESIAN_POINT('',(10.8,10.8,7.5));
#407 = LINE('',#408,#409);
#408 = CARTESIAN_POINT('',(5.4,10.8,7.5));
#409 = VECTOR('',#410,1.);
#410 = DIRECTION('',(-1.,-0.,0.));
#411 = ORIENTED_EDGE('',*,*,#412,.T.);
#412 = EDGE_CURVE('',#405,#413,#415,.T.);
#413 = VERTEX_POINT('',#414);
#414 = CARTESIAN_POINT('',(10.8,13.8,7.5));
#415 = LINE('',#416,#417);
#416 = CARTESIAN_POINT('',(10.8,5.4,7.5));
#417 = VECTOR('',#418,1.);
#418 = DIRECTION('',(-0.,1.,0.));
#419 = ORIENTED_EDGE('',*,*,#420,.F.);
#420 = EDGE_CURVE('',#421,#413,#423,.T.);
#421 = VERTEX_POINT('',#422);
#422 = CARTESIAN_POINT('',(13.8,13.8,7.5));
#423 = LINE('',#424,#425);
#424 = CARTESIAN_POINT('',(5.4,13.8,7.5));
#425 = VECTOR('',#426,1.);
#426 = DIRECTION('',(-1.,-0.,0.));
#427 = ORIENTED_EDGE('',*,*,#428,.F.);
#428 = EDGE_CURVE('',#403,#421,#429,.T.);
#429 = LINE('',#430,#431);
#430 = CARTESIAN_POINT('',(13.8,5.4,7.5));
#431 = VECTOR('',#432,1.);
#432 = DIRECTION('',(-0.,1.,0.));
#433 = PLANE('',#434);
#434 = AXIS2_PLACEMENT_3D('',#435,#436,#437);
#435 = CARTESIAN_POINT('',(0.,0.,7.5));
#436 = DIRECTION('',(0.,0.,1.));
#437 = DIRECTION('',(1.,0.,-0.));
#438 = ADVANCED_FACE('',(#439),#449,.F.);
#439 = FACE_BOUND('',#440,.F.);
#440 = EDGE_LOOP('',(#441,#442,#448));
#441 = ORIENTED_EDGE('',*,*,#181,.F.);
#442 = ORIENTED_EDGE('',*,*,#443,.T.);
#443 = EDGE_CURVE('',#182,#159,#444,.T.);
#444 = LINE('',#445,#446);
#445 = CARTESIAN_POINT('',(0.4,14.9,7.2));
#446 = VECTOR('',#447,1.);
#447 = DIRECTION('',(-2.066730539879E-15,-0.707106781187,0.707106781187)
  );
#448 = ORIENTED_EDGE('',*,*,#158,.F.);
#449 = PLANE('',#450);
#450 = AXIS2_PLACEMENT_3D('',#451,#452,#453);
#451 = CARTESIAN_POINT('',(0.4,15.,7.1));
#452 = DIRECTION('',(0.57735026919,-0.57735026919,-0.57735026919));
#453 = DIRECTION('',(0.707106781187,3.108397350011E-15,0.707106781187));
#454 = ADVANCED_FACE('',(#455),#480,.T.);
#455 = FACE_BOUND('',#456,.T.);
#456 = EDGE_LOOP('',(#457,#458,#466,#474));
#457 = ORIENTED_EDGE('',*,*,#189,.T.);
#458 = ORIENTED_EDGE('',*,*,#459,.T.);
#459 = EDGE_CURVE('',#182,#460,#462,.T.);
#460 = VERTEX_POINT('',#461);
#461 = CARTESIAN_POINT('',(14.6,15.,7.1));
#462 = LINE('',#463,#464);
#463 = CARTESIAN_POINT('',(0.,15.,7.1));
#464 = VECTOR('',#465,1.);
#465 = DIRECTION('',(1.,0.,-0.));
#466 = ORIENTED_EDGE('',*,*,#467,.F.);
#467 = EDGE_CURVE('',#468,#460,#470,.T.);
#468 = VERTEX_POINT('',#469);
#469 = CARTESIAN_POINT('',(14.6,15.,0.4));
#470 = LINE('',#471,#472);
#471 = CARTESIAN_POINT('',(14.6,15.,0.));
#472 = VECTOR('',#473,1.);
#473 = DIRECTION('',(0.,0.,1.));
#474 = ORIENTED_EDGE('',*,*,#475,.F.);
#475 = EDGE_CURVE('',#190,#468,#476,.T.);
#476 = LINE('',#477,#478);
#477 = CARTESIAN_POINT('',(0.,15.,0.4));
#478 = VECTOR('',#479,1.);
#479 = DIRECTION('',(1.,0.,-0.));
#480 = PLANE('',#481);
#481 = AXIS2_PLACEMENT_3D('',#482,#483,#484);
#482 = CARTESIAN_POINT('',(0.,15.,0.));
#483 = DIRECTION('',(-0.,1.,0.));
#484 = DIRECTION('',(0.,0.,1.));
#485 = ADVANCED_FACE('',(#486),#497,.T.);
#486 = FACE_BOUND('',#487,.F.);
#487 = EDGE_LOOP('',(#488,#489,#490,#496));
#488 = ORIENTED_EDGE('',*,*,#212,.T.);
#489 = ORIENTED_EDGE('',*,*,#260,.T.);
#490 = ORIENTED_EDGE('',*,*,#491,.F.);
#491 = EDGE_CURVE('',#298,#253,#492,.T.);
#492 = LINE('',#493,#494);
#493 = CARTESIAN_POINT('',(14.6,0.3,0.1));
#494 = VECTOR('',#495,1.);
#495 = DIRECTION('',(-2.712060661372E-17,-0.707106781187,0.707106781187)
  );
#496 = ORIENTED_EDGE('',*,*,#297,.F.);
#497 = PLANE('',#498);
#498 = AXIS2_PLACEMENT_3D('',#499,#500,#501);
#499 = CARTESIAN_POINT('',(0.,0.2,0.2));
#500 = DIRECTION('',(-1.679829943626E-18,-0.707106781187,-0.707106781187
    ));
#501 = DIRECTION('',(-1.,1.187819144378E-18,1.187819144378E-18));
#502 = ADVANCED_FACE('',(#503),#514,.F.);
#503 = FACE_BOUND('',#504,.T.);
#504 = EDGE_LOOP('',(#505,#506,#507,#513));
#505 = ORIENTED_EDGE('',*,*,#228,.T.);
#506 = ORIENTED_EDGE('',*,*,#244,.T.);
#507 = ORIENTED_EDGE('',*,*,#508,.F.);
#508 = EDGE_CURVE('',#345,#245,#509,.T.);
#509 = LINE('',#510,#511);
#510 = CARTESIAN_POINT('',(14.6,0.3,7.4));
#511 = VECTOR('',#512,1.);
#512 = DIRECTION('',(-1.940834069274E-15,-0.707106781187,-0.707106781187
    ));
#513 = ORIENTED_EDGE('',*,*,#344,.F.);
#514 = PLANE('',#515);
#515 = AXIS2_PLACEMENT_3D('',#516,#517,#518);
#516 = CARTESIAN_POINT('',(0.,0.2,7.3));
#517 = DIRECTION('',(-9.709052582848E-19,0.707106781187,-0.707106781187)
  );
#518 = DIRECTION('',(-1.,-6.865336920228E-19,6.865336920228E-19));
#519 = ADVANCED_FACE('',(#520),#545,.F.);
#520 = FACE_BOUND('',#521,.T.);
#521 = EDGE_LOOP('',(#522,#532,#538,#539));
#522 = ORIENTED_EDGE('',*,*,#523,.T.);
#523 = EDGE_CURVE('',#524,#526,#528,.T.);
#524 = VERTEX_POINT('',#525);
#525 = CARTESIAN_POINT('',(15.,0.4,0.4));
#526 = VERTEX_POINT('',#527);
#527 = CARTESIAN_POINT('',(15.,0.4,7.1));
#528 = LINE('',#529,#530);
#529 = CARTESIAN_POINT('',(15.,0.4,0.));
#530 = VECTOR('',#531,1.);
#531 = DIRECTION('',(0.,0.,1.));
#532 = ORIENTED_EDGE('',*,*,#533,.T.);
#533 = EDGE_CURVE('',#526,#245,#534,.T.);
#534 = LINE('',#535,#536);
#535 = CARTESIAN_POINT('',(14.8,0.2,7.1));
#536 = VECTOR('',#537,1.);
#537 = DIRECTION('',(-0.707106781187,-0.707106781187,1.196101028979E-16)
  );
#538 = ORIENTED_EDGE('',*,*,#252,.F.);
#539 = ORIENTED_EDGE('',*,*,#540,.F.);
#540 = EDGE_CURVE('',#524,#253,#541,.T.);
#541 = LINE('',#542,#543);
#542 = CARTESIAN_POINT('',(14.8,0.2,0.4));
#543 = VECTOR('',#544,1.);
#544 = DIRECTION('',(-0.707106781187,-0.707106781187,1.067160332643E-15)
  );
#545 = PLANE('',#546);
#546 = AXIS2_PLACEMENT_3D('',#547,#548,#549);
#547 = CARTESIAN_POINT('',(14.8,0.2,0.));
#548 = DIRECTION('',(-0.707106781187,0.707106781187,3.138135847237E-18)
  );
#549 = DIRECTION('',(-2.218997137866E-18,2.218997137866E-18,-1.));
#550 = ADVANCED_FACE('',(#551),#570,.F.);
#551 = FACE_BOUND('',#552,.F.);
#552 = EDGE_LOOP('',(#553,#561,#568,#569));
#553 = ORIENTED_EDGE('',*,*,#554,.T.);
#554 = EDGE_CURVE('',#269,#555,#557,.T.);
#555 = VERTEX_POINT('',#556);
#556 = CARTESIAN_POINT('',(4.,6.,5.));
#557 = LINE('',#558,#559);
#558 = CARTESIAN_POINT('',(4.,-1.E-02,5.));
#559 = VECTOR('',#560,1.);
#560 = DIRECTION('',(0.,1.,0.));
#561 = ORIENTED_EDGE('',*,*,#562,.F.);
#562 = EDGE_CURVE('',#555,#555,#563,.T.);
#563 = CIRCLE('',#564,1.25);
#564 = AXIS2_PLACEMENT_3D('',#565,#566,#567);
#565 = CARTESIAN_POINT('',(4.,6.,3.75));
#566 = DIRECTION('',(0.,1.,0.));
#567 = DIRECTION('',(0.,-0.,1.));
#568 = ORIENTED_EDGE('',*,*,#554,.F.);
#569 = ORIENTED_EDGE('',*,*,#268,.T.);
#570 = CYLINDRICAL_SURFACE('',#571,1.25);
#571 = AXIS2_PLACEMENT_3D('',#572,#573,#574);
#572 = CARTESIAN_POINT('',(4.,-1.E-02,3.75));
#573 = DIRECTION('',(0.,1.,0.));
#574 = DIRECTION('',(0.,-0.,1.));
#575 = ADVANCED_FACE('',(#576),#595,.F.);
#576 = FACE_BOUND('',#577,.F.);
#577 = EDGE_LOOP('',(#578,#586,#593,#594));
#578 = ORIENTED_EDGE('',*,*,#579,.T.);
#579 = EDGE_CURVE('',#280,#580,#582,.T.);
#580 = VERTEX_POINT('',#581);
#581 = CARTESIAN_POINT('',(11.,6.,5.));
#582 = LINE('',#583,#584);
#583 = CARTESIAN_POINT('',(11.,-1.E-02,5.));
#584 = VECTOR('',#585,1.);
#585 = DIRECTION('',(0.,1.,0.));
#586 = ORIENTED_EDGE('',*,*,#587,.F.);
#587 = EDGE_CURVE('',#580,#580,#588,.T.);
#588 = CIRCLE('',#589,1.25);
#589 = AXIS2_PLACEMENT_3D('',#590,#591,#592);
#590 = CARTESIAN_POINT('',(11.,6.,3.75));
#591 = DIRECTION('',(0.,1.,0.));
#592 = DIRECTION('',(0.,-0.,1.));
#593 = ORIENTED_EDGE('',*,*,#579,.F.);
#594 = ORIENTED_EDGE('',*,*,#279,.T.);
#595 = CYLINDRICAL_SURFACE('',#596,1.25);
#596 = AXIS2_PLACEMENT_3D('',#597,#598,#599);
#597 = CARTESIAN_POINT('',(11.,-1.E-02,3.75));
#598 = DIRECTION('',(0.,1.,0.));
#599 = DIRECTION('',(0.,-0.,1.));
#600 = ADVANCED_FACE('',(#601),#612,.F.);
#601 = FACE_BOUND('',#602,.T.);
#602 = EDGE_LOOP('',(#603,#604,#605,#611));
#603 = ORIENTED_EDGE('',*,*,#328,.T.);
#604 = ORIENTED_EDGE('',*,*,#475,.T.);
#605 = ORIENTED_EDGE('',*,*,#606,.F.);
#606 = EDGE_CURVE('',#306,#468,#607,.T.);
#607 = LINE('',#608,#609);
#608 = CARTESIAN_POINT('',(14.6,14.7,0.1));
#609 = VECTOR('',#610,1.);
#610 = DIRECTION('',(-5.042026401746E-16,0.707106781187,0.707106781187)
  );
#611 = ORIENTED_EDGE('',*,*,#313,.F.);
#612 = PLANE('',#613);
#613 = AXIS2_PLACEMENT_3D('',#614,#615,#616);
#614 = CARTESIAN_POINT('',(0.,14.8,0.2));
#615 = DIRECTION('',(2.068430171249E-18,-0.707106781187,0.707106781187)
  );
#616 = DIRECTION('',(-1.,-1.462601000501E-18,1.462601000501E-18));
#617 = ADVANCED_FACE('',(#618),#641,.F.);
#618 = FACE_BOUND('',#619,.F.);
#619 = EDGE_LOOP('',(#620,#626,#634,#640));
#620 = ORIENTED_EDGE('',*,*,#621,.T.);
#621 = EDGE_CURVE('',#298,#524,#622,.T.);
#622 = LINE('',#623,#624);
#623 = CARTESIAN_POINT('',(14.7,0.4,1.E-01));
#624 = VECTOR('',#625,1.);
#625 = DIRECTION('',(0.707106781187,-1.091997272256E-15,0.707106781187)
  );
#626 = ORIENTED_EDGE('',*,*,#627,.T.);
#627 = EDGE_CURVE('',#524,#628,#630,.T.);
#628 = VERTEX_POINT('',#629);
#629 = CARTESIAN_POINT('',(15.,14.6,0.4));
#630 = LINE('',#631,#632);
#631 = CARTESIAN_POINT('',(15.,0.,0.4));
#632 = VECTOR('',#633,1.);
#633 = DIRECTION('',(-0.,1.,0.));
#634 = ORIENTED_EDGE('',*,*,#635,.F.);
#635 = EDGE_CURVE('',#306,#628,#636,.T.);
#636 = LINE('',#637,#638);
#637 = CARTESIAN_POINT('',(14.7,14.6,9.999999999999E-02));
#638 = VECTOR('',#639,1.);
#639 = DIRECTION('',(0.707106781187,2.348756055927E-15,0.707106781187));
#640 = ORIENTED_EDGE('',*,*,#305,.F.);
#641 = PLANE('',#642);
#642 = AXIS2_PLACEMENT_3D('',#643,#644,#645);
#643 = CARTESIAN_POINT('',(14.8,0.,0.2));
#644 = DIRECTION('',(-0.707106781187,-3.480000426336E-18,0.707106781187)
  );
#645 = DIRECTION('',(-2.460731899994E-18,1.,2.460731899994E-18));
#646 = ADVANCED_FACE('',(#647),#658,.T.);
#647 = FACE_BOUND('',#648,.F.);
#648 = EDGE_LOOP('',(#649,#650,#651,#657));
#649 = ORIENTED_EDGE('',*,*,#443,.F.);
#650 = ORIENTED_EDGE('',*,*,#459,.T.);
#651 = ORIENTED_EDGE('',*,*,#652,.T.);
#652 = EDGE_CURVE('',#460,#353,#653,.T.);
#653 = LINE('',#654,#655);
#654 = CARTESIAN_POINT('',(14.6,14.9,7.2));
#655 = VECTOR('',#656,1.);
#656 = DIRECTION('',(1.618982691994E-15,-0.707106781187,0.707106781187)
  );
#657 = ORIENTED_EDGE('',*,*,#360,.F.);
#658 = PLANE('',#659);
#659 = AXIS2_PLACEMENT_3D('',#660,#661,#662);
#660 = CARTESIAN_POINT('',(0.,14.8,7.3));
#661 = DIRECTION('',(1.548203495886E-18,0.707106781187,0.707106781187));
#662 = DIRECTION('',(-1.,1.094745190598E-18,1.094745190598E-18));
#663 = ADVANCED_FACE('',(#664),#687,.T.);
#664 = FACE_BOUND('',#665,.T.);
#665 = EDGE_LOOP('',(#666,#672,#680,#686));
#666 = ORIENTED_EDGE('',*,*,#667,.T.);
#667 = EDGE_CURVE('',#345,#526,#668,.T.);
#668 = LINE('',#669,#670);
#669 = CARTESIAN_POINT('',(14.7,0.4,7.4));
#670 = VECTOR('',#671,1.);
#671 = DIRECTION('',(0.707106781187,1.991990214089E-15,-0.707106781187)
  );
#672 = ORIENTED_EDGE('',*,*,#673,.T.);
#673 = EDGE_CURVE('',#526,#674,#676,.T.);
#674 = VERTEX_POINT('',#675);
#675 = CARTESIAN_POINT('',(15.,14.6,7.1));
#676 = LINE('',#677,#678);
#677 = CARTESIAN_POINT('',(15.,0.,7.1));
#678 = VECTOR('',#679,1.);
#679 = DIRECTION('',(-0.,1.,0.));
#680 = ORIENTED_EDGE('',*,*,#681,.T.);
#681 = EDGE_CURVE('',#674,#353,#682,.T.);
#682 = LINE('',#683,#684);
#683 = CARTESIAN_POINT('',(14.8,14.6,7.3));
#684 = VECTOR('',#685,1.);
#685 = DIRECTION('',(-0.707106781187,1.647223538044E-15,0.707106781187)
  );
#686 = ORIENTED_EDGE('',*,*,#352,.F.);
#687 = PLANE('',#688);
#688 = AXIS2_PLACEMENT_3D('',#689,#690,#691);
#689 = CARTESIAN_POINT('',(14.8,0.,7.3));
#690 = DIRECTION('',(0.707106781187,1.548203495886E-18,0.707106781187));
#691 = DIRECTION('',(-1.094745190598E-18,1.,-1.094745190598E-18));
#692 = ADVANCED_FACE('',(#693),#718,.T.);
#693 = FACE_BOUND('',#694,.T.);
#694 = EDGE_LOOP('',(#695,#703,#711,#717));
#695 = ORIENTED_EDGE('',*,*,#696,.F.);
#696 = EDGE_CURVE('',#697,#369,#699,.T.);
#697 = VERTEX_POINT('',#698);
#698 = CARTESIAN_POINT('',(12.,5.5,5.5));
#699 = LINE('',#700,#701);
#700 = CARTESIAN_POINT('',(12.,5.5,5.5));
#701 = VECTOR('',#702,1.);
#702 = DIRECTION('',(0.,0.,1.));
#703 = ORIENTED_EDGE('',*,*,#704,.F.);
#704 = EDGE_CURVE('',#705,#697,#707,.T.);
#705 = VERTEX_POINT('',#706);
#706 = CARTESIAN_POINT('',(3.,5.5,5.5));
#707 = LINE('',#708,#709);
#708 = CARTESIAN_POINT('',(3.,5.5,5.5));
#709 = VECTOR('',#710,1.);
#710 = DIRECTION('',(1.,0.,-0.));
#711 = ORIENTED_EDGE('',*,*,#712,.T.);
#712 = EDGE_CURVE('',#705,#371,#713,.T.);
#713 = LINE('',#714,#715);
#714 = CARTESIAN_POINT('',(3.,5.5,5.5));
#715 = VECTOR('',#716,1.);
#716 = DIRECTION('',(0.,0.,1.));
#717 = ORIENTED_EDGE('',*,*,#368,.F.);
#718 = PLANE('',#719);
#719 = AXIS2_PLACEMENT_3D('',#720,#721,#722);
#720 = CARTESIAN_POINT('',(3.,5.5,5.5));
#721 = DIRECTION('',(-0.,1.,0.));
#722 = DIRECTION('',(0.,0.,1.));
#723 = ADVANCED_FACE('',(#724),#742,.F.);
#724 = FACE_BOUND('',#725,.F.);
#725 = EDGE_LOOP('',(#726,#727,#735,#741));
#726 = ORIENTED_EDGE('',*,*,#696,.F.);
#727 = ORIENTED_EDGE('',*,*,#728,.T.);
#728 = EDGE_CURVE('',#697,#729,#731,.T.);
#729 = VERTEX_POINT('',#730);
#730 = CARTESIAN_POINT('',(12.,9.5,5.5));
#731 = LINE('',#732,#733);
#732 = CARTESIAN_POINT('',(12.,5.5,5.5));
#733 = VECTOR('',#734,1.);
#734 = DIRECTION('',(-0.,1.,0.));
#735 = ORIENTED_EDGE('',*,*,#736,.T.);
#736 = EDGE_CURVE('',#729,#387,#737,.T.);
#737 = LINE('',#738,#739);
#738 = CARTESIAN_POINT('',(12.,9.5,5.5));
#739 = VECTOR('',#740,1.);
#740 = DIRECTION('',(0.,0.,1.));
#741 = ORIENTED_EDGE('',*,*,#394,.F.);
#742 = PLANE('',#743);
#743 = AXIS2_PLACEMENT_3D('',#744,#745,#746);
#744 = CARTESIAN_POINT('',(12.,5.5,5.5));
#745 = DIRECTION('',(1.,0.,-0.));
#746 = DIRECTION('',(0.,0.,1.));
#747 = ADVANCED_FACE('',(#748),#766,.T.);
#748 = FACE_BOUND('',#749,.T.);
#749 = EDGE_LOOP('',(#750,#751,#759,#765));
#750 = ORIENTED_EDGE('',*,*,#712,.F.);
#751 = ORIENTED_EDGE('',*,*,#752,.T.);
#752 = EDGE_CURVE('',#705,#753,#755,.T.);
#753 = VERTEX_POINT('',#754);
#754 = CARTESIAN_POINT('',(3.,9.5,5.5));
#755 = LINE('',#756,#757);
#756 = CARTESIAN_POINT('',(3.,5.5,5.5));
#757 = VECTOR('',#758,1.);
#758 = DIRECTION('',(-0.,1.,0.));
#759 = ORIENTED_EDGE('',*,*,#760,.T.);
#760 = EDGE_CURVE('',#753,#379,#761,.T.);
#761 = LINE('',#762,#763);
#762 = CARTESIAN_POINT('',(3.,9.5,5.5));
#763 = VECTOR('',#764,1.);
#764 = DIRECTION('',(0.,0.,1.));
#765 = ORIENTED_EDGE('',*,*,#378,.F.);
#766 = PLANE('',#767);
#767 = AXIS2_PLACEMENT_3D('',#768,#769,#770);
#768 = CARTESIAN_POINT('',(3.,5.5,5.5));
#769 = DIRECTION('',(1.,0.,-0.));
#770 = DIRECTION('',(0.,0.,1.));
#771 = ADVANCED_FACE('',(#772),#783,.F.);
#772 = FACE_BOUND('',#773,.F.);
#773 = EDGE_LOOP('',(#774,#775,#781,#782));
#774 = ORIENTED_EDGE('',*,*,#736,.F.);
#775 = ORIENTED_EDGE('',*,*,#776,.F.);
#776 = EDGE_CURVE('',#753,#729,#777,.T.);
#777 = LINE('',#778,#779);
#778 = CARTESIAN_POINT('',(3.,9.5,5.5));
#779 = VECTOR('',#780,1.);
#780 = DIRECTION('',(1.,0.,-0.));
#781 = ORIENTED_EDGE('',*,*,#760,.T.);
#782 = ORIENTED_EDGE('',*,*,#386,.F.);
#783 = PLANE('',#784);
#784 = AXIS2_PLACEMENT_3D('',#785,#786,#787);
#785 = CARTESIAN_POINT('',(3.,9.5,5.5));
#786 = DIRECTION('',(-0.,1.,0.));
#787 = DIRECTION('',(0.,0.,1.));
#788 = ADVANCED_FACE('',(#789),#814,.T.);
#789 = FACE_BOUND('',#790,.T.);
#790 = EDGE_LOOP('',(#791,#799,#807,#813));
#791 = ORIENTED_EDGE('',*,*,#792,.F.);
#792 = EDGE_CURVE('',#793,#403,#795,.T.);
#793 = VERTEX_POINT('',#794);
#794 = CARTESIAN_POINT('',(13.8,10.8,7.3));
#795 = LINE('',#796,#797);
#796 = CARTESIAN_POINT('',(13.8,10.8,7.3));
#797 = VECTOR('',#798,1.);
#798 = DIRECTION('',(0.,0.,1.));
#799 = ORIENTED_EDGE('',*,*,#800,.F.);
#800 = EDGE_CURVE('',#801,#793,#803,.T.);
#801 = VERTEX_POINT('',#802);
#802 = CARTESIAN_POINT('',(10.8,10.8,7.3));
#803 = LINE('',#804,#805);
#804 = CARTESIAN_POINT('',(10.8,10.8,7.3));
#805 = VECTOR('',#806,1.);
#806 = DIRECTION('',(1.,0.,-0.));
#807 = ORIENTED_EDGE('',*,*,#808,.T.);
#808 = EDGE_CURVE('',#801,#405,#809,.T.);
#809 = LINE('',#810,#811);
#810 = CARTESIAN_POINT('',(10.8,10.8,7.3));
#811 = VECTOR('',#812,1.);
#812 = DIRECTION('',(0.,0.,1.));
#813 = ORIENTED_EDGE('',*,*,#402,.F.);
#814 = PLANE('',#815);
#815 = AXIS2_PLACEMENT_3D('',#816,#817,#818);
#816 = CARTESIAN_POINT('',(10.8,10.8,7.3));
#817 = DIRECTION('',(-0.,1.,0.));
#818 = DIRECTION('',(0.,0.,1.));
#819 = ADVANCED_FACE('',(#820),#838,.F.);
#820 = FACE_BOUND('',#821,.F.);
#821 = EDGE_LOOP('',(#822,#823,#831,#837));
#822 = ORIENTED_EDGE('',*,*,#792,.F.);
#823 = ORIENTED_EDGE('',*,*,#824,.T.);
#824 = EDGE_CURVE('',#793,#825,#827,.T.);
#825 = VERTEX_POINT('',#826);
#826 = CARTESIAN_POINT('',(13.8,13.8,7.3));
#827 = LINE('',#828,#829);
#828 = CARTESIAN_POINT('',(13.8,10.8,7.3));
#829 = VECTOR('',#830,1.);
#830 = DIRECTION('',(-0.,1.,0.));
#831 = ORIENTED_EDGE('',*,*,#832,.T.);
#832 = EDGE_CURVE('',#825,#421,#833,.T.);
#833 = LINE('',#834,#835);
#834 = CARTESIAN_POINT('',(13.8,13.8,7.3));
#835 = VECTOR('',#836,1.);
#836 = DIRECTION('',(0.,0.,1.));
#837 = ORIENTED_EDGE('',*,*,#428,.F.);
#838 = PLANE('',#839);
#839 = AXIS2_PLACEMENT_3D('',#840,#841,#842);
#840 = CARTESIAN_POINT('',(13.8,10.8,7.3));
#841 = DIRECTION('',(1.,0.,-0.));
#842 = DIRECTION('',(0.,0.,1.));
#843 = ADVANCED_FACE('',(#844),#862,.F.);
#844 = FACE_BOUND('',#845,.F.);
#845 = EDGE_LOOP('',(#846,#847,#855,#861));
#846 = ORIENTED_EDGE('',*,*,#832,.F.);
#847 = ORIENTED_EDGE('',*,*,#848,.F.);
#848 = EDGE_CURVE('',#849,#825,#851,.T.);
#849 = VERTEX_POINT('',#850);
#850 = CARTESIAN_POINT('',(10.8,13.8,7.3));
#851 = LINE('',#852,#853);
#852 = CARTESIAN_POINT('',(10.8,13.8,7.3));
#853 = VECTOR('',#854,1.);
#854 = DIRECTION('',(1.,0.,-0.));
#855 = ORIENTED_EDGE('',*,*,#856,.T.);
#856 = EDGE_CURVE('',#849,#413,#857,.T.);
#857 = LINE('',#858,#859);
#858 = CARTESIAN_POINT('',(10.8,13.8,7.3));
#859 = VECTOR('',#860,1.);
#860 = DIRECTION('',(0.,0.,1.));
#861 = ORIENTED_EDGE('',*,*,#420,.F.);
#862 = PLANE('',#863);
#863 = AXIS2_PLACEMENT_3D('',#864,#865,#866);
#864 = CARTESIAN_POINT('',(10.8,13.8,7.3));
#865 = DIRECTION('',(-0.,1.,0.));
#866 = DIRECTION('',(0.,0.,1.));
#867 = ADVANCED_FACE('',(#868),#879,.T.);
#868 = FACE_BOUND('',#869,.T.);
#869 = EDGE_LOOP('',(#870,#871,#877,#878));
#870 = ORIENTED_EDGE('',*,*,#808,.F.);
#871 = ORIENTED_EDGE('',*,*,#872,.T.);
#872 = EDGE_CURVE('',#801,#849,#873,.T.);
#873 = LINE('',#874,#875);
#874 = CARTESIAN_POINT('',(10.8,10.8,7.3));
#875 = VECTOR('',#876,1.);
#876 = DIRECTION('',(-0.,1.,0.));
#877 = ORIENTED_EDGE('',*,*,#856,.T.);
#878 = ORIENTED_EDGE('',*,*,#412,.F.);
#879 = PLANE('',#880);
#880 = AXIS2_PLACEMENT_3D('',#881,#882,#883);
#881 = CARTESIAN_POINT('',(10.8,10.8,7.3));
#882 = DIRECTION('',(1.,0.,-0.));
#883 = DIRECTION('',(0.,0.,1.));
#884 = ADVANCED_FACE('',(#885),#906,.T.);
#885 = FACE_BOUND('',#886,.F.);
#886 = EDGE_LOOP('',(#887,#893,#899,#900));
#887 = ORIENTED_EDGE('',*,*,#888,.T.);
#888 = EDGE_CURVE('',#628,#674,#889,.T.);
#889 = LINE('',#890,#891);
#890 = CARTESIAN_POINT('',(15.,14.6,0.));
#891 = VECTOR('',#892,1.);
#892 = DIRECTION('',(0.,0.,1.));
#893 = ORIENTED_EDGE('',*,*,#894,.F.);
#894 = EDGE_CURVE('',#460,#674,#895,.T.);
#895 = LINE('',#896,#897);
#896 = CARTESIAN_POINT('',(14.7,14.9,7.1));
#897 = VECTOR('',#898,1.);
#898 = DIRECTION('',(0.707106781187,-0.707106781187,-2.168913525183E-18)
  );
#899 = ORIENTED_EDGE('',*,*,#467,.F.);
#900 = ORIENTED_EDGE('',*,*,#901,.F.);
#901 = EDGE_CURVE('',#628,#468,#902,.T.);
#902 = LINE('',#903,#904);
#903 = CARTESIAN_POINT('',(14.8,14.8,0.4));
#904 = VECTOR('',#905,1.);
#905 = DIRECTION('',(-0.707106781187,0.707106781187,2.865778704195E-15)
  );
#906 = PLANE('',#907);
#907 = AXIS2_PLACEMENT_3D('',#908,#909,#910);
#908 = CARTESIAN_POINT('',(14.8,14.8,0.));
#909 = DIRECTION('',(0.707106781187,0.707106781187,-4.874006453264E-19)
  );
#910 = DIRECTION('',(-3.44644301465E-19,-3.44644301465E-19,-1.));
#911 = ADVANCED_FACE('',(#912),#917,.F.);
#912 = FACE_BOUND('',#913,.F.);
#913 = EDGE_LOOP('',(#914,#915,#916));
#914 = ORIENTED_EDGE('',*,*,#621,.F.);
#915 = ORIENTED_EDGE('',*,*,#491,.T.);
#916 = ORIENTED_EDGE('',*,*,#540,.F.);
#917 = PLANE('',#918);
#918 = AXIS2_PLACEMENT_3D('',#919,#920,#921);
#919 = CARTESIAN_POINT('',(14.6,0.4,-4.163336342344E-16));
#920 = DIRECTION('',(-0.57735026919,0.57735026919,0.57735026919));
#921 = DIRECTION('',(-0.707106781187,-0.707106781187,9.182880762112E-16)
  );
#922 = ADVANCED_FACE('',(#923),#928,.T.);
#923 = FACE_BOUND('',#924,.T.);
#924 = EDGE_LOOP('',(#925,#926,#927));
#925 = ORIENTED_EDGE('',*,*,#667,.F.);
#926 = ORIENTED_EDGE('',*,*,#508,.T.);
#927 = ORIENTED_EDGE('',*,*,#533,.F.);
#928 = PLANE('',#929);
#929 = AXIS2_PLACEMENT_3D('',#930,#931,#932);
#930 = CARTESIAN_POINT('',(14.6,0.4,7.5));
#931 = DIRECTION('',(0.57735026919,-0.57735026919,0.57735026919));
#932 = DIRECTION('',(-0.707106781187,-0.707106781187,3.574057552196E-17)
  );
#933 = ADVANCED_FACE('',(#934),#940,.T.);
#934 = FACE_BOUND('',#935,.T.);
#935 = EDGE_LOOP('',(#936,#937,#938,#939));
#936 = ORIENTED_EDGE('',*,*,#523,.F.);
#937 = ORIENTED_EDGE('',*,*,#627,.T.);
#938 = ORIENTED_EDGE('',*,*,#888,.T.);
#939 = ORIENTED_EDGE('',*,*,#673,.F.);
#940 = PLANE('',#941);
#941 = AXIS2_PLACEMENT_3D('',#942,#943,#944);
#942 = CARTESIAN_POINT('',(15.,0.,0.));
#943 = DIRECTION('',(1.,0.,-0.));
#944 = DIRECTION('',(0.,0.,1.));
#945 = ADVANCED_FACE('',(#946),#949,.F.);
#946 = FACE_BOUND('',#947,.F.);
#947 = EDGE_LOOP('',(#948));
#948 = ORIENTED_EDGE('',*,*,#562,.T.);
#949 = PLANE('',#950);
#950 = AXIS2_PLACEMENT_3D('',#951,#952,#953);
#951 = CARTESIAN_POINT('',(4.,6.,3.75));
#952 = DIRECTION('',(0.,1.,0.));
#953 = DIRECTION('',(0.,-0.,1.));
#954 = ADVANCED_FACE('',(#955),#958,.F.);
#955 = FACE_BOUND('',#956,.F.);
#956 = EDGE_LOOP('',(#957));
#957 = ORIENTED_EDGE('',*,*,#587,.T.);
#958 = PLANE('',#959);
#959 = AXIS2_PLACEMENT_3D('',#960,#961,#962);
#960 = CARTESIAN_POINT('',(11.,6.,3.75));
#961 = DIRECTION('',(0.,1.,0.));
#962 = DIRECTION('',(0.,-0.,1.));
#963 = ADVANCED_FACE('',(#964),#969,.T.);
#964 = FACE_BOUND('',#965,.T.);
#965 = EDGE_LOOP('',(#966,#967,#968));
#966 = ORIENTED_EDGE('',*,*,#635,.F.);
#967 = ORIENTED_EDGE('',*,*,#606,.T.);
#968 = ORIENTED_EDGE('',*,*,#901,.F.);
#969 = PLANE('',#970);
#970 = AXIS2_PLACEMENT_3D('',#971,#972,#973);
#971 = CARTESIAN_POINT('',(14.6,14.6,-7.771561172376E-16));
#972 = DIRECTION('',(0.57735026919,0.57735026919,-0.57735026919));
#973 = DIRECTION('',(-0.707106781187,0.707106781187,-1.730986215746E-16)
  );
#974 = ADVANCED_FACE('',(#975),#980,.T.);
#975 = FACE_BOUND('',#976,.T.);
#976 = EDGE_LOOP('',(#977,#978,#979));
#977 = ORIENTED_EDGE('',*,*,#894,.F.);
#978 = ORIENTED_EDGE('',*,*,#652,.T.);
#979 = ORIENTED_EDGE('',*,*,#681,.F.);
#980 = PLANE('',#981);
#981 = AXIS2_PLACEMENT_3D('',#982,#983,#984);
#982 = CARTESIAN_POINT('',(14.6,15.,7.1));
#983 = DIRECTION('',(0.57735026919,0.57735026919,0.57735026919));
#984 = DIRECTION('',(-0.707106781187,1.812496935115E-17,0.707106781187)
  );
#985 = ADVANCED_FACE('',(#986),#992,.T.);
#986 = FACE_BOUND('',#987,.T.);
#987 = EDGE_LOOP('',(#988,#989,#990,#991));
#988 = ORIENTED_EDGE('',*,*,#752,.F.);
#989 = ORIENTED_EDGE('',*,*,#704,.T.);
#990 = ORIENTED_EDGE('',*,*,#728,.T.);
#991 = ORIENTED_EDGE('',*,*,#776,.F.);
#992 = PLANE('',#993);
#993 = AXIS2_PLACEMENT_3D('',#994,#995,#996);
#994 = CARTESIAN_POINT('',(3.,5.5,5.5));
#995 = DIRECTION('',(0.,0.,1.));
#996 = DIRECTION('',(1.,0.,-0.));
#997 = ADVANCED_FACE('',(#998),#1004,.T.);
#998 = FACE_BOUND('',#999,.T.);
#999 = EDGE_LOOP('',(#1000,#1001,#1002,#1003));
#1000 = ORIENTED_EDGE('',*,*,#872,.F.);
#1001 = ORIENTED_EDGE('',*,*,#800,.T.);
#1002 = ORIENTED_EDGE('',*,*,#824,.T.);
#1003 = ORIENTED_EDGE('',*,*,#848,.F.);
#1004 = PLANE('',#1005);
#1005 = AXIS2_PLACEMENT_3D('',#1006,#1007,#1008);
#1006 = CARTESIAN_POINT('',(10.8,10.8,7.3));
#1007 = DIRECTION('',(0.,0.,1.));
#1008 = DIRECTION('',(1.,0.,-0.));
#1009 = ( GEOMETRIC_REPRESENTATION_CONTEXT(3) 
GLOBAL_UNCERTAINTY_ASSIGNED_CONTEXT((#1013)) 
GLOBAL_UNIT_ASSIGNED_CONTEXT((#1010,#1011,#1012)) REPRESENTATION_CONTEXT
('Context #1','3D Context with UNIT and UNCERTAINTY') );
#1010 = ( LENGTH_UNIT() NAMED_UNIT(*) SI_UNIT(.MILLI.,.METRE.) );
#1011 = ( NAMED_UNIT(*) PLANE_ANGLE_UNIT() SI_UNIT($,.RADIAN.) );
#1012 = ( NAMED_UNIT(*) SI_UNIT($,.STERADIAN.) SOLID_ANGLE_UNIT() );
#1013 = UNCERTAINTY_MEASURE_WITH_UNIT(LENGTH_MEASURE(1.E-07),#1010,
  'distance_accuracy_value','confusion accuracy');
#1014 = CONTEXT_DEPENDENT_SHAPE_REPRESENTATION(#1015,#1017);
#1015 = ( REPRESENTATION_RELATIONSHIP('','',#40,#10) 
REPRESENTATION_RELATIONSHIP_WITH_TRANSFORMATION(#1016) 
SHAPE_REPRESENTATION_RELATIONSHIP() );
#1016 = ITEM_DEFINED_TRANSFORMATION('','',#11,#15);
#1017 = PRODUCT_DEFINITION_SHAPE('Placement','Placement of an item',
  #1018);
#1018 = NEXT_ASSEMBLY_USAGE_OCCURRENCE('8','housing','',#5,#35,$);
#1019 = PRODUCT_RELATED_PRODUCT_CATEGORY('part',$,(#37));
#1020 = SHAPE_DEFINITION_REPRESENTATION(#1021,#1027);
#1021 = PRODUCT_DEFINITION_SHAPE('','',#1022);
#1022 = PRODUCT_DEFINITION('design','',#1023,#1026);
#1023 = PRODUCT_DEFINITION_FORMATION('','',#1024);
#1024 = PRODUCT('lens_window','lens_window','',(#1025));
#1025 = PRODUCT_CONTEXT('',#2,'mechanical');
#1026 = PRODUCT_DEFINITION_CONTEXT('part definition',#2,'design');
#1027 = ADVANCED_BREP_SHAPE_REPRESENTATION('',(#11,#1028),#1081);
#1028 = MANIFOLD_SOLID_BREP('',#1029);
#1029 = CLOSED_SHELL('',(#1030,#1063,#1072));
#1030 = ADVANCED_FACE('',(#1031),#1058,.T.);
#1031 = FACE_BOUND('',#1032,.T.);
#1032 = EDGE_LOOP('',(#1033,#1042,#1050,#1057));
#1033 = ORIENTED_EDGE('',*,*,#1034,.F.);
#1034 = EDGE_CURVE('',#1035,#1035,#1037,.T.);
#1035 = VERTEX_POINT('',#1036);
#1036 = CARTESIAN_POINT('',(9.,7.5,6.3));
#1037 = CIRCLE('',#1038,1.5);
#1038 = AXIS2_PLACEMENT_3D('',#1039,#1040,#1041);
#1039 = CARTESIAN_POINT('',(7.5,7.5,6.3));
#1040 = DIRECTION('',(0.,0.,1.));
#1041 = DIRECTION('',(1.,0.,-0.));
#1042 = ORIENTED_EDGE('',*,*,#1043,.F.);
#1043 = EDGE_CURVE('',#1044,#1035,#1046,.T.);
#1044 = VERTEX_POINT('',#1045);
#1045 = CARTESIAN_POINT('',(9.,7.5,5.5));
#1046 = LINE('',#1047,#1048);
#1047 = CARTESIAN_POINT('',(9.,7.5,5.5));
#1048 = VECTOR('',#1049,1.);
#1049 = DIRECTION('',(0.,0.,1.));
#1050 = ORIENTED_EDGE('',*,*,#1051,.T.);
#1051 = EDGE_CURVE('',#1044,#1044,#1052,.T.);
#1052 = CIRCLE('',#1053,1.5);
#1053 = AXIS2_PLACEMENT_3D('',#1054,#1055,#1056);
#1054 = CARTESIAN_POINT('',(7.5,7.5,5.5));
#1055 = DIRECTION('',(0.,0.,1.));
#1056 = DIRECTION('',(1.,0.,-0.));
#1057 = ORIENTED_EDGE('',*,*,#1043,.T.);
#1058 = CYLINDRICAL_SURFACE('',#1059,1.5);
#1059 = AXIS2_PLACEMENT_3D('',#1060,#1061,#1062);
#1060 = CARTESIAN_POINT('',(7.5,7.5,5.5));
#1061 = DIRECTION('',(0.,0.,1.));
#1062 = DIRECTION('',(1.,0.,-0.));
#1063 = ADVANCED_FACE('',(#1064),#1067,.T.);
#1064 = FACE_BOUND('',#1065,.T.);
#1065 = EDGE_LOOP('',(#1066));
#1066 = ORIENTED_EDGE('',*,*,#1034,.T.);
#1067 = PLANE('',#1068);
#1068 = AXIS2_PLACEMENT_3D('',#1069,#1070,#1071);
#1069 = CARTESIAN_POINT('',(7.5,7.5,6.3));
#1070 = DIRECTION('',(0.,0.,1.));
#1071 = DIRECTION('',(1.,0.,-0.));
#1072 = ADVANCED_FACE('',(#1073),#1076,.F.);
#1073 = FACE_BOUND('',#1074,.T.);
#1074 = EDGE_LOOP('',(#1075));
#1075 = ORIENTED_EDGE('',*,*,#1051,.F.);
#1076 = PLANE('',#1077);
#1077 = AXIS2_PLACEMENT_3D('',#1078,#1079,#1080);
#1078 = CARTESIAN_POINT('',(7.5,7.5,5.5));
#1079 = DIRECTION('',(0.,0.,1.));
#1080 = DIRECTION('',(1.,0.,-0.));
#1081 = ( GEOMETRIC_REPRESENTATION_CONTEXT(3) 
GLOBAL_UNCERTAINTY_ASSIGNED_CONTEXT((#1085)) 
GLOBAL_UNIT_ASSIGNED_CONTEXT((#1082,#1083,#1084)) REPRESENTATION_CONTEXT
('Context #1','3D Context with UNIT and UNCERTAINTY') );
#1082 = ( LENGTH_UNIT() NAMED_UNIT(*) SI_UNIT(.MILLI.,.METRE.) );
#1083 = ( NAMED_UNIT(*) PLANE_ANGLE_UNIT() SI_UNIT($,.RADIAN.) );
#1084 = ( NAMED_UNIT(*) SI_UNIT($,.STERADIAN.) SOLID_ANGLE_UNIT() );
#1085 = UNCERTAINTY_MEASURE_WITH_UNIT(LENGTH_MEASURE(1.E-07),#1082,
  'distance_accuracy_value','confusion accuracy');
#1086 = CONTEXT_DEPENDENT_SHAPE_REPRESENTATION(#1087,#1089);
#1087 = ( REPRESENTATION_RELATIONSHIP('','',#1027,#10) 
REPRESENTATION_RELATIONSHIP_WITH_TRANSFORMATION(#1088) 
SHAPE_REPRESENTATION_RELATIONSHIP() );
#1088 = ITEM_DEFINED_TRANSFORMATION('','',#11,#19);
#1089 = PRODUCT_DEFINITION_SHAPE('Placement','Placement of an item',
  #1090);
#1090 = NEXT_ASSEMBLY_USAGE_OCCURRENCE('9','lens_window','',#5,#1022,$);
#1091 = PRODUCT_RELATED_PRODUCT_CATEGORY('part',$,(#1024));
#1092 = SHAPE_DEFINITION_REPRESENTATION(#1093,#1099);
#1093 = PRODUCT_DEFINITION_SHAPE('','',#1094);
#1094 = PRODUCT_DEFINITION('design','',#1095,#1098);
#1095 = PRODUCT_DEFINITION_FORMATION('','',#1096);
#1096 = PRODUCT('plus_marking','plus_marking','',(#1097));
#1097 = PRODUCT_CONTEXT('',#2,'mechanical');
#1098 = PRODUCT_DEFINITION_CONTEXT('part definition',#2,'design');
#1099 = ADVANCED_BREP_SHAPE_REPRESENTATION('',(#11,#1100),#1250);
#1100 = MANIFOLD_SOLID_BREP('',#1101);
#1101 = CLOSED_SHELL('',(#1102,#1142,#1182,#1204,#1226,#1238));
#1102 = ADVANCED_FACE('',(#1103),#1137,.F.);
#1103 = FACE_BOUND('',#1104,.F.);
#1104 = EDGE_LOOP('',(#1105,#1115,#1123,#1131));
#1105 = ORIENTED_EDGE('',*,*,#1106,.F.);
#1106 = EDGE_CURVE('',#1107,#1109,#1111,.T.);
#1107 = VERTEX_POINT('',#1108);
#1108 = CARTESIAN_POINT('',(10.8,10.8,7.3));
#1109 = VERTEX_POINT('',#1110);
#1110 = CARTESIAN_POINT('',(10.8,10.8,7.5));
#1111 = LINE('',#1112,#1113);
#1112 = CARTESIAN_POINT('',(10.8,10.8,7.3));
#1113 = VECTOR('',#1114,1.);
#1114 = DIRECTION('',(0.,0.,1.));
#1115 = ORIENTED_EDGE('',*,*,#1116,.T.);
#1116 = EDGE_CURVE('',#1107,#1117,#1119,.T.);
#1117 = VERTEX_POINT('',#1118);
#1118 = CARTESIAN_POINT('',(10.8,13.8,7.3));
#1119 = LINE('',#1120,#1121);
#1120 = CARTESIAN_POINT('',(10.8,10.8,7.3));
#1121 = VECTOR('',#1122,1.);
#1122 = DIRECTION('',(-0.,1.,0.));
#1123 = ORIENTED_EDGE('',*,*,#1124,.T.);
#1124 = EDGE_CURVE('',#1117,#1125,#1127,.T.);
#1125 = VERTEX_POINT('',#1126);
#1126 = CARTESIAN_POINT('',(10.8,13.8,7.5));
#1127 = LINE('',#1128,#1129);
#1128 = CARTESIAN_POINT('',(10.8,13.8,7.3));
#1129 = VECTOR('',#1130,1.);
#1130 = DIRECTION('',(0.,0.,1.));
#1131 = ORIENTED_EDGE('',*,*,#1132,.F.);
#1132 = EDGE_CURVE('',#1109,#1125,#1133,.T.);
#1133 = LINE('',#1134,#1135);
#1134 = CARTESIAN_POINT('',(10.8,10.8,7.5));
#1135 = VECTOR('',#1136,1.);
#1136 = DIRECTION('',(-0.,1.,0.));
#1137 = PLANE('',#1138);
#1138 = AXIS2_PLACEMENT_3D('',#1139,#1140,#1141);
#1139 = CARTESIAN_POINT('',(10.8,10.8,7.3));
#1140 = DIRECTION('',(1.,0.,-0.));
#1141 = DIRECTION('',(0.,0.,1.));
#1142 = ADVANCED_FACE('',(#1143),#1177,.T.);
#1143 = FACE_BOUND('',#1144,.T.);
#1144 = EDGE_LOOP('',(#1145,#1155,#1163,#1171));
#1145 = ORIENTED_EDGE('',*,*,#1146,.F.);
#1146 = EDGE_CURVE('',#1147,#1149,#1151,.T.);
#1147 = VERTEX_POINT('',#1148);
#1148 = CARTESIAN_POINT('',(13.8,10.8,7.3));
#1149 = VERTEX_POINT('',#1150);
#1150 = CARTESIAN_POINT('',(13.8,10.8,7.5));
#1151 = LINE('',#1152,#1153);
#1152 = CARTESIAN_POINT('',(13.8,10.8,7.3));
#1153 = VECTOR('',#1154,1.);
#1154 = DIRECTION('',(0.,0.,1.));
#1155 = ORIENTED_EDGE('',*,*,#1156,.T.);
#1156 = EDGE_CURVE('',#1147,#1157,#1159,.T.);
#1157 = VERTEX_POINT('',#1158);
#1158 = CARTESIAN_POINT('',(13.8,13.8,7.3));
#1159 = LINE('',#1160,#1161);
#1160 = CARTESIAN_POINT('',(13.8,10.8,7.3));
#1161 = VECTOR('',#1162,1.);
#1162 = DIRECTION('',(-0.,1.,0.));
#1163 = ORIENTED_EDGE('',*,*,#1164,.T.);
#1164 = EDGE_CURVE('',#1157,#1165,#1167,.T.);
#1165 = VERTEX_POINT('',#1166);
#1166 = CARTESIAN_POINT('',(13.8,13.8,7.5));
#1167 = LINE('',#1168,#1169);
#1168 = CARTESIAN_POINT('',(13.8,13.8,7.3));
#1169 = VECTOR('',#1170,1.);
#1170 = DIRECTION('',(0.,0.,1.));
#1171 = ORIENTED_EDGE('',*,*,#1172,.F.);
#1172 = EDGE_CURVE('',#1149,#1165,#1173,.T.);
#1173 = LINE('',#1174,#1175);
#1174 = CARTESIAN_POINT('',(13.8,10.8,7.5));
#1175 = VECTOR('',#1176,1.);
#1176 = DIRECTION('',(-0.,1.,0.));
#1177 = PLANE('',#1178);
#1178 = AXIS2_PLACEMENT_3D('',#1179,#1180,#1181);
#1179 = CARTESIAN_POINT('',(13.8,10.8,7.3));
#1180 = DIRECTION('',(1.,0.,-0.));
#1181 = DIRECTION('',(0.,0.,1.));
#1182 = ADVANCED_FACE('',(#1183),#1199,.F.);
#1183 = FACE_BOUND('',#1184,.F.);
#1184 = EDGE_LOOP('',(#1185,#1191,#1192,#1198));
#1185 = ORIENTED_EDGE('',*,*,#1186,.F.);
#1186 = EDGE_CURVE('',#1107,#1147,#1187,.T.);
#1187 = LINE('',#1188,#1189);
#1188 = CARTESIAN_POINT('',(10.8,10.8,7.3));
#1189 = VECTOR('',#1190,1.);
#1190 = DIRECTION('',(1.,0.,-0.));
#1191 = ORIENTED_EDGE('',*,*,#1106,.T.);
#1192 = ORIENTED_EDGE('',*,*,#1193,.T.);
#1193 = EDGE_CURVE('',#1109,#1149,#1194,.T.);
#1194 = LINE('',#1195,#1196);
#1195 = CARTESIAN_POINT('',(10.8,10.8,7.5));
#1196 = VECTOR('',#1197,1.);
#1197 = DIRECTION('',(1.,0.,-0.));
#1198 = ORIENTED_EDGE('',*,*,#1146,.F.);
#1199 = PLANE('',#1200);
#1200 = AXIS2_PLACEMENT_3D('',#1201,#1202,#1203);
#1201 = CARTESIAN_POINT('',(10.8,10.8,7.3));
#1202 = DIRECTION('',(-0.,1.,0.));
#1203 = DIRECTION('',(0.,0.,1.));
#1204 = ADVANCED_FACE('',(#1205),#1221,.T.);
#1205 = FACE_BOUND('',#1206,.T.);
#1206 = EDGE_LOOP('',(#1207,#1213,#1214,#1220));
#1207 = ORIENTED_EDGE('',*,*,#1208,.F.);
#1208 = EDGE_CURVE('',#1117,#1157,#1209,.T.);
#1209 = LINE('',#1210,#1211);
#1210 = CARTESIAN_POINT('',(10.8,13.8,7.3));
#1211 = VECTOR('',#1212,1.);
#1212 = DIRECTION('',(1.,0.,-0.));
#1213 = ORIENTED_EDGE('',*,*,#1124,.T.);
#1214 = ORIENTED_EDGE('',*,*,#1215,.T.);
#1215 = EDGE_CURVE('',#1125,#1165,#1216,.T.);
#1216 = LINE('',#1217,#1218);
#1217 = CARTESIAN_POINT('',(10.8,13.8,7.5));
#1218 = VECTOR('',#1219,1.);
#1219 = DIRECTION('',(1.,0.,-0.));
#1220 = ORIENTED_EDGE('',*,*,#1164,.F.);
#1221 = PLANE('',#1222);
#1222 = AXIS2_PLACEMENT_3D('',#1223,#1224,#1225);
#1223 = CARTESIAN_POINT('',(10.8,13.8,7.3));
#1224 = DIRECTION('',(-0.,1.,0.));
#1225 = DIRECTION('',(0.,0.,1.));
#1226 = ADVANCED_FACE('',(#1227),#1233,.F.);
#1227 = FACE_BOUND('',#1228,.F.);
#1228 = EDGE_LOOP('',(#1229,#1230,#1231,#1232));
#1229 = ORIENTED_EDGE('',*,*,#1116,.F.);
#1230 = ORIENTED_EDGE('',*,*,#1186,.T.);
#1231 = ORIENTED_EDGE('',*,*,#1156,.T.);
#1232 = ORIENTED_EDGE('',*,*,#1208,.F.);
#1233 = PLANE('',#1234);
#1234 = AXIS2_PLACEMENT_3D('',#1235,#1236,#1237);
#1235 = CARTESIAN_POINT('',(10.8,10.8,7.3));
#1236 = DIRECTION('',(0.,0.,1.));
#1237 = DIRECTION('',(1.,0.,-0.));
#1238 = ADVANCED_FACE('',(#1239),#1245,.T.);
#1239 = FACE_BOUND('',#1240,.T.);
#1240 = EDGE_LOOP('',(#1241,#1242,#1243,#1244));
#1241 = ORIENTED_EDGE('',*,*,#1132,.F.);
#1242 = ORIENTED_EDGE('',*,*,#1193,.T.);
#1243 = ORIENTED_EDGE('',*,*,#1172,.T.);
#1244 = ORIENTED_EDGE('',*,*,#1215,.F.);
#1245 = PLANE('',#1246);
#1246 = AXIS2_PLACEMENT_3D('',#1247,#1248,#1249);
#1247 = CARTESIAN_POINT('',(10.8,10.8,7.5));
#1248 = DIRECTION('',(0.,0.,1.));
#1249 = DIRECTION('',(1.,0.,-0.));
#1250 = ( GEOMETRIC_REPRESENTATION_CONTEXT(3) 
GLOBAL_UNCERTAINTY_ASSIGNED_CONTEXT((#1254)) 
GLOBAL_UNIT_ASSIGNED_CONTEXT((#1251,#1252,#1253)) REPRESENTATION_CONTEXT
('Context #1','3D Context with UNIT and UNCERTAINTY') );
#1251 = ( LENGTH_UNIT() NAMED_UNIT(*) SI_UNIT(.MILLI.,.METRE.) );
#1252 = ( NAMED_UNIT(*) PLANE_ANGLE_UNIT() SI_UNIT($,.RADIAN.) );
#1253 = ( NAMED_UNIT(*) SI_UNIT($,.STERADIAN.) SOLID_ANGLE_UNIT() );
#1254 = UNCERTAINTY_MEASURE_WITH_UNIT(LENGTH_MEASURE(1.E-07),#1251,
  'distance_accuracy_value','confusion accuracy');
#1255 = CONTEXT_DEPENDENT_SHAPE_REPRESENTATION(#1256,#1258);
#1256 = ( REPRESENTATION_RELATIONSHIP('','',#1099,#10) 
REPRESENTATION_RELATIONSHIP_WITH_TRANSFORMATION(#1257) 
SHAPE_REPRESENTATION_RELATIONSHIP() );
#1257 = ITEM_DEFINED_TRANSFORMATION('','',#11,#23);
#1258 = PRODUCT_DEFINITION_SHAPE('Placement','Placement of an item',
  #1259);
#1259 = NEXT_ASSEMBLY_USAGE_OCCURRENCE('10','plus_marking','',#5,#1094,$
  );
#1260 = PRODUCT_RELATED_PRODUCT_CATEGORY('part',$,(#1096));
ENDSEC;
END-ISO-10303-21;
