ISO-10303-21;
HEADER;
FILE_DESCRIPTION(('FreeCAD Model'),'2;1');
FILE_NAME('Open CASCADE Shape Model','2026-10-06T09:20:33',(''),(''),
  'Open CASCADE STEP processor 7.8','FreeCAD','Unknown');
FILE_SCHEMA(('AUTOMOTIVE_DESIGN { 1 0 10303 214 1 1 1 1 }'));
ENDSEC;
DATA;
#1 = APPLICATION_PROTOCOL_DEFINITION('international standard',
  'automotive_design',2000,#2);
#2 = APPLICATION_CONTEXT(
  'core data for automotive mechanical design processes');
#3 = SHAPE_DEFINITION_REPRESENTATION(#4,#10);
#4 = PRODUCT_DEFINITION_SHAPE('','',#5);
#5 = PRODUCT_DEFINITION('design','',#6,#9);
#6 = PRODUCT_DEFINITION_FORMATION('','',#7);
#7 = PRODUCT('rfid_head','rfid_head','',(#8));
#8 = PRODUCT_CONTEXT('',#2,'mechanical');
#9 = PRODUCT_DEFINITION_CONTEXT('part definition',#2,'design');
#10 = SHAPE_REPRESENTATION('',(#11,#15,#19,#23,#27,#31,#35,#39),#43);
#11 = AXIS2_PLACEMENT_3D('',#12,#13,#14);
#12 = CARTESIAN_POINT('',(0.,0.,0.));
#13 = DIRECTION('',(0.,0.,1.));
#14 = DIRECTION('',(1.,0.,-0.));
#15 = AXIS2_PLACEMENT_3D('',#16,#17,#18);
#16 = CARTESIAN_POINT('',(0.,0.,0.));
#17 = DIRECTION('',(0.,0.,1.));
#18 = DIRECTION('',(1.,0.,0.));
#19 = AXIS2_PLACEMENT_3D('',#20,#21,#22);
#20 = CARTESIAN_POINT('',(0.,0.,0.));
#21 = DIRECTION('',(0.,0.,1.));
#22 = DIRECTION('',(1.,0.,0.));
#23 = AXIS2_PLACEMENT_3D('',#24,#25,#26);
#24 = CARTESIAN_POINT('',(0.,0.,0.));
#25 = DIRECTION('',(0.,0.,1.));
#26 = DIRECTION('',(1.,0.,0.));
#27 = AXIS2_PLACEMENT_3D('',#28,#29,#30);
#28 = CARTESIAN_POINT('',(0.,0.,0.));
#29 = DIRECTION('',(0.,0.,1.));
#30 = DIRECTION('',(1.,0.,0.));
#31 = AXIS2_PLACEMENT_3D('',#32,#33,#34);
#32 = CARTESIAN_POINT('',(0.,0.,0.));
#33 = DIRECTION('',(0.,0.,1.));
#34 = DIRECTION('',(1.,0.,0.));
#35 = AXIS2_PLACEMENT_3D('',#36,#37,#38);
#36 = CARTESIAN_POINT('',(0.,0.,0.));
#37 = DIRECTION('',(0.,0.,1.));
#38 = DIRECTION('',(1.,0.,0.));
#39 = AXIS2_PLACEMENT_3D('',#40,#41,#42);
#40 = CARTESIAN_POINT('',(0.,0.,0.));
#41 = DIRECTION('',(0.,0.,1.));
#42 = DIRECTION('',(1.,0.,0.));
#43 = ( GEOMETRIC_REPRESENTATION_CONTEXT(3) 
GLOBAL_UNCERTAINTY_ASSIGNED_CONTEXT((#47)) GLOBAL_UNIT_ASSIGNED_CONTEXT(
(#44,#45,#46)) REPRESENTATION_CONTEXT('Context #1',
  '3D Context with UNIT and UNCERTAINTY') );
#44 = ( LENGTH_UNIT() NAMED_UNIT(*) SI_UNIT(.MILLI.,.METRE.) );
#45 = ( NAMED_UNIT(*) PLANE_ANGLE_UNIT() SI_UNIT($,.RADIAN.) );
#46 = ( NAMED_UNIT(*) SI_UNIT($,.STERADIAN.) SOLID_ANGLE_UNIT() );
#47 = UNCERTAINTY_MEASURE_WITH_UNIT(LENGTH_MEASURE(1.E-07),#44,
  'distance_accuracy_value','confusion accuracy');
#48 = PRODUCT_RELATED_PRODUCT_CATEGORY('part',$,(#7));
#49 = SHAPE_DEFINITION_REPRESENTATION(#50,#56);
#50 = PRODUCT_DEFINITION_SHAPE('','',#51);
#51 = PRODUCT_DEFINITION('design','',#52,#55);
#52 = PRODUCT_DEFINITION_FORMATION('','',#53);
#53 = PRODUCT('housing','housing','',(#54));
#54 = PRODUCT_CONTEXT('',#2,'mechanical');
#55 = PRODUCT_DEFINITION_CONTEXT('part definition',#2,'design');
#56 = ADVANCED_BREP_SHAPE_REPRESENTATION('',(#11,#57),#651);
#57 = MANIFOLD_SOLID_BREP('',#58);
#58 = CLOSED_SHELL('',(#59,#99,#130,#161,#192,#223,#239,#255,#286,#317,
    #333,#364,#380,#411,#428,#445,#476,#493,#522,#539,#568,#595,#606,
    #617,#629,#640));
#59 = ADVANCED_FACE('',(#60),#94,.F.);
#60 = FACE_BOUND('',#61,.F.);
#61 = EDGE_LOOP('',(#62,#72,#80,#88));
#62 = ORIENTED_EDGE('',*,*,#63,.F.);
#63 = EDGE_CURVE('',#64,#66,#68,.T.);
#64 = VERTEX_POINT('',#65);
#65 = CARTESIAN_POINT('',(-1.110223024625E-16,1.,1.));
#66 = VERTEX_POINT('',#67);
#67 = CARTESIAN_POINT('',(-7.825047488217E-16,1.,23.));
#68 = LINE('',#69,#70);
#69 = CARTESIAN_POINT('',(0.,1.,0.));
#70 = VECTOR('',#71,1.);
#71 = DIRECTION('',(0.,0.,1.));
#72 = ORIENTED_EDGE('',*,*,#73,.T.);
#73 = EDGE_CURVE('',#64,#74,#76,.T.);
#74 = VERTEX_POINT('',#75);
#75 = CARTESIAN_POINT('',(4.999378336464E-16,39.,1.));
#76 = LINE('',#77,#78);
#77 = CARTESIAN_POINT('',(0.,0.,1.));
#78 = VECTOR('',#79,1.);
#79 = DIRECTION('',(-0.,1.,0.));
#80 = ORIENTED_EDGE('',*,*,#81,.T.);
#81 = EDGE_CURVE('',#74,#82,#84,.T.);
#82 = VERTEX_POINT('',#83);
#83 = CARTESIAN_POINT('',(-1.757248226833E-16,39.,23.));
#84 = LINE('',#85,#86);
#85 = CARTESIAN_POINT('',(0.,39.,0.));
#86 = VECTOR('',#87,1.);
#87 = DIRECTION('',(0.,0.,1.));
#88 = ORIENTED_EDGE('',*,*,#89,.F.);
#89 = EDGE_CURVE('',#66,#82,#90,.T.);
#90 = LINE('',#91,#92);
#91 = CARTESIAN_POINT('',(0.,0.,23.));
#92 = VECTOR('',#93,1.);
#93 = DIRECTION('',(-0.,1.,0.));
#94 = PLANE('',#95);
#95 = AXIS2_PLACEMENT_3D('',#96,#97,#98);
#96 = CARTESIAN_POINT('',(0.,0.,0.));
#97 = DIRECTION('',(1.,0.,-0.));
#98 = DIRECTION('',(0.,0.,1.));
#99 = ADVANCED_FACE('',(#100),#125,.T.);
#100 = FACE_BOUND('',#101,.F.);
#101 = EDGE_LOOP('',(#102,#103,#111,#119));
#102 = ORIENTED_EDGE('',*,*,#63,.T.);
#103 = ORIENTED_EDGE('',*,*,#104,.T.);
#104 = EDGE_CURVE('',#66,#105,#107,.T.);
#105 = VERTEX_POINT('',#106);
#106 = CARTESIAN_POINT('',(1.,-7.825047488217E-16,23.));
#107 = LINE('',#108,#109);
#108 = CARTESIAN_POINT('',(0.5,0.5,23.));
#109 = VECTOR('',#110,1.);
#110 = DIRECTION('',(0.707106781187,-0.707106781187,-1.432749833025E-17)
  );
#111 = ORIENTED_EDGE('',*,*,#112,.F.);
#112 = EDGE_CURVE('',#113,#105,#115,.T.);
#113 = VERTEX_POINT('',#114);
#114 = CARTESIAN_POINT('',(1.,-1.110223024625E-16,1.));
#115 = LINE('',#116,#117);
#116 = CARTESIAN_POINT('',(1.,0.,0.));
#117 = VECTOR('',#118,1.);
#118 = DIRECTION('',(0.,0.,1.));
#119 = ORIENTED_EDGE('',*,*,#120,.F.);
#120 = EDGE_CURVE('',#64,#113,#121,.T.);
#121 = LINE('',#122,#123);
#122 = CARTESIAN_POINT('',(0.5,0.5,1.));
#123 = VECTOR('',#124,1.);
#124 = DIRECTION('',(0.707106781187,-0.707106781187,3.082391018568E-17)
  );
#125 = PLANE('',#126);
#126 = AXIS2_PLACEMENT_3D('',#127,#128,#129);
#127 = CARTESIAN_POINT('',(0.5,0.5,0.));
#128 = DIRECTION('',(-0.707106781187,-0.707106781187,5.911709633991E-18)
  );
#129 = DIRECTION('',(-4.180209970601E-18,-4.180209970601E-18,-1.));
#130 = ADVANCED_FACE('',(#131),#156,.T.);
#131 = FACE_BOUND('',#132,.T.);
#132 = EDGE_LOOP('',(#133,#141,#142,#150));
#133 = ORIENTED_EDGE('',*,*,#134,.T.);
#134 = EDGE_CURVE('',#135,#64,#137,.T.);
#135 = VERTEX_POINT('',#136);
#136 = CARTESIAN_POINT('',(1.,1.,-1.110223024625E-16));
#137 = LINE('',#138,#139);
#138 = CARTESIAN_POINT('',(0.75,1.,0.25));
#139 = VECTOR('',#140,1.);
#140 = DIRECTION('',(-0.707106781187,3.082391018568E-17,0.707106781187)
  );
#141 = ORIENTED_EDGE('',*,*,#73,.T.);
#142 = ORIENTED_EDGE('',*,*,#143,.F.);
#143 = EDGE_CURVE('',#144,#74,#146,.T.);
#144 = VERTEX_POINT('',#145);
#145 = CARTESIAN_POINT('',(1.,39.,4.999378336464E-16));
#146 = LINE('',#147,#148);
#147 = CARTESIAN_POINT('',(0.75,39.,0.25));
#148 = VECTOR('',#149,1.);
#149 = DIRECTION('',(-0.707106781187,2.168913525183E-18,0.707106781187)
  );
#150 = ORIENTED_EDGE('',*,*,#151,.F.);
#151 = EDGE_CURVE('',#135,#144,#152,.T.);
#152 = LINE('',#153,#154);
#153 = CARTESIAN_POINT('',(1.,0.,0.));
#154 = VECTOR('',#155,1.);
#155 = DIRECTION('',(-0.,1.,0.));
#156 = PLANE('',#157);
#157 = AXIS2_PLACEMENT_3D('',#158,#159,#160);
#158 = CARTESIAN_POINT('',(0.5,0.,0.5));
#159 = DIRECTION('',(-0.707106781187,5.911709633991E-18,-0.707106781187)
  );
#160 = DIRECTION('',(4.180209970601E-18,1.,4.180209970601E-18));
#161 = ADVANCED_FACE('',(#162),#187,.F.);
#162 = FACE_BOUND('',#163,.F.);
#163 = EDGE_LOOP('',(#164,#172,#173,#181));
#164 = ORIENTED_EDGE('',*,*,#165,.T.);
#165 = EDGE_CURVE('',#166,#66,#168,.T.);
#166 = VERTEX_POINT('',#167);
#167 = CARTESIAN_POINT('',(1.,1.,24.));
#168 = LINE('',#169,#170);
#169 = CARTESIAN_POINT('',(0.75,1.,23.75));
#170 = VECTOR('',#171,1.);
#171 = DIRECTION('',(-0.707106781187,7.835125728837E-16,-0.707106781187)
  );
#172 = ORIENTED_EDGE('',*,*,#89,.T.);
#173 = ORIENTED_EDGE('',*,*,#174,.T.);
#174 = EDGE_CURVE('',#82,#175,#177,.T.);
#175 = VERTEX_POINT('',#176);
#176 = CARTESIAN_POINT('',(1.,39.,24.));
#177 = LINE('',#178,#179);
#178 = CARTESIAN_POINT('',(0.5,39.,23.5));
#179 = VECTOR('',#180,1.);
#180 = DIRECTION('',(0.707106781187,4.552423086943E-16,0.707106781187));
#181 = ORIENTED_EDGE('',*,*,#182,.F.);
#182 = EDGE_CURVE('',#166,#175,#183,.T.);
#183 = LINE('',#184,#185);
#184 = CARTESIAN_POINT('',(1.,0.,24.));
#185 = VECTOR('',#186,1.);
#186 = DIRECTION('',(-0.,1.,0.));
#187 = PLANE('',#188);
#188 = AXIS2_PLACEMENT_3D('',#189,#190,#191);
#189 = CARTESIAN_POINT('',(0.5,0.,23.5));
#190 = DIRECTION('',(0.707106781187,-5.911709633991E-18,-0.707106781187)
  );
#191 = DIRECTION('',(4.180209970601E-18,1.,-4.180209970601E-18));
#192 = ADVANCED_FACE('',(#193),#218,.F.);
#193 = FACE_BOUND('',#194,.T.);
#194 = EDGE_LOOP('',(#195,#196,#204,#212));
#195 = ORIENTED_EDGE('',*,*,#81,.T.);
#196 = ORIENTED_EDGE('',*,*,#197,.F.);
#197 = EDGE_CURVE('',#198,#82,#200,.T.);
#198 = VERTEX_POINT('',#199);
#199 = CARTESIAN_POINT('',(1.,40.,23.));
#200 = LINE('',#201,#202);
#201 = CARTESIAN_POINT('',(0.75,39.75,23.));
#202 = VECTOR('',#203,1.);
#203 = DIRECTION('',(-0.707106781187,-0.707106781187,-4.334203495548E-16
    ));
#204 = ORIENTED_EDGE('',*,*,#205,.F.);
#205 = EDGE_CURVE('',#206,#198,#208,.T.);
#206 = VERTEX_POINT('',#207);
#207 = CARTESIAN_POINT('',(1.,40.,1.));
#208 = LINE('',#209,#210);
#209 = CARTESIAN_POINT('',(1.,40.,0.));
#210 = VECTOR('',#211,1.);
#211 = DIRECTION('',(0.,0.,1.));
#212 = ORIENTED_EDGE('',*,*,#213,.F.);
#213 = EDGE_CURVE('',#74,#206,#214,.T.);
#214 = LINE('',#215,#216);
#215 = CARTESIAN_POINT('',(0.5,39.5,1.));
#216 = VECTOR('',#217,1.);
#217 = DIRECTION('',(0.707106781187,0.707106781187,-1.769830855689E-15)
  );
#218 = PLANE('',#219);
#219 = AXIS2_PLACEMENT_3D('',#220,#221,#222);
#220 = CARTESIAN_POINT('',(0.5,39.5,0.));
#221 = DIRECTION('',(0.707106781187,-0.707106781187,-5.911709633991E-18)
  );
#222 = DIRECTION('',(-4.180209970601E-18,4.180209970601E-18,-1.));
#223 = ADVANCED_FACE('',(#224),#234,.T.);
#224 = FACE_BOUND('',#225,.T.);
#225 = EDGE_LOOP('',(#226,#227,#233));
#226 = ORIENTED_EDGE('',*,*,#134,.F.);
#227 = ORIENTED_EDGE('',*,*,#228,.T.);
#228 = EDGE_CURVE('',#135,#113,#229,.T.);
#229 = LINE('',#230,#231);
#230 = CARTESIAN_POINT('',(1.,0.75,0.25));
#231 = VECTOR('',#232,1.);
#232 = DIRECTION('',(-3.082391018568E-17,-0.707106781187,0.707106781187)
  );
#233 = ORIENTED_EDGE('',*,*,#120,.F.);
#234 = PLANE('',#235);
#235 = AXIS2_PLACEMENT_3D('',#236,#237,#238);
#236 = CARTESIAN_POINT('',(1.,1.,-1.110223024625E-16));
#237 = DIRECTION('',(-0.57735026919,-0.57735026919,-0.57735026919));
#238 = DIRECTION('',(0.707106781187,-0.707106781187,-6.803361091336E-18)
  );
#239 = ADVANCED_FACE('',(#240),#250,.F.);
#240 = FACE_BOUND('',#241,.F.);
#241 = EDGE_LOOP('',(#242,#243,#249));
#242 = ORIENTED_EDGE('',*,*,#165,.F.);
#243 = ORIENTED_EDGE('',*,*,#244,.T.);
#244 = EDGE_CURVE('',#166,#105,#245,.T.);
#245 = LINE('',#246,#247);
#246 = CARTESIAN_POINT('',(1.,0.75,23.75));
#247 = VECTOR('',#248,1.);
#248 = DIRECTION('',(8.015164749761E-16,-0.707106781187,-0.707106781187)
  );
#249 = ORIENTED_EDGE('',*,*,#104,.F.);
#250 = PLANE('',#251);
#251 = AXIS2_PLACEMENT_3D('',#252,#253,#254);
#252 = CARTESIAN_POINT('',(1.,1.,24.));
#253 = DIRECTION('',(0.57735026919,0.57735026919,-0.57735026919));
#254 = DIRECTION('',(0.707106781187,-0.707106781187,-2.989245351238E-18)
  );
#255 = ADVANCED_FACE('',(#256),#281,.F.);
#256 = FACE_BOUND('',#257,.F.);
#257 = EDGE_LOOP('',(#258,#259,#267,#275));
#258 = ORIENTED_EDGE('',*,*,#112,.T.);
#259 = ORIENTED_EDGE('',*,*,#260,.T.);
#260 = EDGE_CURVE('',#105,#261,#263,.T.);
#261 = VERTEX_POINT('',#262);
#262 = CARTESIAN_POINT('',(35.,-1.443289932013E-15,23.));
#263 = LINE('',#264,#265);
#264 = CARTESIAN_POINT('',(0.,0.,23.));
#265 = VECTOR('',#266,1.);
#266 = DIRECTION('',(1.,0.,-0.));
#267 = ORIENTED_EDGE('',*,*,#268,.F.);
#268 = EDGE_CURVE('',#269,#261,#271,.T.);
#269 = VERTEX_POINT('',#270);
#270 = CARTESIAN_POINT('',(35.,-7.574234889981E-16,1.));
#271 = LINE('',#272,#273);
#272 = CARTESIAN_POINT('',(35.,0.,0.));
#273 = VECTOR('',#274,1.);
#274 = DIRECTION('',(0.,0.,1.));
#275 = ORIENTED_EDGE('',*,*,#276,.F.);
#276 = EDGE_CURVE('',#113,#269,#277,.T.);
#277 = LINE('',#278,#279);
#278 = CARTESIAN_POINT('',(0.,0.,1.));
#279 = VECTOR('',#280,1.);
#280 = DIRECTION('',(1.,0.,-0.));
#281 = PLANE('',#282);
#282 = AXIS2_PLACEMENT_3D('',#283,#284,#285);
#283 = CARTESIAN_POINT('',(0.,0.,0.));
#284 = DIRECTION('',(-0.,1.,0.));
#285 = DIRECTION('',(0.,0.,1.));
#286 = ADVANCED_FACE('',(#287),#312,.F.);
#287 = FACE_BOUND('',#288,.F.);
#288 = EDGE_LOOP('',(#289,#290,#298,#306));
#289 = ORIENTED_EDGE('',*,*,#151,.F.);
#290 = ORIENTED_EDGE('',*,*,#291,.T.);
#291 = EDGE_CURVE('',#135,#292,#294,.T.);
#292 = VERTEX_POINT('',#293);
#293 = CARTESIAN_POINT('',(35.,1.,4.915774137052E-16));
#294 = LINE('',#295,#296);
#295 = CARTESIAN_POINT('',(0.,1.,0.));
#296 = VECTOR('',#297,1.);
#297 = DIRECTION('',(1.,0.,-0.));
#298 = ORIENTED_EDGE('',*,*,#299,.T.);
#299 = EDGE_CURVE('',#292,#300,#302,.T.);
#300 = VERTEX_POINT('',#301);
#301 = CARTESIAN_POINT('',(35.,39.,1.110223024625E-15));
#302 = LINE('',#303,#304);
#303 = CARTESIAN_POINT('',(35.,0.,0.));
#304 = VECTOR('',#305,1.);
#305 = DIRECTION('',(-0.,1.,0.));
#306 = ORIENTED_EDGE('',*,*,#307,.F.);
#307 = EDGE_CURVE('',#144,#300,#308,.T.);
#308 = LINE('',#309,#310);
#309 = CARTESIAN_POINT('',(0.,39.,0.));
#310 = VECTOR('',#311,1.);
#311 = DIRECTION('',(1.,0.,-0.));
#312 = PLANE('',#313);
#313 = AXIS2_PLACEMENT_3D('',#314,#315,#316);
#314 = CARTESIAN_POINT('',(0.,0.,0.));
#315 = DIRECTION('',(0.,0.,1.));
#316 = DIRECTION('',(1.,0.,-0.));
#317 = ADVANCED_FACE('',(#318),#328,.F.);
#318 = FACE_BOUND('',#319,.F.);
#319 = EDGE_LOOP('',(#320,#321,#327));
#320 = ORIENTED_EDGE('',*,*,#143,.F.);
#321 = ORIENTED_EDGE('',*,*,#322,.T.);
#322 = EDGE_CURVE('',#144,#206,#323,.T.);
#323 = LINE('',#324,#325);
#324 = CARTESIAN_POINT('',(1.,39.25,0.25));
#325 = VECTOR('',#326,1.);
#326 = DIRECTION('',(-1.72849750422E-15,0.707106781187,0.707106781187));
#327 = ORIENTED_EDGE('',*,*,#213,.F.);
#328 = PLANE('',#329);
#329 = AXIS2_PLACEMENT_3D('',#330,#331,#332);
#330 = CARTESIAN_POINT('',(1.,39.,4.999378336464E-16));
#331 = DIRECTION('',(0.57735026919,-0.57735026919,0.57735026919));
#332 = DIRECTION('',(0.707106781187,0.707106781187,-7.541021809399E-16)
  );
#333 = ADVANCED_FACE('',(#334),#359,.T.);
#334 = FACE_BOUND('',#335,.T.);
#335 = EDGE_LOOP('',(#336,#337,#345,#353));
#336 = ORIENTED_EDGE('',*,*,#182,.F.);
#337 = ORIENTED_EDGE('',*,*,#338,.T.);
#338 = EDGE_CURVE('',#166,#339,#341,.T.);
#339 = VERTEX_POINT('',#340);
#340 = CARTESIAN_POINT('',(35.,1.,24.));
#341 = LINE('',#342,#343);
#342 = CARTESIAN_POINT('',(0.,1.,24.));
#343 = VECTOR('',#344,1.);
#344 = DIRECTION('',(1.,0.,-0.));
#345 = ORIENTED_EDGE('',*,*,#346,.T.);
#346 = EDGE_CURVE('',#339,#347,#349,.T.);
#347 = VERTEX_POINT('',#348);
#348 = CARTESIAN_POINT('',(35.,39.,24.));
#349 = LINE('',#350,#351);
#350 = CARTESIAN_POINT('',(35.,0.,24.));
#351 = VECTOR('',#352,1.);
#352 = DIRECTION('',(-0.,1.,0.));
#353 = ORIENTED_EDGE('',*,*,#354,.F.);
#354 = EDGE_CURVE('',#175,#347,#355,.T.);
#355 = LINE('',#356,#357);
#356 = CARTESIAN_POINT('',(0.,39.,24.));
#357 = VECTOR('',#358,1.);
#358 = DIRECTION('',(1.,0.,-0.));
#359 = PLANE('',#360);
#360 = AXIS2_PLACEMENT_3D('',#361,#362,#363);
#361 = CARTESIAN_POINT('',(0.,0.,24.));
#362 = DIRECTION('',(0.,0.,1.));
#363 = DIRECTION('',(1.,0.,-0.));
#364 = ADVANCED_FACE('',(#365),#375,.F.);
#365 = FACE_BOUND('',#366,.F.);
#366 = EDGE_LOOP('',(#367,#368,#374));
#367 = ORIENTED_EDGE('',*,*,#197,.F.);
#368 = ORIENTED_EDGE('',*,*,#369,.T.);
#369 = EDGE_CURVE('',#198,#175,#370,.T.);
#370 = LINE('',#371,#372);
#371 = CARTESIAN_POINT('',(1.,39.75,23.25));
#372 = VECTOR('',#373,1.);
#373 = DIRECTION('',(4.732032204111E-17,-0.707106781187,0.707106781187)
  );
#374 = ORIENTED_EDGE('',*,*,#174,.F.);
#375 = PLANE('',#376);
#376 = AXIS2_PLACEMENT_3D('',#377,#378,#379);
#377 = CARTESIAN_POINT('',(1.,40.,23.));
#378 = DIRECTION('',(0.57735026919,-0.57735026919,-0.57735026919));
#379 = DIRECTION('',(0.707106781187,5.792424291447E-19,0.707106781187));
#380 = ADVANCED_FACE('',(#381),#406,.T.);
#381 = FACE_BOUND('',#382,.T.);
#382 = EDGE_LOOP('',(#383,#384,#392,#400));
#383 = ORIENTED_EDGE('',*,*,#205,.T.);
#384 = ORIENTED_EDGE('',*,*,#385,.T.);
#385 = EDGE_CURVE('',#198,#386,#388,.T.);
#386 = VERTEX_POINT('',#387);
#387 = CARTESIAN_POINT('',(35.,40.,23.));
#388 = LINE('',#389,#390);
#389 = CARTESIAN_POINT('',(0.,40.,23.));
#390 = VECTOR('',#391,1.);
#391 = DIRECTION('',(1.,0.,-0.));
#392 = ORIENTED_EDGE('',*,*,#393,.F.);
#393 = EDGE_CURVE('',#394,#386,#396,.T.);
#394 = VERTEX_POINT('',#395);
#395 = CARTESIAN_POINT('',(35.,40.,1.));
#396 = LINE('',#397,#398);
#397 = CARTESIAN_POINT('',(35.,40.,0.));
#398 = VECTOR('',#399,1.);
#399 = DIRECTION('',(0.,0.,1.));
#400 = ORIENTED_EDGE('',*,*,#401,.F.);
#401 = EDGE_CURVE('',#206,#394,#402,.T.);
#402 = LINE('',#403,#404);
#403 = CARTESIAN_POINT('',(0.,40.,1.));
#404 = VECTOR('',#405,1.);
#405 = DIRECTION('',(1.,0.,-0.));
#406 = PLANE('',#407);
#407 = AXIS2_PLACEMENT_3D('',#408,#409,#410);
#408 = CARTESIAN_POINT('',(0.,40.,0.));
#409 = DIRECTION('',(-0.,1.,0.));
#410 = DIRECTION('',(0.,0.,1.));
#411 = ADVANCED_FACE('',(#412),#423,.T.);
#412 = FACE_BOUND('',#413,.F.);
#413 = EDGE_LOOP('',(#414,#415,#416,#422));
#414 = ORIENTED_EDGE('',*,*,#228,.T.);
#415 = ORIENTED_EDGE('',*,*,#276,.T.);
#416 = ORIENTED_EDGE('',*,*,#417,.F.);
#417 = EDGE_CURVE('',#292,#269,#418,.T.);
#418 = LINE('',#419,#420);
#419 = CARTESIAN_POINT('',(35.,0.75,0.25));
#420 = VECTOR('',#421,1.);
#421 = DIRECTION('',(7.835125728837E-16,-0.707106781187,0.707106781187)
  );
#422 = ORIENTED_EDGE('',*,*,#291,.F.);
#423 = PLANE('',#424);
#424 = AXIS2_PLACEMENT_3D('',#425,#426,#427);
#425 = CARTESIAN_POINT('',(0.,0.5,0.5));
#426 = DIRECTION('',(5.911709633991E-18,-0.707106781187,-0.707106781187)
  );
#427 = DIRECTION('',(-1.,-4.180209970601E-18,-4.180209970601E-18));
#428 = ADVANCED_FACE('',(#429),#440,.F.);
#429 = FACE_BOUND('',#430,.T.);
#430 = EDGE_LOOP('',(#431,#432,#433,#439));
#431 = ORIENTED_EDGE('',*,*,#244,.T.);
#432 = ORIENTED_EDGE('',*,*,#260,.T.);
#433 = ORIENTED_EDGE('',*,*,#434,.F.);
#434 = EDGE_CURVE('',#339,#261,#435,.T.);
#435 = LINE('',#436,#437);
#436 = CARTESIAN_POINT('',(35.,0.75,23.75));
#437 = VECTOR('',#438,1.);
#438 = DIRECTION('',(4.154164474624E-16,-0.707106781187,-0.707106781187)
  );
#439 = ORIENTED_EDGE('',*,*,#338,.F.);
#440 = PLANE('',#441);
#441 = AXIS2_PLACEMENT_3D('',#442,#443,#444);
#442 = CARTESIAN_POINT('',(0.,0.5,23.5));
#443 = DIRECTION('',(-5.911709633991E-18,0.707106781187,-0.707106781187)
  );
#444 = DIRECTION('',(-1.,-4.180209970601E-18,4.180209970601E-18));
#445 = ADVANCED_FACE('',(#446),#471,.F.);
#446 = FACE_BOUND('',#447,.T.);
#447 = EDGE_LOOP('',(#448,#458,#464,#465));
#448 = ORIENTED_EDGE('',*,*,#449,.T.);
#449 = EDGE_CURVE('',#450,#452,#454,.T.);
#450 = VERTEX_POINT('',#451);
#451 = CARTESIAN_POINT('',(36.,1.,1.));
#452 = VERTEX_POINT('',#453);
#453 = CARTESIAN_POINT('',(36.,1.,23.));
#454 = LINE('',#455,#456);
#455 = CARTESIAN_POINT('',(36.,1.,0.));
#456 = VECTOR('',#457,1.);
#457 = DIRECTION('',(0.,0.,1.));
#458 = ORIENTED_EDGE('',*,*,#459,.T.);
#459 = EDGE_CURVE('',#452,#261,#460,.T.);
#460 = LINE('',#461,#462);
#461 = CARTESIAN_POINT('',(35.5,0.5,23.));
#462 = VECTOR('',#463,1.);
#463 = DIRECTION('',(-0.707106781187,-0.707106781187,3.770980764675E-16)
  );
#464 = ORIENTED_EDGE('',*,*,#268,.F.);
#465 = ORIENTED_EDGE('',*,*,#466,.F.);
#466 = EDGE_CURVE('',#450,#269,#467,.T.);
#467 = LINE('',#468,#469);
#468 = CARTESIAN_POINT('',(35.5,0.5,1.));
#469 = VECTOR('',#470,1.);
#470 = DIRECTION('',(-0.707106781187,-0.707106781187,-8.015164749761E-16
    ));
#471 = PLANE('',#472);
#472 = AXIS2_PLACEMENT_3D('',#473,#474,#475);
#473 = CARTESIAN_POINT('',(35.5,0.5,0.));
#474 = DIRECTION('',(-0.707106781187,0.707106781187,-5.911709633991E-18)
  );
#475 = DIRECTION('',(4.180209970601E-18,-4.180209970601E-18,-1.));
#476 = ADVANCED_FACE('',(#477),#488,.F.);
#477 = FACE_BOUND('',#478,.T.);
#478 = EDGE_LOOP('',(#479,#480,#481,#487));
#479 = ORIENTED_EDGE('',*,*,#322,.T.);
#480 = ORIENTED_EDGE('',*,*,#401,.T.);
#481 = ORIENTED_EDGE('',*,*,#482,.F.);
#482 = EDGE_CURVE('',#300,#394,#483,.T.);
#483 = LINE('',#484,#485);
#484 = CARTESIAN_POINT('',(35.,39.25,0.25));
#485 = VECTOR('',#486,1.);
#486 = DIRECTION('',(1.360401378799E-15,0.707106781187,0.707106781187));
#487 = ORIENTED_EDGE('',*,*,#307,.F.);
#488 = PLANE('',#489);
#489 = AXIS2_PLACEMENT_3D('',#490,#491,#492);
#490 = CARTESIAN_POINT('',(0.,39.5,0.5));
#491 = DIRECTION('',(-5.911709633991E-18,-0.707106781187,0.707106781187)
  );
#492 = DIRECTION('',(-1.,4.180209970601E-18,-4.180209970601E-18));
#493 = ADVANCED_FACE('',(#494),#517,.F.);
#494 = FACE_BOUND('',#495,.F.);
#495 = EDGE_LOOP('',(#496,#502,#510,#516));
#496 = ORIENTED_EDGE('',*,*,#497,.T.);
#497 = EDGE_CURVE('',#292,#450,#498,.T.);
#498 = LINE('',#499,#500);
#499 = CARTESIAN_POINT('',(35.25,1.,0.25));
#500 = VECTOR('',#501,1.);
#501 = DIRECTION('',(0.707106781187,1.432749833025E-17,0.707106781187));
#502 = ORIENTED_EDGE('',*,*,#503,.T.);
#503 = EDGE_CURVE('',#450,#504,#506,.T.);
#504 = VERTEX_POINT('',#505);
#505 = CARTESIAN_POINT('',(36.,39.,1.));
#506 = LINE('',#507,#508);
#507 = CARTESIAN_POINT('',(36.,0.,1.));
#508 = VECTOR('',#509,1.);
#509 = DIRECTION('',(-0.,1.,0.));
#510 = ORIENTED_EDGE('',*,*,#511,.F.);
#511 = EDGE_CURVE('',#300,#504,#512,.T.);
#512 = LINE('',#513,#514);
#513 = CARTESIAN_POINT('',(35.25,39.,0.25));
#514 = VECTOR('',#515,1.);
#515 = DIRECTION('',(0.707106781187,-4.222494849834E-16,0.707106781187)
  );
#516 = ORIENTED_EDGE('',*,*,#299,.F.);
#517 = PLANE('',#518);
#518 = AXIS2_PLACEMENT_3D('',#519,#520,#521);
#519 = CARTESIAN_POINT('',(35.5,0.,0.5));
#520 = DIRECTION('',(-0.707106781187,-5.911709633991E-18,0.707106781187)
  );
#521 = DIRECTION('',(-4.180209970601E-18,1.,4.180209970601E-18));
#522 = ADVANCED_FACE('',(#523),#534,.T.);
#523 = FACE_BOUND('',#524,.F.);
#524 = EDGE_LOOP('',(#525,#526,#527,#533));
#525 = ORIENTED_EDGE('',*,*,#369,.F.);
#526 = ORIENTED_EDGE('',*,*,#385,.T.);
#527 = ORIENTED_EDGE('',*,*,#528,.T.);
#528 = EDGE_CURVE('',#386,#347,#529,.T.);
#529 = LINE('',#530,#531);
#530 = CARTESIAN_POINT('',(35.,39.75,23.25));
#531 = VECTOR('',#532,1.);
#532 = DIRECTION('',(-3.082391018568E-17,-0.707106781187,0.707106781187)
  );
#533 = ORIENTED_EDGE('',*,*,#354,.F.);
#534 = PLANE('',#535);
#535 = AXIS2_PLACEMENT_3D('',#536,#537,#538);
#536 = CARTESIAN_POINT('',(0.,39.5,23.5));
#537 = DIRECTION('',(5.911709633991E-18,0.707106781187,0.707106781187));
#538 = DIRECTION('',(-1.,4.180209970601E-18,4.180209970601E-18));
#539 = ADVANCED_FACE('',(#540),#563,.T.);
#540 = FACE_BOUND('',#541,.T.);
#541 = EDGE_LOOP('',(#542,#548,#556,#562));
#542 = ORIENTED_EDGE('',*,*,#543,.T.);
#543 = EDGE_CURVE('',#339,#452,#544,.T.);
#544 = LINE('',#545,#546);
#545 = CARTESIAN_POINT('',(35.25,1.,23.75));
#546 = VECTOR('',#547,1.);
#547 = DIRECTION('',(0.707106781187,3.082391018568E-17,-0.707106781187)
  );
#548 = ORIENTED_EDGE('',*,*,#549,.T.);
#549 = EDGE_CURVE('',#452,#550,#552,.T.);
#550 = VERTEX_POINT('',#551);
#551 = CARTESIAN_POINT('',(36.,39.,23.));
#552 = LINE('',#553,#554);
#553 = CARTESIAN_POINT('',(36.,0.,23.));
#554 = VECTOR('',#555,1.);
#555 = DIRECTION('',(-0.,1.,0.));
#556 = ORIENTED_EDGE('',*,*,#557,.T.);
#557 = EDGE_CURVE('',#550,#347,#558,.T.);
#558 = LINE('',#559,#560);
#559 = CARTESIAN_POINT('',(35.5,39.,23.5));
#560 = VECTOR('',#561,1.);
#561 = DIRECTION('',(-0.707106781187,3.082391018568E-17,0.707106781187)
  );
#562 = ORIENTED_EDGE('',*,*,#346,.F.);
#563 = PLANE('',#564);
#564 = AXIS2_PLACEMENT_3D('',#565,#566,#567);
#565 = CARTESIAN_POINT('',(35.5,0.,23.5));
#566 = DIRECTION('',(0.707106781187,5.911709633991E-18,0.707106781187));
#567 = DIRECTION('',(-4.180209970601E-18,1.,-4.180209970601E-18));
#568 = ADVANCED_FACE('',(#569),#590,.T.);
#569 = FACE_BOUND('',#570,.F.);
#570 = EDGE_LOOP('',(#571,#577,#583,#584));
#571 = ORIENTED_EDGE('',*,*,#572,.T.);
#572 = EDGE_CURVE('',#504,#550,#573,.T.);
#573 = LINE('',#574,#575);
#574 = CARTESIAN_POINT('',(36.,39.,0.));
#575 = VECTOR('',#576,1.);
#576 = DIRECTION('',(0.,0.,1.));
#577 = ORIENTED_EDGE('',*,*,#578,.F.);
#578 = EDGE_CURVE('',#386,#550,#579,.T.);
#579 = LINE('',#580,#581);
#580 = CARTESIAN_POINT('',(35.25,39.75,23.));
#581 = VECTOR('',#582,1.);
#582 = DIRECTION('',(0.707106781187,-0.707106781187,3.082391018568E-17)
  );
#583 = ORIENTED_EDGE('',*,*,#393,.F.);
#584 = ORIENTED_EDGE('',*,*,#585,.F.);
#585 = EDGE_CURVE('',#504,#394,#586,.T.);
#586 = LINE('',#587,#588);
#587 = CARTESIAN_POINT('',(35.5,39.5,1.));
#588 = VECTOR('',#589,1.);
#589 = DIRECTION('',(-0.707106781187,0.707106781187,-1.730004994457E-15)
  );
#590 = PLANE('',#591);
#591 = AXIS2_PLACEMENT_3D('',#592,#593,#594);
#592 = CARTESIAN_POINT('',(35.5,39.5,0.));
#593 = DIRECTION('',(0.707106781187,0.707106781187,5.911709633991E-18));
#594 = DIRECTION('',(4.180209970601E-18,4.180209970601E-18,-1.));
#595 = ADVANCED_FACE('',(#596),#601,.F.);
#596 = FACE_BOUND('',#597,.F.);
#597 = EDGE_LOOP('',(#598,#599,#600));
#598 = ORIENTED_EDGE('',*,*,#497,.F.);
#599 = ORIENTED_EDGE('',*,*,#417,.T.);
#600 = ORIENTED_EDGE('',*,*,#466,.F.);
#601 = PLANE('',#602);
#602 = AXIS2_PLACEMENT_3D('',#603,#604,#605);
#603 = CARTESIAN_POINT('',(35.,1.,4.915774137052E-16));
#604 = DIRECTION('',(-0.57735026919,0.57735026919,0.57735026919));
#605 = DIRECTION('',(-0.707106781187,-0.707106781187,-9.34722043567E-16)
  );
#606 = ADVANCED_FACE('',(#607),#612,.T.);
#607 = FACE_BOUND('',#608,.T.);
#608 = EDGE_LOOP('',(#609,#610,#611));
#609 = ORIENTED_EDGE('',*,*,#543,.F.);
#610 = ORIENTED_EDGE('',*,*,#434,.T.);
#611 = ORIENTED_EDGE('',*,*,#459,.F.);
#612 = PLANE('',#613);
#613 = AXIS2_PLACEMENT_3D('',#614,#615,#616);
#614 = CARTESIAN_POINT('',(35.,1.,24.));
#615 = DIRECTION('',(0.57735026919,-0.57735026919,0.57735026919));
#616 = DIRECTION('',(-0.707106781187,-0.707106781187,-2.953981950582E-17
    ));
#617 = ADVANCED_FACE('',(#618),#624,.T.);
#618 = FACE_BOUND('',#619,.T.);
#619 = EDGE_LOOP('',(#620,#621,#622,#623));
#620 = ORIENTED_EDGE('',*,*,#449,.F.);
#621 = ORIENTED_EDGE('',*,*,#503,.T.);
#622 = ORIENTED_EDGE('',*,*,#572,.T.);
#623 = ORIENTED_EDGE('',*,*,#549,.F.);
#624 = PLANE('',#625);
#625 = AXIS2_PLACEMENT_3D('',#626,#627,#628);
#626 = CARTESIAN_POINT('',(36.,0.,0.));
#627 = DIRECTION('',(1.,0.,-0.));
#628 = DIRECTION('',(0.,0.,1.));
#629 = ADVANCED_FACE('',(#630),#635,.T.);
#630 = FACE_BOUND('',#631,.T.);
#631 = EDGE_LOOP('',(#632,#633,#634));
#632 = ORIENTED_EDGE('',*,*,#511,.F.);
#633 = ORIENTED_EDGE('',*,*,#482,.T.);
#634 = ORIENTED_EDGE('',*,*,#585,.F.);
#635 = PLANE('',#636);
#636 = AXIS2_PLACEMENT_3D('',#637,#638,#639);
#637 = CARTESIAN_POINT('',(35.,39.,1.110223024625E-15));
#638 = DIRECTION('',(0.57735026919,0.57735026919,-0.57735026919));
#639 = DIRECTION('',(-0.707106781187,0.707106781187,-1.798935849435E-15)
  );
#640 = ADVANCED_FACE('',(#641),#646,.T.);
#641 = FACE_BOUND('',#642,.T.);
#642 = EDGE_LOOP('',(#643,#644,#645));
#643 = ORIENTED_EDGE('',*,*,#578,.F.);
#644 = ORIENTED_EDGE('',*,*,#528,.T.);
#645 = ORIENTED_EDGE('',*,*,#557,.F.);
#646 = PLANE('',#647);
#647 = AXIS2_PLACEMENT_3D('',#648,#649,#650);
#648 = CARTESIAN_POINT('',(35.,40.,23.));
#649 = DIRECTION('',(0.57735026919,0.57735026919,0.57735026919));
#650 = DIRECTION('',(-0.707106781187,-6.803361091336E-18,0.707106781187)
  );
#651 = ( GEOMETRIC_REPRESENTATION_CONTEXT(3) 
GLOBAL_UNCERTAINTY_ASSIGNED_CONTEXT((#655)) GLOBAL_UNIT_ASSIGNED_CONTEXT
((#652,#653,#654)) REPRESENTATION_CONTEXT('Context #1',
  '3D Context with UNIT and UNCERTAINTY') );
#652 = ( LENGTH_UNIT() NAMED_UNIT(*) SI_UNIT(.MILLI.,.METRE.) );
#653 = ( NAMED_UNIT(*) PLANE_ANGLE_UNIT() SI_UNIT($,.RADIAN.) );
#654 = ( NAMED_UNIT(*) SI_UNIT($,.STERADIAN.) SOLID_ANGLE_UNIT() );
#655 = UNCERTAINTY_MEASURE_WITH_UNIT(LENGTH_MEASURE(1.E-07),#652,
  'distance_accuracy_value','confusion accuracy');
#656 = CONTEXT_DEPENDENT_SHAPE_REPRESENTATION(#657,#659);
#657 = ( REPRESENTATION_RELATIONSHIP('','',#56,#10) 
REPRESENTATION_RELATIONSHIP_WITH_TRANSFORMATION(#658) 
SHAPE_REPRESENTATION_RELATIONSHIP() );
#658 = ITEM_DEFINED_TRANSFORMATION('','',#11,#15);
#659 = PRODUCT_DEFINITION_SHAPE('Placement','Placement of an item',#660
  );
#660 = NEXT_ASSEMBLY_USAGE_OCCURRENCE('37','housing','',#5,#51,$);
#661 = PRODUCT_RELATED_PRODUCT_CATEGORY('part',$,(#53));
#662 = SHAPE_DEFINITION_REPRESENTATION(#663,#669);
#663 = PRODUCT_DEFINITION_SHAPE('','',#664);
#664 = PRODUCT_DEFINITION('design','',#665,#668);
#665 = PRODUCT_DEFINITION_FORMATION('','',#666);
#666 = PRODUCT('sensing_face','sensing_face','',(#667));
#667 = PRODUCT_CONTEXT('',#2,'mechanical');
#668 = PRODUCT_DEFINITION_CONTEXT('part definition',#2,'design');
#669 = ADVANCED_BREP_SHAPE_REPRESENTATION('',(#11,#670),#820);
#670 = MANIFOLD_SOLID_BREP('',#671);
#671 = CLOSED_SHELL('',(#672,#712,#752,#774,#796,#808));
#672 = ADVANCED_FACE('',(#673),#707,.F.);
#673 = FACE_BOUND('',#674,.F.);
#674 = EDGE_LOOP('',(#675,#685,#693,#701));
#675 = ORIENTED_EDGE('',*,*,#676,.F.);
#676 = EDGE_CURVE('',#677,#679,#681,.T.);
#677 = VERTEX_POINT('',#678);
#678 = CARTESIAN_POINT('',(4.,4.,23.7));
#679 = VERTEX_POINT('',#680);
#680 = CARTESIAN_POINT('',(4.,4.,24.3));
#681 = LINE('',#682,#683);
#682 = CARTESIAN_POINT('',(4.,4.,23.7));
#683 = VECTOR('',#684,1.);
#684 = DIRECTION('',(0.,0.,1.));
#685 = ORIENTED_EDGE('',*,*,#686,.T.);
#686 = EDGE_CURVE('',#677,#687,#689,.T.);
#687 = VERTEX_POINT('',#688);
#688 = CARTESIAN_POINT('',(4.,36.,23.7));
#689 = LINE('',#690,#691);
#690 = CARTESIAN_POINT('',(4.,4.,23.7));
#691 = VECTOR('',#692,1.);
#692 = DIRECTION('',(-0.,1.,0.));
#693 = ORIENTED_EDGE('',*,*,#694,.T.);
#694 = EDGE_CURVE('',#687,#695,#697,.T.);
#695 = VERTEX_POINT('',#696);
#696 = CARTESIAN_POINT('',(4.,36.,24.3));
#697 = LINE('',#698,#699);
#698 = CARTESIAN_POINT('',(4.,36.,23.7));
#699 = VECTOR('',#700,1.);
#700 = DIRECTION('',(0.,0.,1.));
#701 = ORIENTED_EDGE('',*,*,#702,.F.);
#702 = EDGE_CURVE('',#679,#695,#703,.T.);
#703 = LINE('',#704,#705);
#704 = CARTESIAN_POINT('',(4.,4.,24.3));
#705 = VECTOR('',#706,1.);
#706 = DIRECTION('',(-0.,1.,0.));
#707 = PLANE('',#708);
#708 = AXIS2_PLACEMENT_3D('',#709,#710,#711);
#709 = CARTESIAN_POINT('',(4.,4.,23.7));
#710 = DIRECTION('',(1.,0.,-0.));
#711 = DIRECTION('',(0.,0.,1.));
#712 = ADVANCED_FACE('',(#713),#747,.T.);
#713 = FACE_BOUND('',#714,.T.);
#714 = EDGE_LOOP('',(#715,#725,#733,#741));
#715 = ORIENTED_EDGE('',*,*,#716,.F.);
#716 = EDGE_CURVE('',#717,#719,#721,.T.);
#717 = VERTEX_POINT('',#718);
#718 = CARTESIAN_POINT('',(32.,4.,23.7));
#719 = VERTEX_POINT('',#720);
#720 = CARTESIAN_POINT('',(32.,4.,24.3));
#721 = LINE('',#722,#723);
#722 = CARTESIAN_POINT('',(32.,4.,23.7));
#723 = VECTOR('',#724,1.);
#724 = DIRECTION('',(0.,0.,1.));
#725 = ORIENTED_EDGE('',*,*,#726,.T.);
#726 = EDGE_CURVE('',#717,#727,#729,.T.);
#727 = VERTEX_POINT('',#728);
#728 = CARTESIAN_POINT('',(32.,36.,23.7));
#729 = LINE('',#730,#731);
#730 = CARTESIAN_POINT('',(32.,4.,23.7));
#731 = VECTOR('',#732,1.);
#732 = DIRECTION('',(-0.,1.,0.));
#733 = ORIENTED_EDGE('',*,*,#734,.T.);
#734 = EDGE_CURVE('',#727,#735,#737,.T.);
#735 = VERTEX_POINT('',#736);
#736 = CARTESIAN_POINT('',(32.,36.,24.3));
#737 = LINE('',#738,#739);
#738 = CARTESIAN_POINT('',(32.,36.,23.7));
#739 = VECTOR('',#740,1.);
#740 = DIRECTION('',(0.,0.,1.));
#741 = ORIENTED_EDGE('',*,*,#742,.F.);
#742 = EDGE_CURVE('',#719,#735,#743,.T.);
#743 = LINE('',#744,#745);
#744 = CARTESIAN_POINT('',(32.,4.,24.3));
#745 = VECTOR('',#746,1.);
#746 = DIRECTION('',(-0.,1.,0.));
#747 = PLANE('',#748);
#748 = AXIS2_PLACEMENT_3D('',#749,#750,#751);
#749 = CARTESIAN_POINT('',(32.,4.,23.7));
#750 = DIRECTION('',(1.,0.,-0.));
#751 = DIRECTION('',(0.,0.,1.));
#752 = ADVANCED_FACE('',(#753),#769,.F.);
#753 = FACE_BOUND('',#754,.F.);
#754 = EDGE_LOOP('',(#755,#761,#762,#768));
#755 = ORIENTED_EDGE('',*,*,#756,.F.);
#756 = EDGE_CURVE('',#677,#717,#757,.T.);
#757 = LINE('',#758,#759);
#758 = CARTESIAN_POINT('',(4.,4.,23.7));
#759 = VECTOR('',#760,1.);
#760 = DIRECTION('',(1.,0.,-0.));
#761 = ORIENTED_EDGE('',*,*,#676,.T.);
#762 = ORIENTED_EDGE('',*,*,#763,.T.);
#763 = EDGE_CURVE('',#679,#719,#764,.T.);
#764 = LINE('',#765,#766);
#765 = CARTESIAN_POINT('',(4.,4.,24.3));
#766 = VECTOR('',#767,1.);
#767 = DIRECTION('',(1.,0.,-0.));
#768 = ORIENTED_EDGE('',*,*,#716,.F.);
#769 = PLANE('',#770);
#770 = AXIS2_PLACEMENT_3D('',#771,#772,#773);
#771 = CARTESIAN_POINT('',(4.,4.,23.7));
#772 = DIRECTION('',(-0.,1.,0.));
#773 = DIRECTION('',(0.,0.,1.));
#774 = ADVANCED_FACE('',(#775),#791,.T.);
#775 = FACE_BOUND('',#776,.T.);
#776 = EDGE_LOOP('',(#777,#783,#784,#790));
#777 = ORIENTED_EDGE('',*,*,#778,.F.);
#778 = EDGE_CURVE('',#687,#727,#779,.T.);
#779 = LINE('',#780,#781);
#780 = CARTESIAN_POINT('',(4.,36.,23.7));
#781 = VECTOR('',#782,1.);
#782 = DIRECTION('',(1.,0.,-0.));
#783 = ORIENTED_EDGE('',*,*,#694,.T.);
#784 = ORIENTED_EDGE('',*,*,#785,.T.);
#785 = EDGE_CURVE('',#695,#735,#786,.T.);
#786 = LINE('',#787,#788);
#787 = CARTESIAN_POINT('',(4.,36.,24.3));
#788 = VECTOR('',#789,1.);
#789 = DIRECTION('',(1.,0.,-0.));
#790 = ORIENTED_EDGE('',*,*,#734,.F.);
#791 = PLANE('',#792);
#792 = AXIS2_PLACEMENT_3D('',#793,#794,#795);
#793 = CARTESIAN_POINT('',(4.,36.,23.7));
#794 = DIRECTION('',(-0.,1.,0.));
#795 = DIRECTION('',(0.,0.,1.));
#796 = ADVANCED_FACE('',(#797),#803,.F.);
#797 = FACE_BOUND('',#798,.F.);
#798 = EDGE_LOOP('',(#799,#800,#801,#802));
#799 = ORIENTED_EDGE('',*,*,#686,.F.);
#800 = ORIENTED_EDGE('',*,*,#756,.T.);
#801 = ORIENTED_EDGE('',*,*,#726,.T.);
#802 = ORIENTED_EDGE('',*,*,#778,.F.);
#803 = PLANE('',#804);
#804 = AXIS2_PLACEMENT_3D('',#805,#806,#807);
#805 = CARTESIAN_POINT('',(4.,4.,23.7));
#806 = DIRECTION('',(0.,0.,1.));
#807 = DIRECTION('',(1.,0.,-0.));
#808 = ADVANCED_FACE('',(#809),#815,.T.);
#809 = FACE_BOUND('',#810,.T.);
#810 = EDGE_LOOP('',(#811,#812,#813,#814));
#811 = ORIENTED_EDGE('',*,*,#702,.F.);
#812 = ORIENTED_EDGE('',*,*,#763,.T.);
#813 = ORIENTED_EDGE('',*,*,#742,.T.);
#814 = ORIENTED_EDGE('',*,*,#785,.F.);
#815 = PLANE('',#816);
#816 = AXIS2_PLACEMENT_3D('',#817,#818,#819);
#817 = CARTESIAN_POINT('',(4.,4.,24.3));
#818 = DIRECTION('',(0.,0.,1.));
#819 = DIRECTION('',(1.,0.,-0.));
#820 = ( GEOMETRIC_REPRESENTATION_CONTEXT(3) 
GLOBAL_UNCERTAINTY_ASSIGNED_CONTEXT((#824)) GLOBAL_UNIT_ASSIGNED_CONTEXT
((#821,#822,#823)) REPRESENTATION_CONTEXT('Context #1',
  '3D Context with UNIT and UNCERTAINTY') );
#821 = ( LENGTH_UNIT() NAMED_UNIT(*) SI_UNIT(.MILLI.,.METRE.) );
#822 = ( NAMED_UNIT(*) PLANE_ANGLE_UNIT() SI_UNIT($,.RADIAN.) );
#823 = ( NAMED_UNIT(*) SI_UNIT($,.STERADIAN.) SOLID_ANGLE_UNIT() );
#824 = UNCERTAINTY_MEASURE_WITH_UNIT(LENGTH_MEASURE(1.E-07),#821,
  'distance_accuracy_value','confusion accuracy');
#825 = CONTEXT_DEPENDENT_SHAPE_REPRESENTATION(#826,#828);
#826 = ( REPRESENTATION_RELATIONSHIP('','',#669,#10) 
REPRESENTATION_RELATIONSHIP_WITH_TRANSFORMATION(#827) 
SHAPE_REPRESENTATION_RELATIONSHIP() );
#827 = ITEM_DEFINED_TRANSFORMATION('','',#11,#19);
#828 = PRODUCT_DEFINITION_SHAPE('Placement','Placement of an item',#829
  );
#829 = NEXT_ASSEMBLY_USAGE_OCCURRENCE('38','sensing_face','',#5,#664,$);
#830 = PRODUCT_RELATED_PRODUCT_CATEGORY('part',$,(#666));
#831 = SHAPE_DEFINITION_REPRESENTATION(#832,#838);
#832 = PRODUCT_DEFINITION_SHAPE('','',#833);
#833 = PRODUCT_DEFINITION('design','',#834,#837);
#834 = PRODUCT_DEFINITION_FORMATION('','',#835);
#835 = PRODUCT('status_led','status_led','',(#836));
#836 = PRODUCT_CONTEXT('',#2,'mechanical');
#837 = PRODUCT_DEFINITION_CONTEXT('part definition',#2,'design');
#838 = ADVANCED_BREP_SHAPE_REPRESENTATION('',(#11,#839),#892);
#839 = MANIFOLD_SOLID_BREP('',#840);
#840 = CLOSED_SHELL('',(#841,#874,#883));
#841 = ADVANCED_FACE('',(#842),#869,.T.);
#842 = FACE_BOUND('',#843,.T.);
#843 = EDGE_LOOP('',(#844,#853,#861,#868));
#844 = ORIENTED_EDGE('',*,*,#845,.F.);
#845 = EDGE_CURVE('',#846,#846,#848,.T.);
#846 = VERTEX_POINT('',#847);
#847 = CARTESIAN_POINT('',(32.5,35.,25.2));
#848 = CIRCLE('',#849,1.5);
#849 = AXIS2_PLACEMENT_3D('',#850,#851,#852);
#850 = CARTESIAN_POINT('',(31.,35.,25.2));
#851 = DIRECTION('',(0.,0.,1.));
#852 = DIRECTION('',(1.,0.,-0.));
#853 = ORIENTED_EDGE('',*,*,#854,.F.);
#854 = EDGE_CURVE('',#855,#846,#857,.T.);
#855 = VERTEX_POINT('',#856);
#856 = CARTESIAN_POINT('',(32.5,35.,24.));
#857 = LINE('',#858,#859);
#858 = CARTESIAN_POINT('',(32.5,35.,24.));
#859 = VECTOR('',#860,1.);
#860 = DIRECTION('',(0.,0.,1.));
#861 = ORIENTED_EDGE('',*,*,#862,.T.);
#862 = EDGE_CURVE('',#855,#855,#863,.T.);
#863 = CIRCLE('',#864,1.5);
#864 = AXIS2_PLACEMENT_3D('',#865,#866,#867);
#865 = CARTESIAN_POINT('',(31.,35.,24.));
#866 = DIRECTION('',(0.,0.,1.));
#867 = DIRECTION('',(1.,0.,-0.));
#868 = ORIENTED_EDGE('',*,*,#854,.T.);
#869 = CYLINDRICAL_SURFACE('',#870,1.5);
#870 = AXIS2_PLACEMENT_3D('',#871,#872,#873);
#871 = CARTESIAN_POINT('',(31.,35.,24.));
#872 = DIRECTION('',(0.,0.,1.));
#873 = DIRECTION('',(1.,0.,-0.));
#874 = ADVANCED_FACE('',(#875),#878,.T.);
#875 = FACE_BOUND('',#876,.T.);
#876 = EDGE_LOOP('',(#877));
#877 = ORIENTED_EDGE('',*,*,#845,.T.);
#878 = PLANE('',#879);
#879 = AXIS2_PLACEMENT_3D('',#880,#881,#882);
#880 = CARTESIAN_POINT('',(31.,35.,25.2));
#881 = DIRECTION('',(0.,0.,1.));
#882 = DIRECTION('',(1.,0.,-0.));
#883 = ADVANCED_FACE('',(#884),#887,.F.);
#884 = FACE_BOUND('',#885,.T.);
#885 = EDGE_LOOP('',(#886));
#886 = ORIENTED_EDGE('',*,*,#862,.F.);
#887 = PLANE('',#888);
#888 = AXIS2_PLACEMENT_3D('',#889,#890,#891);
#889 = CARTESIAN_POINT('',(31.,35.,24.));
#890 = DIRECTION('',(0.,0.,1.));
#891 = DIRECTION('',(1.,0.,-0.));
#892 = ( GEOMETRIC_REPRESENTATION_CONTEXT(3) 
GLOBAL_UNCERTAINTY_ASSIGNED_CONTEXT((#896)) GLOBAL_UNIT_ASSIGNED_CONTEXT
((#893,#894,#895)) REPRESENTATION_CONTEXT('Context #1',
  '3D Context with UNIT and UNCERTAINTY') );
#893 = ( LENGTH_UNIT() NAMED_UNIT(*) SI_UNIT(.MILLI.,.METRE.) );
#894 = ( NAMED_UNIT(*) PLANE_ANGLE_UNIT() SI_UNIT($,.RADIAN.) );
#895 = ( NAMED_UNIT(*) SI_UNIT($,.STERADIAN.) SOLID_ANGLE_UNIT() );
#896 = UNCERTAINTY_MEASURE_WITH_UNIT(LENGTH_MEASURE(1.E-07),#893,
  'distance_accuracy_value','confusion accuracy');
#897 = CONTEXT_DEPENDENT_SHAPE_REPRESENTATION(#898,#900);
#898 = ( REPRESENTATION_RELATIONSHIP('','',#838,#10) 
REPRESENTATION_RELATIONSHIP_WITH_TRANSFORMATION(#899) 
SHAPE_REPRESENTATION_RELATIONSHIP() );
#899 = ITEM_DEFINED_TRANSFORMATION('','',#11,#23);
#900 = PRODUCT_DEFINITION_SHAPE('Placement','Placement of an item',#901
  );
#901 = NEXT_ASSEMBLY_USAGE_OCCURRENCE('39','status_led','',#5,#833,$);
#902 = PRODUCT_RELATED_PRODUCT_CATEGORY('part',$,(#835));
#903 = SHAPE_DEFINITION_REPRESENTATION(#904,#910);
#904 = PRODUCT_DEFINITION_SHAPE('','',#905);
#905 = PRODUCT_DEFINITION('design','',#906,#909);
#906 = PRODUCT_DEFINITION_FORMATION('','',#907);
#907 = PRODUCT('connector_m8','connector_m8','',(#908));
#908 = PRODUCT_CONTEXT('',#2,'mechanical');
#909 = PRODUCT_DEFINITION_CONTEXT('part definition',#2,'design');
#910 = ADVANCED_BREP_SHAPE_REPRESENTATION('',(#11,#911),#1029);
#911 = MANIFOLD_SOLID_BREP('',#912);
#912 = CLOSED_SHELL('',(#913,#930,#950,#975,#995,#1020));
#913 = ADVANCED_FACE('',(#914),#925,.T.);
#914 = FACE_BOUND('',#915,.T.);
#915 = EDGE_LOOP('',(#916));
#916 = ORIENTED_EDGE('',*,*,#917,.T.);
#917 = EDGE_CURVE('',#918,#918,#920,.T.);
#918 = VERTEX_POINT('',#919);
#919 = CARTESIAN_POINT('',(46.,20.,11.));
#920 = CIRCLE('',#921,4.);
#921 = AXIS2_PLACEMENT_3D('',#922,#923,#924);
#922 = CARTESIAN_POINT('',(46.,20.,7.));
#923 = DIRECTION('',(1.,0.,0.));
#924 = DIRECTION('',(-0.,0.,1.));
#925 = PLANE('',#926);
#926 = AXIS2_PLACEMENT_3D('',#927,#928,#929);
#927 = CARTESIAN_POINT('',(46.,20.,7.));
#928 = DIRECTION('',(1.,0.,0.));
#929 = DIRECTION('',(-0.,0.,1.));
#930 = ADVANCED_FACE('',(#931,#942),#945,.T.);
#931 = FACE_BOUND('',#932,.T.);
#932 = EDGE_LOOP('',(#933));
#933 = ORIENTED_EDGE('',*,*,#934,.T.);
#934 = EDGE_CURVE('',#935,#935,#937,.T.);
#935 = VERTEX_POINT('',#936);
#936 = CARTESIAN_POINT('',(46.,20.,11.6));
#937 = CIRCLE('',#938,4.6);
#938 = AXIS2_PLACEMENT_3D('',#939,#940,#941);
#939 = CARTESIAN_POINT('',(46.,20.,7.));
#940 = DIRECTION('',(1.,0.,0.));
#941 = DIRECTION('',(-0.,0.,1.));
#942 = FACE_BOUND('',#943,.T.);
#943 = EDGE_LOOP('',(#944));
#944 = ORIENTED_EDGE('',*,*,#917,.F.);
#945 = PLANE('',#946);
#946 = AXIS2_PLACEMENT_3D('',#947,#948,#949);
#947 = CARTESIAN_POINT('',(46.,20.,7.));
#948 = DIRECTION('',(1.,0.,0.));
#949 = DIRECTION('',(-0.,0.,1.));
#950 = ADVANCED_FACE('',(#951),#970,.T.);
#951 = FACE_BOUND('',#952,.T.);
#952 = EDGE_LOOP('',(#953,#954,#962,#969));
#953 = ORIENTED_EDGE('',*,*,#934,.F.);
#954 = ORIENTED_EDGE('',*,*,#955,.F.);
#955 = EDGE_CURVE('',#956,#935,#958,.T.);
#956 = VERTEX_POINT('',#957);
#957 = CARTESIAN_POINT('',(42.,20.,11.6));
#958 = LINE('',#959,#960);
#959 = CARTESIAN_POINT('',(42.,20.,11.6));
#960 = VECTOR('',#961,1.);
#961 = DIRECTION('',(1.,0.,0.));
#962 = ORIENTED_EDGE('',*,*,#963,.T.);
#963 = EDGE_CURVE('',#956,#956,#964,.T.);
#964 = CIRCLE('',#965,4.6);
#965 = AXIS2_PLACEMENT_3D('',#966,#967,#968);
#966 = CARTESIAN_POINT('',(42.,20.,7.));
#967 = DIRECTION('',(1.,0.,0.));
#968 = DIRECTION('',(-0.,0.,1.));
#969 = ORIENTED_EDGE('',*,*,#955,.T.);
#970 = CYLINDRICAL_SURFACE('',#971,4.6);
#971 = AXIS2_PLACEMENT_3D('',#972,#973,#974);
#972 = CARTESIAN_POINT('',(42.,20.,7.));
#973 = DIRECTION('',(1.,0.,0.));
#974 = DIRECTION('',(-0.,0.,1.));
#975 = ADVANCED_FACE('',(#976,#979),#990,.F.);
#976 = FACE_BOUND('',#977,.F.);
#977 = EDGE_LOOP('',(#978));
#978 = ORIENTED_EDGE('',*,*,#963,.T.);
#979 = FACE_BOUND('',#980,.F.);
#980 = EDGE_LOOP('',(#981));
#981 = ORIENTED_EDGE('',*,*,#982,.F.);
#982 = EDGE_CURVE('',#983,#983,#985,.T.);
#983 = VERTEX_POINT('',#984);
#984 = CARTESIAN_POINT('',(42.,20.,11.));
#985 = CIRCLE('',#986,4.);
#986 = AXIS2_PLACEMENT_3D('',#987,#988,#989);
#987 = CARTESIAN_POINT('',(42.,20.,7.));
#988 = DIRECTION('',(1.,0.,0.));
#989 = DIRECTION('',(-0.,0.,1.));
#990 = PLANE('',#991);
#991 = AXIS2_PLACEMENT_3D('',#992,#993,#994);
#992 = CARTESIAN_POINT('',(42.,20.,7.));
#993 = DIRECTION('',(1.,0.,0.));
#994 = DIRECTION('',(-0.,0.,1.));
#995 = ADVANCED_FACE('',(#996),#1015,.T.);
#996 = FACE_BOUND('',#997,.T.);
#997 = EDGE_LOOP('',(#998,#999,#1007,#1014));
#998 = ORIENTED_EDGE('',*,*,#982,.F.);
#999 = ORIENTED_EDGE('',*,*,#1000,.F.);
#1000 = EDGE_CURVE('',#1001,#983,#1003,.T.);
#1001 = VERTEX_POINT('',#1002);
#1002 = CARTESIAN_POINT('',(36.,20.,11.));
#1003 = LINE('',#1004,#1005);
#1004 = CARTESIAN_POINT('',(36.,20.,11.));
#1005 = VECTOR('',#1006,1.);
#1006 = DIRECTION('',(1.,0.,0.));
#1007 = ORIENTED_EDGE('',*,*,#1008,.T.);
#1008 = EDGE_CURVE('',#1001,#1001,#1009,.T.);
#1009 = CIRCLE('',#1010,4.);
#1010 = AXIS2_PLACEMENT_3D('',#1011,#1012,#1013);
#1011 = CARTESIAN_POINT('',(36.,20.,7.));
#1012 = DIRECTION('',(1.,0.,0.));
#1013 = DIRECTION('',(-0.,0.,1.));
#1014 = ORIENTED_EDGE('',*,*,#1000,.T.);
#1015 = CYLINDRICAL_SURFACE('',#1016,4.);
#1016 = AXIS2_PLACEMENT_3D('',#1017,#1018,#1019);
#1017 = CARTESIAN_POINT('',(36.,20.,7.));
#1018 = DIRECTION('',(1.,0.,0.));
#1019 = DIRECTION('',(-0.,0.,1.));
#1020 = ADVANCED_FACE('',(#1021),#1024,.F.);
#1021 = FACE_BOUND('',#1022,.T.);
#1022 = EDGE_LOOP('',(#1023));
#1023 = ORIENTED_EDGE('',*,*,#1008,.F.);
#1024 = PLANE('',#1025);
#1025 = AXIS2_PLACEMENT_3D('',#1026,#1027,#1028);
#1026 = CARTESIAN_POINT('',(36.,20.,7.));
#1027 = DIRECTION('',(1.,0.,0.));
#1028 = DIRECTION('',(-0.,0.,1.));
#1029 = ( GEOMETRIC_REPRESENTATION_CONTEXT(3) 
GLOBAL_UNCERTAINTY_ASSIGNED_CONTEXT((#1033)) 
GLOBAL_UNIT_ASSIGNED_CONTEXT((#1030,#1031,#1032)) REPRESENTATION_CONTEXT
('Context #1','3D Context with UNIT and UNCERTAINTY') );
#1030 = ( LENGTH_UNIT() NAMED_UNIT(*) SI_UNIT(.MILLI.,.METRE.) );
#1031 = ( NAMED_UNIT(*) PLANE_ANGLE_UNIT() SI_UNIT($,.RADIAN.) );
#1032 = ( NAMED_UNIT(*) SI_UNIT($,.STERADIAN.) SOLID_ANGLE_UNIT() );
#1033 = UNCERTAINTY_MEASURE_WITH_UNIT(LENGTH_MEASURE(1.E-07),#1030,
  'distance_accuracy_value','confusion accuracy');
#1034 = CONTEXT_DEPENDENT_SHAPE_REPRESENTATION(#1035,#1037);
#1035 = ( REPRESENTATION_RELATIONSHIP('','',#910,#10) 
REPRESENTATION_RELATIONSHIP_WITH_TRANSFORMATION(#1036) 
SHAPE_REPRESENTATION_RELATIONSHIP() );
#1036 = ITEM_DEFINED_TRANSFORMATION('','',#11,#27);
#1037 = PRODUCT_DEFINITION_SHAPE('Placement','Placement of an item',
  #1038);
#1038 = NEXT_ASSEMBLY_USAGE_OCCURRENCE('40','connector_m8','',#5,#905,$
  );
#1039 = PRODUCT_RELATED_PRODUCT_CATEGORY('part',$,(#907));
#1040 = SHAPE_DEFINITION_REPRESENTATION(#1041,#1047);
#1041 = PRODUCT_DEFINITION_SHAPE('','',#1042);
#1042 = PRODUCT_DEFINITION('design','',#1043,#1046);
#1043 = PRODUCT_DEFINITION_FORMATION('','',#1044);
#1044 = PRODUCT('cable','cable','',(#1045));
#1045 = PRODUCT_CONTEXT('',#2,'mechanical');
#1046 = PRODUCT_DEFINITION_CONTEXT('part definition',#2,'design');
#1047 = ADVANCED_BREP_SHAPE_REPRESENTATION('',(#11,#1048),#1101);
#1048 = MANIFOLD_SOLID_BREP('',#1049);
#1049 = CLOSED_SHELL('',(#1050,#1083,#1092));
#1050 = ADVANCED_FACE('',(#1051),#1078,.T.);
#1051 = FACE_BOUND('',#1052,.T.);
#1052 = EDGE_LOOP('',(#1053,#1062,#1070,#1077));
#1053 = ORIENTED_EDGE('',*,*,#1054,.F.);
#1054 = EDGE_CURVE('',#1055,#1055,#1057,.T.);
#1055 = VERTEX_POINT('',#1056);
#1056 = CARTESIAN_POINT('',(76.,20.,9.5));
#1057 = CIRCLE('',#1058,2.5);
#1058 = AXIS2_PLACEMENT_3D('',#1059,#1060,#1061);
#1059 = CARTESIAN_POINT('',(76.,20.,7.));
#1060 = DIRECTION('',(1.,0.,0.));
#1061 = DIRECTION('',(-0.,0.,1.));
#1062 = ORIENTED_EDGE('',*,*,#1063,.F.);
#1063 = EDGE_CURVE('',#1064,#1055,#1066,.T.);
#1064 = VERTEX_POINT('',#1065);
#1065 = CARTESIAN_POINT('',(46.,20.,9.5));
#1066 = LINE('',#1067,#1068);
#1067 = CARTESIAN_POINT('',(46.,20.,9.5));
#1068 = VECTOR('',#1069,1.);
#1069 = DIRECTION('',(1.,0.,0.));
#1070 = ORIENTED_EDGE('',*,*,#1071,.T.);
#1071 = EDGE_CURVE('',#1064,#1064,#1072,.T.);
#1072 = CIRCLE('',#1073,2.5);
#1073 = AXIS2_PLACEMENT_3D('',#1074,#1075,#1076);
#1074 = CARTESIAN_POINT('',(46.,20.,7.));
#1075 = DIRECTION('',(1.,0.,0.));
#1076 = DIRECTION('',(-0.,0.,1.));
#1077 = ORIENTED_EDGE('',*,*,#1063,.T.);
#1078 = CYLINDRICAL_SURFACE('',#1079,2.5);
#1079 = AXIS2_PLACEMENT_3D('',#1080,#1081,#1082);
#1080 = CARTESIAN_POINT('',(46.,20.,7.));
#1081 = DIRECTION('',(1.,0.,0.));
#1082 = DIRECTION('',(-0.,0.,1.));
#1083 = ADVANCED_FACE('',(#1084),#1087,.T.);
#1084 = FACE_BOUND('',#1085,.T.);
#1085 = EDGE_LOOP('',(#1086));
#1086 = ORIENTED_EDGE('',*,*,#1054,.T.);
#1087 = PLANE('',#1088);
#1088 = AXIS2_PLACEMENT_3D('',#1089,#1090,#1091);
#1089 = CARTESIAN_POINT('',(76.,20.,7.));
#1090 = DIRECTION('',(1.,0.,0.));
#1091 = DIRECTION('',(-0.,0.,1.));
#1092 = ADVANCED_FACE('',(#1093),#1096,.F.);
#1093 = FACE_BOUND('',#1094,.T.);
#1094 = EDGE_LOOP('',(#1095));
#1095 = ORIENTED_EDGE('',*,*,#1071,.F.);
#1096 = PLANE('',#1097);
#1097 = AXIS2_PLACEMENT_3D('',#1098,#1099,#1100);
#1098 = CARTESIAN_POINT('',(46.,20.,7.));
#1099 = DIRECTION('',(1.,0.,0.));
#1100 = DIRECTION('',(-0.,0.,1.));
#1101 = ( GEOMETRIC_REPRESENTATION_CONTEXT(3) 
GLOBAL_UNCERTAINTY_ASSIGNED_CONTEXT((#1105)) 
GLOBAL_UNIT_ASSIGNED_CONTEXT((#1102,#1103,#1104)) REPRESENTATION_CONTEXT
('Context #1','3D Context with UNIT and UNCERTAINTY') );
#1102 = ( LENGTH_UNIT() NAMED_UNIT(*) SI_UNIT(.MILLI.,.METRE.) );
#1103 = ( NAMED_UNIT(*) PLANE_ANGLE_UNIT() SI_UNIT($,.RADIAN.) );
#1104 = ( NAMED_UNIT(*) SI_UNIT($,.STERADIAN.) SOLID_ANGLE_UNIT() );
#1105 = UNCERTAINTY_MEASURE_WITH_UNIT(LENGTH_MEASURE(1.E-07),#1102,
  'distance_accuracy_value','confusion accuracy');
#1106 = CONTEXT_DEPENDENT_SHAPE_REPRESENTATION(#1107,#1109);
#1107 = ( REPRESENTATION_RELATIONSHIP('','',#1047,#10) 
REPRESENTATION_RELATIONSHIP_WITH_TRANSFORMATION(#1108) 
SHAPE_REPRESENTATION_RELATIONSHIP() );
#1108 = ITEM_DEFINED_TRANSFORMATION('','',#11,#31);
#1109 = PRODUCT_DEFINITION_SHAPE('Placement','Placement of an item',
  #1110);
#1110 = NEXT_ASSEMBLY_USAGE_OCCURRENCE('41','cable','',#5,#1042,$);
#1111 = PRODUCT_RELATED_PRODUCT_CATEGORY('part',$,(#1044));
#1112 = SHAPE_DEFINITION_REPRESENTATION(#1113,#1119);
#1113 = PRODUCT_DEFINITION_SHAPE('','',#1114);
#1114 = PRODUCT_DEFINITION('design','',#1115,#1118);
#1115 = PRODUCT_DEFINITION_FORMATION('','',#1116);
#1116 = PRODUCT('mould_base','mould_base','',(#1117));
#1117 = PRODUCT_CONTEXT('',#2,'mechanical');
#1118 = PRODUCT_DEFINITION_CONTEXT('part definition',#2,'design');
#1119 = ADVANCED_BREP_SHAPE_REPRESENTATION('',(#11,#1120),#1270);
#1120 = MANIFOLD_SOLID_BREP('',#1121);
#1121 = CLOSED_SHELL('',(#1122,#1162,#1202,#1224,#1246,#1258));
#1122 = ADVANCED_FACE('',(#1123),#1157,.F.);
#1123 = FACE_BOUND('',#1124,.F.);
#1124 = EDGE_LOOP('',(#1125,#1135,#1143,#1151));
#1125 = ORIENTED_EDGE('',*,*,#1126,.F.);
#1126 = EDGE_CURVE('',#1127,#1129,#1131,.T.);
#1127 = VERTEX_POINT('',#1128);
#1128 = CARTESIAN_POINT('',(-12.,-12.,34.));
#1129 = VERTEX_POINT('',#1130);
#1130 = CARTESIAN_POINT('',(-12.,-12.,42.));
#1131 = LINE('',#1132,#1133);
#1132 = CARTESIAN_POINT('',(-12.,-12.,34.));
#1133 = VECTOR('',#1134,1.);
#1134 = DIRECTION('',(0.,0.,1.));
#1135 = ORIENTED_EDGE('',*,*,#1136,.T.);
#1136 = EDGE_CURVE('',#1127,#1137,#1139,.T.);
#1137 = VERTEX_POINT('',#1138);
#1138 = CARTESIAN_POINT('',(-12.,52.,34.));
#1139 = LINE('',#1140,#1141);
#1140 = CARTESIAN_POINT('',(-12.,-12.,34.));
#1141 = VECTOR('',#1142,1.);
#1142 = DIRECTION('',(-0.,1.,0.));
#1143 = ORIENTED_EDGE('',*,*,#1144,.T.);
#1144 = EDGE_CURVE('',#1137,#1145,#1147,.T.);
#1145 = VERTEX_POINT('',#1146);
#1146 = CARTESIAN_POINT('',(-12.,52.,42.));
#1147 = LINE('',#1148,#1149);
#1148 = CARTESIAN_POINT('',(-12.,52.,34.));
#1149 = VECTOR('',#1150,1.);
#1150 = DIRECTION('',(0.,0.,1.));
#1151 = ORIENTED_EDGE('',*,*,#1152,.F.);
#1152 = EDGE_CURVE('',#1129,#1145,#1153,.T.);
#1153 = LINE('',#1154,#1155);
#1154 = CARTESIAN_POINT('',(-12.,-12.,42.));
#1155 = VECTOR('',#1156,1.);
#1156 = DIRECTION('',(-0.,1.,0.));
#1157 = PLANE('',#1158);
#1158 = AXIS2_PLACEMENT_3D('',#1159,#1160,#1161);
#1159 = CARTESIAN_POINT('',(-12.,-12.,34.));
#1160 = DIRECTION('',(1.,0.,-0.));
#1161 = DIRECTION('',(0.,0.,1.));
#1162 = ADVANCED_FACE('',(#1163),#1197,.T.);
#1163 = FACE_BOUND('',#1164,.T.);
#1164 = EDGE_LOOP('',(#1165,#1175,#1183,#1191));
#1165 = ORIENTED_EDGE('',*,*,#1166,.F.);
#1166 = EDGE_CURVE('',#1167,#1169,#1171,.T.);
#1167 = VERTEX_POINT('',#1168);
#1168 = CARTESIAN_POINT('',(48.,-12.,34.));
#1169 = VERTEX_POINT('',#1170);
#1170 = CARTESIAN_POINT('',(48.,-12.,42.));
#1171 = LINE('',#1172,#1173);
#1172 = CARTESIAN_POINT('',(48.,-12.,34.));
#1173 = VECTOR('',#1174,1.);
#1174 = DIRECTION('',(0.,0.,1.));
#1175 = ORIENTED_EDGE('',*,*,#1176,.T.);
#1176 = EDGE_CURVE('',#1167,#1177,#1179,.T.);
#1177 = VERTEX_POINT('',#1178);
#1178 = CARTESIAN_POINT('',(48.,52.,34.));
#1179 = LINE('',#1180,#1181);
#1180 = CARTESIAN_POINT('',(48.,-12.,34.));
#1181 = VECTOR('',#1182,1.);
#1182 = DIRECTION('',(-0.,1.,0.));
#1183 = ORIENTED_EDGE('',*,*,#1184,.T.);
#1184 = EDGE_CURVE('',#1177,#1185,#1187,.T.);
#1185 = VERTEX_POINT('',#1186);
#1186 = CARTESIAN_POINT('',(48.,52.,42.));
#1187 = LINE('',#1188,#1189);
#1188 = CARTESIAN_POINT('',(48.,52.,34.));
#1189 = VECTOR('',#1190,1.);
#1190 = DIRECTION('',(0.,0.,1.));
#1191 = ORIENTED_EDGE('',*,*,#1192,.F.);
#1192 = EDGE_CURVE('',#1169,#1185,#1193,.T.);
#1193 = LINE('',#1194,#1195);
#1194 = CARTESIAN_POINT('',(48.,-12.,42.));
#1195 = VECTOR('',#1196,1.);
#1196 = DIRECTION('',(-0.,1.,0.));
#1197 = PLANE('',#1198);
#1198 = AXIS2_PLACEMENT_3D('',#1199,#1200,#1201);
#1199 = CARTESIAN_POINT('',(48.,-12.,34.));
#1200 = DIRECTION('',(1.,0.,-0.));
#1201 = DIRECTION('',(0.,0.,1.));
#1202 = ADVANCED_FACE('',(#1203),#1219,.F.);
#1203 = FACE_BOUND('',#1204,.F.);
#1204 = EDGE_LOOP('',(#1205,#1211,#1212,#1218));
#1205 = ORIENTED_EDGE('',*,*,#1206,.F.);
#1206 = EDGE_CURVE('',#1127,#1167,#1207,.T.);
#1207 = LINE('',#1208,#1209);
#1208 = CARTESIAN_POINT('',(-12.,-12.,34.));
#1209 = VECTOR('',#1210,1.);
#1210 = DIRECTION('',(1.,0.,-0.));
#1211 = ORIENTED_EDGE('',*,*,#1126,.T.);
#1212 = ORIENTED_EDGE('',*,*,#1213,.T.);
#1213 = EDGE_CURVE('',#1129,#1169,#1214,.T.);
#1214 = LINE('',#1215,#1216);
#1215 = CARTESIAN_POINT('',(-12.,-12.,42.));
#1216 = VECTOR('',#1217,1.);
#1217 = DIRECTION('',(1.,0.,-0.));
#1218 = ORIENTED_EDGE('',*,*,#1166,.F.);
#1219 = PLANE('',#1220);
#1220 = AXIS2_PLACEMENT_3D('',#1221,#1222,#1223);
#1221 = CARTESIAN_POINT('',(-12.,-12.,34.));
#1222 = DIRECTION('',(-0.,1.,0.));
#1223 = DIRECTION('',(0.,0.,1.));
#1224 = ADVANCED_FACE('',(#1225),#1241,.T.);
#1225 = FACE_BOUND('',#1226,.T.);
#1226 = EDGE_LOOP('',(#1227,#1233,#1234,#1240));
#1227 = ORIENTED_EDGE('',*,*,#1228,.F.);
#1228 = EDGE_CURVE('',#1137,#1177,#1229,.T.);
#1229 = LINE('',#1230,#1231);
#1230 = CARTESIAN_POINT('',(-12.,52.,34.));
#1231 = VECTOR('',#1232,1.);
#1232 = DIRECTION('',(1.,0.,-0.));
#1233 = ORIENTED_EDGE('',*,*,#1144,.T.);
#1234 = ORIENTED_EDGE('',*,*,#1235,.T.);
#1235 = EDGE_CURVE('',#1145,#1185,#1236,.T.);
#1236 = LINE('',#1237,#1238);
#1237 = CARTESIAN_POINT('',(-12.,52.,42.));
#1238 = VECTOR('',#1239,1.);
#1239 = DIRECTION('',(1.,0.,-0.));
#1240 = ORIENTED_EDGE('',*,*,#1184,.F.);
#1241 = PLANE('',#1242);
#1242 = AXIS2_PLACEMENT_3D('',#1243,#1244,#1245);
#1243 = CARTESIAN_POINT('',(-12.,52.,34.));
#1244 = DIRECTION('',(-0.,1.,0.));
#1245 = DIRECTION('',(0.,0.,1.));
#1246 = ADVANCED_FACE('',(#1247),#1253,.F.);
#1247 = FACE_BOUND('',#1248,.F.);
#1248 = EDGE_LOOP('',(#1249,#1250,#1251,#1252));
#1249 = ORIENTED_EDGE('',*,*,#1136,.F.);
#1250 = ORIENTED_EDGE('',*,*,#1206,.T.);
#1251 = ORIENTED_EDGE('',*,*,#1176,.T.);
#1252 = ORIENTED_EDGE('',*,*,#1228,.F.);
#1253 = PLANE('',#1254);
#1254 = AXIS2_PLACEMENT_3D('',#1255,#1256,#1257);
#1255 = CARTESIAN_POINT('',(-12.,-12.,34.));
#1256 = DIRECTION('',(0.,0.,1.));
#1257 = DIRECTION('',(1.,0.,-0.));
#1258 = ADVANCED_FACE('',(#1259),#1265,.T.);
#1259 = FACE_BOUND('',#1260,.T.);
#1260 = EDGE_LOOP('',(#1261,#1262,#1263,#1264));
#1261 = ORIENTED_EDGE('',*,*,#1152,.F.);
#1262 = ORIENTED_EDGE('',*,*,#1213,.T.);
#1263 = ORIENTED_EDGE('',*,*,#1192,.T.);
#1264 = ORIENTED_EDGE('',*,*,#1235,.F.);
#1265 = PLANE('',#1266);
#1266 = AXIS2_PLACEMENT_3D('',#1267,#1268,#1269);
#1267 = CARTESIAN_POINT('',(-12.,-12.,42.));
#1268 = DIRECTION('',(0.,0.,1.));
#1269 = DIRECTION('',(1.,0.,-0.));
#1270 = ( GEOMETRIC_REPRESENTATION_CONTEXT(3) 
GLOBAL_UNCERTAINTY_ASSIGNED_CONTEXT((#1274)) 
GLOBAL_UNIT_ASSIGNED_CONTEXT((#1271,#1272,#1273)) REPRESENTATION_CONTEXT
('Context #1','3D Context with UNIT and UNCERTAINTY') );
#1271 = ( LENGTH_UNIT() NAMED_UNIT(*) SI_UNIT(.MILLI.,.METRE.) );
#1272 = ( NAMED_UNIT(*) PLANE_ANGLE_UNIT() SI_UNIT($,.RADIAN.) );
#1273 = ( NAMED_UNIT(*) SI_UNIT($,.STERADIAN.) SOLID_ANGLE_UNIT() );
#1274 = UNCERTAINTY_MEASURE_WITH_UNIT(LENGTH_MEASURE(1.E-07),#1271,
  'distance_accuracy_value','confusion accuracy');
#1275 = CONTEXT_DEPENDENT_SHAPE_REPRESENTATION(#1276,#1278);
#1276 = ( REPRESENTATION_RELATIONSHIP('','',#1119,#10) 
REPRESENTATION_RELATIONSHIP_WITH_TRANSFORMATION(#1277) 
SHAPE_REPRESENTATION_RELATIONSHIP() );
#1277 = ITEM_DEFINED_TRANSFORMATION('','',#11,#35);
#1278 = PRODUCT_DEFINITION_SHAPE('Placement','Placement of an item',
  #1279);
#1279 = NEXT_ASSEMBLY_USAGE_OCCURRENCE('42','mould_base','',#5,#1114,$);
#1280 = PRODUCT_RELATED_PRODUCT_CATEGORY('part',$,(#1116));
#1281 = SHAPE_DEFINITION_REPRESENTATION(#1282,#1288);
#1282 = PRODUCT_DEFINITION_SHAPE('','',#1283);
#1283 = PRODUCT_DEFINITION('design','',#1284,#1287);
#1284 = PRODUCT_DEFINITION_FORMATION('','',#1285);
#1285 = PRODUCT('tag','tag','',(#1286));
#1286 = PRODUCT_CONTEXT('',#2,'mechanical');
#1287 = PRODUCT_DEFINITION_CONTEXT('part definition',#2,'design');
#1288 = ADVANCED_BREP_SHAPE_REPRESENTATION('',(#11,#1289),#1342);
#1289 = MANIFOLD_SOLID_BREP('',#1290);
#1290 = CLOSED_SHELL('',(#1291,#1324,#1333));
#1291 = ADVANCED_FACE('',(#1292),#1319,.T.);
#1292 = FACE_BOUND('',#1293,.T.);
#1293 = EDGE_LOOP('',(#1294,#1303,#1311,#1318));
#1294 = ORIENTED_EDGE('',*,*,#1295,.F.);
#1295 = EDGE_CURVE('',#1296,#1296,#1298,.T.);
#1296 = VERTEX_POINT('',#1297);
#1297 = CARTESIAN_POINT('',(28.,20.,34.));
#1298 = CIRCLE('',#1299,10.);
#1299 = AXIS2_PLACEMENT_3D('',#1300,#1301,#1302);
#1300 = CARTESIAN_POINT('',(18.,20.,34.));
#1301 = DIRECTION('',(0.,0.,1.));
#1302 = DIRECTION('',(1.,0.,-0.));
#1303 = ORIENTED_EDGE('',*,*,#1304,.F.);
#1304 = EDGE_CURVE('',#1305,#1296,#1307,.T.);
#1305 = VERTEX_POINT('',#1306);
#1306 = CARTESIAN_POINT('',(28.,20.,33.));
#1307 = LINE('',#1308,#1309);
#1308 = CARTESIAN_POINT('',(28.,20.,33.));
#1309 = VECTOR('',#1310,1.);
#1310 = DIRECTION('',(0.,0.,1.));
#1311 = ORIENTED_EDGE('',*,*,#1312,.T.);
#1312 = EDGE_CURVE('',#1305,#1305,#1313,.T.);
#1313 = CIRCLE('',#1314,10.);
#1314 = AXIS2_PLACEMENT_3D('',#1315,#1316,#1317);
#1315 = CARTESIAN_POINT('',(18.,20.,33.));
#1316 = DIRECTION('',(0.,0.,1.));
#1317 = DIRECTION('',(1.,0.,-0.));
#1318 = ORIENTED_EDGE('',*,*,#1304,.T.);
#1319 = CYLINDRICAL_SURFACE('',#1320,10.);
#1320 = AXIS2_PLACEMENT_3D('',#1321,#1322,#1323);
#1321 = CARTESIAN_POINT('',(18.,20.,33.));
#1322 = DIRECTION('',(0.,0.,1.));
#1323 = DIRECTION('',(1.,0.,-0.));
#1324 = ADVANCED_FACE('',(#1325),#1328,.T.);
#1325 = FACE_BOUND('',#1326,.T.);
#1326 = EDGE_LOOP('',(#1327));
#1327 = ORIENTED_EDGE('',*,*,#1295,.T.);
#1328 = PLANE('',#1329);
#1329 = AXIS2_PLACEMENT_3D('',#1330,#1331,#1332);
#1330 = CARTESIAN_POINT('',(18.,20.,34.));
#1331 = DIRECTION('',(0.,0.,1.));
#1332 = DIRECTION('',(1.,0.,-0.));
#1333 = ADVANCED_FACE('',(#1334),#1337,.F.);
#1334 = FACE_BOUND('',#1335,.T.);
#1335 = EDGE_LOOP('',(#1336));
#1336 = ORIENTED_EDGE('',*,*,#1312,.F.);
#1337 = PLANE('',#1338);
#1338 = AXIS2_PLACEMENT_3D('',#1339,#1340,#1341);
#1339 = CARTESIAN_POINT('',(18.,20.,33.));
#1340 = DIRECTION('',(0.,0.,1.));
#1341 = DIRECTION('',(1.,0.,-0.));
#1342 = ( GEOMETRIC_REPRESENTATION_CONTEXT(3) 
GLOBAL_UNCERTAINTY_ASSIGNED_CONTEXT((#1346)) 
GLOBAL_UNIT_ASSIGNED_CONTEXT((#1343,#1344,#1345)) REPRESENTATION_CONTEXT
('Context #1','3D Context with UNIT and UNCERTAINTY') );
#1343 = ( LENGTH_UNIT() NAMED_UNIT(*) SI_UNIT(.MILLI.,.METRE.) );
#1344 = ( NAMED_UNIT(*) PLANE_ANGLE_UNIT() SI_UNIT($,.RADIAN.) );
#1345 = ( NAMED_UNIT(*) SI_UNIT($,.STERADIAN.) SOLID_ANGLE_UNIT() );
#1346 = UNCERTAINTY_MEASURE_WITH_UNIT(LENGTH_MEASURE(1.E-07),#1343,
  'distance_accuracy_value','confusion accuracy');
#1347 = CONTEXT_DEPENDENT_SHAPE_REPRESENTATION(#1348,#1350);
#1348 = ( REPRESENTATION_RELATIONSHIP('','',#1288,#10) 
REPRESENTATION_RELATIONSHIP_WITH_TRANSFORMATION(#1349) 
SHAPE_REPRESENTATION_RELATIONSHIP() );
#1349 = ITEM_DEFINED_TRANSFORMATION('','',#11,#39);
#1350 = PRODUCT_DEFINITION_SHAPE('Placement','Placement of an item',
  #1351);
#1351 = NEXT_ASSEMBLY_USAGE_OCCURRENCE('43','tag','',#5,#1283,$);
#1352 = PRODUCT_RELATED_PRODUCT_CATEGORY('part',$,(#1285));
ENDSEC;
END-ISO-10303-21;
