ISO-10303-21;
HEADER;
FILE_DESCRIPTION(('FreeCAD Model'),'2;1');
FILE_NAME('Open CASCADE Shape Model','2026-09-27T12:27:38',(''),(''),
  'Open CASCADE STEP processor 7.8','FreeCAD','Unknown');
FILE_SCHEMA(('AUTOMOTIVE_DESIGN { 1 0 10303 214 1 1 1 1 }'));
ENDSEC;
DATA;
#1 = APPLICATION_PROTOCOL_DEFINITION('international standard',
  'automotive_design',2000,#2);
#2 = APPLICATION_CONTEXT(
  'core data for automotive mechanical design processes');
#3 = SHAPE_DEFINITION_REPRESENTATION(#4,#10);
#4 = PRODUCT_DEFINITION_SHAPE('','',#5);
#5 = PRODUCT_DEFINITION('design','',#6,#9);
#6 = PRODUCT_DEFINITION_FORMATION('','',#7);
#7 = PRODUCT('ft_MV_3_2_solenoid_valve','ft_MV_3_2_solenoid_valve','',(
    #8));
#8 = PRODUCT_CONTEXT('',#2,'mechanical');
#9 = PRODUCT_DEFINITION_CONTEXT('part definition',#2,'design');
#10 = SHAPE_REPRESENTATION('',(#11,#15,#19,#23,#27,#31,#35,#39,#43),#47
  );
#11 = AXIS2_PLACEMENT_3D('',#12,#13,#14);
#12 = CARTESIAN_POINT('',(0.,0.,0.));
#13 = DIRECTION('',(0.,0.,1.));
#14 = DIRECTION('',(1.,0.,-0.));
#15 = AXIS2_PLACEMENT_3D('',#16,#17,#18);
#16 = CARTESIAN_POINT('',(0.,0.,0.));
#17 = DIRECTION('',(0.,0.,1.));
#18 = DIRECTION('',(1.,0.,0.));
#19 = AXIS2_PLACEMENT_3D('',#20,#21,#22);
#20 = CARTESIAN_POINT('',(0.,0.,0.));
#21 = DIRECTION('',(0.,0.,1.));
#22 = DIRECTION('',(1.,0.,0.));
#23 = AXIS2_PLACEMENT_3D('',#24,#25,#26);
#24 = CARTESIAN_POINT('',(0.,0.,0.));
#25 = DIRECTION('',(0.,0.,1.));
#26 = DIRECTION('',(1.,0.,0.));
#27 = AXIS2_PLACEMENT_3D('',#28,#29,#30);
#28 = CARTESIAN_POINT('',(10.,7.5,18.));
#29 = DIRECTION('',(0.,0.,1.));
#30 = DIRECTION('',(1.,0.,0.));
#31 = AXIS2_PLACEMENT_3D('',#32,#33,#34);
#32 = CARTESIAN_POINT('',(0.,0.,0.));
#33 = DIRECTION('',(0.,0.,1.));
#34 = DIRECTION('',(1.,0.,0.));
#35 = AXIS2_PLACEMENT_3D('',#36,#37,#38);
#36 = CARTESIAN_POINT('',(0.,0.,0.));
#37 = DIRECTION('',(0.,0.,1.));
#38 = DIRECTION('',(1.,0.,0.));
#39 = AXIS2_PLACEMENT_3D('',#40,#41,#42);
#40 = CARTESIAN_POINT('',(0.,0.,0.));
#41 = DIRECTION('',(0.,0.,1.));
#42 = DIRECTION('',(1.,0.,0.));
#43 = AXIS2_PLACEMENT_3D('',#44,#45,#46);
#44 = CARTESIAN_POINT('',(0.,0.,0.));
#45 = DIRECTION('',(0.,0.,1.));
#46 = DIRECTION('',(1.,0.,0.));
#47 = ( GEOMETRIC_REPRESENTATION_CONTEXT(3) 
GLOBAL_UNCERTAINTY_ASSIGNED_CONTEXT((#51)) GLOBAL_UNIT_ASSIGNED_CONTEXT(
(#48,#49,#50)) REPRESENTATION_CONTEXT('Context #1',
  '3D Context with UNIT and UNCERTAINTY') );
#48 = ( LENGTH_UNIT() NAMED_UNIT(*) SI_UNIT(.MILLI.,.METRE.) );
#49 = ( NAMED_UNIT(*) PLANE_ANGLE_UNIT() SI_UNIT($,.RADIAN.) );
#50 = ( NAMED_UNIT(*) SI_UNIT($,.STERADIAN.) SOLID_ANGLE_UNIT() );
#51 = UNCERTAINTY_MEASURE_WITH_UNIT(LENGTH_MEASURE(1.E-06),#48,
  'distance_accuracy_value','confusion accuracy');
#52 = PRODUCT_RELATED_PRODUCT_CATEGORY('part',$,(#7));
#53 = SHAPE_DEFINITION_REPRESENTATION(#54,#60);
#54 = PRODUCT_DEFINITION_SHAPE('','',#55);
#55 = PRODUCT_DEFINITION('design','',#56,#59);
#56 = PRODUCT_DEFINITION_FORMATION('','',#57);
#57 = PRODUCT('housing','housing','',(#58));
#58 = PRODUCT_CONTEXT('',#2,'mechanical');
#59 = PRODUCT_DEFINITION_CONTEXT('part definition',#2,'design');
#60 = SHAPE_REPRESENTATION('',(#11,#61,#211,#361),#511);
#61 = MANIFOLD_SOLID_BREP('',#62);
#62 = CLOSED_SHELL('',(#63,#103,#143,#165,#187,#199));
#63 = ADVANCED_FACE('',(#64),#98,.F.);
#64 = FACE_BOUND('',#65,.F.);
#65 = EDGE_LOOP('',(#66,#76,#84,#92));
#66 = ORIENTED_EDGE('',*,*,#67,.F.);
#67 = EDGE_CURVE('',#68,#70,#72,.T.);
#68 = VERTEX_POINT('',#69);
#69 = CARTESIAN_POINT('',(0.,0.,0.));
#70 = VERTEX_POINT('',#71);
#71 = CARTESIAN_POINT('',(0.,0.,1.5));
#72 = LINE('',#73,#74);
#73 = CARTESIAN_POINT('',(0.,0.,0.));
#74 = VECTOR('',#75,1.);
#75 = DIRECTION('',(0.,0.,1.));
#76 = ORIENTED_EDGE('',*,*,#77,.T.);
#77 = EDGE_CURVE('',#68,#78,#80,.T.);
#78 = VERTEX_POINT('',#79);
#79 = CARTESIAN_POINT('',(0.,15.,0.));
#80 = LINE('',#81,#82);
#81 = CARTESIAN_POINT('',(0.,0.,0.));
#82 = VECTOR('',#83,1.);
#83 = DIRECTION('',(-0.,1.,0.));
#84 = ORIENTED_EDGE('',*,*,#85,.T.);
#85 = EDGE_CURVE('',#78,#86,#88,.T.);
#86 = VERTEX_POINT('',#87);
#87 = CARTESIAN_POINT('',(0.,15.,1.5));
#88 = LINE('',#89,#90);
#89 = CARTESIAN_POINT('',(0.,15.,0.));
#90 = VECTOR('',#91,1.);
#91 = DIRECTION('',(0.,0.,1.));
#92 = ORIENTED_EDGE('',*,*,#93,.F.);
#93 = EDGE_CURVE('',#70,#86,#94,.T.);
#94 = LINE('',#95,#96);
#95 = CARTESIAN_POINT('',(0.,0.,1.5));
#96 = VECTOR('',#97,1.);
#97 = DIRECTION('',(-0.,1.,0.));
#98 = PLANE('',#99);
#99 = AXIS2_PLACEMENT_3D('',#100,#101,#102);
#100 = CARTESIAN_POINT('',(0.,0.,0.));
#101 = DIRECTION('',(1.,0.,-0.));
#102 = DIRECTION('',(0.,0.,1.));
#103 = ADVANCED_FACE('',(#104),#138,.T.);
#104 = FACE_BOUND('',#105,.T.);
#105 = EDGE_LOOP('',(#106,#116,#124,#132));
#106 = ORIENTED_EDGE('',*,*,#107,.F.);
#107 = EDGE_CURVE('',#108,#110,#112,.T.);
#108 = VERTEX_POINT('',#109);
#109 = CARTESIAN_POINT('',(20.,0.,0.));
#110 = VERTEX_POINT('',#111);
#111 = CARTESIAN_POINT('',(20.,0.,1.5));
#112 = LINE('',#113,#114);
#113 = CARTESIAN_POINT('',(20.,0.,0.));
#114 = VECTOR('',#115,1.);
#115 = DIRECTION('',(0.,0.,1.));
#116 = ORIENTED_EDGE('',*,*,#117,.T.);
#117 = EDGE_CURVE('',#108,#118,#120,.T.);
#118 = VERTEX_POINT('',#119);
#119 = CARTESIAN_POINT('',(20.,15.,0.));
#120 = LINE('',#121,#122);
#121 = CARTESIAN_POINT('',(20.,0.,0.));
#122 = VECTOR('',#123,1.);
#123 = DIRECTION('',(-0.,1.,0.));
#124 = ORIENTED_EDGE('',*,*,#125,.T.);
#125 = EDGE_CURVE('',#118,#126,#128,.T.);
#126 = VERTEX_POINT('',#127);
#127 = CARTESIAN_POINT('',(20.,15.,1.5));
#128 = LINE('',#129,#130);
#129 = CARTESIAN_POINT('',(20.,15.,0.));
#130 = VECTOR('',#131,1.);
#131 = DIRECTION('',(0.,0.,1.));
#132 = ORIENTED_EDGE('',*,*,#133,.F.);
#133 = EDGE_CURVE('',#110,#126,#134,.T.);
#134 = LINE('',#135,#136);
#135 = CARTESIAN_POINT('',(20.,0.,1.5));
#136 = VECTOR('',#137,1.);
#137 = DIRECTION('',(-0.,1.,0.));
#138 = PLANE('',#139);
#139 = AXIS2_PLACEMENT_3D('',#140,#141,#142);
#140 = CARTESIAN_POINT('',(20.,0.,0.));
#141 = DIRECTION('',(1.,0.,-0.));
#142 = DIRECTION('',(0.,0.,1.));
#143 = ADVANCED_FACE('',(#144),#160,.F.);
#144 = FACE_BOUND('',#145,.F.);
#145 = EDGE_LOOP('',(#146,#152,#153,#159));
#146 = ORIENTED_EDGE('',*,*,#147,.F.);
#147 = EDGE_CURVE('',#68,#108,#148,.T.);
#148 = LINE('',#149,#150);
#149 = CARTESIAN_POINT('',(0.,0.,0.));
#150 = VECTOR('',#151,1.);
#151 = DIRECTION('',(1.,0.,-0.));
#152 = ORIENTED_EDGE('',*,*,#67,.T.);
#153 = ORIENTED_EDGE('',*,*,#154,.T.);
#154 = EDGE_CURVE('',#70,#110,#155,.T.);
#155 = LINE('',#156,#157);
#156 = CARTESIAN_POINT('',(0.,0.,1.5));
#157 = VECTOR('',#158,1.);
#158 = DIRECTION('',(1.,0.,-0.));
#159 = ORIENTED_EDGE('',*,*,#107,.F.);
#160 = PLANE('',#161);
#161 = AXIS2_PLACEMENT_3D('',#162,#163,#164);
#162 = CARTESIAN_POINT('',(0.,0.,0.));
#163 = DIRECTION('',(-0.,1.,0.));
#164 = DIRECTION('',(0.,0.,1.));
#165 = ADVANCED_FACE('',(#166),#182,.T.);
#166 = FACE_BOUND('',#167,.T.);
#167 = EDGE_LOOP('',(#168,#174,#175,#181));
#168 = ORIENTED_EDGE('',*,*,#169,.F.);
#169 = EDGE_CURVE('',#78,#118,#170,.T.);
#170 = LINE('',#171,#172);
#171 = CARTESIAN_POINT('',(0.,15.,0.));
#172 = VECTOR('',#173,1.);
#173 = DIRECTION('',(1.,0.,-0.));
#174 = ORIENTED_EDGE('',*,*,#85,.T.);
#175 = ORIENTED_EDGE('',*,*,#176,.T.);
#176 = EDGE_CURVE('',#86,#126,#177,.T.);
#177 = LINE('',#178,#179);
#178 = CARTESIAN_POINT('',(0.,15.,1.5));
#179 = VECTOR('',#180,1.);
#180 = DIRECTION('',(1.,0.,-0.));
#181 = ORIENTED_EDGE('',*,*,#125,.F.);
#182 = PLANE('',#183);
#183 = AXIS2_PLACEMENT_3D('',#184,#185,#186);
#184 = CARTESIAN_POINT('',(0.,15.,0.));
#185 = DIRECTION('',(-0.,1.,0.));
#186 = DIRECTION('',(0.,0.,1.));
#187 = ADVANCED_FACE('',(#188),#194,.F.);
#188 = FACE_BOUND('',#189,.F.);
#189 = EDGE_LOOP('',(#190,#191,#192,#193));
#190 = ORIENTED_EDGE('',*,*,#77,.F.);
#191 = ORIENTED_EDGE('',*,*,#147,.T.);
#192 = ORIENTED_EDGE('',*,*,#117,.T.);
#193 = ORIENTED_EDGE('',*,*,#169,.F.);
#194 = PLANE('',#195);
#195 = AXIS2_PLACEMENT_3D('',#196,#197,#198);
#196 = CARTESIAN_POINT('',(0.,0.,0.));
#197 = DIRECTION('',(0.,0.,1.));
#198 = DIRECTION('',(1.,0.,-0.));
#199 = ADVANCED_FACE('',(#200),#206,.T.);
#200 = FACE_BOUND('',#201,.T.);
#201 = EDGE_LOOP('',(#202,#203,#204,#205));
#202 = ORIENTED_EDGE('',*,*,#93,.F.);
#203 = ORIENTED_EDGE('',*,*,#154,.T.);
#204 = ORIENTED_EDGE('',*,*,#133,.T.);
#205 = ORIENTED_EDGE('',*,*,#176,.F.);
#206 = PLANE('',#207);
#207 = AXIS2_PLACEMENT_3D('',#208,#209,#210);
#208 = CARTESIAN_POINT('',(0.,0.,1.5));
#209 = DIRECTION('',(0.,0.,1.));
#210 = DIRECTION('',(1.,0.,-0.));
#211 = MANIFOLD_SOLID_BREP('',#212);
#212 = CLOSED_SHELL('',(#213,#253,#293,#315,#337,#349));
#213 = ADVANCED_FACE('',(#214),#248,.F.);
#214 = FACE_BOUND('',#215,.F.);
#215 = EDGE_LOOP('',(#216,#226,#234,#242));
#216 = ORIENTED_EDGE('',*,*,#217,.F.);
#217 = EDGE_CURVE('',#218,#220,#222,.T.);
#218 = VERTEX_POINT('',#219);
#219 = CARTESIAN_POINT('',(0.,0.,23.5));
#220 = VERTEX_POINT('',#221);
#221 = CARTESIAN_POINT('',(0.,0.,25.));
#222 = LINE('',#223,#224);
#223 = CARTESIAN_POINT('',(0.,0.,23.5));
#224 = VECTOR('',#225,1.);
#225 = DIRECTION('',(0.,0.,1.));
#226 = ORIENTED_EDGE('',*,*,#227,.T.);
#227 = EDGE_CURVE('',#218,#228,#230,.T.);
#228 = VERTEX_POINT('',#229);
#229 = CARTESIAN_POINT('',(0.,15.,23.5));
#230 = LINE('',#231,#232);
#231 = CARTESIAN_POINT('',(0.,0.,23.5));
#232 = VECTOR('',#233,1.);
#233 = DIRECTION('',(-0.,1.,0.));
#234 = ORIENTED_EDGE('',*,*,#235,.T.);
#235 = EDGE_CURVE('',#228,#236,#238,.T.);
#236 = VERTEX_POINT('',#237);
#237 = CARTESIAN_POINT('',(0.,15.,25.));
#238 = LINE('',#239,#240);
#239 = CARTESIAN_POINT('',(0.,15.,23.5));
#240 = VECTOR('',#241,1.);
#241 = DIRECTION('',(0.,0.,1.));
#242 = ORIENTED_EDGE('',*,*,#243,.F.);
#243 = EDGE_CURVE('',#220,#236,#244,.T.);
#244 = LINE('',#245,#246);
#245 = CARTESIAN_POINT('',(0.,0.,25.));
#246 = VECTOR('',#247,1.);
#247 = DIRECTION('',(-0.,1.,0.));
#248 = PLANE('',#249);
#249 = AXIS2_PLACEMENT_3D('',#250,#251,#252);
#250 = CARTESIAN_POINT('',(0.,0.,23.5));
#251 = DIRECTION('',(1.,0.,-0.));
#252 = DIRECTION('',(0.,0.,1.));
#253 = ADVANCED_FACE('',(#254),#288,.T.);
#254 = FACE_BOUND('',#255,.T.);
#255 = EDGE_LOOP('',(#256,#266,#274,#282));
#256 = ORIENTED_EDGE('',*,*,#257,.F.);
#257 = EDGE_CURVE('',#258,#260,#262,.T.);
#258 = VERTEX_POINT('',#259);
#259 = CARTESIAN_POINT('',(20.,0.,23.5));
#260 = VERTEX_POINT('',#261);
#261 = CARTESIAN_POINT('',(20.,0.,25.));
#262 = LINE('',#263,#264);
#263 = CARTESIAN_POINT('',(20.,0.,23.5));
#264 = VECTOR('',#265,1.);
#265 = DIRECTION('',(0.,0.,1.));
#266 = ORIENTED_EDGE('',*,*,#267,.T.);
#267 = EDGE_CURVE('',#258,#268,#270,.T.);
#268 = VERTEX_POINT('',#269);
#269 = CARTESIAN_POINT('',(20.,15.,23.5));
#270 = LINE('',#271,#272);
#271 = CARTESIAN_POINT('',(20.,0.,23.5));
#272 = VECTOR('',#273,1.);
#273 = DIRECTION('',(-0.,1.,0.));
#274 = ORIENTED_EDGE('',*,*,#275,.T.);
#275 = EDGE_CURVE('',#268,#276,#278,.T.);
#276 = VERTEX_POINT('',#277);
#277 = CARTESIAN_POINT('',(20.,15.,25.));
#278 = LINE('',#279,#280);
#279 = CARTESIAN_POINT('',(20.,15.,23.5));
#280 = VECTOR('',#281,1.);
#281 = DIRECTION('',(0.,0.,1.));
#282 = ORIENTED_EDGE('',*,*,#283,.F.);
#283 = EDGE_CURVE('',#260,#276,#284,.T.);
#284 = LINE('',#285,#286);
#285 = CARTESIAN_POINT('',(20.,0.,25.));
#286 = VECTOR('',#287,1.);
#287 = DIRECTION('',(-0.,1.,0.));
#288 = PLANE('',#289);
#289 = AXIS2_PLACEMENT_3D('',#290,#291,#292);
#290 = CARTESIAN_POINT('',(20.,0.,23.5));
#291 = DIRECTION('',(1.,0.,-0.));
#292 = DIRECTION('',(0.,0.,1.));
#293 = ADVANCED_FACE('',(#294),#310,.F.);
#294 = FACE_BOUND('',#295,.F.);
#295 = EDGE_LOOP('',(#296,#302,#303,#309));
#296 = ORIENTED_EDGE('',*,*,#297,.F.);
#297 = EDGE_CURVE('',#218,#258,#298,.T.);
#298 = LINE('',#299,#300);
#299 = CARTESIAN_POINT('',(0.,0.,23.5));
#300 = VECTOR('',#301,1.);
#301 = DIRECTION('',(1.,0.,-0.));
#302 = ORIENTED_EDGE('',*,*,#217,.T.);
#303 = ORIENTED_EDGE('',*,*,#304,.T.);
#304 = EDGE_CURVE('',#220,#260,#305,.T.);
#305 = LINE('',#306,#307);
#306 = CARTESIAN_POINT('',(0.,0.,25.));
#307 = VECTOR('',#308,1.);
#308 = DIRECTION('',(1.,0.,-0.));
#309 = ORIENTED_EDGE('',*,*,#257,.F.);
#310 = PLANE('',#311);
#311 = AXIS2_PLACEMENT_3D('',#312,#313,#314);
#312 = CARTESIAN_POINT('',(0.,0.,23.5));
#313 = DIRECTION('',(-0.,1.,0.));
#314 = DIRECTION('',(0.,0.,1.));
#315 = ADVANCED_FACE('',(#316),#332,.T.);
#316 = FACE_BOUND('',#317,.T.);
#317 = EDGE_LOOP('',(#318,#324,#325,#331));
#318 = ORIENTED_EDGE('',*,*,#319,.F.);
#319 = EDGE_CURVE('',#228,#268,#320,.T.);
#320 = LINE('',#321,#322);
#321 = CARTESIAN_POINT('',(0.,15.,23.5));
#322 = VECTOR('',#323,1.);
#323 = DIRECTION('',(1.,0.,-0.));
#324 = ORIENTED_EDGE('',*,*,#235,.T.);
#325 = ORIENTED_EDGE('',*,*,#326,.T.);
#326 = EDGE_CURVE('',#236,#276,#327,.T.);
#327 = LINE('',#328,#329);
#328 = CARTESIAN_POINT('',(0.,15.,25.));
#329 = VECTOR('',#330,1.);
#330 = DIRECTION('',(1.,0.,-0.));
#331 = ORIENTED_EDGE('',*,*,#275,.F.);
#332 = PLANE('',#333);
#333 = AXIS2_PLACEMENT_3D('',#334,#335,#336);
#334 = CARTESIAN_POINT('',(0.,15.,23.5));
#335 = DIRECTION('',(-0.,1.,0.));
#336 = DIRECTION('',(0.,0.,1.));
#337 = ADVANCED_FACE('',(#338),#344,.F.);
#338 = FACE_BOUND('',#339,.F.);
#339 = EDGE_LOOP('',(#340,#341,#342,#343));
#340 = ORIENTED_EDGE('',*,*,#227,.F.);
#341 = ORIENTED_EDGE('',*,*,#297,.T.);
#342 = ORIENTED_EDGE('',*,*,#267,.T.);
#343 = ORIENTED_EDGE('',*,*,#319,.F.);
#344 = PLANE('',#345);
#345 = AXIS2_PLACEMENT_3D('',#346,#347,#348);
#346 = CARTESIAN_POINT('',(0.,0.,23.5));
#347 = DIRECTION('',(0.,0.,1.));
#348 = DIRECTION('',(1.,0.,-0.));
#349 = ADVANCED_FACE('',(#350),#356,.T.);
#350 = FACE_BOUND('',#351,.T.);
#351 = EDGE_LOOP('',(#352,#353,#354,#355));
#352 = ORIENTED_EDGE('',*,*,#243,.F.);
#353 = ORIENTED_EDGE('',*,*,#304,.T.);
#354 = ORIENTED_EDGE('',*,*,#283,.T.);
#355 = ORIENTED_EDGE('',*,*,#326,.F.);
#356 = PLANE('',#357);
#357 = AXIS2_PLACEMENT_3D('',#358,#359,#360);
#358 = CARTESIAN_POINT('',(0.,0.,25.));
#359 = DIRECTION('',(0.,0.,1.));
#360 = DIRECTION('',(1.,0.,-0.));
#361 = MANIFOLD_SOLID_BREP('',#362);
#362 = CLOSED_SHELL('',(#363,#403,#443,#465,#487,#499));
#363 = ADVANCED_FACE('',(#364),#398,.F.);
#364 = FACE_BOUND('',#365,.F.);
#365 = EDGE_LOOP('',(#366,#376,#384,#392));
#366 = ORIENTED_EDGE('',*,*,#367,.F.);
#367 = EDGE_CURVE('',#368,#370,#372,.T.);
#368 = VERTEX_POINT('',#369);
#369 = CARTESIAN_POINT('',(0.,0.,0.));
#370 = VERTEX_POINT('',#371);
#371 = CARTESIAN_POINT('',(0.,0.,25.));
#372 = LINE('',#373,#374);
#373 = CARTESIAN_POINT('',(0.,0.,0.));
#374 = VECTOR('',#375,1.);
#375 = DIRECTION('',(0.,0.,1.));
#376 = ORIENTED_EDGE('',*,*,#377,.T.);
#377 = EDGE_CURVE('',#368,#378,#380,.T.);
#378 = VERTEX_POINT('',#379);
#379 = CARTESIAN_POINT('',(0.,15.,0.));
#380 = LINE('',#381,#382);
#381 = CARTESIAN_POINT('',(0.,0.,0.));
#382 = VECTOR('',#383,1.);
#383 = DIRECTION('',(-0.,1.,0.));
#384 = ORIENTED_EDGE('',*,*,#385,.T.);
#385 = EDGE_CURVE('',#378,#386,#388,.T.);
#386 = VERTEX_POINT('',#387);
#387 = CARTESIAN_POINT('',(0.,15.,25.));
#388 = LINE('',#389,#390);
#389 = CARTESIAN_POINT('',(0.,15.,0.));
#390 = VECTOR('',#391,1.);
#391 = DIRECTION('',(0.,0.,1.));
#392 = ORIENTED_EDGE('',*,*,#393,.F.);
#393 = EDGE_CURVE('',#370,#386,#394,.T.);
#394 = LINE('',#395,#396);
#395 = CARTESIAN_POINT('',(0.,0.,25.));
#396 = VECTOR('',#397,1.);
#397 = DIRECTION('',(-0.,1.,0.));
#398 = PLANE('',#399);
#399 = AXIS2_PLACEMENT_3D('',#400,#401,#402);
#400 = CARTESIAN_POINT('',(0.,0.,0.));
#401 = DIRECTION('',(1.,0.,-0.));
#402 = DIRECTION('',(0.,0.,1.));
#403 = ADVANCED_FACE('',(#404),#438,.T.);
#404 = FACE_BOUND('',#405,.T.);
#405 = EDGE_LOOP('',(#406,#416,#424,#432));
#406 = ORIENTED_EDGE('',*,*,#407,.F.);
#407 = EDGE_CURVE('',#408,#410,#412,.T.);
#408 = VERTEX_POINT('',#409);
#409 = CARTESIAN_POINT('',(1.5,0.,0.));
#410 = VERTEX_POINT('',#411);
#411 = CARTESIAN_POINT('',(1.5,0.,25.));
#412 = LINE('',#413,#414);
#413 = CARTESIAN_POINT('',(1.5,0.,0.));
#414 = VECTOR('',#415,1.);
#415 = DIRECTION('',(0.,0.,1.));
#416 = ORIENTED_EDGE('',*,*,#417,.T.);
#417 = EDGE_CURVE('',#408,#418,#420,.T.);
#418 = VERTEX_POINT('',#419);
#419 = CARTESIAN_POINT('',(1.5,15.,0.));
#420 = LINE('',#421,#422);
#421 = CARTESIAN_POINT('',(1.5,0.,0.));
#422 = VECTOR('',#423,1.);
#423 = DIRECTION('',(-0.,1.,0.));
#424 = ORIENTED_EDGE('',*,*,#425,.T.);
#425 = EDGE_CURVE('',#418,#426,#428,.T.);
#426 = VERTEX_POINT('',#427);
#427 = CARTESIAN_POINT('',(1.5,15.,25.));
#428 = LINE('',#429,#430);
#429 = CARTESIAN_POINT('',(1.5,15.,0.));
#430 = VECTOR('',#431,1.);
#431 = DIRECTION('',(0.,0.,1.));
#432 = ORIENTED_EDGE('',*,*,#433,.F.);
#433 = EDGE_CURVE('',#410,#426,#434,.T.);
#434 = LINE('',#435,#436);
#435 = CARTESIAN_POINT('',(1.5,0.,25.));
#436 = VECTOR('',#437,1.);
#437 = DIRECTION('',(-0.,1.,0.));
#438 = PLANE('',#439);
#439 = AXIS2_PLACEMENT_3D('',#440,#441,#442);
#440 = CARTESIAN_POINT('',(1.5,0.,0.));
#441 = DIRECTION('',(1.,0.,-0.));
#442 = DIRECTION('',(0.,0.,1.));
#443 = ADVANCED_FACE('',(#444),#460,.F.);
#444 = FACE_BOUND('',#445,.F.);
#445 = EDGE_LOOP('',(#446,#452,#453,#459));
#446 = ORIENTED_EDGE('',*,*,#447,.F.);
#447 = EDGE_CURVE('',#368,#408,#448,.T.);
#448 = LINE('',#449,#450);
#449 = CARTESIAN_POINT('',(0.,0.,0.));
#450 = VECTOR('',#451,1.);
#451 = DIRECTION('',(1.,0.,-0.));
#452 = ORIENTED_EDGE('',*,*,#367,.T.);
#453 = ORIENTED_EDGE('',*,*,#454,.T.);
#454 = EDGE_CURVE('',#370,#410,#455,.T.);
#455 = LINE('',#456,#457);
#456 = CARTESIAN_POINT('',(0.,0.,25.));
#457 = VECTOR('',#458,1.);
#458 = DIRECTION('',(1.,0.,-0.));
#459 = ORIENTED_EDGE('',*,*,#407,.F.);
#460 = PLANE('',#461);
#461 = AXIS2_PLACEMENT_3D('',#462,#463,#464);
#462 = CARTESIAN_POINT('',(0.,0.,0.));
#463 = DIRECTION('',(-0.,1.,0.));
#464 = DIRECTION('',(0.,0.,1.));
#465 = ADVANCED_FACE('',(#466),#482,.T.);
#466 = FACE_BOUND('',#467,.T.);
#467 = EDGE_LOOP('',(#468,#474,#475,#481));
#468 = ORIENTED_EDGE('',*,*,#469,.F.);
#469 = EDGE_CURVE('',#378,#418,#470,.T.);
#470 = LINE('',#471,#472);
#471 = CARTESIAN_POINT('',(0.,15.,0.));
#472 = VECTOR('',#473,1.);
#473 = DIRECTION('',(1.,0.,-0.));
#474 = ORIENTED_EDGE('',*,*,#385,.T.);
#475 = ORIENTED_EDGE('',*,*,#476,.T.);
#476 = EDGE_CURVE('',#386,#426,#477,.T.);
#477 = LINE('',#478,#479);
#478 = CARTESIAN_POINT('',(0.,15.,25.));
#479 = VECTOR('',#480,1.);
#480 = DIRECTION('',(1.,0.,-0.));
#481 = ORIENTED_EDGE('',*,*,#425,.F.);
#482 = PLANE('',#483);
#483 = AXIS2_PLACEMENT_3D('',#484,#485,#486);
#484 = CARTESIAN_POINT('',(0.,15.,0.));
#485 = DIRECTION('',(-0.,1.,0.));
#486 = DIRECTION('',(0.,0.,1.));
#487 = ADVANCED_FACE('',(#488),#494,.F.);
#488 = FACE_BOUND('',#489,.F.);
#489 = EDGE_LOOP('',(#490,#491,#492,#493));
#490 = ORIENTED_EDGE('',*,*,#377,.F.);
#491 = ORIENTED_EDGE('',*,*,#447,.T.);
#492 = ORIENTED_EDGE('',*,*,#417,.T.);
#493 = ORIENTED_EDGE('',*,*,#469,.F.);
#494 = PLANE('',#495);
#495 = AXIS2_PLACEMENT_3D('',#496,#497,#498);
#496 = CARTESIAN_POINT('',(0.,0.,0.));
#497 = DIRECTION('',(0.,0.,1.));
#498 = DIRECTION('',(1.,0.,-0.));
#499 = ADVANCED_FACE('',(#500),#506,.T.);
#500 = FACE_BOUND('',#501,.T.);
#501 = EDGE_LOOP('',(#502,#503,#504,#505));
#502 = ORIENTED_EDGE('',*,*,#393,.F.);
#503 = ORIENTED_EDGE('',*,*,#454,.T.);
#504 = ORIENTED_EDGE('',*,*,#433,.T.);
#505 = ORIENTED_EDGE('',*,*,#476,.F.);
#506 = PLANE('',#507);
#507 = AXIS2_PLACEMENT_3D('',#508,#509,#510);
#508 = CARTESIAN_POINT('',(0.,0.,25.));
#509 = DIRECTION('',(0.,0.,1.));
#510 = DIRECTION('',(1.,0.,-0.));
#511 = ( GEOMETRIC_REPRESENTATION_CONTEXT(3) 
GLOBAL_UNCERTAINTY_ASSIGNED_CONTEXT((#515)) GLOBAL_UNIT_ASSIGNED_CONTEXT
((#512,#513,#514)) REPRESENTATION_CONTEXT('Context #1',
  '3D Context with UNIT and UNCERTAINTY') );
#512 = ( LENGTH_UNIT() NAMED_UNIT(*) SI_UNIT(.MILLI.,.METRE.) );
#513 = ( NAMED_UNIT(*) PLANE_ANGLE_UNIT() SI_UNIT($,.RADIAN.) );
#514 = ( NAMED_UNIT(*) SI_UNIT($,.STERADIAN.) SOLID_ANGLE_UNIT() );
#515 = UNCERTAINTY_MEASURE_WITH_UNIT(LENGTH_MEASURE(1.E-07),#512,
  'distance_accuracy_value','confusion accuracy');
#516 = CONTEXT_DEPENDENT_SHAPE_REPRESENTATION(#517,#519);
#517 = ( REPRESENTATION_RELATIONSHIP('','',#60,#10) 
REPRESENTATION_RELATIONSHIP_WITH_TRANSFORMATION(#518) 
SHAPE_REPRESENTATION_RELATIONSHIP() );
#518 = ITEM_DEFINED_TRANSFORMATION('','',#11,#15);
#519 = PRODUCT_DEFINITION_SHAPE('Placement','Placement of an item',#520
  );
#520 = NEXT_ASSEMBLY_USAGE_OCCURRENCE('51','housing','',#5,#55,$);
#521 = PRODUCT_RELATED_PRODUCT_CATEGORY('part',$,(#57));
#522 = SHAPE_DEFINITION_REPRESENTATION(#523,#529);
#523 = PRODUCT_DEFINITION_SHAPE('','',#524);
#524 = PRODUCT_DEFINITION('design','',#525,#528);
#525 = PRODUCT_DEFINITION_FORMATION('','',#526);
#526 = PRODUCT('coil','coil','',(#527));
#527 = PRODUCT_CONTEXT('',#2,'mechanical');
#528 = PRODUCT_DEFINITION_CONTEXT('part definition',#2,'design');
#529 = ADVANCED_BREP_SHAPE_REPRESENTATION('',(#11,#530),#719);
#530 = MANIFOLD_SOLID_BREP('',#531);
#531 = CLOSED_SHELL('',(#532,#572,#603,#638,#662,#690,#702));
#532 = ADVANCED_FACE('',(#533),#567,.F.);
#533 = FACE_BOUND('',#534,.F.);
#534 = EDGE_LOOP('',(#535,#545,#553,#561));
#535 = ORIENTED_EDGE('',*,*,#536,.F.);
#536 = EDGE_CURVE('',#537,#539,#541,.T.);
#537 = VERTEX_POINT('',#538);
#538 = CARTESIAN_POINT('',(2.,1.,1.6));
#539 = VERTEX_POINT('',#540);
#540 = CARTESIAN_POINT('',(2.,1.,23.4));
#541 = LINE('',#542,#543);
#542 = CARTESIAN_POINT('',(2.,1.,1.6));
#543 = VECTOR('',#544,1.);
#544 = DIRECTION('',(0.,0.,1.));
#545 = ORIENTED_EDGE('',*,*,#546,.T.);
#546 = EDGE_CURVE('',#537,#547,#549,.T.);
#547 = VERTEX_POINT('',#548);
#548 = CARTESIAN_POINT('',(2.,14.,1.6));
#549 = LINE('',#550,#551);
#550 = CARTESIAN_POINT('',(2.,1.,1.6));
#551 = VECTOR('',#552,1.);
#552 = DIRECTION('',(-0.,1.,0.));
#553 = ORIENTED_EDGE('',*,*,#554,.T.);
#554 = EDGE_CURVE('',#547,#555,#557,.T.);
#555 = VERTEX_POINT('',#556);
#556 = CARTESIAN_POINT('',(2.,14.,23.4));
#557 = LINE('',#558,#559);
#558 = CARTESIAN_POINT('',(2.,14.,1.6));
#559 = VECTOR('',#560,1.);
#560 = DIRECTION('',(0.,0.,1.));
#561 = ORIENTED_EDGE('',*,*,#562,.F.);
#562 = EDGE_CURVE('',#539,#555,#563,.T.);
#563 = LINE('',#564,#565);
#564 = CARTESIAN_POINT('',(2.,1.,23.4));
#565 = VECTOR('',#566,1.);
#566 = DIRECTION('',(-0.,1.,0.));
#567 = PLANE('',#568);
#568 = AXIS2_PLACEMENT_3D('',#569,#570,#571);
#569 = CARTESIAN_POINT('',(2.,1.,1.6));
#570 = DIRECTION('',(1.,0.,-0.));
#571 = DIRECTION('',(0.,0.,1.));
#572 = ADVANCED_FACE('',(#573),#598,.F.);
#573 = FACE_BOUND('',#574,.F.);
#574 = EDGE_LOOP('',(#575,#583,#584,#592));
#575 = ORIENTED_EDGE('',*,*,#576,.F.);
#576 = EDGE_CURVE('',#537,#577,#579,.T.);
#577 = VERTEX_POINT('',#578);
#578 = CARTESIAN_POINT('',(18.,1.,1.6));
#579 = LINE('',#580,#581);
#580 = CARTESIAN_POINT('',(2.,1.,1.6));
#581 = VECTOR('',#582,1.);
#582 = DIRECTION('',(1.,0.,-0.));
#583 = ORIENTED_EDGE('',*,*,#536,.T.);
#584 = ORIENTED_EDGE('',*,*,#585,.T.);
#585 = EDGE_CURVE('',#539,#586,#588,.T.);
#586 = VERTEX_POINT('',#587);
#587 = CARTESIAN_POINT('',(18.,1.,23.4));
#588 = LINE('',#589,#590);
#589 = CARTESIAN_POINT('',(2.,1.,23.4));
#590 = VECTOR('',#591,1.);
#591 = DIRECTION('',(1.,0.,-0.));
#592 = ORIENTED_EDGE('',*,*,#593,.F.);
#593 = EDGE_CURVE('',#577,#586,#594,.T.);
#594 = LINE('',#595,#596);
#595 = CARTESIAN_POINT('',(18.,1.,1.6));
#596 = VECTOR('',#597,1.);
#597 = DIRECTION('',(0.,0.,1.));
#598 = PLANE('',#599);
#599 = AXIS2_PLACEMENT_3D('',#600,#601,#602);
#600 = CARTESIAN_POINT('',(2.,1.,1.6));
#601 = DIRECTION('',(-0.,1.,0.));
#602 = DIRECTION('',(0.,0.,1.));
#603 = ADVANCED_FACE('',(#604,#622),#633,.T.);
#604 = FACE_BOUND('',#605,.T.);
#605 = EDGE_LOOP('',(#606,#607,#608,#616));
#606 = ORIENTED_EDGE('',*,*,#562,.F.);
#607 = ORIENTED_EDGE('',*,*,#585,.T.);
#608 = ORIENTED_EDGE('',*,*,#609,.T.);
#609 = EDGE_CURVE('',#586,#610,#612,.T.);
#610 = VERTEX_POINT('',#611);
#611 = CARTESIAN_POINT('',(18.,14.,23.4));
#612 = LINE('',#613,#614);
#613 = CARTESIAN_POINT('',(18.,1.,23.4));
#614 = VECTOR('',#615,1.);
#615 = DIRECTION('',(-0.,1.,0.));
#616 = ORIENTED_EDGE('',*,*,#617,.F.);
#617 = EDGE_CURVE('',#555,#610,#618,.T.);
#618 = LINE('',#619,#620);
#619 = CARTESIAN_POINT('',(2.,14.,23.4));
#620 = VECTOR('',#621,1.);
#621 = DIRECTION('',(1.,0.,-0.));
#622 = FACE_BOUND('',#623,.T.);
#623 = EDGE_LOOP('',(#624));
#624 = ORIENTED_EDGE('',*,*,#625,.F.);
#625 = EDGE_CURVE('',#626,#626,#628,.T.);
#626 = VERTEX_POINT('',#627);
#627 = CARTESIAN_POINT('',(12.3,7.5,23.4));
#628 = CIRCLE('',#629,2.3);
#629 = AXIS2_PLACEMENT_3D('',#630,#631,#632);
#630 = CARTESIAN_POINT('',(10.,7.5,23.4));
#631 = DIRECTION('',(0.,0.,1.));
#632 = DIRECTION('',(1.,0.,-0.));
#633 = PLANE('',#634);
#634 = AXIS2_PLACEMENT_3D('',#635,#636,#637);
#635 = CARTESIAN_POINT('',(2.,1.,23.4));
#636 = DIRECTION('',(0.,0.,1.));
#637 = DIRECTION('',(1.,0.,-0.));
#638 = ADVANCED_FACE('',(#639),#657,.T.);
#639 = FACE_BOUND('',#640,.T.);
#640 = EDGE_LOOP('',(#641,#649,#650,#651));
#641 = ORIENTED_EDGE('',*,*,#642,.F.);
#642 = EDGE_CURVE('',#547,#643,#645,.T.);
#643 = VERTEX_POINT('',#644);
#644 = CARTESIAN_POINT('',(18.,14.,1.6));
#645 = LINE('',#646,#647);
#646 = CARTESIAN_POINT('',(2.,14.,1.6));
#647 = VECTOR('',#648,1.);
#648 = DIRECTION('',(1.,0.,-0.));
#649 = ORIENTED_EDGE('',*,*,#554,.T.);
#650 = ORIENTED_EDGE('',*,*,#617,.T.);
#651 = ORIENTED_EDGE('',*,*,#652,.F.);
#652 = EDGE_CURVE('',#643,#610,#653,.T.);
#653 = LINE('',#654,#655);
#654 = CARTESIAN_POINT('',(18.,14.,1.6));
#655 = VECTOR('',#656,1.);
#656 = DIRECTION('',(0.,0.,1.));
#657 = PLANE('',#658);
#658 = AXIS2_PLACEMENT_3D('',#659,#660,#661);
#659 = CARTESIAN_POINT('',(2.,14.,1.6));
#660 = DIRECTION('',(-0.,1.,0.));
#661 = DIRECTION('',(0.,0.,1.));
#662 = ADVANCED_FACE('',(#663,#674),#685,.F.);
#663 = FACE_BOUND('',#664,.F.);
#664 = EDGE_LOOP('',(#665,#666,#667,#673));
#665 = ORIENTED_EDGE('',*,*,#546,.F.);
#666 = ORIENTED_EDGE('',*,*,#576,.T.);
#667 = ORIENTED_EDGE('',*,*,#668,.T.);
#668 = EDGE_CURVE('',#577,#643,#669,.T.);
#669 = LINE('',#670,#671);
#670 = CARTESIAN_POINT('',(18.,1.,1.6));
#671 = VECTOR('',#672,1.);
#672 = DIRECTION('',(-0.,1.,0.));
#673 = ORIENTED_EDGE('',*,*,#642,.F.);
#674 = FACE_BOUND('',#675,.F.);
#675 = EDGE_LOOP('',(#676));
#676 = ORIENTED_EDGE('',*,*,#677,.F.);
#677 = EDGE_CURVE('',#678,#678,#680,.T.);
#678 = VERTEX_POINT('',#679);
#679 = CARTESIAN_POINT('',(12.3,7.5,1.6));
#680 = CIRCLE('',#681,2.3);
#681 = AXIS2_PLACEMENT_3D('',#682,#683,#684);
#682 = CARTESIAN_POINT('',(10.,7.5,1.6));
#683 = DIRECTION('',(0.,0.,1.));
#684 = DIRECTION('',(1.,0.,-0.));
#685 = PLANE('',#686);
#686 = AXIS2_PLACEMENT_3D('',#687,#688,#689);
#687 = CARTESIAN_POINT('',(2.,1.,1.6));
#688 = DIRECTION('',(0.,0.,1.));
#689 = DIRECTION('',(1.,0.,-0.));
#690 = ADVANCED_FACE('',(#691),#697,.T.);
#691 = FACE_BOUND('',#692,.T.);
#692 = EDGE_LOOP('',(#693,#694,#695,#696));
#693 = ORIENTED_EDGE('',*,*,#593,.F.);
#694 = ORIENTED_EDGE('',*,*,#668,.T.);
#695 = ORIENTED_EDGE('',*,*,#652,.T.);
#696 = ORIENTED_EDGE('',*,*,#609,.F.);
#697 = PLANE('',#698);
#698 = AXIS2_PLACEMENT_3D('',#699,#700,#701);
#699 = CARTESIAN_POINT('',(18.,1.,1.6));
#700 = DIRECTION('',(1.,0.,-0.));
#701 = DIRECTION('',(0.,0.,1.));
#702 = ADVANCED_FACE('',(#703),#714,.F.);
#703 = FACE_BOUND('',#704,.F.);
#704 = EDGE_LOOP('',(#705,#706,#712,#713));
#705 = ORIENTED_EDGE('',*,*,#625,.F.);
#706 = ORIENTED_EDGE('',*,*,#707,.F.);
#707 = EDGE_CURVE('',#678,#626,#708,.T.);
#708 = LINE('',#709,#710);
#709 = CARTESIAN_POINT('',(12.3,7.5,0.));
#710 = VECTOR('',#711,1.);
#711 = DIRECTION('',(0.,0.,1.));
#712 = ORIENTED_EDGE('',*,*,#677,.T.);
#713 = ORIENTED_EDGE('',*,*,#707,.T.);
#714 = CYLINDRICAL_SURFACE('',#715,2.3);
#715 = AXIS2_PLACEMENT_3D('',#716,#717,#718);
#716 = CARTESIAN_POINT('',(10.,7.5,0.));
#717 = DIRECTION('',(0.,0.,1.));
#718 = DIRECTION('',(1.,0.,-0.));
#719 = ( GEOMETRIC_REPRESENTATION_CONTEXT(3) 
GLOBAL_UNCERTAINTY_ASSIGNED_CONTEXT((#723)) GLOBAL_UNIT_ASSIGNED_CONTEXT
((#720,#721,#722)) REPRESENTATION_CONTEXT('Context #1',
  '3D Context with UNIT and UNCERTAINTY') );
#720 = ( LENGTH_UNIT() NAMED_UNIT(*) SI_UNIT(.MILLI.,.METRE.) );
#721 = ( NAMED_UNIT(*) PLANE_ANGLE_UNIT() SI_UNIT($,.RADIAN.) );
#722 = ( NAMED_UNIT(*) SI_UNIT($,.STERADIAN.) SOLID_ANGLE_UNIT() );
#723 = UNCERTAINTY_MEASURE_WITH_UNIT(LENGTH_MEASURE(1.E-07),#720,
  'distance_accuracy_value','confusion accuracy');
#724 = CONTEXT_DEPENDENT_SHAPE_REPRESENTATION(#725,#727);
#725 = ( REPRESENTATION_RELATIONSHIP('','',#529,#10) 
REPRESENTATION_RELATIONSHIP_WITH_TRANSFORMATION(#726) 
SHAPE_REPRESENTATION_RELATIONSHIP() );
#726 = ITEM_DEFINED_TRANSFORMATION('','',#11,#19);
#727 = PRODUCT_DEFINITION_SHAPE('Placement','Placement of an item',#728
  );
#728 = NEXT_ASSEMBLY_USAGE_OCCURRENCE('52','coil','',#5,#524,$);
#729 = PRODUCT_RELATED_PRODUCT_CATEGORY('part',$,(#526));
#730 = SHAPE_DEFINITION_REPRESENTATION(#731,#737);
#731 = PRODUCT_DEFINITION_SHAPE('','',#732);
#732 = PRODUCT_DEFINITION('design','',#733,#736);
#733 = PRODUCT_DEFINITION_FORMATION('','',#734);
#734 = PRODUCT('plunger','plunger','',(#735));
#735 = PRODUCT_CONTEXT('',#2,'mechanical');
#736 = PRODUCT_DEFINITION_CONTEXT('part definition',#2,'design');
#737 = ADVANCED_BREP_SHAPE_REPRESENTATION('',(#11,#738),#791);
#738 = MANIFOLD_SOLID_BREP('',#739);
#739 = CLOSED_SHELL('',(#740,#773,#782));
#740 = ADVANCED_FACE('',(#741),#768,.T.);
#741 = FACE_BOUND('',#742,.T.);
#742 = EDGE_LOOP('',(#743,#752,#760,#767));
#743 = ORIENTED_EDGE('',*,*,#744,.F.);
#744 = EDGE_CURVE('',#745,#745,#747,.T.);
#745 = VERTEX_POINT('',#746);
#746 = CARTESIAN_POINT('',(12.,7.5,18.));
#747 = CIRCLE('',#748,2.);
#748 = AXIS2_PLACEMENT_3D('',#749,#750,#751);
#749 = CARTESIAN_POINT('',(10.,7.5,18.));
#750 = DIRECTION('',(0.,0.,1.));
#751 = DIRECTION('',(1.,0.,-0.));
#752 = ORIENTED_EDGE('',*,*,#753,.F.);
#753 = EDGE_CURVE('',#754,#745,#756,.T.);
#754 = VERTEX_POINT('',#755);
#755 = CARTESIAN_POINT('',(12.,7.5,4.));
#756 = LINE('',#757,#758);
#757 = CARTESIAN_POINT('',(12.,7.5,4.));
#758 = VECTOR('',#759,1.);
#759 = DIRECTION('',(0.,0.,1.));
#760 = ORIENTED_EDGE('',*,*,#761,.T.);
#761 = EDGE_CURVE('',#754,#754,#762,.T.);
#762 = CIRCLE('',#763,2.);
#763 = AXIS2_PLACEMENT_3D('',#764,#765,#766);
#764 = CARTESIAN_POINT('',(10.,7.5,4.));
#765 = DIRECTION('',(0.,0.,1.));
#766 = DIRECTION('',(1.,0.,-0.));
#767 = ORIENTED_EDGE('',*,*,#753,.T.);
#768 = CYLINDRICAL_SURFACE('',#769,2.);
#769 = AXIS2_PLACEMENT_3D('',#770,#771,#772);
#770 = CARTESIAN_POINT('',(10.,7.5,4.));
#771 = DIRECTION('',(0.,0.,1.));
#772 = DIRECTION('',(1.,0.,-0.));
#773 = ADVANCED_FACE('',(#774),#777,.T.);
#774 = FACE_BOUND('',#775,.T.);
#775 = EDGE_LOOP('',(#776));
#776 = ORIENTED_EDGE('',*,*,#744,.T.);
#777 = PLANE('',#778);
#778 = AXIS2_PLACEMENT_3D('',#779,#780,#781);
#779 = CARTESIAN_POINT('',(10.,7.5,18.));
#780 = DIRECTION('',(0.,0.,1.));
#781 = DIRECTION('',(1.,0.,-0.));
#782 = ADVANCED_FACE('',(#783),#786,.F.);
#783 = FACE_BOUND('',#784,.T.);
#784 = EDGE_LOOP('',(#785));
#785 = ORIENTED_EDGE('',*,*,#761,.F.);
#786 = PLANE('',#787);
#787 = AXIS2_PLACEMENT_3D('',#788,#789,#790);
#788 = CARTESIAN_POINT('',(10.,7.5,4.));
#789 = DIRECTION('',(0.,0.,1.));
#790 = DIRECTION('',(1.,0.,-0.));
#791 = ( GEOMETRIC_REPRESENTATION_CONTEXT(3) 
GLOBAL_UNCERTAINTY_ASSIGNED_CONTEXT((#795)) GLOBAL_UNIT_ASSIGNED_CONTEXT
((#792,#793,#794)) REPRESENTATION_CONTEXT('Context #1',
  '3D Context with UNIT and UNCERTAINTY') );
#792 = ( LENGTH_UNIT() NAMED_UNIT(*) SI_UNIT(.MILLI.,.METRE.) );
#793 = ( NAMED_UNIT(*) PLANE_ANGLE_UNIT() SI_UNIT($,.RADIAN.) );
#794 = ( NAMED_UNIT(*) SI_UNIT($,.STERADIAN.) SOLID_ANGLE_UNIT() );
#795 = UNCERTAINTY_MEASURE_WITH_UNIT(LENGTH_MEASURE(1.E-07),#792,
  'distance_accuracy_value','confusion accuracy');
#796 = CONTEXT_DEPENDENT_SHAPE_REPRESENTATION(#797,#799);
#797 = ( REPRESENTATION_RELATIONSHIP('','',#737,#10) 
REPRESENTATION_RELATIONSHIP_WITH_TRANSFORMATION(#798) 
SHAPE_REPRESENTATION_RELATIONSHIP() );
#798 = ITEM_DEFINED_TRANSFORMATION('','',#11,#23);
#799 = PRODUCT_DEFINITION_SHAPE('Placement','Placement of an item',#800
  );
#800 = NEXT_ASSEMBLY_USAGE_OCCURRENCE('53','plunger','',#5,#732,$);
#801 = PRODUCT_RELATED_PRODUCT_CATEGORY('part',$,(#734));
#802 = SHAPE_DEFINITION_REPRESENTATION(#803,#809);
#803 = PRODUCT_DEFINITION_SHAPE('','',#804);
#804 = PRODUCT_DEFINITION('design','',#805,#808);
#805 = PRODUCT_DEFINITION_FORMATION('','',#806);
#806 = PRODUCT('spring','spring','',(#807));
#807 = PRODUCT_CONTEXT('',#2,'mechanical');
#808 = PRODUCT_DEFINITION_CONTEXT('part definition',#2,'design');
#809 = ADVANCED_BREP_SHAPE_REPRESENTATION('',(#11,#810),#1190);
#810 = MANIFOLD_SOLID_BREP('',#811);
#811 = CLOSED_SHELL('',(#812,#1172,#1181));
#812 = ADVANCED_FACE('',(#813),#884,.T.);
#813 = FACE_BOUND('',#814,.T.);
#814 = EDGE_LOOP('',(#815,#863,#873,#874));
#815 = ORIENTED_EDGE('',*,*,#816,.T.);
#816 = EDGE_CURVE('',#817,#819,#821,.T.);
#817 = VERTEX_POINT('',#818);
#818 = CARTESIAN_POINT('',(1.85,-1.413799632921E-15,0.35));
#819 = VERTEX_POINT('',#820);
#820 = CARTESIAN_POINT('',(1.849999999985,-4.028562355712E-07,
    5.150003164025));
#821 = ( BOUNDED_CURVE() B_SPLINE_CURVE(10,(#822,#823,#824,#825,#826,
    #827,#828,#829,#830,#831,#832,#833,#834,#835,#836,#837,#838,#839,
    #840,#841,#842,#843,#844,#845,#846,#847,#848,#849,#850,#851,#852,
    #853,#854,#855,#856,#857,#858,#859,#860,#861,#862),.UNSPECIFIED.,.F.
,.F.) B_SPLINE_CURVE_WITH_KNOTS((11,10,10,10,11),(0.,6.396750550425,
    12.793501100849,19.190251651274,25.587002201698),
.PIECEWISE_BEZIER_KNOTS.) CURVE() GEOMETRIC_REPRESENTATION_ITEM() 
RATIONAL_B_SPLINE_CURVE((1.669078461068,1.669078461068,1.669078461068,
    1.669078461069,1.669078461068,1.669078461069,1.669078461068,
    1.669078461068,1.669078461068,1.669078461068,1.669078461068,
    1.669078461068,1.669078461068,1.669078461068,1.669078461068,
    1.669078461068,1.669078461068,1.669078461068,1.669078461068,
    1.669078461068,1.669078461068,1.669078461068,1.669078461068,
    1.669078461069,1.669078461067,1.669078461069,1.669078461067,
    1.669078461069,1.669078461068,1.669078461068,1.669078461068,
    1.669078461068,1.669078461068,1.669078461068,1.669078461069,
    1.669078461068,1.669078461068,1.669078461068,1.669078461068,
1.669078461068,1.669078461068)) REPRESENTATION_ITEM('') );
#822 = CARTESIAN_POINT('',(1.85,-1.413799632921E-15,0.35));
#823 = CARTESIAN_POINT('',(1.85,1.162341426875,0.470004360849));
#824 = CARTESIAN_POINT('',(1.038659837827,2.32589369599,0.589994340059)
  );
#825 = CARTESIAN_POINT('',(-0.585821846401,2.843859558051,0.710015582372
    ));
#826 = CARTESIAN_POINT('',(-2.441061960443,2.118101897308,0.829988347488
    ));
#827 = CARTESIAN_POINT('',(-3.423548710329,3.724915046219E-07,
    0.950001581965));
#828 = CARTESIAN_POINT('',(-2.441062421815,-2.118101365274,
    1.070014816615));
#829 = CARTESIAN_POINT('',(-0.585822465461,-2.843859430768,
    1.189987581615));
#830 = CARTESIAN_POINT('',(1.038659331165,-2.325893922083,1.310008823978
    ));
#831 = CARTESIAN_POINT('',(1.849999746958,-1.162341829732,1.429998803176
    ));
#832 = CARTESIAN_POINT('',(1.849999999985,-4.028562499269E-07,
    1.550003164026));
#833 = CARTESIAN_POINT('',(1.850000000028,1.162342203972,1.669998257543)
  );
#834 = CARTESIAN_POINT('',(1.038659837784,2.325892506692,1.79000368077)
  );
#835 = CARTESIAN_POINT('',(-0.585821846347,2.843861035953,1.910003974975
    ));
#836 = CARTESIAN_POINT('',(-2.441061960497,2.118100392345,2.030000167422
    ));
#837 = CARTESIAN_POINT('',(-3.423548710284,1.626628160509E-06,
    2.14999173202));
#838 = CARTESIAN_POINT('',(-2.441062421845,-2.11810220979,2.270021449411
    ));
#839 = CARTESIAN_POINT('',(-0.585822465445,-2.843858984781,
    2.389984078849));
#840 = CARTESIAN_POINT('',(1.038659331159,-2.325894094772,2.510010180268
    ));
#841 = CARTESIAN_POINT('',(1.849999746959,-1.162341789446,2.629998486773
    ));
#842 = CARTESIAN_POINT('',(1.849999999985,-4.028563508913E-07,
    2.750003164026));
#843 = CARTESIAN_POINT('',(1.850000000028,1.162342203972,2.869998257544)
  );
#844 = CARTESIAN_POINT('',(1.038659837784,2.325892506693,2.990003680769)
  );
#845 = CARTESIAN_POINT('',(-0.585821846348,2.843861035952,3.110003974975
    ));
#846 = CARTESIAN_POINT('',(-2.441061960495,2.118100392345,3.230000167425
    ));
#847 = CARTESIAN_POINT('',(-3.423548710287,1.626630011802E-06,
    3.349991732014));
#848 = CARTESIAN_POINT('',(-2.441062421841,-2.118102209794,
    3.470021449419));
#849 = CARTESIAN_POINT('',(-0.585822465448,-2.843858984777,
    3.589984078842));
#850 = CARTESIAN_POINT('',(1.03865933116,-2.325894094773,3.710010180273)
  );
#851 = CARTESIAN_POINT('',(1.849999746959,-1.162341789446,3.829998486771
    ));
#852 = CARTESIAN_POINT('',(1.849999999985,-4.028564154386E-07,
    3.950003164026));
#853 = CARTESIAN_POINT('',(1.850000000028,1.162342203973,4.069998257541)
  );
#854 = CARTESIAN_POINT('',(1.038659837783,2.325892506692,4.190003680774)
  );
#855 = CARTESIAN_POINT('',(-0.585821846345,2.843861035954,4.310003974971
    ));
#856 = CARTESIAN_POINT('',(-2.441061960499,2.118100392344,4.430000167425
    ));
#857 = CARTESIAN_POINT('',(-3.423548710283,1.626627654925E-06,
    4.549991732019));
#858 = CARTESIAN_POINT('',(-2.441062421846,-2.118102209789,
    4.670021449411));
#859 = CARTESIAN_POINT('',(-0.585822465445,-2.843858984782,
    4.789984078851));
#860 = CARTESIAN_POINT('',(1.038659331158,-2.325894094771,4.910010180265
    ));
#861 = CARTESIAN_POINT('',(1.849999746959,-1.162341789446,5.029998486775
    ));
#862 = CARTESIAN_POINT('',(1.849999999985,-4.028562355712E-07,
    5.150003164025));
#863 = ORIENTED_EDGE('',*,*,#864,.F.);
#864 = EDGE_CURVE('',#819,#819,#865,.T.);
#865 = ( BOUNDED_CURVE() B_SPLINE_CURVE(6,(#866,#867,#868,#869,#870,#871
,#872),.UNSPECIFIED.,.T.,.F.) B_SPLINE_CURVE_WITH_KNOTS((1,6,6,1),(
    -6.28318530718,0.,6.28318530718,12.566370614359),.UNSPECIFIED.) 
CURVE() GEOMETRIC_REPRESENTATION_ITEM() RATIONAL_B_SPLINE_CURVE((
    1.669078461068,1.03672962321,1.038346699848,0.853534330196,
1.038346699848,1.03672962321,1.669078461068)) REPRESENTATION_ITEM('') );
#866 = CARTESIAN_POINT('',(1.849999999985,-4.028562355712E-07,
    5.150003164025));
#867 = CARTESIAN_POINT('',(1.85000525715,-4.028591754877E-07,
    4.568463087599));
#868 = CARTESIAN_POINT('',(1.130914145327,4.248279491066E-07,
    4.484957329274));
#869 = CARTESIAN_POINT('',(0.537809077687,1.107498892229E-06,
    5.149991301725));
#870 = CARTESIAN_POINT('',(1.13090212132,4.248346795153E-07,
    5.815035997492));
#871 = CARTESIAN_POINT('',(1.849994742821,-4.028532949573E-07,
    5.731543240451));
#872 = CARTESIAN_POINT('',(1.849999999985,-4.028562355712E-07,
    5.150003164025));
#873 = ORIENTED_EDGE('',*,*,#816,.F.);
#874 = ORIENTED_EDGE('',*,*,#875,.T.);
#875 = EDGE_CURVE('',#817,#817,#876,.T.);
#876 = ( BOUNDED_CURVE() B_SPLINE_CURVE(6,(#877,#878,#879,#880,#881,#882
,#883),.UNSPECIFIED.,.T.,.F.) B_SPLINE_CURVE_WITH_KNOTS((1,6,6,1),(
    -6.28318530718,0.,6.28318530718,12.566370614359),.UNSPECIFIED.) 
CURVE() GEOMETRIC_REPRESENTATION_ITEM() RATIONAL_B_SPLINE_CURVE((
    1.669078461068,1.03672962321,1.038346699848,0.853534330196,
1.038346699848,1.03672962321,1.669078461068)) REPRESENTATION_ITEM('') );
#877 = CARTESIAN_POINT('',(1.85,-1.413799632921E-15,0.35));
#878 = CARTESIAN_POINT('',(1.85,-1.436351038109E-15,-0.23154007645));
#879 = CARTESIAN_POINT('',(1.130908133308,-1.249000902703E-16,
    -0.315039334136));
#880 = CARTESIAN_POINT('',(0.537809077647,3.304648221736E-16,0.35));
#881 = CARTESIAN_POINT('',(1.130908133308,-1.254205073131E-15,
    1.015039334136));
#882 = CARTESIAN_POINT('',(1.85,-2.050443148605E-15,0.93154007645));
#883 = CARTESIAN_POINT('',(1.85,-1.413799632921E-15,0.35));
#884 = ( BOUNDED_SURFACE() B_SPLINE_SURFACE(6,10,(
    (#885,#886,#887,#888,#889,#890,#891,#892,#893,#894,#895,#896,#897
      ,#898,#899,#900,#901,#902,#903,#904,#905,#906,#907,#908,#909,#910
      ,#911,#912,#913,#914,#915,#916,#917,#918,#919,#920,#921,#922,#923
      ,#924,#925)
    ,(#926,#927,#928,#929,#930,#931,#932,#933,#934,#935,#936,#937,#938
      ,#939,#940,#941,#942,#943,#944,#945,#946,#947,#948,#949,#950,#951
      ,#952,#953,#954,#955,#956,#957,#958,#959,#960,#961,#962,#963,#964
      ,#965,#966)
    ,(#967,#968,#969,#970,#971,#972,#973,#974,#975,#976,#977,#978,#979
      ,#980,#981,#982,#983,#984,#985,#986,#987,#988,#989,#990,#991,#992
      ,#993,#994,#995,#996,#997,#998,#999,#1000,#1001,#1002,#1003,#1004
      ,#1005,#1006,#1007)
    ,(#1008,#1009,#1010,#1011,#1012,#1013,#1014,#1015,#1016,#1017,#1018
      ,#1019,#1020,#1021,#1022,#1023,#1024,#1025,#1026,#1027,#1028,#1029
      ,#1030,#1031,#1032,#1033,#1034,#1035,#1036,#1037,#1038,#1039,#1040
      ,#1041,#1042,#1043,#1044,#1045,#1046,#1047,#1048)
    ,(#1049,#1050,#1051,#1052,#1053,#1054,#1055,#1056,#1057,#1058,#1059
      ,#1060,#1061,#1062,#1063,#1064,#1065,#1066,#1067,#1068,#1069,#1070
      ,#1071,#1072,#1073,#1074,#1075,#1076,#1077,#1078,#1079,#1080,#1081
      ,#1082,#1083,#1084,#1085,#1086,#1087,#1088,#1089)
    ,(#1090,#1091,#1092,#1093,#1094,#1095,#1096,#1097,#1098,#1099,#1100
      ,#1101,#1102,#1103,#1104,#1105,#1106,#1107,#1108,#1109,#1110,#1111
      ,#1112,#1113,#1114,#1115,#1116,#1117,#1118,#1119,#1120,#1121,#1122
      ,#1123,#1124,#1125,#1126,#1127,#1128,#1129,#1130)
    ,(#1131,#1132,#1133,#1134,#1135,#1136,#1137,#1138,#1139,#1140,#1141
      ,#1142,#1143,#1144,#1145,#1146,#1147,#1148,#1149,#1150,#1151,#1152
      ,#1153,#1154,#1155,#1156,#1157,#1158,#1159,#1160,#1161,#1162,#1163
      ,#1164,#1165,#1166,#1167,#1168,#1169,#1170,#1171
)),.UNSPECIFIED.,.T.,.F.,.F.) B_SPLINE_SURFACE_WITH_KNOTS((1,6,6,1),(11,
    10,10,10,11),(-6.28318530718,0.,6.28318530718,12.566370614359),(0.,
    6.396750550425,12.793501100849,19.190251651274,25.587002201698),
.UNSPECIFIED.) GEOMETRIC_REPRESENTATION_ITEM() RATIONAL_B_SPLINE_SURFACE
((
    (1.669078461068,1.669078461068,1.669078461068,1.669078461069
      ,1.669078461068,1.669078461069,1.669078461068,1.669078461068
      ,1.669078461068,1.669078461068,1.669078461068,1.669078461068
      ,1.669078461068,1.669078461068,1.669078461068,1.669078461068
      ,1.669078461068,1.669078461068,1.669078461068,1.669078461068
      ,1.669078461068,1.669078461068,1.669078461068,1.669078461069
      ,1.669078461067,1.669078461069,1.669078461067,1.669078461069
      ,1.669078461068,1.669078461068,1.669078461068,1.669078461068
      ,1.669078461068,1.669078461068,1.669078461069,1.669078461068
      ,1.669078461068,1.669078461068,1.669078461068,1.669078461068
      ,1.669078461068)
    ,(1.03672962321,1.03672962321,1.03672962321,1.03672962321
      ,1.03672962321,1.03672962321,1.03672962321,1.03672962321
      ,1.03672962321,1.03672962321,1.03672962321,1.03672962321
      ,1.03672962321,1.036729623209,1.03672962321,1.036729623209
      ,1.03672962321,1.036729623209,1.03672962321,1.03672962321
      ,1.03672962321,1.03672962321,1.03672962321,1.03672962321
      ,1.036729623209,1.03672962321,1.036729623209,1.03672962321
      ,1.036729623209,1.03672962321,1.03672962321,1.03672962321
      ,1.03672962321,1.036729623209,1.03672962321,1.036729623209
      ,1.03672962321,1.036729623209,1.03672962321,1.03672962321
      ,1.03672962321)
    ,(1.038346699848,1.038346699848,1.038346699848,1.038346699848
      ,1.038346699848,1.038346699848,1.038346699848,1.038346699848
      ,1.038346699848,1.038346699848,1.038346699848,1.038346699847
      ,1.038346699848,1.038346699847,1.038346699848,1.038346699847
      ,1.038346699848,1.038346699847,1.038346699848,1.038346699847
      ,1.038346699848,1.038346699848,1.038346699847,1.038346699848
      ,1.038346699847,1.038346699848,1.038346699847,1.038346699848
      ,1.038346699847,1.038346699848,1.038346699848,1.038346699847
      ,1.038346699848,1.038346699847,1.038346699848,1.038346699847
      ,1.038346699848,1.038346699847,1.038346699848,1.038346699847
      ,1.038346699848)
    ,(0.853534330196,0.853534330196,0.853534330196,0.853534330196
      ,0.853534330196,0.853534330196,0.853534330196,0.853534330196
      ,0.853534330196,0.853534330196,0.853534330196,0.853534330196
      ,0.853534330196,0.853534330196,0.853534330196,0.853534330196
      ,0.853534330196,0.853534330196,0.853534330196,0.853534330196
      ,0.853534330196,0.853534330196,0.853534330196,0.853534330196
      ,0.853534330196,0.853534330197,0.853534330196,0.853534330196
      ,0.853534330196,0.853534330196,0.853534330196,0.853534330196
      ,0.853534330196,0.853534330196,0.853534330196,0.853534330196
      ,0.853534330196,0.853534330196,0.853534330196,0.853534330196
      ,0.853534330196)
    ,(1.038346699848,1.038346699848,1.038346699848,1.038346699848
      ,1.038346699848,1.038346699848,1.038346699848,1.038346699848
      ,1.038346699848,1.038346699848,1.038346699848,1.038346699847
      ,1.038346699848,1.038346699847,1.038346699848,1.038346699847
      ,1.038346699848,1.038346699847,1.038346699848,1.038346699847
      ,1.038346699848,1.038346699848,1.038346699847,1.038346699848
      ,1.038346699847,1.038346699848,1.038346699847,1.038346699848
      ,1.038346699847,1.038346699848,1.038346699848,1.038346699847
      ,1.038346699848,1.038346699847,1.038346699848,1.038346699847
      ,1.038346699848,1.038346699847,1.038346699848,1.038346699847
      ,1.038346699848)
    ,(1.03672962321,1.03672962321,1.03672962321,1.03672962321
      ,1.036729623209,1.03672962321,1.036729623209,1.03672962321
      ,1.03672962321,1.03672962321,1.03672962321,1.03672962321
      ,1.03672962321,1.036729623209,1.03672962321,1.036729623209
      ,1.03672962321,1.036729623209,1.03672962321,1.03672962321
      ,1.03672962321,1.03672962321,1.036729623209,1.03672962321
      ,1.036729623209,1.03672962321,1.036729623209,1.03672962321
      ,1.036729623209,1.03672962321,1.03672962321,1.03672962321
      ,1.03672962321,1.036729623209,1.03672962321,1.036729623209
      ,1.03672962321,1.036729623209,1.03672962321,1.03672962321
      ,1.03672962321)
    ,(1.669078461068,1.669078461068,1.669078461068,1.669078461069
      ,1.669078461068,1.669078461069,1.669078461068,1.669078461068
      ,1.669078461068,1.669078461068,1.669078461068,1.669078461068
      ,1.669078461068,1.669078461068,1.669078461068,1.669078461068
      ,1.669078461068,1.669078461068,1.669078461068,1.669078461068
      ,1.669078461068,1.669078461068,1.669078461068,1.669078461069
      ,1.669078461067,1.669078461069,1.669078461067,1.669078461069
      ,1.669078461068,1.669078461068,1.669078461068,1.669078461068
      ,1.669078461068,1.669078461068,1.669078461069,1.669078461068
      ,1.669078461068,1.669078461068,1.669078461068,1.669078461068
,1.669078461068))) REPRESENTATION_ITEM('') SURFACE() );
#885 = CARTESIAN_POINT('',(1.85,-1.413799632921E-15,0.35));
#886 = CARTESIAN_POINT('',(1.85,1.162341426875,0.470004360849));
#887 = CARTESIAN_POINT('',(1.038659837827,2.32589369599,0.589994340059)
  );
#888 = CARTESIAN_POINT('',(-0.585821846401,2.843859558051,0.710015582372
    ));
#889 = CARTESIAN_POINT('',(-2.441061960443,2.118101897308,0.829988347488
    ));
#890 = CARTESIAN_POINT('',(-3.423548710329,3.724915046219E-07,
    0.950001581965));
#891 = CARTESIAN_POINT('',(-2.441062421815,-2.118101365274,
    1.070014816615));
#892 = CARTESIAN_POINT('',(-0.585822465461,-2.843859430768,
    1.189987581615));
#893 = CARTESIAN_POINT('',(1.038659331165,-2.325893922083,1.310008823978
    ));
#894 = CARTESIAN_POINT('',(1.849999746958,-1.162341829732,1.429998803176
    ));
#895 = CARTESIAN_POINT('',(1.849999999985,-4.028562499269E-07,
    1.550003164026));
#896 = CARTESIAN_POINT('',(1.850000000028,1.162342203972,1.669998257543)
  );
#897 = CARTESIAN_POINT('',(1.038659837784,2.325892506692,1.79000368077)
  );
#898 = CARTESIAN_POINT('',(-0.585821846347,2.843861035953,1.910003974975
    ));
#899 = CARTESIAN_POINT('',(-2.441061960497,2.118100392345,2.030000167422
    ));
#900 = CARTESIAN_POINT('',(-3.423548710284,1.626628160509E-06,
    2.14999173202));
#901 = CARTESIAN_POINT('',(-2.441062421845,-2.11810220979,2.270021449411
    ));
#902 = CARTESIAN_POINT('',(-0.585822465445,-2.843858984781,
    2.389984078849));
#903 = CARTESIAN_POINT('',(1.038659331159,-2.325894094772,2.510010180268
    ));
#904 = CARTESIAN_POINT('',(1.849999746959,-1.162341789446,2.629998486773
    ));
#905 = CARTESIAN_POINT('',(1.849999999985,-4.028563508913E-07,
    2.750003164026));
#906 = CARTESIAN_POINT('',(1.850000000028,1.162342203972,2.869998257544)
  );
#907 = CARTESIAN_POINT('',(1.038659837784,2.325892506693,2.990003680769)
  );
#908 = CARTESIAN_POINT('',(-0.585821846348,2.843861035952,3.110003974975
    ));
#909 = CARTESIAN_POINT('',(-2.441061960495,2.118100392345,3.230000167425
    ));
#910 = CARTESIAN_POINT('',(-3.423548710287,1.626630011802E-06,
    3.349991732014));
#911 = CARTESIAN_POINT('',(-2.441062421841,-2.118102209794,
    3.470021449419));
#912 = CARTESIAN_POINT('',(-0.585822465448,-2.843858984777,
    3.589984078842));
#913 = CARTESIAN_POINT('',(1.03865933116,-2.325894094773,3.710010180273)
  );
#914 = CARTESIAN_POINT('',(1.849999746959,-1.162341789446,3.829998486771
    ));
#915 = CARTESIAN_POINT('',(1.849999999985,-4.028564154386E-07,
    3.950003164026));
#916 = CARTESIAN_POINT('',(1.850000000028,1.162342203973,4.069998257541)
  );
#917 = CARTESIAN_POINT('',(1.038659837783,2.325892506692,4.190003680774)
  );
#918 = CARTESIAN_POINT('',(-0.585821846345,2.843861035954,4.310003974971
    ));
#919 = CARTESIAN_POINT('',(-2.441061960499,2.118100392344,4.430000167425
    ));
#920 = CARTESIAN_POINT('',(-3.423548710283,1.626627654925E-06,
    4.549991732019));
#921 = CARTESIAN_POINT('',(-2.441062421846,-2.118102209789,
    4.670021449411));
#922 = CARTESIAN_POINT('',(-0.585822465445,-2.843858984782,
    4.789984078851));
#923 = CARTESIAN_POINT('',(1.038659331158,-2.325894094771,4.910010180265
    ));
#924 = CARTESIAN_POINT('',(1.849999746959,-1.162341789446,5.029998486775
    ));
#925 = CARTESIAN_POINT('',(1.849999999985,-4.028562355712E-07,
    5.150003164025));
#926 = CARTESIAN_POINT('',(1.85,-1.436351038109E-15,-0.23154007645));
#927 = CARTESIAN_POINT('',(1.850007245738,1.162343078107,-0.111535715601
    ));
#928 = CARTESIAN_POINT('',(1.038660206171,2.325884040581,
    8.454263671429E-03));
#929 = CARTESIAN_POINT('',(-0.585836801497,2.843906766656,0.128475505775
    ));
#930 = CARTESIAN_POINT('',(-2.441044110627,2.118034517468,0.248448271367
    ));
#931 = CARTESIAN_POINT('',(-3.423553574102,7.978366579614E-05,
    0.368461505024));
#932 = CARTESIAN_POINT('',(-2.441087209459,-2.118174767392,
    0.488474740693));
#933 = CARTESIAN_POINT('',(-0.585809174492,-2.843820299754,
    0.608447504808));
#934 = CARTESIAN_POINT('',(1.038661914219,-2.325910189207,0.728468747699
    ));
#935 = CARTESIAN_POINT('',(1.849997758383,-1.162343480958,0.848458726684
    ));
#936 = CARTESIAN_POINT('',(1.85000525715,-4.028592520853E-07,
    0.9684630876));
#937 = CARTESIAN_POINT('',(1.849997104861,1.16234385521,1.088458181048)
  );
#938 = CARTESIAN_POINT('',(1.038675726123,2.325882851274,1.208463604453)
  );
#939 = CARTESIAN_POINT('',(-0.585856087635,2.84390824457,1.328463898292)
  );
#940 = CARTESIAN_POINT('',(-2.441024471349,2.118033012491,1.44846009139)
  );
#941 = CARTESIAN_POINT('',(-3.423569940168,8.103781271592E-05,
    1.568451655006));
#942 = CARTESIAN_POINT('',(-2.441076188809,-2.118175611913,
    1.688481373539));
#943 = CARTESIAN_POINT('',(-0.585814994475,-2.843819853765,
    1.808444002016));
#944 = CARTESIAN_POINT('',(1.038664167748,-2.325910361896,1.928470103999
    ));
#945 = CARTESIAN_POINT('',(1.849997232667,-1.162343440672,2.048458410279
    ));
#946 = CARTESIAN_POINT('',(1.850005257151,-4.028594969121E-07,
    2.1684630876));
#947 = CARTESIAN_POINT('',(1.849997104863,1.16234385521,2.288458181048)
  );
#948 = CARTESIAN_POINT('',(1.038675726118,2.325882851278,2.408463604452)
  );
#949 = CARTESIAN_POINT('',(-0.585856087629,2.843908244556,2.528463898291
    ));
#950 = CARTESIAN_POINT('',(-2.441024471352,2.118033012515,2.648460091393
    ));
#951 = CARTESIAN_POINT('',(-3.423569940173,8.103778844735E-05,
    2.768451655));
#952 = CARTESIAN_POINT('',(-2.441076188795,-2.118175611898,
    2.888481373546));
#953 = CARTESIAN_POINT('',(-0.58581499449,-2.84381985377,3.008444002009)
  );
#954 = CARTESIAN_POINT('',(1.038664167758,-2.325910361896,3.128470104004
    ));
#955 = CARTESIAN_POINT('',(1.849997232663,-1.162343440672,3.248458410277
    ));
#956 = CARTESIAN_POINT('',(1.850005257152,-4.028594517598E-07,
    3.3684630876));
#957 = CARTESIAN_POINT('',(1.849997104858,1.16234385521,3.488458181046)
  );
#958 = CARTESIAN_POINT('',(1.038675726129,2.325882851272,3.608463604456)
  );
#959 = CARTESIAN_POINT('',(-0.585856087642,2.843908244576,3.728463898288
    ));
#960 = CARTESIAN_POINT('',(-2.441024471344,2.11803301248,3.848460091392)
  );
#961 = CARTESIAN_POINT('',(-3.423569940168,8.10378258002E-05,
    3.968451655005));
#962 = CARTESIAN_POINT('',(-2.441076188814,-2.118175611924,
    4.088481373538));
#963 = CARTESIAN_POINT('',(-0.585814994468,-2.843819853759,
    4.208444002018));
#964 = CARTESIAN_POINT('',(1.038664167742,-2.325910361898,4.328470103997
    ));
#965 = CARTESIAN_POINT('',(1.849997232671,-1.162343440673,4.448458410281
    ));
#966 = CARTESIAN_POINT('',(1.85000525715,-4.028591754877E-07,
    4.568463087599));
#967 = CARTESIAN_POINT('',(1.130908133308,-1.249000902703E-16,
    -0.315039334136));
#968 = CARTESIAN_POINT('',(1.13091641941,0.710622890372,-0.195043932861)
  );
#969 = CARTESIAN_POINT('',(0.634958090732,1.421511371053,
    -7.50333653844E-02));
#970 = CARTESIAN_POINT('',(-0.358215131094,1.739034726022,
    4.494423333522E-02));
#971 = CARTESIAN_POINT('',(-1.492063020189,1.294277844013,0.164972954374
    ));
#972 = CARTESIAN_POINT('',(-2.092989990852,9.042045473586E-05,
    0.284958997045));
#973 = CARTESIAN_POINT('',(-1.492111293125,-1.294439400916,
    0.404945041633));
#974 = CARTESIAN_POINT('',(-0.358182176542,-1.738936123734,
    0.524973761241));
#975 = CARTESIAN_POINT('',(0.634961157736,-1.421540777193,0.64495136075)
  );
#976 = CARTESIAN_POINT('',(1.130906126053,-0.710622465534,0.764961927925
    ));
#977 = CARTESIAN_POINT('',(1.130914145328,4.248279097778E-07,
    0.884957329274));
#978 = CARTESIAN_POINT('',(1.130904822415,0.710622070893,1.004962503316)
  );
#979 = CARTESIAN_POINT('',(0.634975839179,1.421512625212,1.124956784465)
  );
#980 = CARTESIAN_POINT('',(-0.358237186511,1.739033167523,1.244956473796
    ));
#981 = CARTESIAN_POINT('',(-1.492040560925,1.294279431048,1.364960489784
    ));
#982 = CARTESIAN_POINT('',(-2.093008706906,8.909792487632E-05,
    1.484969384204));
#983 = CARTESIAN_POINT('',(-1.49209869003,-1.294438510344,1.604938047084
    ));
#984 = CARTESIAN_POINT('',(-0.35818883221,-1.738936594045,1.724977455048
    ));
#985 = CARTESIAN_POINT('',(0.634963734847,-1.421540595086,1.844949930488
    ));
#986 = CARTESIAN_POINT('',(1.13090552485,-0.710622508017,1.964962261585)
  );
#987 = CARTESIAN_POINT('',(1.130914145329,4.248278243956E-07,
    2.084957329273));
#988 = CARTESIAN_POINT('',(1.130904822417,0.710622070892,2.204962503315)
  );
#989 = CARTESIAN_POINT('',(0.634975839173,1.421512625218,2.324956784469)
  );
#990 = CARTESIAN_POINT('',(-0.3582371865,1.739033167503,2.44495647379));
#991 = CARTESIAN_POINT('',(-1.492040560933,1.294279431082,2.564960489787
    ));
#992 = CARTESIAN_POINT('',(-2.093008706906,8.909788773369E-05,
    2.684969384206));
#993 = CARTESIAN_POINT('',(-1.49209869002,-1.294438510317,2.804938047077
    ));
#994 = CARTESIAN_POINT('',(-0.358188832224,-1.738936594058,
    2.924977455056));
#995 = CARTESIAN_POINT('',(0.634963734857,-1.421540595082,3.044949930482
    ));
#996 = CARTESIAN_POINT('',(1.130905524846,-0.710622508018,3.164962261587
    ));
#997 = CARTESIAN_POINT('',(1.130914145329,4.248280119305E-07,
    3.284957329273));
#998 = CARTESIAN_POINT('',(1.130904822411,0.710622070892,3.404962503319)
  );
#999 = CARTESIAN_POINT('',(0.634975839187,1.421512625212,3.52495678446)
  );
#1000 = CARTESIAN_POINT('',(-0.358237186521,1.739033167526,
    3.644956473802));
#1001 = CARTESIAN_POINT('',(-1.492040560915,1.29427943104,3.764960489779
    ));
#1002 = CARTESIAN_POINT('',(-2.09300870691,8.909793692428E-05,
    3.884969384205));
#1003 = CARTESIAN_POINT('',(-1.492098690033,-1.294438510355,
    4.004938047087));
#1004 = CARTESIAN_POINT('',(-0.358188832204,-1.738936594038,
    4.124977455043));
#1005 = CARTESIAN_POINT('',(0.634963734841,-1.421540595089,
    4.244949930492));
#1006 = CARTESIAN_POINT('',(1.130905524854,-0.710622508017,
    4.364962261582));
#1007 = CARTESIAN_POINT('',(1.130914145327,4.248279491066E-07,
    4.484957329274));
#1008 = CARTESIAN_POINT('',(0.537809077647,3.304648221736E-16,0.35));
#1009 = CARTESIAN_POINT('',(0.537809077647,0.338046968335,0.469988011517
    ));
#1010 = CARTESIAN_POINT('',(0.301988565143,0.675606934052,0.590015559839
    ));
#1011 = CARTESIAN_POINT('',(-0.170456409614,0.827688852015,0.70995716224
    ));
#1012 = CARTESIAN_POINT('',(-0.709376390095,0.614937441858,
    0.830032034116));
#1013 = CARTESIAN_POINT('',(-0.995549656521,-1.024027441583E-06,
    0.949995650995));
#1014 = CARTESIAN_POINT('',(-0.709375121733,-0.614938904474,
    1.069959267394));
#1015 = CARTESIAN_POINT('',(-0.170454707739,-0.827689201938,
    1.190034139591));
#1016 = CARTESIAN_POINT('',(0.301989958014,-0.675606312493,
    1.309975741854));
#1017 = CARTESIAN_POINT('',(0.537809773289,-0.338045860835,
    1.430003290209));
#1018 = CARTESIAN_POINT('',(0.537809077687,1.10749895795E-06,
    1.549991301724));
#1019 = CARTESIAN_POINT('',(0.53780907757,0.338044832005,1.670004790217)
  );
#1020 = CARTESIAN_POINT('',(0.301988565261,0.675610203565,1.78998988113)
  );
#1021 = CARTESIAN_POINT('',(-0.170456409762,0.8276847891,1.909989072332)
  );
#1022 = CARTESIAN_POINT('',(-0.709376389944,0.614941579167,
    2.029999539732));
#1023 = CARTESIAN_POINT('',(-0.995549656647,-4.471784099245E-06,
    2.150022729648));
#1024 = CARTESIAN_POINT('',(-0.709375121648,-0.614936582808,
    2.269941033056));
#1025 = CARTESIAN_POINT('',(-0.170454707783,-0.827690428005,
    2.390043769107));
#1026 = CARTESIAN_POINT('',(0.301989958031,-0.675605837753,
    2.509972013252));
#1027 = CARTESIAN_POINT('',(0.537809773285,-0.338045971585,
    2.630004160039));
#1028 = CARTESIAN_POINT('',(0.537809077687,1.10749918515E-06,
    2.749991301722));
#1029 = CARTESIAN_POINT('',(0.53780907757,0.338044832004,2.870004790215)
  );
#1030 = CARTESIAN_POINT('',(0.301988565259,0.675610203569,2.989989881138
    ));
#1031 = CARTESIAN_POINT('',(-0.170456409757,0.827684789091,
    3.109989072322));
#1032 = CARTESIAN_POINT('',(-0.709376389952,0.61494157918,3.229999539735
    ));
#1033 = CARTESIAN_POINT('',(-0.995549656638,-4.471799377101E-06,
    3.350022729657));
#1034 = CARTESIAN_POINT('',(-0.709375121654,-0.614936582796,
    3.469941033037));
#1035 = CARTESIAN_POINT('',(-0.170454707781,-0.827690428013,
    3.590043769128));
#1036 = CARTESIAN_POINT('',(0.301989958031,-0.675605837749,
    3.709972013238));
#1037 = CARTESIAN_POINT('',(0.537809773285,-0.338045971587,
    3.830004160045));
#1038 = CARTESIAN_POINT('',(0.537809077687,1.107499354288E-06,
    3.949991301722));
#1039 = CARTESIAN_POINT('',(0.53780907757,0.338044832003,4.070004790223)
  );
#1040 = CARTESIAN_POINT('',(0.301988565262,0.675610203569,4.189989881119
    ));
#1041 = CARTESIAN_POINT('',(-0.170456409764,0.827684789094,
    4.309989072345));
#1042 = CARTESIAN_POINT('',(-0.709376389941,0.614941579174,
    4.429999539721));
#1043 = CARTESIAN_POINT('',(-0.995549656651,-4.471791264535E-06,
    4.55002272965));
#1044 = CARTESIAN_POINT('',(-0.709375121645,-0.614936582804,
    4.669941033063));
#1045 = CARTESIAN_POINT('',(-0.170454707786,-0.827690428007,
    4.790043769096));
#1046 = CARTESIAN_POINT('',(0.301989958032,-0.675605837752,
    4.909972013262));
#1047 = CARTESIAN_POINT('',(0.537809773285,-0.338045971585,
    5.030004160033));
#1048 = CARTESIAN_POINT('',(0.537809077687,1.107498892229E-06,
    5.149991301725));
#1049 = CARTESIAN_POINT('',(1.130908133308,-1.254205073131E-15,
    1.015039334136));
#1050 = CARTESIAN_POINT('',(1.130899847206,0.710619113731,1.135034735411
    ));
#1051 = CARTESIAN_POINT('',(0.634957248269,1.421533454576,1.255045302745
    ));
#1052 = CARTESIAN_POINT('',(-0.358180926306,1.73892675211,1.375022901942
    ));
#1053 = CARTESIAN_POINT('',(-1.492103845678,1.29443195289,1.495051621895
    ));
#1054 = CARTESIAN_POINT('',(-2.092978866597,-9.120608024525E-05,
    1.615037666439));
#1055 = CARTESIAN_POINT('',(-1.492054599668,-1.29427151809,
    1.735023708699));
#1056 = CARTESIAN_POINT('',(-0.358212575194,-1.739025622857,
    1.855052430329));
#1057 = CARTESIAN_POINT('',(0.634955249861,-1.421503571581,
    1.975030028631));
#1058 = CARTESIAN_POINT('',(1.130910674254,-0.710618688905,
    2.095040596292));
#1059 = CARTESIAN_POINT('',(1.130902121319,4.248347760466E-07,
    2.215035997491));
#1060 = CARTESIAN_POINT('',(1.130911444142,0.710618294238,2.335041171693
    ));
#1061 = CARTESIAN_POINT('',(0.634939499911,1.421534708757,2.455035452434
    ));
#1062 = CARTESIAN_POINT('',(-0.358158871002,1.738925193581,
    2.575035142602));
#1063 = CARTESIAN_POINT('',(-1.492126304827,1.294433539955,
    2.695039157101));
#1064 = CARTESIAN_POINT('',(-2.09296015064,-9.252863324366E-05,
    2.815048053767));
#1065 = CARTESIAN_POINT('',(-1.492067202698,-1.294270627505,
    2.935016714036));
#1066 = CARTESIAN_POINT('',(-0.35820591956,-1.739026093173,
    3.055056124196));
#1067 = CARTESIAN_POINT('',(0.634952672763,-1.421503389473,
    3.175028598345));
#1068 = CARTESIAN_POINT('',(1.130911275454,-0.710618731389,
    3.295040929957));
#1069 = CARTESIAN_POINT('',(1.130902121318,4.24835018234E-07,
    3.415035997491));
#1070 = CARTESIAN_POINT('',(1.130911444141,0.710618294238,3.535041171692
    ));
#1071 = CARTESIAN_POINT('',(0.634939499916,1.421534708754,3.655035452438
    ));
#1072 = CARTESIAN_POINT('',(-0.358158871009,1.738925193591,
    3.775035142597));
#1073 = CARTESIAN_POINT('',(-1.492126304825,1.294433539936,
    3.895039157104));
#1074 = CARTESIAN_POINT('',(-2.092960150634,-9.252861091131E-05,
    4.01504805377));
#1075 = CARTESIAN_POINT('',(-1.492067202711,-1.294270627522,
    4.135016714029));
#1076 = CARTESIAN_POINT('',(-0.358205919546,-1.739026093165,
    4.255056124204));
#1077 = CARTESIAN_POINT('',(0.634952672754,-1.421503389474,
    4.375028598339));
#1078 = CARTESIAN_POINT('',(1.130911275458,-0.710618731389,4.49504092996
    ));
#1079 = CARTESIAN_POINT('',(1.130902121318,4.248349592178E-07,
    4.615035997491));
#1080 = CARTESIAN_POINT('',(1.130911444146,0.710618294237,4.735041171695
    ));
#1081 = CARTESIAN_POINT('',(0.634939499904,1.421534708759,4.855035452429
    ));
#1082 = CARTESIAN_POINT('',(-0.358158870994,1.738925193573,
    4.975035142608));
#1083 = CARTESIAN_POINT('',(-1.492126304833,1.294433539971,
    5.095039157096));
#1084 = CARTESIAN_POINT('',(-2.092960150641,-9.252865340465E-05,
    5.215048053768));
#1085 = CARTESIAN_POINT('',(-1.492067202692,-1.294270627487,
    5.335016714039));
#1086 = CARTESIAN_POINT('',(-0.358205919569,-1.739026093182,
    5.455056124192));
#1087 = CARTESIAN_POINT('',(0.63495267277,-1.42150338947,5.575028598349)
  );
#1088 = CARTESIAN_POINT('',(1.13091127545,-0.710618731389,5.695040929955
    ));
#1089 = CARTESIAN_POINT('',(1.13090212132,4.248346795153E-07,
    5.815035997492));
#1090 = CARTESIAN_POINT('',(1.85,-2.050443148605E-15,0.93154007645));
#1091 = CARTESIAN_POINT('',(1.849992754262,1.162339775643,1.051544437298
    ));
#1092 = CARTESIAN_POINT('',(1.038659469483,2.325903351399,1.171534416447
    ));
#1093 = CARTESIAN_POINT('',(-0.585806891304,2.843812349447,
    1.291555658968));
#1094 = CARTESIAN_POINT('',(-2.441079810257,2.118169277148,1.41152842361
    ));
#1095 = CARTESIAN_POINT('',(-3.423543846557,-7.903868251285E-05,
    1.531541658905));
#1096 = CARTESIAN_POINT('',(-2.441037634171,-2.118027963156,
    1.651554892538));
#1097 = CARTESIAN_POINT('',(-0.58583575643,-2.843898561781,
    1.771527658422));
#1098 = CARTESIAN_POINT('',(1.03865674811,-2.325877654959,1.891548900257
    ));
#1099 = CARTESIAN_POINT('',(1.850001735533,-1.162340178505,
    2.011538879667));
#1100 = CARTESIAN_POINT('',(1.849994742821,-4.02853248007E-07,
    2.131543240452));
#1101 = CARTESIAN_POINT('',(1.850002895195,1.162340552735,2.251538334039
    ));
#1102 = CARTESIAN_POINT('',(1.038643949445,2.325902162111,2.371543757088
    ));
#1103 = CARTESIAN_POINT('',(-0.585787605059,2.843813827336,
    2.491544051659));
#1104 = CARTESIAN_POINT('',(-2.441099449644,2.118167772198,
    2.611540243455));
#1105 = CARTESIAN_POINT('',(-3.423527480402,-7.778455683458E-05,
    2.731531809035));
#1106 = CARTESIAN_POINT('',(-2.441048654881,-2.118028807665,
    2.851561525284));
#1107 = CARTESIAN_POINT('',(-0.585829936416,-2.843898115797,
    2.971524155682));
#1108 = CARTESIAN_POINT('',(1.038654494568,-2.325877827647,
    3.091550256537));
#1109 = CARTESIAN_POINT('',(1.850002261252,-1.16234013822,3.211538563267
    ));
#1110 = CARTESIAN_POINT('',(1.84999474282,-4.028532055176E-07,
    3.331543240452));
#1111 = CARTESIAN_POINT('',(1.850002895193,1.162340552735,3.45153833404)
  );
#1112 = CARTESIAN_POINT('',(1.03864394945,2.325902162108,3.571543757087)
  );
#1113 = CARTESIAN_POINT('',(-0.585787605067,2.843813827348,
    3.691544051658));
#1114 = CARTESIAN_POINT('',(-2.441099449639,2.118167772175,
    3.811540243458));
#1115 = CARTESIAN_POINT('',(-3.4235274804,-7.778452853198E-05,
    3.931531809028));
#1116 = CARTESIAN_POINT('',(-2.441048654888,-2.118028807689,
    4.051561525292));
#1117 = CARTESIAN_POINT('',(-0.585829936407,-2.843898115784,
    4.171524155675));
#1118 = CARTESIAN_POINT('',(1.038654494562,-2.325877827651,
    4.291550256541));
#1119 = CARTESIAN_POINT('',(1.850002261255,-1.162340138219,
    4.411538563265));
#1120 = CARTESIAN_POINT('',(1.849994742819,-4.028533770887E-07,
    4.531543240453));
#1121 = CARTESIAN_POINT('',(1.850002895198,1.162340552735,4.651538334037
    ));
#1122 = CARTESIAN_POINT('',(1.038643949438,2.325902162111,4.771543757091
    ));
#1123 = CARTESIAN_POINT('',(-0.585787605049,2.843813827332,
    4.891544051655));
#1124 = CARTESIAN_POINT('',(-2.441099449652,2.118167772208,
    5.011540243458));
#1125 = CARTESIAN_POINT('',(-3.423527480399,-7.778457098795E-05,
    5.131531809034));
#1126 = CARTESIAN_POINT('',(-2.441048654878,-2.118028807652,
    5.251561525283));
#1127 = CARTESIAN_POINT('',(-0.585829936422,-2.843898115805,
    5.371524155684));
#1128 = CARTESIAN_POINT('',(1.038654494574,-2.325877827644,
    5.491550256534));
#1129 = CARTESIAN_POINT('',(1.850002261248,-1.16234013822,5.611538563269
    ));
#1130 = CARTESIAN_POINT('',(1.849994742821,-4.028532949573E-07,
    5.731543240451));
#1131 = CARTESIAN_POINT('',(1.85,-1.413799632921E-15,0.35));
#1132 = CARTESIAN_POINT('',(1.85,1.162341426875,0.470004360849));
#1133 = CARTESIAN_POINT('',(1.038659837827,2.32589369599,0.589994340059)
  );
#1134 = CARTESIAN_POINT('',(-0.585821846401,2.843859558051,
    0.710015582372));
#1135 = CARTESIAN_POINT('',(-2.441061960443,2.118101897308,
    0.829988347488));
#1136 = CARTESIAN_POINT('',(-3.423548710329,3.724915046219E-07,
    0.950001581965));
#1137 = CARTESIAN_POINT('',(-2.441062421815,-2.118101365274,
    1.070014816615));
#1138 = CARTESIAN_POINT('',(-0.585822465461,-2.843859430768,
    1.189987581615));
#1139 = CARTESIAN_POINT('',(1.038659331165,-2.325893922083,
    1.310008823978));
#1140 = CARTESIAN_POINT('',(1.849999746958,-1.162341829732,
    1.429998803176));
#1141 = CARTESIAN_POINT('',(1.849999999985,-4.028562499269E-07,
    1.550003164026));
#1142 = CARTESIAN_POINT('',(1.850000000028,1.162342203972,1.669998257543
    ));
#1143 = CARTESIAN_POINT('',(1.038659837784,2.325892506692,1.79000368077)
  );
#1144 = CARTESIAN_POINT('',(-0.585821846347,2.843861035953,
    1.910003974975));
#1145 = CARTESIAN_POINT('',(-2.441061960497,2.118100392345,
    2.030000167422));
#1146 = CARTESIAN_POINT('',(-3.423548710284,1.626628160509E-06,
    2.14999173202));
#1147 = CARTESIAN_POINT('',(-2.441062421845,-2.11810220979,
    2.270021449411));
#1148 = CARTESIAN_POINT('',(-0.585822465445,-2.843858984781,
    2.389984078849));
#1149 = CARTESIAN_POINT('',(1.038659331159,-2.325894094772,
    2.510010180268));
#1150 = CARTESIAN_POINT('',(1.849999746959,-1.162341789446,
    2.629998486773));
#1151 = CARTESIAN_POINT('',(1.849999999985,-4.028563508913E-07,
    2.750003164026));
#1152 = CARTESIAN_POINT('',(1.850000000028,1.162342203972,2.869998257544
    ));
#1153 = CARTESIAN_POINT('',(1.038659837784,2.325892506693,2.990003680769
    ));
#1154 = CARTESIAN_POINT('',(-0.585821846348,2.843861035952,
    3.110003974975));
#1155 = CARTESIAN_POINT('',(-2.441061960495,2.118100392345,
    3.230000167425));
#1156 = CARTESIAN_POINT('',(-3.423548710287,1.626630011802E-06,
    3.349991732014));
#1157 = CARTESIAN_POINT('',(-2.441062421841,-2.118102209794,
    3.470021449419));
#1158 = CARTESIAN_POINT('',(-0.585822465448,-2.843858984777,
    3.589984078842));
#1159 = CARTESIAN_POINT('',(1.03865933116,-2.325894094773,3.710010180273
    ));
#1160 = CARTESIAN_POINT('',(1.849999746959,-1.162341789446,
    3.829998486771));
#1161 = CARTESIAN_POINT('',(1.849999999985,-4.028564154386E-07,
    3.950003164026));
#1162 = CARTESIAN_POINT('',(1.850000000028,1.162342203973,4.069998257541
    ));
#1163 = CARTESIAN_POINT('',(1.038659837783,2.325892506692,4.190003680774
    ));
#1164 = CARTESIAN_POINT('',(-0.585821846345,2.843861035954,
    4.310003974971));
#1165 = CARTESIAN_POINT('',(-2.441061960499,2.118100392344,
    4.430000167425));
#1166 = CARTESIAN_POINT('',(-3.423548710283,1.626627654925E-06,
    4.549991732019));
#1167 = CARTESIAN_POINT('',(-2.441062421846,-2.118102209789,
    4.670021449411));
#1168 = CARTESIAN_POINT('',(-0.585822465445,-2.843858984782,
    4.789984078851));
#1169 = CARTESIAN_POINT('',(1.038659331158,-2.325894094771,
    4.910010180265));
#1170 = CARTESIAN_POINT('',(1.849999746959,-1.162341789446,
    5.029998486775));
#1171 = CARTESIAN_POINT('',(1.849999999985,-4.028562355712E-07,
    5.150003164025));
#1172 = ADVANCED_FACE('',(#1173),#1176,.F.);
#1173 = FACE_BOUND('',#1174,.F.);
#1174 = EDGE_LOOP('',(#1175));
#1175 = ORIENTED_EDGE('',*,*,#875,.T.);
#1176 = PLANE('',#1177);
#1177 = AXIS2_PLACEMENT_3D('',#1178,#1179,#1180);
#1178 = CARTESIAN_POINT('',(1.500055448132,-1.090241083107E-15,0.35));
#1179 = DIRECTION('',(1.129724533513E-15,1.,6.707493568761E-16));
#1180 = DIRECTION('',(1.,-1.129724533513E-15,2.719026089012E-49));
#1181 = ADVANCED_FACE('',(#1182),#1185,.T.);
#1182 = FACE_BOUND('',#1183,.T.);
#1183 = EDGE_LOOP('',(#1184));
#1184 = ORIENTED_EDGE('',*,*,#864,.T.);
#1185 = PLANE('',#1186);
#1186 = AXIS2_PLACEMENT_3D('',#1187,#1188,#1189);
#1187 = CARTESIAN_POINT('',(1.500055448132,-6.382189394864E-11,
    5.150000000501));
#1188 = DIRECTION('',(1.151017815321E-06,0.999999999999,
    5.347436172026E-12));
#1189 = DIRECTION('',(0.999999999999,-1.151017815321E-06,
    -6.643486453568E-35));
#1190 = ( GEOMETRIC_REPRESENTATION_CONTEXT(3) 
GLOBAL_UNCERTAINTY_ASSIGNED_CONTEXT((#1194)) 
GLOBAL_UNIT_ASSIGNED_CONTEXT((#1191,#1192,#1193)) REPRESENTATION_CONTEXT
('Context #1','3D Context with UNIT and UNCERTAINTY') );
#1191 = ( LENGTH_UNIT() NAMED_UNIT(*) SI_UNIT(.MILLI.,.METRE.) );
#1192 = ( NAMED_UNIT(*) PLANE_ANGLE_UNIT() SI_UNIT($,.RADIAN.) );
#1193 = ( NAMED_UNIT(*) SI_UNIT($,.STERADIAN.) SOLID_ANGLE_UNIT() );
#1194 = UNCERTAINTY_MEASURE_WITH_UNIT(LENGTH_MEASURE(2.E-05),#1191,
  'distance_accuracy_value','confusion accuracy');
#1195 = CONTEXT_DEPENDENT_SHAPE_REPRESENTATION(#1196,#1198);
#1196 = ( REPRESENTATION_RELATIONSHIP('','',#809,#10) 
REPRESENTATION_RELATIONSHIP_WITH_TRANSFORMATION(#1197) 
SHAPE_REPRESENTATION_RELATIONSHIP() );
#1197 = ITEM_DEFINED_TRANSFORMATION('','',#11,#27);
#1198 = PRODUCT_DEFINITION_SHAPE('Placement','Placement of an item',
  #1199);
#1199 = NEXT_ASSEMBLY_USAGE_OCCURRENCE('54','spring','',#5,#804,$);
#1200 = PRODUCT_RELATED_PRODUCT_CATEGORY('part',$,(#806));
#1201 = SHAPE_DEFINITION_REPRESENTATION(#1202,#1208);
#1202 = PRODUCT_DEFINITION_SHAPE('','',#1203);
#1203 = PRODUCT_DEFINITION('design','',#1204,#1207);
#1204 = PRODUCT_DEFINITION_FORMATION('','',#1205);
#1205 = PRODUCT('port_1_P','port_1_P','',(#1206));
#1206 = PRODUCT_CONTEXT('',#2,'mechanical');
#1207 = PRODUCT_DEFINITION_CONTEXT('part definition',#2,'design');
#1208 = ADVANCED_BREP_SHAPE_REPRESENTATION('',(#11,#1209),#1301);
#1209 = MANIFOLD_SOLID_BREP('',#1210);
#1210 = CLOSED_SHELL('',(#1211,#1244,#1264,#1284));
#1211 = ADVANCED_FACE('',(#1212),#1239,.T.);
#1212 = FACE_BOUND('',#1213,.T.);
#1213 = EDGE_LOOP('',(#1214,#1223,#1231,#1238));
#1214 = ORIENTED_EDGE('',*,*,#1215,.F.);
#1215 = EDGE_CURVE('',#1216,#1216,#1218,.T.);
#1216 = VERTEX_POINT('',#1217);
#1217 = CARTESIAN_POINT('',(12.,7.5,33.));
#1218 = CIRCLE('',#1219,2.);
#1219 = AXIS2_PLACEMENT_3D('',#1220,#1221,#1222);
#1220 = CARTESIAN_POINT('',(10.,7.5,33.));
#1221 = DIRECTION('',(0.,0.,1.));
#1222 = DIRECTION('',(1.,0.,-0.));
#1223 = ORIENTED_EDGE('',*,*,#1224,.F.);
#1224 = EDGE_CURVE('',#1225,#1216,#1227,.T.);
#1225 = VERTEX_POINT('',#1226);
#1226 = CARTESIAN_POINT('',(12.,7.5,25.));
#1227 = LINE('',#1228,#1229);
#1228 = CARTESIAN_POINT('',(12.,7.5,25.));
#1229 = VECTOR('',#1230,1.);
#1230 = DIRECTION('',(0.,0.,1.));
#1231 = ORIENTED_EDGE('',*,*,#1232,.T.);
#1232 = EDGE_CURVE('',#1225,#1225,#1233,.T.);
#1233 = CIRCLE('',#1234,2.);
#1234 = AXIS2_PLACEMENT_3D('',#1235,#1236,#1237);
#1235 = CARTESIAN_POINT('',(10.,7.5,25.));
#1236 = DIRECTION('',(0.,0.,1.));
#1237 = DIRECTION('',(1.,0.,-0.));
#1238 = ORIENTED_EDGE('',*,*,#1224,.T.);
#1239 = CYLINDRICAL_SURFACE('',#1240,2.);
#1240 = AXIS2_PLACEMENT_3D('',#1241,#1242,#1243);
#1241 = CARTESIAN_POINT('',(10.,7.5,25.));
#1242 = DIRECTION('',(0.,0.,1.));
#1243 = DIRECTION('',(1.,0.,-0.));
#1244 = ADVANCED_FACE('',(#1245,#1248),#1259,.T.);
#1245 = FACE_BOUND('',#1246,.T.);
#1246 = EDGE_LOOP('',(#1247));
#1247 = ORIENTED_EDGE('',*,*,#1215,.T.);
#1248 = FACE_BOUND('',#1249,.T.);
#1249 = EDGE_LOOP('',(#1250));
#1250 = ORIENTED_EDGE('',*,*,#1251,.F.);
#1251 = EDGE_CURVE('',#1252,#1252,#1254,.T.);
#1252 = VERTEX_POINT('',#1253);
#1253 = CARTESIAN_POINT('',(10.9,7.5,33.));
#1254 = CIRCLE('',#1255,0.9);
#1255 = AXIS2_PLACEMENT_3D('',#1256,#1257,#1258);
#1256 = CARTESIAN_POINT('',(10.,7.5,33.));
#1257 = DIRECTION('',(0.,0.,1.));
#1258 = DIRECTION('',(1.,0.,-0.));
#1259 = PLANE('',#1260);
#1260 = AXIS2_PLACEMENT_3D('',#1261,#1262,#1263);
#1261 = CARTESIAN_POINT('',(10.,7.5,33.));
#1262 = DIRECTION('',(0.,0.,1.));
#1263 = DIRECTION('',(1.,0.,-0.));
#1264 = ADVANCED_FACE('',(#1265,#1268),#1279,.F.);
#1265 = FACE_BOUND('',#1266,.F.);
#1266 = EDGE_LOOP('',(#1267));
#1267 = ORIENTED_EDGE('',*,*,#1232,.T.);
#1268 = FACE_BOUND('',#1269,.F.);
#1269 = EDGE_LOOP('',(#1270));
#1270 = ORIENTED_EDGE('',*,*,#1271,.F.);
#1271 = EDGE_CURVE('',#1272,#1272,#1274,.T.);
#1272 = VERTEX_POINT('',#1273);
#1273 = CARTESIAN_POINT('',(10.9,7.5,25.));
#1274 = CIRCLE('',#1275,0.9);
#1275 = AXIS2_PLACEMENT_3D('',#1276,#1277,#1278);
#1276 = CARTESIAN_POINT('',(10.,7.5,25.));
#1277 = DIRECTION('',(0.,0.,1.));
#1278 = DIRECTION('',(1.,0.,-0.));
#1279 = PLANE('',#1280);
#1280 = AXIS2_PLACEMENT_3D('',#1281,#1282,#1283);
#1281 = CARTESIAN_POINT('',(10.,7.5,25.));
#1282 = DIRECTION('',(0.,0.,1.));
#1283 = DIRECTION('',(1.,0.,-0.));
#1284 = ADVANCED_FACE('',(#1285),#1296,.F.);
#1285 = FACE_BOUND('',#1286,.F.);
#1286 = EDGE_LOOP('',(#1287,#1288,#1294,#1295));
#1287 = ORIENTED_EDGE('',*,*,#1251,.F.);
#1288 = ORIENTED_EDGE('',*,*,#1289,.F.);
#1289 = EDGE_CURVE('',#1272,#1252,#1290,.T.);
#1290 = LINE('',#1291,#1292);
#1291 = CARTESIAN_POINT('',(10.9,7.5,24.5));
#1292 = VECTOR('',#1293,1.);
#1293 = DIRECTION('',(0.,0.,1.));
#1294 = ORIENTED_EDGE('',*,*,#1271,.T.);
#1295 = ORIENTED_EDGE('',*,*,#1289,.T.);
#1296 = CYLINDRICAL_SURFACE('',#1297,0.9);
#1297 = AXIS2_PLACEMENT_3D('',#1298,#1299,#1300);
#1298 = CARTESIAN_POINT('',(10.,7.5,24.5));
#1299 = DIRECTION('',(0.,0.,1.));
#1300 = DIRECTION('',(1.,0.,-0.));
#1301 = ( GEOMETRIC_REPRESENTATION_CONTEXT(3) 
GLOBAL_UNCERTAINTY_ASSIGNED_CONTEXT((#1305)) 
GLOBAL_UNIT_ASSIGNED_CONTEXT((#1302,#1303,#1304)) REPRESENTATION_CONTEXT
('Context #1','3D Context with UNIT and UNCERTAINTY') );
#1302 = ( LENGTH_UNIT() NAMED_UNIT(*) SI_UNIT(.MILLI.,.METRE.) );
#1303 = ( NAMED_UNIT(*) PLANE_ANGLE_UNIT() SI_UNIT($,.RADIAN.) );
#1304 = ( NAMED_UNIT(*) SI_UNIT($,.STERADIAN.) SOLID_ANGLE_UNIT() );
#1305 = UNCERTAINTY_MEASURE_WITH_UNIT(LENGTH_MEASURE(1.E-07),#1302,
  'distance_accuracy_value','confusion accuracy');
#1306 = CONTEXT_DEPENDENT_SHAPE_REPRESENTATION(#1307,#1309);
#1307 = ( REPRESENTATION_RELATIONSHIP('','',#1208,#10) 
REPRESENTATION_RELATIONSHIP_WITH_TRANSFORMATION(#1308) 
SHAPE_REPRESENTATION_RELATIONSHIP() );
#1308 = ITEM_DEFINED_TRANSFORMATION('','',#11,#31);
#1309 = PRODUCT_DEFINITION_SHAPE('Placement','Placement of an item',
  #1310);
#1310 = NEXT_ASSEMBLY_USAGE_OCCURRENCE('55','port_1_P','',#5,#1203,$);
#1311 = PRODUCT_RELATED_PRODUCT_CATEGORY('part',$,(#1205));
#1312 = SHAPE_DEFINITION_REPRESENTATION(#1313,#1319);
#1313 = PRODUCT_DEFINITION_SHAPE('','',#1314);
#1314 = PRODUCT_DEFINITION('design','',#1315,#1318);
#1315 = PRODUCT_DEFINITION_FORMATION('','',#1316);
#1316 = PRODUCT('port_2_A','port_2_A','',(#1317));
#1317 = PRODUCT_CONTEXT('',#2,'mechanical');
#1318 = PRODUCT_DEFINITION_CONTEXT('part definition',#2,'design');
#1319 = ADVANCED_BREP_SHAPE_REPRESENTATION('',(#11,#1320),#1412);
#1320 = MANIFOLD_SOLID_BREP('',#1321);
#1321 = CLOSED_SHELL('',(#1322,#1355,#1375,#1395));
#1322 = ADVANCED_FACE('',(#1323),#1350,.T.);
#1323 = FACE_BOUND('',#1324,.T.);
#1324 = EDGE_LOOP('',(#1325,#1334,#1342,#1349));
#1325 = ORIENTED_EDGE('',*,*,#1326,.F.);
#1326 = EDGE_CURVE('',#1327,#1327,#1329,.T.);
#1327 = VERTEX_POINT('',#1328);
#1328 = CARTESIAN_POINT('',(28.,7.5,19.));
#1329 = CIRCLE('',#1330,2.);
#1330 = AXIS2_PLACEMENT_3D('',#1331,#1332,#1333);
#1331 = CARTESIAN_POINT('',(28.,7.5,17.));
#1332 = DIRECTION('',(1.,0.,0.));
#1333 = DIRECTION('',(-0.,0.,1.));
#1334 = ORIENTED_EDGE('',*,*,#1335,.F.);
#1335 = EDGE_CURVE('',#1336,#1327,#1338,.T.);
#1336 = VERTEX_POINT('',#1337);
#1337 = CARTESIAN_POINT('',(20.,7.5,19.));
#1338 = LINE('',#1339,#1340);
#1339 = CARTESIAN_POINT('',(20.,7.5,19.));
#1340 = VECTOR('',#1341,1.);
#1341 = DIRECTION('',(1.,0.,0.));
#1342 = ORIENTED_EDGE('',*,*,#1343,.T.);
#1343 = EDGE_CURVE('',#1336,#1336,#1344,.T.);
#1344 = CIRCLE('',#1345,2.);
#1345 = AXIS2_PLACEMENT_3D('',#1346,#1347,#1348);
#1346 = CARTESIAN_POINT('',(20.,7.5,17.));
#1347 = DIRECTION('',(1.,0.,0.));
#1348 = DIRECTION('',(-0.,0.,1.));
#1349 = ORIENTED_EDGE('',*,*,#1335,.T.);
#1350 = CYLINDRICAL_SURFACE('',#1351,2.);
#1351 = AXIS2_PLACEMENT_3D('',#1352,#1353,#1354);
#1352 = CARTESIAN_POINT('',(20.,7.5,17.));
#1353 = DIRECTION('',(1.,0.,0.));
#1354 = DIRECTION('',(-0.,0.,1.));
#1355 = ADVANCED_FACE('',(#1356,#1359),#1370,.T.);
#1356 = FACE_BOUND('',#1357,.T.);
#1357 = EDGE_LOOP('',(#1358));
#1358 = ORIENTED_EDGE('',*,*,#1326,.T.);
#1359 = FACE_BOUND('',#1360,.T.);
#1360 = EDGE_LOOP('',(#1361));
#1361 = ORIENTED_EDGE('',*,*,#1362,.F.);
#1362 = EDGE_CURVE('',#1363,#1363,#1365,.T.);
#1363 = VERTEX_POINT('',#1364);
#1364 = CARTESIAN_POINT('',(28.,7.5,17.9));
#1365 = CIRCLE('',#1366,0.9);
#1366 = AXIS2_PLACEMENT_3D('',#1367,#1368,#1369);
#1367 = CARTESIAN_POINT('',(28.,7.5,17.));
#1368 = DIRECTION('',(1.,0.,0.));
#1369 = DIRECTION('',(-0.,0.,1.));
#1370 = PLANE('',#1371);
#1371 = AXIS2_PLACEMENT_3D('',#1372,#1373,#1374);
#1372 = CARTESIAN_POINT('',(28.,7.5,17.));
#1373 = DIRECTION('',(1.,0.,0.));
#1374 = DIRECTION('',(-0.,0.,1.));
#1375 = ADVANCED_FACE('',(#1376,#1379),#1390,.F.);
#1376 = FACE_BOUND('',#1377,.F.);
#1377 = EDGE_LOOP('',(#1378));
#1378 = ORIENTED_EDGE('',*,*,#1343,.T.);
#1379 = FACE_BOUND('',#1380,.F.);
#1380 = EDGE_LOOP('',(#1381));
#1381 = ORIENTED_EDGE('',*,*,#1382,.F.);
#1382 = EDGE_CURVE('',#1383,#1383,#1385,.T.);
#1383 = VERTEX_POINT('',#1384);
#1384 = CARTESIAN_POINT('',(20.,7.5,17.9));
#1385 = CIRCLE('',#1386,0.9);
#1386 = AXIS2_PLACEMENT_3D('',#1387,#1388,#1389);
#1387 = CARTESIAN_POINT('',(20.,7.5,17.));
#1388 = DIRECTION('',(1.,0.,0.));
#1389 = DIRECTION('',(-0.,0.,1.));
#1390 = PLANE('',#1391);
#1391 = AXIS2_PLACEMENT_3D('',#1392,#1393,#1394);
#1392 = CARTESIAN_POINT('',(20.,7.5,17.));
#1393 = DIRECTION('',(1.,0.,0.));
#1394 = DIRECTION('',(-0.,0.,1.));
#1395 = ADVANCED_FACE('',(#1396),#1407,.F.);
#1396 = FACE_BOUND('',#1397,.F.);
#1397 = EDGE_LOOP('',(#1398,#1399,#1405,#1406));
#1398 = ORIENTED_EDGE('',*,*,#1362,.F.);
#1399 = ORIENTED_EDGE('',*,*,#1400,.F.);
#1400 = EDGE_CURVE('',#1383,#1363,#1401,.T.);
#1401 = LINE('',#1402,#1403);
#1402 = CARTESIAN_POINT('',(19.5,7.5,17.9));
#1403 = VECTOR('',#1404,1.);
#1404 = DIRECTION('',(1.,0.,0.));
#1405 = ORIENTED_EDGE('',*,*,#1382,.T.);
#1406 = ORIENTED_EDGE('',*,*,#1400,.T.);
#1407 = CYLINDRICAL_SURFACE('',#1408,0.9);
#1408 = AXIS2_PLACEMENT_3D('',#1409,#1410,#1411);
#1409 = CARTESIAN_POINT('',(19.5,7.5,17.));
#1410 = DIRECTION('',(1.,0.,0.));
#1411 = DIRECTION('',(-0.,0.,1.));
#1412 = ( GEOMETRIC_REPRESENTATION_CONTEXT(3) 
GLOBAL_UNCERTAINTY_ASSIGNED_CONTEXT((#1416)) 
GLOBAL_UNIT_ASSIGNED_CONTEXT((#1413,#1414,#1415)) REPRESENTATION_CONTEXT
('Context #1','3D Context with UNIT and UNCERTAINTY') );
#1413 = ( LENGTH_UNIT() NAMED_UNIT(*) SI_UNIT(.MILLI.,.METRE.) );
#1414 = ( NAMED_UNIT(*) PLANE_ANGLE_UNIT() SI_UNIT($,.RADIAN.) );
#1415 = ( NAMED_UNIT(*) SI_UNIT($,.STERADIAN.) SOLID_ANGLE_UNIT() );
#1416 = UNCERTAINTY_MEASURE_WITH_UNIT(LENGTH_MEASURE(1.E-07),#1413,
  'distance_accuracy_value','confusion accuracy');
#1417 = CONTEXT_DEPENDENT_SHAPE_REPRESENTATION(#1418,#1420);
#1418 = ( REPRESENTATION_RELATIONSHIP('','',#1319,#10) 
REPRESENTATION_RELATIONSHIP_WITH_TRANSFORMATION(#1419) 
SHAPE_REPRESENTATION_RELATIONSHIP() );
#1419 = ITEM_DEFINED_TRANSFORMATION('','',#11,#35);
#1420 = PRODUCT_DEFINITION_SHAPE('Placement','Placement of an item',
  #1421);
#1421 = NEXT_ASSEMBLY_USAGE_OCCURRENCE('56','port_2_A','',#5,#1314,$);
#1422 = PRODUCT_RELATED_PRODUCT_CATEGORY('part',$,(#1316));
#1423 = SHAPE_DEFINITION_REPRESENTATION(#1424,#1430);
#1424 = PRODUCT_DEFINITION_SHAPE('','',#1425);
#1425 = PRODUCT_DEFINITION('design','',#1426,#1429);
#1426 = PRODUCT_DEFINITION_FORMATION('','',#1427);
#1427 = PRODUCT('wire_red','wire_red','',(#1428));
#1428 = PRODUCT_CONTEXT('',#2,'mechanical');
#1429 = PRODUCT_DEFINITION_CONTEXT('part definition',#2,'design');
#1430 = ADVANCED_BREP_SHAPE_REPRESENTATION('',(#11,#1431),#1484);
#1431 = MANIFOLD_SOLID_BREP('',#1432);
#1432 = CLOSED_SHELL('',(#1433,#1466,#1475));
#1433 = ADVANCED_FACE('',(#1434),#1461,.T.);
#1434 = FACE_BOUND('',#1435,.T.);
#1435 = EDGE_LOOP('',(#1436,#1445,#1453,#1460));
#1436 = ORIENTED_EDGE('',*,*,#1437,.F.);
#1437 = EDGE_CURVE('',#1438,#1438,#1440,.T.);
#1438 = VERTEX_POINT('',#1439);
#1439 = CARTESIAN_POINT('',(-12.,7.5,5.4));
#1440 = CIRCLE('',#1441,0.6);
#1441 = AXIS2_PLACEMENT_3D('',#1442,#1443,#1444);
#1442 = CARTESIAN_POINT('',(-12.,7.5,6.));
#1443 = DIRECTION('',(-1.,0.,0.));
#1444 = DIRECTION('',(0.,0.,-1.));
#1445 = ORIENTED_EDGE('',*,*,#1446,.F.);
#1446 = EDGE_CURVE('',#1447,#1438,#1449,.T.);
#1447 = VERTEX_POINT('',#1448);
#1448 = CARTESIAN_POINT('',(0.,7.5,5.4));
#1449 = LINE('',#1450,#1451);
#1450 = CARTESIAN_POINT('',(0.,7.5,5.4));
#1451 = VECTOR('',#1452,1.);
#1452 = DIRECTION('',(-1.,0.,0.));
#1453 = ORIENTED_EDGE('',*,*,#1454,.T.);
#1454 = EDGE_CURVE('',#1447,#1447,#1455,.T.);
#1455 = CIRCLE('',#1456,0.6);
#1456 = AXIS2_PLACEMENT_3D('',#1457,#1458,#1459);
#1457 = CARTESIAN_POINT('',(0.,7.5,6.));
#1458 = DIRECTION('',(-1.,0.,0.));
#1459 = DIRECTION('',(0.,0.,-1.));
#1460 = ORIENTED_EDGE('',*,*,#1446,.T.);
#1461 = CYLINDRICAL_SURFACE('',#1462,0.6);
#1462 = AXIS2_PLACEMENT_3D('',#1463,#1464,#1465);
#1463 = CARTESIAN_POINT('',(0.,7.5,6.));
#1464 = DIRECTION('',(-1.,0.,0.));
#1465 = DIRECTION('',(0.,0.,-1.));
#1466 = ADVANCED_FACE('',(#1467),#1470,.T.);
#1467 = FACE_BOUND('',#1468,.T.);
#1468 = EDGE_LOOP('',(#1469));
#1469 = ORIENTED_EDGE('',*,*,#1437,.T.);
#1470 = PLANE('',#1471);
#1471 = AXIS2_PLACEMENT_3D('',#1472,#1473,#1474);
#1472 = CARTESIAN_POINT('',(-12.,7.5,6.));
#1473 = DIRECTION('',(-1.,0.,0.));
#1474 = DIRECTION('',(0.,0.,-1.));
#1475 = ADVANCED_FACE('',(#1476),#1479,.F.);
#1476 = FACE_BOUND('',#1477,.T.);
#1477 = EDGE_LOOP('',(#1478));
#1478 = ORIENTED_EDGE('',*,*,#1454,.F.);
#1479 = PLANE('',#1480);
#1480 = AXIS2_PLACEMENT_3D('',#1481,#1482,#1483);
#1481 = CARTESIAN_POINT('',(0.,7.5,6.));
#1482 = DIRECTION('',(-1.,0.,0.));
#1483 = DIRECTION('',(0.,0.,-1.));
#1484 = ( GEOMETRIC_REPRESENTATION_CONTEXT(3) 
GLOBAL_UNCERTAINTY_ASSIGNED_CONTEXT((#1488)) 
GLOBAL_UNIT_ASSIGNED_CONTEXT((#1485,#1486,#1487)) REPRESENTATION_CONTEXT
('Context #1','3D Context with UNIT and UNCERTAINTY') );
#1485 = ( LENGTH_UNIT() NAMED_UNIT(*) SI_UNIT(.MILLI.,.METRE.) );
#1486 = ( NAMED_UNIT(*) PLANE_ANGLE_UNIT() SI_UNIT($,.RADIAN.) );
#1487 = ( NAMED_UNIT(*) SI_UNIT($,.STERADIAN.) SOLID_ANGLE_UNIT() );
#1488 = UNCERTAINTY_MEASURE_WITH_UNIT(LENGTH_MEASURE(1.E-07),#1485,
  'distance_accuracy_value','confusion accuracy');
#1489 = CONTEXT_DEPENDENT_SHAPE_REPRESENTATION(#1490,#1492);
#1490 = ( REPRESENTATION_RELATIONSHIP('','',#1430,#10) 
REPRESENTATION_RELATIONSHIP_WITH_TRANSFORMATION(#1491) 
SHAPE_REPRESENTATION_RELATIONSHIP() );
#1491 = ITEM_DEFINED_TRANSFORMATION('','',#11,#39);
#1492 = PRODUCT_DEFINITION_SHAPE('Placement','Placement of an item',
  #1493);
#1493 = NEXT_ASSEMBLY_USAGE_OCCURRENCE('57','wire_red','',#5,#1425,$);
#1494 = PRODUCT_RELATED_PRODUCT_CATEGORY('part',$,(#1427));
#1495 = SHAPE_DEFINITION_REPRESENTATION(#1496,#1502);
#1496 = PRODUCT_DEFINITION_SHAPE('','',#1497);
#1497 = PRODUCT_DEFINITION('design','',#1498,#1501);
#1498 = PRODUCT_DEFINITION_FORMATION('','',#1499);
#1499 = PRODUCT('wire_black','wire_black','',(#1500));
#1500 = PRODUCT_CONTEXT('',#2,'mechanical');
#1501 = PRODUCT_DEFINITION_CONTEXT('part definition',#2,'design');
#1502 = ADVANCED_BREP_SHAPE_REPRESENTATION('',(#11,#1503),#1556);
#1503 = MANIFOLD_SOLID_BREP('',#1504);
#1504 = CLOSED_SHELL('',(#1505,#1538,#1547));
#1505 = ADVANCED_FACE('',(#1506),#1533,.T.);
#1506 = FACE_BOUND('',#1507,.T.);
#1507 = EDGE_LOOP('',(#1508,#1517,#1525,#1532));
#1508 = ORIENTED_EDGE('',*,*,#1509,.F.);
#1509 = EDGE_CURVE('',#1510,#1510,#1512,.T.);
#1510 = VERTEX_POINT('',#1511);
#1511 = CARTESIAN_POINT('',(-12.,7.5,8.4));
#1512 = CIRCLE('',#1513,0.6);
#1513 = AXIS2_PLACEMENT_3D('',#1514,#1515,#1516);
#1514 = CARTESIAN_POINT('',(-12.,7.5,9.));
#1515 = DIRECTION('',(-1.,0.,0.));
#1516 = DIRECTION('',(0.,0.,-1.));
#1517 = ORIENTED_EDGE('',*,*,#1518,.F.);
#1518 = EDGE_CURVE('',#1519,#1510,#1521,.T.);
#1519 = VERTEX_POINT('',#1520);
#1520 = CARTESIAN_POINT('',(0.,7.5,8.4));
#1521 = LINE('',#1522,#1523);
#1522 = CARTESIAN_POINT('',(0.,7.5,8.4));
#1523 = VECTOR('',#1524,1.);
#1524 = DIRECTION('',(-1.,0.,0.));
#1525 = ORIENTED_EDGE('',*,*,#1526,.T.);
#1526 = EDGE_CURVE('',#1519,#1519,#1527,.T.);
#1527 = CIRCLE('',#1528,0.6);
#1528 = AXIS2_PLACEMENT_3D('',#1529,#1530,#1531);
#1529 = CARTESIAN_POINT('',(0.,7.5,9.));
#1530 = DIRECTION('',(-1.,0.,0.));
#1531 = DIRECTION('',(0.,0.,-1.));
#1532 = ORIENTED_EDGE('',*,*,#1518,.T.);
#1533 = CYLINDRICAL_SURFACE('',#1534,0.6);
#1534 = AXIS2_PLACEMENT_3D('',#1535,#1536,#1537);
#1535 = CARTESIAN_POINT('',(0.,7.5,9.));
#1536 = DIRECTION('',(-1.,0.,0.));
#1537 = DIRECTION('',(0.,0.,-1.));
#1538 = ADVANCED_FACE('',(#1539),#1542,.T.);
#1539 = FACE_BOUND('',#1540,.T.);
#1540 = EDGE_LOOP('',(#1541));
#1541 = ORIENTED_EDGE('',*,*,#1509,.T.);
#1542 = PLANE('',#1543);
#1543 = AXIS2_PLACEMENT_3D('',#1544,#1545,#1546);
#1544 = CARTESIAN_POINT('',(-12.,7.5,9.));
#1545 = DIRECTION('',(-1.,0.,0.));
#1546 = DIRECTION('',(0.,0.,-1.));
#1547 = ADVANCED_FACE('',(#1548),#1551,.F.);
#1548 = FACE_BOUND('',#1549,.T.);
#1549 = EDGE_LOOP('',(#1550));
#1550 = ORIENTED_EDGE('',*,*,#1526,.F.);
#1551 = PLANE('',#1552);
#1552 = AXIS2_PLACEMENT_3D('',#1553,#1554,#1555);
#1553 = CARTESIAN_POINT('',(0.,7.5,9.));
#1554 = DIRECTION('',(-1.,0.,0.));
#1555 = DIRECTION('',(0.,0.,-1.));
#1556 = ( GEOMETRIC_REPRESENTATION_CONTEXT(3) 
GLOBAL_UNCERTAINTY_ASSIGNED_CONTEXT((#1560)) 
GLOBAL_UNIT_ASSIGNED_CONTEXT((#1557,#1558,#1559)) REPRESENTATION_CONTEXT
('Context #1','3D Context with UNIT and UNCERTAINTY') );
#1557 = ( LENGTH_UNIT() NAMED_UNIT(*) SI_UNIT(.MILLI.,.METRE.) );
#1558 = ( NAMED_UNIT(*) PLANE_ANGLE_UNIT() SI_UNIT($,.RADIAN.) );
#1559 = ( NAMED_UNIT(*) SI_UNIT($,.STERADIAN.) SOLID_ANGLE_UNIT() );
#1560 = UNCERTAINTY_MEASURE_WITH_UNIT(LENGTH_MEASURE(1.E-07),#1557,
  'distance_accuracy_value','confusion accuracy');
#1561 = CONTEXT_DEPENDENT_SHAPE_REPRESENTATION(#1562,#1564);
#1562 = ( REPRESENTATION_RELATIONSHIP('','',#1502,#10) 
REPRESENTATION_RELATIONSHIP_WITH_TRANSFORMATION(#1563) 
SHAPE_REPRESENTATION_RELATIONSHIP() );
#1563 = ITEM_DEFINED_TRANSFORMATION('','',#11,#43);
#1564 = PRODUCT_DEFINITION_SHAPE('Placement','Placement of an item',
  #1565);
#1565 = NEXT_ASSEMBLY_USAGE_OCCURRENCE('58','wire_black','',#5,#1497,$);
#1566 = PRODUCT_RELATED_PRODUCT_CATEGORY('part',$,(#1499));
ENDSEC;
END-ISO-10303-21;
